<?xml version="1.0" standalone="no"?>
<!DOCTYPE svg PUBLIC "-//W3C//DTD SVG 1.1//EN" "http://www.w3.org/Graphics/SVG/1.1/DTD/svg11.dtd" >
<svg>
<metadata>
Created by FontForge 20090914 at Sun Mar 20 10:46:56 2022
 By www-data
</metadata>
<defs>
<font id="FactorAMedium-Regular" horiz-adv-x="530" >
  <font-face 
    font-family="Factor A Medium"
    font-weight="500"
    font-stretch="normal"
    units-per-em="2048"
    panose-1="0 0 0 0 0 0 0 0 0 0"
    ascent="1638"
    descent="-410"
    x-height="1018"
    cap-height="1536"
    bbox="-111 -469.001 2214 2001"
    underline-thickness="116"
    underline-position="-373"
    unicode-range="U+0020-U+2013"
  />
<missing-glyph horiz-adv-x="1409" 
 />
    <glyph glyph-name="i_f" unicode="fi" horiz-adv-x="1333" 
d="M1204 1350c0 -38.667 -13 -71 -39 -97s-58.667 -39 -98 -39c-38 0 -70 13.167 -96 39.5s-39 58.5 -39 96.5s13 69.667 39 95s58 38 96 38c40 0 72.833 -12.667 98.5 -38s38.5 -57 38.5 -95zM1174 0h-211v1018h211v-1018zM819 1018l-0.000976562 -184.002h-356v-834h-211
v834h-242v55l113 129h129v170c0 110 34.667 198.667 104 266c68.667 66.667 154.667 100 258 100c50.667 0 106.667 -9.33301 168 -28l-43 -183c-4 1.33301 -12.167 3.83301 -24.5 7.5s-21.666 6.33398 -27.999 8.00098s-14.5 3.33398 -24.5 5.00098s-19.667 2.5 -29 2.5
c-55.333 0 -97.5 -14.833 -126.5 -44.5s-43.5 -73.5 -43.5 -131.5v-172h356z" />
    <glyph glyph-name="l_f" unicode="fl" horiz-adv-x="1333" 
d="M1174 0h-211v1536h211v-1536zM819 1018l-0.000976562 -184.002h-356v-834h-211v834h-242v55l113 129h129v170c0 110 34.667 198.667 104 266c68.667 66.667 154.667 100 258 100c50.667 0 106.667 -9.33301 168 -28l-43 -183c-4 1.33301 -12.167 3.83301 -24.5 7.5
s-21.666 6.33398 -27.999 8.00098s-14.5 3.33398 -24.5 5.00098s-19.667 2.5 -29 2.5c-55.333 0 -97.5 -14.833 -126.5 -44.5s-43.5 -73.5 -43.5 -131.5v-172h356z" />
    <glyph glyph-name="_061" unicode="ff" horiz-adv-x="1521" 
d="M463 1190l-0.00195312 -172.003h479v170c0 109.333 35 198 105 266c68.667 66.667 154 100 256 100c52 0 108.667 -9.33301 170 -28l-43 -183c-3.33301 1.33301 -11.5 3.83301 -24.5 7.5l-28.5 8c-6 1.66699 -14.167 3.33398 -24.5 5.00098s-20.166 2.5 -29.499 2.5
c-55.333 0 -97.5 -14.833 -126.5 -44.5s-43.5 -73.5 -43.5 -131.5v-172h354v-184h-354v-834h-211v834h-479v-834h-211v834h-242v55l113 129h129v170c0 110 34.667 198.667 104 266c68.667 66.667 154.667 100 258 100c50.667 0 106.667 -9.33301 168 -28l-43 -183
c-4 1.33301 -12.167 3.83301 -24.5 7.5s-21.666 6.33398 -27.999 8.00098s-14.5 3.33398 -24.5 5.00098s-19.667 2.5 -29 2.5c-54 0 -95.833 -15 -125.5 -45s-44.5 -73.667 -44.5 -131z" />
    <glyph glyph-name=".notdef" horiz-adv-x="1409" 
 />
    <glyph glyph-name="space" unicode=" " horiz-adv-x="450" 
 />
    <glyph glyph-name="exclam" unicode="!" horiz-adv-x="704" 
d="M262 481l-35 1055h250l-33 -1055h-182zM352 -20c-42 0 -77.001 13.333 -105.001 40s-42 61 -42 103c0 43.333 13.833 78.333 41.5 105s62.834 40 105.501 40c44 0 79.667 -13.167 107 -39.5s41 -61.5 41 -105.5c0 -42 -13.667 -76.333 -41 -103s-63 -40 -107 -40z" />
    <glyph glyph-name="comma" unicode="," horiz-adv-x="501" 
d="M414 252l-187 -574h-174l117 574h244z" />
    <glyph glyph-name="hyphen" unicode="-" horiz-adv-x="827" 
d="M725 502h-623v198h623v-198z" />
    <glyph glyph-name="period" unicode="." horiz-adv-x="505" 
d="M254 -20c-42.667 0 -78.335 13.5 -107.002 40.5s-43 61.167 -43 102.5c0 43.333 14.333 78.333 43 105s64.334 40 107.001 40s77.834 -13.333 105.501 -40s41.5 -61.667 41.5 -105c0 -42 -14 -76.333 -42 -103s-63 -40 -105 -40z" />
    <glyph glyph-name="zero" unicode="0" horiz-adv-x="1394" 
d="M1262 772c0 -246 -51.333 -439 -154 -579c-104 -140.667 -240.667 -211 -410 -211s-305 70.333 -407 211c-104 139.333 -156 332.333 -156 579c0 245.333 52 437.333 156 576c102 137.333 237.667 206 407 206s306 -68.667 410 -206c102.667 -140 154 -332 154 -576z
M698 188c108.667 0 191.167 52.001 247.5 156.001s84.5 246.667 84.5 428c0 178 -28.167 318.5 -84.5 421.5s-138.833 154.5 -247.5 154.5c-109.333 0 -192.166 -51.333 -248.499 -154s-84.5 -243.334 -84.5 -422.001c0 -181.333 28.167 -324 84.5 -428
s139.166 -156 248.499 -156z" />
    <glyph glyph-name="one" unicode="1" horiz-adv-x="804" 
d="M582 0h-224.001v1149h-297v135c90.667 4.66699 166.834 30.667 228.501 78s101.167 105.333 118.5 174h174v-1536z" />
    <glyph glyph-name="two" unicode="2" horiz-adv-x="1196" 
d="M428 215l680.002 0.00195312v-215h-997v184l378 381c132 130 222.833 231.667 272.5 305s74.5 146.666 74.5 219.999c0 77.333 -23.5 139.666 -70.5 186.999s-109.5 71 -187.5 71c-72 0 -135.5 -22.5 -190.5 -67.5s-88.5 -111.5 -100.5 -199.5l-221 43
c24 138 83.667 244.167 179 318.5s209.666 111.5 342.999 111.5c142 0 257.333 -42.333 346 -127s133 -195 133 -331c0 -52 -7.16699 -101 -21.5 -147s-39.333 -95 -75 -147s-75.834 -103 -120.501 -153s-104.667 -112.667 -180 -188z" />
    <glyph glyph-name="three" unicode="3" horiz-adv-x="1245" 
d="M602 -18c-66 0 -127.834 8.49902 -185.501 25.499s-110.834 42.667 -159.501 77s-89.667 79.833 -123 136.5s-56 122.334 -68 197.001l223 59c13.333 -92.667 47.333 -163.667 102 -213s125 -74 211 -74c84.667 0 155 22.667 211 68s84 109 84 191
c0 72.667 -24 130.667 -72 174s-111.333 65 -190 65h-150v207h125c72 0 131.667 20 179 60s71 95.667 71 167c0 68 -23.167 123 -69.5 165s-106.5 63 -180.5 63c-70 0 -131.167 -19.667 -183.5 -59s-85.833 -96.333 -100.5 -171l-217 49
c27.333 123.333 87.333 218.333 180 285c92 66.667 202.667 100 332 100c142 0 255.333 -37.333 340 -112c84 -76 126 -175 126 -297c0 -143.333 -68.667 -256 -206 -338c80 -29.333 141.167 -76 183.5 -140s63.5 -139.667 63.5 -227c0 -92.667 -23.667 -174.167 -71 -244.5
s-110.666 -123.5 -189.999 -159.5s-167.666 -54 -264.999 -54z" />
    <glyph glyph-name="four" unicode="4" horiz-adv-x="1249" 
d="M987 0h-223v348h-717v195l655 993h285v-983h213v-205h-213v-348zM764 1274l-477 -721h477v721z" />
    <glyph glyph-name="five" unicode="5" horiz-adv-x="1234" 
d="M1143 504c0 -153.333 -50.001 -278.668 -150.001 -376.001s-231.667 -146 -395 -146c-88 0 -168.167 14 -240.5 42s-134.666 72.833 -186.999 134.5s-86.5 136.5 -102.5 224.5l225 59c12.667 -84 47.5 -147 104.5 -189s123.833 -63 200.5 -63
c93.333 0 168.833 28.167 226.5 84.5s86.5 130.833 86.5 223.5c0 90.667 -28.5 164.834 -85.5 222.501s-130.167 86.5 -219.5 86.5c-57.333 0 -108.833 -10.5 -154.5 -31.5s-80.834 -50.167 -105.501 -87.5l-186 53l129 795h788v-203h-606l-65 -389c72 38 151.667 57 239 57
c148.667 0 268.834 -46.167 360.501 -138.5s137.5 -211.833 137.5 -358.5z" />
    <glyph glyph-name="six" unicode="6" horiz-adv-x="1222" 
d="M608 -18c-152 0 -277.667 45.167 -377 135.5s-149 209.5 -149 357.5c0 127.333 40.333 250.333 121 369l452 692h256l-383 -573c36.667 9.33301 76.334 14 119.001 14c144 0 263 -44.833 357 -134.5s141 -206.5 141 -350.5c0 -152 -50.833 -275 -152.5 -369
s-229.834 -141 -384.501 -141zM608 190c89.333 0 162.501 28.168 219.501 84.501s85.5 129.5 85.5 219.5c0 85.333 -28.833 155 -86.5 209s-129.834 81 -216.501 81c-85.333 0 -155 -25 -209 -75c-61.333 -57.333 -92 -131.333 -92 -222
c0 -86.667 28.167 -157.834 84.5 -213.501s127.833 -83.5 214.5 -83.5z" />
    <glyph glyph-name="seven" unicode="7" horiz-adv-x="1105" 
d="M393 0h-239l651 1331h-752v205h998v-188z" />
    <glyph glyph-name="eight" unicode="8" horiz-adv-x="1323" 
d="M662 -18c-100 0 -190.332 17.335 -270.999 52.002s-145.834 87.167 -195.501 157.5s-74.5 153.166 -74.5 248.499c0 89.333 23.833 168 71.5 236s111.834 117 192.501 147c-60 30 -107.833 73.167 -143.5 129.5s-53.5 120.5 -53.5 192.5c0 83.333 21.5 156.5 64.5 219.5
s100.167 110.333 171.5 142s150.666 47.5 237.999 47.5s166.5 -15.833 237.5 -47.5s128 -79 171 -142s64.5 -136.167 64.5 -219.5c0 -70.667 -18 -134.334 -54 -191.001s-83.667 -100.334 -143 -131.001c80.667 -30 145.167 -79 193.5 -147s72.5 -146.667 72.5 -236
c0 -95.333 -24.833 -178.166 -74.5 -248.499s-115 -122.833 -196 -157.5s-171.5 -52 -271.5 -52zM913.001 1130c0 66.667 -24 120.334 -72 161.001s-107.667 61 -179 61s-130.833 -20.333 -178.5 -61s-71.5 -94.334 -71.5 -161.001c0 -67.333 23.833 -121.666 71.5 -162.999
s107.167 -62 178.5 -62s131 20.667 179 62s72 95.666 72 162.999zM973.001 453.002c0 82 -30.667 146.669 -92 194.002c-63.333 45.333 -136.333 68 -219 68c-84 0 -156.667 -22.667 -218 -68c-62.667 -46.667 -94 -111.334 -94 -194.001s31.333 -146.334 94 -191.001
c60 -46 132.667 -69 218 -69c86 0 159 23 219 69c61.333 45.333 92 109 92 191z" />
    <glyph glyph-name="nine" unicode="9" horiz-adv-x="1222" 
d="M614 1554c152 0 277.834 -45.167 377.501 -135.5s149.5 -209.5 149.5 -357.5c0 -127.333 -40.333 -250.333 -121 -369l-453 -692h-256l383 573c-36.667 -9.33301 -76.334 -14 -119.001 -14c-144 0 -262.833 44.833 -356.5 134.5s-140.5 206.5 -140.5 350.5
c0 152 50.667 275 152 369s229.333 141 384 141zM614.001 1346c-89.333 0 -162.501 -28.168 -219.501 -84.501s-85.5 -129.5 -85.5 -219.5c0 -85.333 28.833 -155 86.5 -209s129.834 -81 216.501 -81c85.333 0 155 25 209 75c61.333 57.333 92 131.333 92 222
c0 86.667 -28.167 157.834 -84.5 213.501s-127.833 83.5 -214.5 83.5z" />
    <glyph glyph-name="colon" unicode=":" horiz-adv-x="505" 
d="M254 -20c-42.667 0 -78.335 13.5 -107.002 40.5s-43 61.167 -43 102.5c0 43.333 14.333 78.333 43 105s64.334 40 107.001 40s77.834 -13.333 105.501 -40s41.5 -61.667 41.5 -105c0 -42 -14 -76.333 -42 -103s-63 -40 -105 -40zM253.999 729
c-42.667 0 -78.335 13.5 -107.002 40.5s-43 61.167 -43 102.5c0 43.333 14.333 78.5 43 105.5s64.334 40.5 107.001 40.5s77.834 -13.5 105.501 -40.5s41.5 -62.167 41.5 -105.5c0 -42 -14 -76.333 -42 -103s-63 -40 -105 -40z" />
    <glyph glyph-name="semicolon" unicode=";" horiz-adv-x="505" 
d="M401 252l-186 -574h-174l117 574h243zM254 729c-42.667 0 -78.335 13.5 -107.002 40.5s-43 61.167 -43 102.5c0 43.333 14.333 78.5 43 105.5s64.334 40.5 107.001 40.5s77.834 -13.5 105.501 -40.5s41.5 -62.167 41.5 -105.5c0 -42 -14 -76.333 -42 -103
s-63 -40 -105 -40z" />
    <glyph glyph-name="question" unicode="?" horiz-adv-x="1122" 
d="M569 1554c137.333 0 249.834 -36.167 337.501 -108.5s131.5 -171.166 131.5 -296.499c0 -95.333 -22.333 -170.333 -67 -225c-48 -56 -98.667 -102 -152 -138c-76.667 -54 -126.334 -90 -149.001 -108c-46.667 -34.667 -70 -80.334 -70 -137.001v-60h-219v74
c0 80.667 22.667 145.667 68 195c43.333 46.667 92.333 90.334 147 131.001c53.333 36.667 102.333 74.667 147 114c45.333 39.333 68 89.333 68 150c0 66.667 -23 118.5 -69 155.5s-105 55.5 -177 55.5c-80 0 -145.667 -21.833 -197 -65.5s-84 -101.834 -98 -174.501
l-209 45c22.667 119.333 80 215 172 287c90 70.667 202 106 336 106zM502.001 -20c-42.667 0 -78.335 13.5 -107.002 40.5s-43 61.167 -43 102.5c0 43.333 14.333 78.333 43 105s64.334 40 107.001 40s77.834 -13.333 105.501 -40s41.5 -61.667 41.5 -105
c0 -42 -14 -76.333 -42 -103s-63 -40 -105 -40z" />
    <glyph glyph-name="A" unicode="A" horiz-adv-x="1486" 
d="M262 0h-233l589 1536h250l588 -1536h-244l-184 498h-579zM737 1276l-213 -576h428z" />
    <glyph glyph-name="B" unicode="B" horiz-adv-x="1372" 
d="M795 0l-578.001 -0.00195312v1536h543c131.333 0 237.166 -35.667 317.499 -107s120.5 -166.666 120.5 -285.999c0 -149.333 -67 -260 -201 -332c88.667 -29.333 156.334 -76.166 203.001 -140.499s70 -141.833 70 -232.5c0 -132.667 -43 -239 -129 -319
c-87.333 -79.333 -202.666 -119 -345.999 -119zM742.999 1339l-296.999 -0.000976562v-446h299c69.333 0 124.666 20.5 165.999 61.5s62 96.167 62 165.5c0 66.667 -21 119.834 -63 159.501s-97.667 59.5 -167 59.5zM786 689.997l-339.999 0.000976562v-493h342
c75.333 0 135.833 21.833 181.5 65.5s68.5 102.167 68.5 175.5c0 75.333 -22.833 136.166 -68.5 182.499s-106.834 69.5 -183.501 69.5z" />
    <glyph glyph-name="C" unicode="C" horiz-adv-x="1640" 
d="M352 768c0 -78.667 11.333 -152.501 34 -221.501s55.167 -129.833 97.5 -182.5s96.333 -94.334 162 -125.001s138.5 -46 218.5 -46c128 0 233.333 35.333 316 106c80 68 131.667 153.333 155 256l221 -61c-36 -154.667 -116.667 -278.667 -242 -372s-276 -140 -452 -140
c-115.333 0 -220.5 20.333 -315.5 61s-174 96.334 -237 167.001s-111.5 153.834 -145.5 249.501s-51 198.5 -51 308.5c0 109.333 17.333 211.666 52 306.999s83.667 178.5 147 249.5s143 127 239 168s202.333 61.5 319 61.5c177.333 0 325 -46.333 443 -139
c116 -91.333 191.667 -212.666 227 -363.999l-219 -62c-22 105.333 -73.167 190.666 -153.5 255.999s-181.5 98 -303.5 98c-104 0 -195.5 -26.667 -274.5 -80s-138.333 -123.166 -178 -209.499s-59.5 -181.5 -59.5 -285.5z" />
    <glyph glyph-name="D" unicode="D" horiz-adv-x="1570" 
d="M690 0l-473.001 0.000976562v1536h473c150.667 0 284.5 -32.5 401.5 -97.5s207.333 -155.5 271 -271.5s95.5 -247.667 95.5 -395c0 -112 -18.667 -215.833 -56 -311.5s-89.166 -177.334 -155.499 -245.001s-147.333 -120.5 -243 -158.5s-200.167 -57 -313.5 -57z
M689.999 1325h-244v-1114h244c158.667 0 286.334 51.333 383.001 154c97.333 103.333 146 238.333 146 405c0 166 -48.667 300.667 -146 404c-96.667 100.667 -224.334 151 -383.001 151z" />
    <glyph glyph-name="E" unicode="E" horiz-adv-x="1288" 
d="M1219 0h-1002v1536h981v-207h-752v-420h529v-207h-529v-495h773v-207z" />
    <glyph glyph-name="F" unicode="F" horiz-adv-x="1214" 
d="M446 0h-229v1536h950v-207h-721v-440h531v-207h-531v-682z" />
    <glyph glyph-name="G" unicode="G" horiz-adv-x="1683" 
d="M352 770c0 -170 47.498 -308.668 142.498 -416.001s220.167 -161 375.5 -161c136 0 248.167 35.667 336.5 107s132.5 165.333 132.5 282h-622v204h860v-112c0 -208.667 -65 -376.167 -195 -502.5s-300.667 -189.5 -512 -189.5c-145.333 0 -275.666 34 -390.999 102
s-205.166 162 -269.499 282s-96.5 254.667 -96.5 404c0 148.667 32.167 282.667 96.5 402s154.333 212.833 270 280.5s246.5 101.5 392.5 101.5c173.333 0 320.333 -43 441 -129c118.667 -86 197.667 -198.667 237 -338l-221 -63c-25.333 93.333 -79 169.833 -161 229.5
s-180.667 89.5 -296 89.5c-157.333 0 -283.333 -53.167 -378 -159.5s-142 -244.166 -142 -413.499z" />
    <glyph glyph-name="H" unicode="H" horiz-adv-x="1701" 
d="M446 0h-229v1536h229v-616h809v616h230v-1536h-230v707h-809v-707z" />
    <glyph glyph-name="I" unicode="I" horiz-adv-x="661" 
d="M446 0h-229v1536h229v-1536z" />
    <glyph glyph-name="J" unicode="J" horiz-adv-x="1253" 
d="M559 193c83.333 0 149.167 25.333 197.5 76s72.5 114.667 72.5 192v864h-649v211h879v-1071c0 -142 -45.833 -258 -137.5 -348s-212.5 -135 -362.5 -135c-138.667 0 -251.5 36 -338.5 108s-139.5 165.667 -157.5 281l226 63c7.33301 -73.333 34.833 -131.833 82.5 -175.5
s110.167 -65.5 187.5 -65.5z" />
    <glyph glyph-name="K" unicode="K" horiz-adv-x="1454" 
d="M629 702h-183v-702h-229v1536h229v-618h193l506 618h276l-594 -719l615 -817h-277z" />
    <glyph glyph-name="L" unicode="L" horiz-adv-x="1214" 
d="M1163 0h-946v1536h229v-1325h717v-211z" />
    <glyph glyph-name="M" unicode="M" horiz-adv-x="1912" 
d="M436 0h-219v1536h244l502 -647l491 647h244v-1536h-221v1227l-498 -647h-47l-496 639v-1219z" />
    <glyph glyph-name="N" unicode="N" horiz-adv-x="1695" 
d="M434 0h-217v1536h244l799 -1200v1200h219v-1536h-246l-799 1204v-1204z" />
    <glyph glyph-name="O" unicode="O" horiz-adv-x="1751" 
d="M113 768c0 112 18.833 216.502 56.5 313.502s89.667 180.167 156 249.5s147.166 123.833 242.499 163.5s198.333 59.5 309 59.5c147.333 0 279 -33.833 395 -101.5s206 -161.334 270 -281.001s96 -254.167 96 -403.5s-32 -283.833 -96 -403.5
s-154 -213.334 -270 -281.001s-247.667 -101.5 -395 -101.5c-110.667 0 -213.667 19.833 -309 59.5s-176.166 94.167 -242.499 163.5s-118.333 152.5 -156 249.5s-56.5 201.5 -56.5 313.5zM1401 768.002c0 172 -48.167 310.833 -144.5 416.5s-222.833 158.5 -379.5 158.5
c-158 0 -285 -52.667 -381 -158s-144 -244.333 -144 -417s48 -311.667 144 -417s223 -158 381 -158c156.667 0 283.167 52.833 379.5 158.5s144.5 244.5 144.5 416.5z" />
    <glyph glyph-name="P" unicode="P" horiz-adv-x="1398" 
d="M446 0h-229.002v1536h578c154.667 0 279.334 -44.333 374.001 -133s142 -203.334 142 -344.001c0 -137.333 -47.667 -251.166 -143 -341.499s-219.666 -135.5 -372.999 -135.5h-349v-582zM794.998 1329l-349 -0.000976562v-541h349c88 0 157.667 24.667 209 74
s77 115 77 197c0 82.667 -25.5 148.334 -76.5 197.001s-120.833 73 -209.5 73z" />
    <glyph glyph-name="Q" unicode="Q" horiz-adv-x="1751" 
d="M113 768c0 112 18.832 216.501 56.499 313.501s89.667 180.167 156 249.5s147.166 123.833 242.499 163.5s198.333 59.5 309 59.5c147.333 0 279 -33.833 395 -101.5s206 -161.334 270 -281.001s96 -254.167 96 -403.5c0 -136.667 -27.5 -261.5 -82.5 -374.5
s-131.833 -204.5 -230.5 -274.5l191 -225l-164 -138l-222 264c-77.333 -25.333 -161.666 -38 -252.999 -38c-110.667 0 -213.667 19.833 -309 59.5s-176.166 94.167 -242.499 163.5s-118.333 152.5 -156 249.5s-56.5 201.5 -56.5 313.5zM351.999 768.001
c0 -172.667 48 -311.667 144 -417s223 -158 381 -158c38.667 0 72.667 2.66699 102 8l-313 372l161 138l357 -424c69.333 49.333 122.833 115.5 160.5 198.5s56.5 177.167 56.5 282.5c0 170.667 -48.333 309.167 -145 415.5s-223 159.5 -379 159.5
c-158 0 -285 -53.167 -381 -159.5s-144 -244.833 -144 -415.5z" />
    <glyph glyph-name="R" unicode="R" horiz-adv-x="1454" 
d="M446 0h-229v1536h574c141.333 0 258 -41 350 -123c90 -82 135 -189 135 -321c0 -102.667 -28.333 -189.5 -85 -260.5s-132 -119.5 -226 -145.5l448 -686h-264l-424 647h-279v-647zM791 1329h-344.999v-475h340c77.333 0 140.166 22.167 188.499 66.5
s72.5 101.5 72.5 171.5s-23.5 127 -70.5 171s-108.833 66 -185.5 66z" />
    <glyph glyph-name="S" unicode="S" horiz-adv-x="1378" 
d="M1231 1161l-221.004 -63c-12.667 74.667 -49 135.667 -109 183s-134.333 71 -223 71c-94 0 -168.333 -18.667 -223 -56s-82 -88.333 -82 -153c0 -30.667 6.16699 -58 18.5 -82s28.5 -43.833 48.5 -59.5s45.833 -29.834 77.5 -42.501s63 -23.167 94 -31.5
s67.5 -17.5 109.5 -27.5c14 -2.66699 24.333 -5 31 -7l83 -21c22.667 -6 49.667 -13.833 81 -23.5s57.833 -19.167 79.5 -28.5s45.667 -21.166 72 -35.499s48.333 -29.333 66 -45s35.5 -34 53.5 -55s32.333 -43.5 43 -67.5s19.334 -51.333 26.001 -82s10 -63.667 10 -99
c0 -142 -53.167 -253.167 -159.5 -333.5s-246.5 -120.5 -420.5 -120.5c-178.667 0 -319.334 41.667 -422.001 125s-160 190.333 -172 321l225 61c12.667 -94 51.167 -167.667 115.5 -221s152.833 -80 265.5 -80c90.667 0 168.667 19.333 234 58c64 39.333 96 98 96 176
c0 82 -33.333 140 -100 174c-63.333 30.667 -144 58 -242 82l-86 19.5c-21.333 5 -49.333 12.333 -84 22s-62.834 18.834 -84.501 27.501s-47.167 20 -76.5 34s-53.166 28.5 -71.499 43.5s-37.666 33.167 -57.999 54.5s-36.166 44 -47.499 68s-20.666 51.667 -27.999 83
s-11 64.666 -11 99.999c0 88 24.667 164.5 74 229.5s115 113.667 197 146s174 48.5 276 48.5c144.667 0 265.834 -35 363.501 -105s158.167 -166 181.5 -288z" />
    <glyph glyph-name="T" unicode="T" horiz-adv-x="1269" 
d="M750 0h-230v1325h-467v211h1164v-211h-467v-1325z" />
    <glyph glyph-name="U" unicode="U" horiz-adv-x="1572" 
d="M786 193c107.333 0 194 33.333 260 100s99 155.334 99 266.001v977h229v-971c0 -174.667 -54.5 -315.5 -163.5 -422.5s-250.5 -160.5 -424.5 -160.5s-315.333 53.333 -424 160s-163 247.667 -163 423v971h229v-977c0 -110.667 32.833 -199.334 98.5 -266.001
s152.167 -100 259.5 -100z" />
    <glyph glyph-name="V" unicode="V" horiz-adv-x="1437" 
d="M571 0l-526 1536h244l434 -1276l432 1276h238l-529 -1536h-293z" />
    <glyph glyph-name="W" unicode="W" horiz-adv-x="1896" 
d="M547 297l375 731h49l381 -733l260 1241h229l-321 -1536h-246l-328 635l-323 -635h-246l-320 1536h230z" />
    <glyph glyph-name="X" unicode="X" horiz-adv-x="1396" 
d="M41 1536h266l393 -575l379 575h256l-508 -760l531 -776h-266l-412 602l-387 -602h-250l508 791z" />
    <glyph glyph-name="Y" unicode="Y" horiz-adv-x="1392" 
d="M811 0h-229v670l-557 866h266l409 -647l412 647h256l-557 -866v-670z" />
    <glyph glyph-name="Z" unicode="Z" horiz-adv-x="1329" 
d="M100 1325v211h1174v-47l-854 -1278h815v-211h-1180v47l852 1278h-807z" />
    <glyph glyph-name="a" unicode="a" horiz-adv-x="1110" 
d="M973 0l-191.001 0.00195312l-10 166c-40 -58 -91.167 -103.167 -153.5 -135.5s-129.833 -48.5 -202.5 -48.5c-96 0 -174.333 26.333 -235 79s-91 123.667 -91 213c0 101.333 37 176.666 111 225.999c71.333 47.333 165.333 84.666 282 111.999l281 62
c-8 60.667 -32 106.167 -72 136.5s-92.333 45.5 -157 45.5c-140.667 0 -224.667 -58.667 -252 -176l-195 37c16.667 95.333 66 172.333 148 231s185.667 88 311 88c130.667 0 234.334 -35.167 311.001 -105.5s115 -165.5 115 -285.5v-645zM302.999 289.002
c0 -40.667 13.167 -72.333 39.5 -95s62.5 -34 108.5 -34c54.667 0 105.5 11.667 152.5 35s86.167 60.333 117.5 111s47 111 47 181v23l-281 -66c-62 -14.667 -108.167 -33.667 -138.5 -57s-45.5 -56 -45.5 -98z" />
    <glyph glyph-name="b" unicode="b" horiz-adv-x="1286" 
d="M356 0l-195.998 -0.000976562v1536h211v-653c41.333 48.667 91.166 86.334 149.499 113.001s121.166 40 188.499 40c142 0 260.333 -49.833 355 -149.5s142 -225.167 142 -376.5c0 -152 -47.333 -278 -142 -378s-213 -150 -355 -150c-68.667 0 -132.5 14.167 -191.5 42.5
s-109.833 67.833 -152.5 118.5zM678.002 841.999c-91.333 0 -165.333 -30.667 -222 -92s-85 -141.333 -85 -240s28.5 -179 85.5 -241s130.833 -93 221.5 -93c90 0 163.667 31 221 93s86 142.333 86 241c0 98 -28.667 177.833 -86 239.5s-131 92.5 -221 92.5z" />
    <glyph glyph-name="c" unicode="c" horiz-adv-x="1136" 
d="M301 510c0 -99.333 27.832 -179.833 83.499 -241.5s128.167 -92.5 217.5 -92.5c73.333 0 134.333 19.167 183 57.5s80 89.5 94 153.5l202 -37c-18.667 -106 -71 -193.333 -157 -262c-86.667 -70.667 -194.667 -106 -324 -106c-149.333 0 -273.333 49.833 -372 149.5
s-148 225.834 -148 378.501c0 151.333 49.833 276.833 149.5 376.5s223.834 149.5 372.501 149.5c122 0 225.333 -32.833 310 -98.5s139 -152.834 163 -261.501l-205 -35c-16 62 -47 111 -93 147s-103 54 -171 54c-90 0 -163.333 -30.167 -220 -90.5
s-85 -140.833 -85 -241.5z" />
    <glyph glyph-name="d" unicode="d" horiz-adv-x="1286" 
d="M1128 1536v-1536h-198l-8 141c-41.333 -50.667 -91.5 -89.834 -150.5 -117.501s-122.833 -41.5 -191.5 -41.5c-144 0 -263.333 50 -358 150s-142 226 -142 378c0 151.333 47.5 276.833 142.5 376.5s214.167 149.5 357.5 149.5c133.333 0 245 -50.333 335 -151v651h213z
M608 842.001c-90 0 -163.667 -30.833 -221 -92.5s-86 -141.5 -86 -239.5c0 -98.667 28.667 -179 86 -241s131 -93 221 -93c90.667 0 164.5 31 221.5 93s85.5 142.333 85.5 241s-28.333 178.667 -85 240s-130.667 92 -222 92z" />
    <glyph glyph-name="e" unicode="e" horiz-adv-x="1181" 
d="M80 510c0 152 48.834 277.666 146.501 376.999s222.167 149 373.5 149c146 0 265.333 -44.333 358 -133c92 -88 138 -203.333 138 -346c0 -11.333 -1.33301 -28.5 -4 -51.5s-4.33398 -39.167 -5.00098 -48.5h-790c8.66699 -95.333 40.5 -167.333 95.5 -216
s125.5 -73 211.5 -73c76.667 0 140.5 15.833 191.5 47.5s83.5 74.5 97.5 128.5l197 -35c-23.333 -103.333 -79.333 -183 -168 -239c-89.333 -58.667 -195.333 -88 -318 -88c-158.667 0 -285.667 49.333 -381 148s-143 225.334 -143 380.001zM602.001 857.999
c-81.333 0 -148.668 -20.5 -202.001 -61.5s-85.666 -96.833 -96.999 -167.5h584c-11.333 70.667 -42.333 126.5 -93 167.5s-114.667 61.5 -192 61.5z" />
    <glyph glyph-name="f" unicode="f" horiz-adv-x="831" 
d="M819 1018l-0.000976562 -184.002h-356v-834h-211v834h-242v55l113 129h129v170c0 110 34.667 198.667 104 266c68.667 66.667 154.667 100 258 100c50.667 0 106.667 -9.33301 168 -28l-43 -183c-4 1.33301 -12.167 3.83301 -24.5 7.5s-21.666 6.33398 -27.999 8.00098
s-14.5 3.33398 -24.5 5.00098s-19.667 2.5 -29 2.5c-55.333 0 -97.5 -14.833 -126.5 -44.5s-43.5 -73.5 -43.5 -131.5v-172h356z" />
    <glyph glyph-name="g" unicode="g" horiz-adv-x="1280" 
d="M80 516c0 150 46.8311 274.166 140.498 372.499s211.834 147.5 354.501 147.5c137.333 0 250 -51.667 338 -155l11 137h196v-1004c0 -142.667 -45.667 -258.667 -137 -348c-92 -90 -216.333 -135 -373 -135c-138 0 -249.667 32 -335 96s-136.666 147.333 -153.999 250
l217 41c11.333 -61.333 40.5 -108.666 87.5 -141.999s109.167 -50 186.5 -50c90.667 0 162.834 24 216.501 72s80.5 114.667 80.5 200v149c-42 -46.667 -91.833 -83.167 -149.5 -109.5s-119.167 -39.5 -184.5 -39.5c-142.667 0 -260.834 49 -354.501 147
s-140.5 221.667 -140.5 371zM300.998 515.999c0 -95.333 28.333 -173 85 -233s130 -90 220 -90s163 30 219 90s84 137.667 84 233c0 97.333 -28 176 -84 236s-129 90 -219 90s-163.333 -30 -220 -90s-85 -138.667 -85 -236z" />
    <glyph glyph-name="h" unicode="h" horiz-adv-x="1214" 
d="M371 0h-210.999v1536h211v-637c80 91.333 183 137 309 137c115.333 0 210.666 -37 285.999 -111s113 -178.333 113 -313v-612h-213v584c0 82 -21.833 145.167 -65.5 189.5s-100.167 66.5 -169.5 66.5c-72 0 -133.333 -22.5 -184 -67.5s-76 -112.833 -76 -203.5v-569z" />
    <glyph glyph-name="i" unicode="i" 
d="M401 1350c0 -38.667 -13 -71 -39 -97s-58.667 -39 -98 -39c-38 0 -70 13.167 -96 39.5s-39 58.5 -39 96.5s13 69.667 39 95s58 38 96 38c40 0 72.833 -12.667 98.5 -38s38.5 -57 38.5 -95zM371 0h-211v1018h211v-1018z" />
    <glyph glyph-name="j" unicode="j" 
d="M129 1350c0 38 13 69.667 39 95s58 38 96 38c40 0 72.833 -12.667 98.5 -38s38.5 -57 38.5 -95c0 -38.667 -13 -71 -39 -97s-58.667 -39 -98 -39c-38 0 -70 13.167 -96 39.5s-39 58.5 -39 96.5zM160 -143v1161h211v-1161c0 -98.667 -28.167 -177.667 -84.5 -237
s-131.5 -89 -225.5 -89c-50 0 -102.333 9 -157 27l39 178c37.333 -11.333 68 -17 92 -17c40 0 70.833 11.833 92.5 35.5s32.5 57.834 32.5 102.501z" />
    <glyph glyph-name="k" unicode="k" horiz-adv-x="1087" 
d="M485 666l316 352h252l-404 -447l426 -571h-254l-342 461h-108v-461h-211v1536h211v-870h114z" />
    <glyph glyph-name="l" unicode="l" 
d="M371 0h-211v1536h211v-1536z" />
    <glyph glyph-name="m" unicode="m" horiz-adv-x="1742" 
d="M371 0h-210.999v1018h196l9 -115c68.667 88.667 158 133 268 133c64.667 0 123.5 -14 176.5 -42s93.833 -68.667 122.5 -122c77.333 109.333 181 164 311 164c99.333 0 184.666 -32.667 255.999 -98c70 -68 105 -165.667 105 -293v-645h-213v631
c0 68 -17.333 119.833 -52 155.5s-81 53.5 -139 53.5c-60 0 -110.5 -17.667 -151.5 -53s-61.5 -88 -61.5 -158v-629h-213v631c0 68 -16.833 119.833 -50.5 155.5s-79.5 53.5 -137.5 53.5c-60.667 0 -111.667 -18 -153 -54s-62 -90.333 -62 -163v-623z" />
    <glyph glyph-name="n" unicode="n" horiz-adv-x="1214" 
d="M371 0h-210.999v1018h196l9 -125c82 95.333 187 143 315 143c115.333 0 210.666 -37 285.999 -111s113 -178.333 113 -313v-612h-213v584c0 82 -21.833 145.167 -65.5 189.5s-100.167 66.5 -169.5 66.5c-34 0 -65.833 -5 -95.5 -15s-57.167 -25.333 -82.5 -46
s-45.333 -49 -60 -85s-22 -77.667 -22 -125v-569z" />
    <glyph glyph-name="o" unicode="o" horiz-adv-x="1228" 
d="M614 1036c154.667 0 282.501 -49.832 383.501 -149.499s151.5 -225.167 151.5 -376.5c0 -152.667 -50.5 -278.834 -151.5 -378.501s-228.833 -149.5 -383.5 -149.5c-154 0 -281.5 50 -382.5 150s-151.5 226 -151.5 378c0 151.333 50.667 276.833 152 376.5
s228.666 149.5 381.999 149.5zM614.001 842.001c-92.667 0 -168 -30.667 -226 -92s-87 -141.333 -87 -240s29 -179 87 -241s133.333 -93 226 -93s168.167 31 226.5 93s87.5 142.333 87.5 241s-29 178.667 -87 240s-133.667 92 -227 92z" />
    <glyph glyph-name="p" unicode="p" horiz-adv-x="1286" 
d="M160 -451l-0.00195312 1469h196l9 -144c42.667 51.333 93.667 91.166 153 119.499s123 42.5 191 42.5c142 0 260.333 -49.833 355 -149.5s142 -225.167 142 -376.5c0 -152 -47.333 -278 -142 -378s-213 -150 -355 -150c-67.333 0 -130.166 13.333 -188.499 40
s-108.166 64.334 -149.499 113.001v-586h-211zM677.998 842c-91.333 0 -165.333 -30.667 -222 -92s-85 -141.333 -85 -240s28.5 -179 85.5 -241s130.833 -93 221.5 -93c90 0 163.667 31 221 93s86 142.333 86 241c0 98 -28.667 177.833 -86 239.5s-131 92.5 -221 92.5z" />
    <glyph glyph-name="q" unicode="q" horiz-adv-x="1286" 
d="M580 1036c68.667 0 132 -13.666 190 -40.999s108 -66 150 -116l10 139h198v-1469h-213v584c-90 -100.667 -201.667 -151 -335 -151c-141.333 0 -260 50.167 -356 150.5s-144 226.166 -144 377.499c0 150.667 48 276 144 376s214.667 150 356 150zM608 842.001
c-90 0 -163.667 -30.833 -221 -92.5s-86 -141.5 -86 -239.5c0 -98.667 28.667 -179 86 -241s131 -93 221 -93c90.667 0 164.5 31 221.5 93s85.5 142.333 85.5 241s-28.333 178.667 -85 240s-130.667 92 -222 92z" />
    <glyph glyph-name="r" unicode="r" horiz-adv-x="780" 
d="M371 0l-210.999 -0.000976562v1018h200l11 -139c30.667 48 71 85.833 121 113.5s107.333 41.5 172 41.5c30 0 63.333 -4.66699 100 -14l-29 -207c-32.667 9.33301 -67.334 14 -104.001 14c-72.667 0 -134.167 -26.667 -184.5 -80s-75.5 -125.666 -75.5 -216.999v-530z
" />
    <glyph glyph-name="s" unicode="s" horiz-adv-x="995" 
d="M502 -18c-127.333 0 -227.671 26.5 -301.004 79.5s-120 128.167 -140 225.5l211 43c9.33301 -55.333 34.5 -98.5 75.5 -129.5s95.833 -46.5 164.5 -46.5c62.667 0 111.834 12 147.501 36s53.5 58.333 53.5 103c0 51.333 -26.667 84 -80 98
c-63.333 16 -124 28.333 -182 37c-40.667 6.66699 -75.167 13.334 -103.5 20.001s-59.833 17.5 -94.5 32.5s-62.5 32.667 -83.5 53s-38.833 47.5 -53.5 81.5s-22 73.333 -22 118c0 86 37 158.333 111 217c72.667 57.333 169 86 289 86c116 0 209.333 -24.667 280 -74
s113 -116 127 -200l-201 -43c-10 44.667 -32.333 80.334 -67 107.001s-83.334 40 -146.001 40c-57.333 0 -101.666 -11.333 -132.999 -34s-47 -52.334 -47 -89.001c0 -47.333 24.667 -78 74 -92c52.667 -15.333 109.334 -27.666 170.001 -36.999
c34 -6.66699 59.5 -11.834 76.5 -15.501s41 -9.83398 72 -18.501s55 -17.5 72 -26.5s36.833 -21.333 59.5 -37s39.834 -33 51.501 -52s21.834 -42 30.501 -69s13 -57.167 13 -90.5c0 -94 -37 -171.333 -111 -232s-178.333 -91 -313 -91z" />
    <glyph glyph-name="t" unicode="t" horiz-adv-x="806" 
d="M14 834l0.000976562 55.001l344 340h52v-211h366v-184h-366v-496c0 -56.667 13.167 -97.834 39.5 -123.501s66.166 -38.5 119.499 -38.5c42.667 0 92 11.667 148 35l47 -174c-71.333 -36.667 -150.666 -55 -237.999 -55c-102.667 0 -182.834 27.333 -240.501 82
s-86.5 131 -86.5 229v541h-185z" />
    <glyph glyph-name="u" unicode="u" horiz-adv-x="1189" 
d="M135 1018h211v-610c0 -74.667 20.333 -132 61 -172s97.667 -60 171 -60c66.667 0 123.5 21.5 170.5 64.5s70.5 108.167 70.5 195.5v582h213v-1018h-194l-9 125c-78 -95.333 -180.333 -143 -307 -143c-114 0 -207 35.667 -279 107s-108 171.333 -108 300v629z" />
    <glyph glyph-name="v" unicode="v" horiz-adv-x="1044" 
d="M639 0h-238l-389 1018h236l280 -770l281 770h223z" />
    <glyph glyph-name="w" unicode="w" horiz-adv-x="1361" 
d="M258 0l-221 1018h211l166 -770l252 500h36l254 -502l164 772h207l-223 -1018h-223l-197 393l-201 -393h-225z" />
    <glyph glyph-name="x" unicode="x" horiz-adv-x="993" 
d="M10 1018h252l240 -336l223 336h236l-343 -500l367 -518h-250l-258 362l-233 -362h-230l344 528z" />
    <glyph glyph-name="y" unicode="y" horiz-adv-x="1079" 
d="M451 6l-439 1012h236l313 -742l283 742h221l-573 -1469h-220z" />
    <glyph glyph-name="z" unicode="z" horiz-adv-x="917" 
d="M553 834h-492v184h811v-57l-522 -777h520v-184h-827v55z" />
    <glyph glyph-name="uni00A0" unicode="&#xa0;" horiz-adv-x="450" 
 />
    <glyph glyph-name="Agrave" unicode="&#xc0;" horiz-adv-x="1486" 
d="M262 0h-233l589 1536h250l588 -1536h-244l-184 498h-579zM737 1276l-213 -576h428zM670 1677l-275 281h275l198 -281h-198z" />
    <glyph glyph-name="Aacute" unicode="&#xc1;" horiz-adv-x="1486" 
d="M262 0h-233l589 1536h250l588 -1536h-244l-184 498h-579zM737 1276l-213 -576h428zM639 1677l197 281h276l-276 -281h-197z" />
    <glyph glyph-name="Acircumflex" unicode="&#xc2;" horiz-adv-x="1486" 
d="M262 0h-233l589 1536h250l588 -1536h-244l-184 498h-579zM737 1276l-213 -576h428zM1118 1677h-221l-154 146l-155 -146h-219l262 281h225z" />
    <glyph glyph-name="Atilde" unicode="&#xc3;" horiz-adv-x="1486" 
d="M262 0h-233l589 1536h250l588 -1536h-244l-184 498h-579zM737 1276l-213 -576h428zM901 1694c-22.667 0 -45.334 5.66895 -68.001 17.002s-41.334 23.666 -56.001 36.999s-31.167 25.666 -49.5 36.999s-35.5 17 -51.5 17c-27.333 0 -47.5 -8.83301 -60.5 -26.5
s-19.5 -45.5 -19.5 -83.5h-154c-4 84.667 11.167 150.167 45.5 196.5s82.166 69.5 143.499 69.5c22.667 0 45.834 -5.5 69.501 -16.5s43.834 -23 60.501 -36s34.167 -25 52.5 -36s33.833 -16.5 46.5 -16.5c26 0 45.667 8.83301 59 26.5s19.666 43.167 18.999 76.5h154
c4.66699 -82 -10.166 -146.167 -44.499 -192.5s-83.166 -69.5 -146.499 -69.5z" />
    <glyph glyph-name="Adieresis" unicode="&#xc4;" horiz-adv-x="1486" 
d="M262 0h-233l589 1536h250l588 -1536h-244l-184 498h-579zM737 1276l-213 -576h428zM547 1726c-36 0 -66.501 12.167 -91.501 36.5s-37.5 54.5 -37.5 90.5c0 36.667 12.333 67 37 91s55.334 36 92.001 36c36 0 66.167 -12 90.5 -36s36.5 -54.333 36.5 -91
c0 -36 -12.167 -66.167 -36.5 -90.5s-54.5 -36.5 -90.5 -36.5zM941.999 1726c-36.667 0 -67.332 12.167 -91.999 36.5s-37 54.5 -37 90.5c0 36.667 12.167 67 36.5 91s55.166 36 92.499 36c36 0 66.167 -12 90.5 -36s36.5 -54.333 36.5 -91
c0 -36 -12.167 -66.167 -36.5 -90.5s-54.5 -36.5 -90.5 -36.5z" />
    <glyph glyph-name="Aring" unicode="&#xc5;" horiz-adv-x="1486" 
d="M262 0h-233l585 1524c-54.667 37.333 -82 89.666 -82 156.999c0 56.667 20 103.334 60 140.001s90.333 55 151 55s111 -18.167 151 -54.5s60 -82.5 60 -138.5c0 -68.667 -27.333 -121.667 -82 -159l584 -1524h-244l-184 498h-579zM647 1681
c0 -28.667 8.83301 -51.834 26.5 -69.501s40.834 -26.5 69.501 -26.5s51.667 8.83301 69 26.5s26 40.834 26 69.501c0 27.333 -9 50 -27 68s-40.667 27 -68 27c-28.667 0 -51.834 -9 -69.501 -27s-26.5 -40.667 -26.5 -68zM737 1276l-213 -576h428z" />
    <glyph glyph-name="AE" unicode="&#xc6;" horiz-adv-x="1994" 
d="M236 0h-244l885 1536h1028v-207h-674v-422h450v-207h-450v-493h694v-207h-919v436h-521zM1006 1339l-402 -696h402v696z" />
    <glyph glyph-name="Ccedilla" unicode="&#xc7;" horiz-adv-x="1640" 
d="M352 768c0 -78.667 11.332 -152.499 33.999 -221.499s55.167 -129.833 97.5 -182.5s96.333 -94.334 162 -125.001s138.5 -46 218.5 -46c128 0 233.333 35.333 316 106c80 68 131.667 153.333 155 256l221 -61c-32.667 -140.667 -103.667 -257 -213 -349
c-111.333 -92 -244.333 -145 -399 -159l-82 -332h-205l80 336c-128.667 18 -240.667 63.5 -336 136.5s-167.166 164.833 -215.499 275.5s-72.5 232.667 -72.5 366c0 109.333 17.333 211.666 52 306.999s83.667 178.5 147 249.5s143 127 239 168s202.333 61.5 319 61.5
c177.333 0 325 -46.333 443 -139c116 -91.333 191.667 -212.666 227 -363.999l-219 -62c-22 105.333 -73.167 190.666 -153.5 255.999s-181.5 98 -303.5 98c-104 0 -195.5 -26.667 -274.5 -80s-138.333 -123.166 -178 -209.499s-59.5 -181.5 -59.5 -285.5z" />
    <glyph glyph-name="Egrave" unicode="&#xc8;" horiz-adv-x="1288" 
d="M1219 0h-1002v1536h981v-207h-752v-420h529v-207h-529v-495h773v-207zM686 1677l-274 281h274l199 -281h-199z" />
    <glyph glyph-name="Eacute" unicode="&#xc9;" horiz-adv-x="1288" 
d="M1219 0h-1002v1536h981v-207h-752v-420h529v-207h-529v-495h773v-207zM561 1677l197 281h276l-276 -281h-197z" />
    <glyph glyph-name="Ecircumflex" unicode="&#xca;" horiz-adv-x="1288" 
d="M1219 0h-1002v1536h981v-207h-752v-420h529v-207h-529v-495h773v-207zM1096 1677h-222l-153 146l-156 -146h-219l262 281h226z" />
    <glyph glyph-name="Edieresis" unicode="&#xcb;" horiz-adv-x="1288" 
d="M1219 0h-1002v1536h981v-207h-752v-420h529v-207h-529v-495h773v-207zM524 1726c-36 0 -66.501 12.167 -91.501 36.5s-37.5 54.5 -37.5 90.5c0 36.667 12.333 67 37 91s55.334 36 92.001 36c36 0 66.167 -12 90.5 -36s36.5 -54.333 36.5 -91
c0 -36 -12.167 -66.167 -36.5 -90.5s-54.5 -36.5 -90.5 -36.5zM919.999 1726c-36.667 0 -67.332 12.167 -91.999 36.5s-37 54.5 -37 90.5c0 36.667 12.167 67 36.5 91s55.166 36 92.499 36c36 0 66.167 -12 90.5 -36s36.5 -54.333 36.5 -91
c0 -36 -12.167 -66.167 -36.5 -90.5s-54.5 -36.5 -90.5 -36.5z" />
    <glyph glyph-name="Igrave" unicode="&#xcc;" horiz-adv-x="661" 
d="M446 0h-229v1536h229v-1536zM250 1677l-275 281h275l199 -281h-199z" />
    <glyph glyph-name="Iacute" unicode="&#xcd;" horiz-adv-x="661" 
d="M446 0h-229v1536h229v-1536zM217 1677l197 281h276l-276 -281h-197z" />
    <glyph glyph-name="Icircumflex" unicode="&#xce;" horiz-adv-x="661" 
d="M446 0h-229v1536h229v-1536zM705 1677h-222l-153 146l-156 -146h-219l262 281h225z" />
    <glyph glyph-name="Idieresis" unicode="&#xcf;" horiz-adv-x="661" 
d="M446 0h-229v1536h229v-1536zM133 1726c-36 0 -66.501 12.167 -91.501 36.5s-37.5 54.5 -37.5 90.5c0 36.667 12.333 67 37 91s55.334 36 92.001 36c36 0 66.167 -12 90.5 -36s36.5 -54.333 36.5 -91c0 -36 -12.167 -66.167 -36.5 -90.5s-54.5 -36.5 -90.5 -36.5z
M527.999 1726c-36.667 0 -67.332 12.167 -91.999 36.5s-37 54.5 -37 90.5c0 36.667 12.167 67 36.5 91s55.166 36 92.499 36c36 0 66.167 -12 90.5 -36s36.5 -54.333 36.5 -91c0 -36 -12.167 -66.167 -36.5 -90.5s-54.5 -36.5 -90.5 -36.5z" />
    <glyph glyph-name="Ntilde" unicode="&#xd1;" horiz-adv-x="1695" 
d="M434 0h-217v1536h244l799 -1200v1200h219v-1536h-246l-799 1204v-1204zM1012 1694c-22.667 0 -45.333 5.66895 -68 17.002s-41.5 23.666 -56.5 36.999s-31.667 25.666 -50 36.999s-35.5 17 -51.5 17c-27.333 0 -47.333 -8.83301 -60 -26.5s-19 -45.5 -19 -83.5h-154
c-4 84.667 11 150.167 45 196.5s81.667 69.5 143 69.5c22.667 0 46 -5.5 70 -16.5s44.167 -23 60.5 -36s33.833 -25 52.5 -36s34.334 -16.5 47.001 -16.5c26 0 45.667 8.83301 59 26.5s19.666 43.167 18.999 76.5h153c4.66699 -82 -10 -146.167 -44 -192.5
s-82.667 -69.5 -146 -69.5z" />
    <glyph glyph-name="Ograve" unicode="&#xd2;" horiz-adv-x="1751" 
d="M113 768c0 112 18.833 216.502 56.5 313.502s89.667 180.167 156 249.5s147.166 123.833 242.499 163.5s198.333 59.5 309 59.5c147.333 0 279 -33.833 395 -101.5s206 -161.334 270 -281.001s96 -254.167 96 -403.5s-32 -283.833 -96 -403.5
s-154 -213.334 -270 -281.001s-247.667 -101.5 -395 -101.5c-110.667 0 -213.667 19.833 -309 59.5s-176.166 94.167 -242.499 163.5s-118.333 152.5 -156 249.5s-56.5 201.5 -56.5 313.5zM1401 768.002c0 172 -48.167 310.833 -144.5 416.5s-222.833 158.5 -379.5 158.5
c-158 0 -285 -52.667 -381 -158s-144 -244.333 -144 -417s48 -311.667 144 -417s223 -158 381 -158c156.667 0 283.167 52.833 379.5 158.5s144.5 244.5 144.5 416.5zM874 1677l-274 281h274l199 -281h-199z" />
    <glyph glyph-name="Oacute" unicode="&#xd3;" horiz-adv-x="1751" 
d="M113 768c0 112 18.833 216.502 56.5 313.502s89.667 180.167 156 249.5s147.166 123.833 242.499 163.5s198.333 59.5 309 59.5c147.333 0 279 -33.833 395 -101.5s206 -161.334 270 -281.001s96 -254.167 96 -403.5s-32 -283.833 -96 -403.5
s-154 -213.334 -270 -281.001s-247.667 -101.5 -395 -101.5c-110.667 0 -213.667 19.833 -309 59.5s-176.166 94.167 -242.499 163.5s-118.333 152.5 -156 249.5s-56.5 201.5 -56.5 313.5zM1401 768.002c0 172 -48.167 310.833 -144.5 416.5s-222.833 158.5 -379.5 158.5
c-158 0 -285 -52.667 -381 -158s-144 -244.333 -144 -417s48 -311.667 144 -417s223 -158 381 -158c156.667 0 283.167 52.833 379.5 158.5s144.5 244.5 144.5 416.5zM717 1677l196 281h277l-277 -281h-196z" />
    <glyph glyph-name="Ocircumflex" unicode="&#xd4;" horiz-adv-x="1751" 
d="M113 768c0 112 18.833 216.502 56.5 313.502s89.667 180.167 156 249.5s147.166 123.833 242.499 163.5s198.333 59.5 309 59.5c147.333 0 279 -33.833 395 -101.5s206 -161.334 270 -281.001s96 -254.167 96 -403.5s-32 -283.833 -96 -403.5
s-154 -213.334 -270 -281.001s-247.667 -101.5 -395 -101.5c-110.667 0 -213.667 19.833 -309 59.5s-176.166 94.167 -242.499 163.5s-118.333 152.5 -156 249.5s-56.5 201.5 -56.5 313.5zM1401 768.002c0 172 -48.167 310.833 -144.5 416.5s-222.833 158.5 -379.5 158.5
c-158 0 -285 -52.667 -381 -158s-144 -244.333 -144 -417s48 -311.667 144 -417s223 -158 381 -158c156.667 0 283.167 52.833 379.5 158.5s144.5 244.5 144.5 416.5zM1251 1677h-221l-153 146l-156 -146h-219l262 281h225z" />
    <glyph glyph-name="Otilde" unicode="&#xd5;" horiz-adv-x="1751" 
d="M113 768c0 112 18.833 216.502 56.5 313.502s89.667 180.167 156 249.5s147.166 123.833 242.499 163.5s198.333 59.5 309 59.5c147.333 0 279 -33.833 395 -101.5s206 -161.334 270 -281.001s96 -254.167 96 -403.5s-32 -283.833 -96 -403.5
s-154 -213.334 -270 -281.001s-247.667 -101.5 -395 -101.5c-110.667 0 -213.667 19.833 -309 59.5s-176.166 94.167 -242.499 163.5s-118.333 152.5 -156 249.5s-56.5 201.5 -56.5 313.5zM1401 768.002c0 172 -48.167 310.833 -144.5 416.5s-222.833 158.5 -379.5 158.5
c-158 0 -285 -52.667 -381 -158s-144 -244.333 -144 -417s48 -311.667 144 -417s223 -158 381 -158c156.667 0 283.167 52.833 379.5 158.5s144.5 244.5 144.5 416.5zM1014 1694c-22.667 0 -45.333 5.66895 -68 17.002s-41.5 23.666 -56.5 36.999s-31.667 25.666 -50 36.999
s-35.5 17 -51.5 17c-27.333 0 -47.333 -8.83301 -60 -26.5s-19 -45.5 -19 -83.5h-154c-4 84.667 11 150.167 45 196.5s81.667 69.5 143 69.5c22.667 0 46 -5.5 70 -16.5s44.167 -23 60.5 -36s33.833 -25 52.5 -36s34.334 -16.5 47.001 -16.5c26 0 45.667 8.83301 59 26.5
s19.666 43.167 18.999 76.5h153c4.66699 -82 -10 -146.167 -44 -192.5s-82.667 -69.5 -146 -69.5z" />
    <glyph glyph-name="Odieresis" unicode="&#xd6;" horiz-adv-x="1751" 
d="M113 768c0 112 18.833 216.502 56.5 313.502s89.667 180.167 156 249.5s147.166 123.833 242.499 163.5s198.333 59.5 309 59.5c147.333 0 279 -33.833 395 -101.5s206 -161.334 270 -281.001s96 -254.167 96 -403.5s-32 -283.833 -96 -403.5
s-154 -213.334 -270 -281.001s-247.667 -101.5 -395 -101.5c-110.667 0 -213.667 19.833 -309 59.5s-176.166 94.167 -242.499 163.5s-118.333 152.5 -156 249.5s-56.5 201.5 -56.5 313.5zM1401 768.002c0 172 -48.167 310.833 -144.5 416.5s-222.833 158.5 -379.5 158.5
c-158 0 -285 -52.667 -381 -158s-144 -244.333 -144 -417s48 -311.667 144 -417s223 -158 381 -158c156.667 0 283.167 52.833 379.5 158.5s144.5 244.5 144.5 416.5zM680 1726c-36 0 -66.501 12.167 -91.501 36.5s-37.5 54.5 -37.5 90.5c0 36.667 12.333 67 37 91
s55.334 36 92.001 36c36 0 66.167 -12 90.5 -36s36.5 -54.333 36.5 -91c0 -36 -12.167 -66.167 -36.5 -90.5s-54.5 -36.5 -90.5 -36.5zM1075 1726c-36.667 0 -67.332 12.167 -91.999 36.5s-37 54.5 -37 90.5c0 36.667 12.167 67 36.5 91s55.166 36 92.499 36
c36 0 66.167 -12 90.5 -36s36.5 -54.333 36.5 -91c0 -36 -12.167 -66.167 -36.5 -90.5s-54.5 -36.5 -90.5 -36.5z" />
    <glyph glyph-name="Ugrave" unicode="&#xd9;" horiz-adv-x="1572" 
d="M786 193c107.333 0 194 33.333 260 100s99 155.334 99 266.001v977h229v-971c0 -174.667 -54.5 -315.5 -163.5 -422.5s-250.5 -160.5 -424.5 -160.5s-315.333 53.333 -424 160s-163 247.667 -163 423v971h229v-977c0 -110.667 32.833 -199.334 98.5 -266.001
s152.167 -100 259.5 -100zM770 1677l-274 281h274l199 -281h-199z" />
    <glyph glyph-name="Uacute" unicode="&#xda;" horiz-adv-x="1572" 
d="M786 193c107.333 0 194 33.333 260 100s99 155.334 99 266.001v977h229v-971c0 -174.667 -54.5 -315.5 -163.5 -422.5s-250.5 -160.5 -424.5 -160.5s-315.333 53.333 -424 160s-163 247.667 -163 423v971h229v-977c0 -110.667 32.833 -199.334 98.5 -266.001
s152.167 -100 259.5 -100zM641 1677l197 281h276l-276 -281h-197z" />
    <glyph glyph-name="Ucircumflex" unicode="&#xdb;" horiz-adv-x="1572" 
d="M786 193c107.333 0 194 33.333 260 100s99 155.334 99 266.001v977h229v-971c0 -174.667 -54.5 -315.5 -163.5 -422.5s-250.5 -160.5 -424.5 -160.5s-315.333 53.333 -424 160s-163 247.667 -163 423v971h229v-977c0 -110.667 32.833 -199.334 98.5 -266.001
s152.167 -100 259.5 -100zM1161 1677h-221l-154 146l-155 -146h-219l262 281h225z" />
    <glyph glyph-name="Udieresis" unicode="&#xdc;" horiz-adv-x="1572" 
d="M786 193c107.333 0 194 33.333 260 100s99 155.334 99 266.001v977h229v-971c0 -174.667 -54.5 -315.5 -163.5 -422.5s-250.5 -160.5 -424.5 -160.5s-315.333 53.333 -424 160s-163 247.667 -163 423v971h229v-977c0 -110.667 32.833 -199.334 98.5 -266.001
s152.167 -100 259.5 -100zM590 1726c-36 0 -66.501 12.167 -91.501 36.5s-37.5 54.5 -37.5 90.5c0 36.667 12.333 67 37 91s55.334 36 92.001 36c36 0 66.167 -12 90.5 -36s36.5 -54.333 36.5 -91c0 -36 -12.167 -66.167 -36.5 -90.5s-54.5 -36.5 -90.5 -36.5zM984.999 1726
c-36.667 0 -67.332 12.167 -91.999 36.5s-37 54.5 -37 90.5c0 36.667 12.167 67 36.5 91s55.166 36 92.499 36c36 0 66.167 -12 90.5 -36s36.5 -54.333 36.5 -91c0 -36 -12.167 -66.167 -36.5 -90.5s-54.5 -36.5 -90.5 -36.5z" />
    <glyph glyph-name="Yacute" unicode="&#xdd;" horiz-adv-x="1392" 
d="M811 0h-229v670l-557 866h266l409 -647l412 647h256l-557 -866v-670zM537 1694l196 280h277l-277 -280h-196z" />
    <glyph glyph-name="germandbls" unicode="&#xdf;" horiz-adv-x="1236" 
d="M373 0l-213.001 0.000976562v1067c0 144 45 261.167 135 351.5s208 135.5 354 135.5c132 0 237.333 -37.333 316 -112s118 -170.334 118 -287.001c0 -72.667 -18.167 -138.834 -54.5 -198.501s-89.833 -105.5 -160.5 -137.5c98.667 -32 171.5 -83 218.5 -153
s70.5 -154 70.5 -252c0 -126 -42.333 -229.333 -127 -310c-83.333 -81.333 -198.666 -122 -345.999 -122c-82.667 0 -155 12.667 -217 38l47 177c55.333 -18 104.666 -27 147.999 -27c82.667 0 149.334 22.833 200.001 68.5s76 108.834 76 189.501
c0 87.333 -28.667 156.333 -86 207s-135.333 76 -234 76h-63v190h61c83.333 0 146.833 21.667 190.5 65s65.5 101 65.5 173c0 66.667 -21.333 120.834 -64 162.501s-99 62.5 -169 62.5c-83.333 0 -148.5 -26.833 -195.5 -80.5s-70.5 -123.834 -70.5 -210.501v-1073z" />
    <glyph glyph-name="agrave" unicode="&#xe0;" horiz-adv-x="1110" 
d="M973 0l-191.001 0.00195312l-10 166c-40 -58 -91.167 -103.167 -153.5 -135.5s-129.833 -48.5 -202.5 -48.5c-96 0 -174.333 26.333 -235 79s-91 123.667 -91 213c0 101.333 37 176.666 111 225.999c71.333 47.333 165.333 84.666 282 111.999l281 62
c-8 60.667 -32 106.167 -72 136.5s-92.333 45.5 -157 45.5c-140.667 0 -224.667 -58.667 -252 -176l-195 37c16.667 95.333 66 172.333 148 231s185.667 88 311 88c130.667 0 234.334 -35.167 311.001 -105.5s115 -165.5 115 -285.5v-645zM302.999 289.002
c0 -40.667 13.167 -72.333 39.5 -95s62.5 -34 108.5 -34c54.667 0 105.5 11.667 152.5 35s86.167 60.333 117.5 111s47 111 47 181v23l-281 -66c-62 -14.667 -108.167 -33.667 -138.5 -57s-45.5 -56 -45.5 -98zM523.999 1176l-274 280h274l199 -280h-199z" />
    <glyph glyph-name="aacute" unicode="&#xe1;" horiz-adv-x="1110" 
d="M973 0l-191.001 0.00195312l-10 166c-40 -58 -91.167 -103.167 -153.5 -135.5s-129.833 -48.5 -202.5 -48.5c-96 0 -174.333 26.333 -235 79s-91 123.667 -91 213c0 101.333 37 176.666 111 225.999c71.333 47.333 165.333 84.666 282 111.999l281 62
c-8 60.667 -32 106.167 -72 136.5s-92.333 45.5 -157 45.5c-140.667 0 -224.667 -58.667 -252 -176l-195 37c16.667 95.333 66 172.333 148 231s185.667 88 311 88c130.667 0 234.334 -35.167 311.001 -105.5s115 -165.5 115 -285.5v-645zM302.999 289.002
c0 -40.667 13.167 -72.333 39.5 -95s62.5 -34 108.5 -34c54.667 0 105.5 11.667 152.5 35s86.167 60.333 117.5 111s47 111 47 181v23l-281 -66c-62 -14.667 -108.167 -33.667 -138.5 -57s-45.5 -56 -45.5 -98zM390.999 1176l197 280h276l-276 -280h-197z" />
    <glyph glyph-name="acircumflex" unicode="&#xe2;" horiz-adv-x="1110" 
d="M973 0l-191.001 0.00195312l-10 166c-40 -58 -91.167 -103.167 -153.5 -135.5s-129.833 -48.5 -202.5 -48.5c-96 0 -174.333 26.333 -235 79s-91 123.667 -91 213c0 101.333 37 176.666 111 225.999c71.333 47.333 165.333 84.666 282 111.999l281 62
c-8 60.667 -32 106.167 -72 136.5s-92.333 45.5 -157 45.5c-140.667 0 -224.667 -58.667 -252 -176l-195 37c16.667 95.333 66 172.333 148 231s185.667 88 311 88c130.667 0 234.334 -35.167 311.001 -105.5s115 -165.5 115 -285.5v-645zM302.999 289.002
c0 -40.667 13.167 -72.333 39.5 -95s62.5 -34 108.5 -34c54.667 0 105.5 11.667 152.5 35s86.167 60.333 117.5 111s47 111 47 181v23l-281 -66c-62 -14.667 -108.167 -33.667 -138.5 -57s-45.5 -56 -45.5 -98zM925.999 1176h-221l-154 145l-156 -145h-219l262 280h226z" />
    <glyph glyph-name="atilde" unicode="&#xe3;" horiz-adv-x="1110" 
d="M973 0l-191.001 0.00195312l-10 166c-40 -58 -91.167 -103.167 -153.5 -135.5s-129.833 -48.5 -202.5 -48.5c-96 0 -174.333 26.333 -235 79s-91 123.667 -91 213c0 101.333 37 176.666 111 225.999c71.333 47.333 165.333 84.666 282 111.999l281 62
c-8 60.667 -32 106.167 -72 136.5s-92.333 45.5 -157 45.5c-140.667 0 -224.667 -58.667 -252 -176l-195 37c16.667 95.333 66 172.333 148 231s185.667 88 311 88c130.667 0 234.334 -35.167 311.001 -105.5s115 -165.5 115 -285.5v-645zM302.999 289.002
c0 -40.667 13.167 -72.333 39.5 -95s62.5 -34 108.5 -34c54.667 0 105.5 11.667 152.5 35s86.167 60.333 117.5 111s47 111 47 181v23l-281 -66c-62 -14.667 -108.167 -33.667 -138.5 -57s-45.5 -56 -45.5 -98zM687.999 1192c-22.667 0 -45.335 5.66797 -68.002 17.001
s-41.334 23.666 -56.001 36.999s-31.167 25.666 -49.5 36.999s-35.5 17 -51.5 17c-27.333 0 -47.5 -8.83301 -60.5 -26.5s-19.5 -45.5 -19.5 -83.5h-154c-4 84.667 11.167 150.167 45.5 196.5s82.166 69.5 143.499 69.5c28.667 0 57.834 -8.66699 87.501 -26
s56.834 -34.666 81.501 -51.999s44.667 -26 60 -26c54 0 80 34 78 102h154c4.66699 -82 -10.166 -146.167 -44.499 -192.5s-83.166 -69.5 -146.499 -69.5z" />
    <glyph glyph-name="adieresis" unicode="&#xe4;" horiz-adv-x="1110" 
d="M973 0l-191.001 0.00195312l-10 166c-40 -58 -91.167 -103.167 -153.5 -135.5s-129.833 -48.5 -202.5 -48.5c-96 0 -174.333 26.333 -235 79s-91 123.667 -91 213c0 101.333 37 176.666 111 225.999c71.333 47.333 165.333 84.666 282 111.999l281 62
c-8 60.667 -32 106.167 -72 136.5s-92.333 45.5 -157 45.5c-140.667 0 -224.667 -58.667 -252 -176l-195 37c16.667 95.333 66 172.333 148 231s185.667 88 311 88c130.667 0 234.334 -35.167 311.001 -105.5s115 -165.5 115 -285.5v-645zM302.999 289.002
c0 -40.667 13.167 -72.333 39.5 -95s62.5 -34 108.5 -34c54.667 0 105.5 11.667 152.5 35s86.167 60.333 117.5 111s47 111 47 181v23l-281 -66c-62 -14.667 -108.167 -33.667 -138.5 -57s-45.5 -56 -45.5 -98zM353.999 1225c-36 0 -66.501 12.167 -91.501 36.5
s-37.5 54.5 -37.5 90.5c0 36.667 12.333 67 37 91s55.334 36 92.001 36c36 0 66.167 -12 90.5 -36s36.5 -54.333 36.5 -91c0 -36 -12.167 -66.167 -36.5 -90.5s-54.5 -36.5 -90.5 -36.5zM749.998 1225c-36.667 0 -67.332 12.167 -91.999 36.5s-37 54.5 -37 90.5
c0 36.667 12.167 67 36.5 91s55.166 36 92.499 36c36 0 66.167 -12 90.5 -36s36.5 -54.333 36.5 -91c0 -36 -12.167 -66.167 -36.5 -90.5s-54.5 -36.5 -90.5 -36.5z" />
    <glyph glyph-name="aring" unicode="&#xe5;" horiz-adv-x="1110" 
d="M973 0l-191.001 0.00195312l-10 166c-40 -58 -91.167 -103.167 -153.5 -135.5s-129.833 -48.5 -202.5 -48.5c-96 0 -174.333 26.333 -235 79s-91 123.667 -91 213c0 101.333 37 176.666 111 225.999c71.333 47.333 165.333 84.666 282 111.999l281 62
c-8 60.667 -32 106.167 -72 136.5s-92.333 45.5 -157 45.5c-140.667 0 -224.667 -58.667 -252 -176l-195 37c16.667 95.333 66 172.333 148 231s185.667 88 311 88c130.667 0 234.334 -35.167 311.001 -105.5s115 -165.5 115 -285.5v-645zM302.999 289.002
c0 -40.667 13.167 -72.333 39.5 -95s62.5 -34 108.5 -34c54.667 0 105.5 11.667 152.5 35s86.167 60.333 117.5 111s47 111 47 181v23l-281 -66c-62 -14.667 -108.167 -33.667 -138.5 -57s-45.5 -56 -45.5 -98zM540.999 1544c60.667 0 111 -18 151 -54s60 -82 60 -138
c0 -57.333 -20 -104.833 -60 -142.5s-90.333 -56.5 -151 -56.5s-111 18.5 -151 55.5s-60 84.167 -60 141.5c0 56 20 102.333 60 139s90.333 55 151 55zM443.999 1350c0 -28.667 9 -52 27 -70s41.333 -27 70 -27c28 0 50.667 9 68 27s26 41.333 26 70
c0 27.333 -8.83301 49.833 -26.5 67.5s-40.167 26.5 -67.5 26.5c-28.667 0 -52 -8.83301 -70 -26.5s-27 -40.167 -27 -67.5z" />
    <glyph glyph-name="ae" unicode="&#xe6;" horiz-adv-x="1853" 
d="M422 -18c-99.333 0 -179.168 26.168 -239.501 78.501s-90.5 123.5 -90.5 213.5c0 103.333 37.667 179.333 113 228c74.667 47.333 168.667 83.333 282 108l277 58c-4.66699 64 -27.167 111.333 -67.5 142s-94.166 46 -161.499 46c-68.667 0 -124.5 -15.167 -167.5 -45.5
s-71.167 -74.5 -84.5 -132.5l-195 39c16.667 95.333 66 172.333 148 231s183.667 88 305 88c81.333 0 152.833 -14.167 214.5 -42.5s109.5 -68.833 143.5 -121.5c47.333 51.333 103.666 91.5 168.999 120.5s136 43.5 212 43.5c142 0 259.333 -44.333 352 -133
c90 -90 135 -206 135 -348c0 -12 -1.16699 -29 -3.5 -51l-4.5 -43h-774c4 -90 32.5 -161.333 85.5 -214s124.167 -79 213.5 -79c72.667 0 134 15.833 184 47.5s83 74.5 99 128.5l194 -35c-23.333 -102.667 -78.666 -182.334 -165.999 -239.001
c-87.333 -58.667 -191 -88 -311 -88c-96.667 0 -182.5 19.667 -257.5 59s-133.833 94 -176.5 164c-42 -70 -99.833 -124.667 -173.5 -164s-158.5 -59 -254.5 -59zM988.998 621.001l570 -0.000976562c-4 68 -31.167 124.5 -81.5 169.5s-115.5 67.5 -195.5 67.5
c-78 0 -144.667 -22.167 -200 -66.5s-86.333 -101.166 -93 -170.499zM306.998 287c0 -40 12.8301 -71.501 38.4971 -94.501s61.5 -34.5 107.5 -34.5c40.667 0 79.334 6.5 116.001 19.5s69.834 32.167 99.501 57.5s53.334 58.5 71.001 99.5s26.5 87.167 26.5 138.5v33
l-274 -62c-62.667 -14.667 -109.167 -33.667 -139.5 -57s-45.5 -56.666 -45.5 -99.999z" />
    <glyph glyph-name="ccedilla" unicode="&#xe7;" horiz-adv-x="1136" 
d="M301 510c0 -99.333 27.8311 -179.833 83.498 -241.5s128.167 -92.5 217.5 -92.5c73.333 0 134.333 19.167 183 57.5s80 89.5 94 153.5l202 -37c-15.333 -92 -58.666 -171.167 -129.999 -237.5s-158.333 -107.833 -261 -124.5l-82 -334h-205l82 340
c-117.333 24.667 -214 84 -290 178c-76.667 94.667 -115 207.334 -115 338.001c0 151.333 49.833 276.833 149.5 376.5s223.834 149.5 372.501 149.5c122 0 225.333 -32.833 310 -98.5s139 -152.834 163 -261.501l-205 -35c-16 62 -47 111 -93 147s-103 54 -171 54
c-90 0 -163.333 -30.167 -220 -90.5s-85 -140.833 -85 -241.5z" />
    <glyph glyph-name="egrave" unicode="&#xe8;" horiz-adv-x="1181" 
d="M80 510c0 152 48.834 277.666 146.501 376.999s222.167 149 373.5 149c146 0 265.333 -44.333 358 -133c92 -88 138 -203.333 138 -346c0 -11.333 -1.33301 -28.5 -4 -51.5s-4.33398 -39.167 -5.00098 -48.5h-790c8.66699 -95.333 40.5 -167.333 95.5 -216
s125.5 -73 211.5 -73c76.667 0 140.5 15.833 191.5 47.5s83.5 74.5 97.5 128.5l197 -35c-23.333 -103.333 -79.333 -183 -168 -239c-89.333 -58.667 -195.333 -88 -318 -88c-158.667 0 -285.667 49.333 -381 148s-143 225.334 -143 380.001zM602.001 857.999
c-81.333 0 -148.668 -20.5 -202.001 -61.5s-85.666 -96.833 -96.999 -167.5h584c-11.333 70.667 -42.333 126.5 -93 167.5s-114.667 61.5 -192 61.5zM554.999 1176l-274 280h274l199 -280h-199z" />
    <glyph glyph-name="eacute" unicode="&#xe9;" horiz-adv-x="1181" 
d="M80 510c0 152 48.834 277.666 146.501 376.999s222.167 149 373.5 149c146 0 265.333 -44.333 358 -133c92 -88 138 -203.333 138 -346c0 -11.333 -1.33301 -28.5 -4 -51.5s-4.33398 -39.167 -5.00098 -48.5h-790c8.66699 -95.333 40.5 -167.333 95.5 -216
s125.5 -73 211.5 -73c76.667 0 140.5 15.833 191.5 47.5s83.5 74.5 97.5 128.5l197 -35c-23.333 -103.333 -79.333 -183 -168 -239c-89.333 -58.667 -195.333 -88 -318 -88c-158.667 0 -285.667 49.333 -381 148s-143 225.334 -143 380.001zM602.001 857.999
c-81.333 0 -148.668 -20.5 -202.001 -61.5s-85.666 -96.833 -96.999 -167.5h584c-11.333 70.667 -42.333 126.5 -93 167.5s-114.667 61.5 -192 61.5zM456.999 1176l196 280h277l-277 -280h-196z" />
    <glyph glyph-name="ecircumflex" unicode="&#xea;" horiz-adv-x="1181" 
d="M80 510c0 152 48.834 277.666 146.501 376.999s222.167 149 373.5 149c146 0 265.333 -44.333 358 -133c92 -88 138 -203.333 138 -346c0 -11.333 -1.33301 -28.5 -4 -51.5s-4.33398 -39.167 -5.00098 -48.5h-790c8.66699 -95.333 40.5 -167.333 95.5 -216
s125.5 -73 211.5 -73c76.667 0 140.5 15.833 191.5 47.5s83.5 74.5 97.5 128.5l197 -35c-23.333 -103.333 -79.333 -183 -168 -239c-89.333 -58.667 -195.333 -88 -318 -88c-158.667 0 -285.667 49.333 -381 148s-143 225.334 -143 380.001zM602.001 857.999
c-81.333 0 -148.668 -20.5 -202.001 -61.5s-85.666 -96.833 -96.999 -167.5h584c-11.333 70.667 -42.333 126.5 -93 167.5s-114.667 61.5 -192 61.5zM960.999 1176h-222l-153 145l-156 -145h-219l262 280h225z" />
    <glyph glyph-name="edieresis" unicode="&#xeb;" horiz-adv-x="1181" 
d="M80 510c0 152 48.834 277.666 146.501 376.999s222.167 149 373.5 149c146 0 265.333 -44.333 358 -133c92 -88 138 -203.333 138 -346c0 -11.333 -1.33301 -28.5 -4 -51.5s-4.33398 -39.167 -5.00098 -48.5h-790c8.66699 -95.333 40.5 -167.333 95.5 -216
s125.5 -73 211.5 -73c76.667 0 140.5 15.833 191.5 47.5s83.5 74.5 97.5 128.5l197 -35c-23.333 -103.333 -79.333 -183 -168 -239c-89.333 -58.667 -195.333 -88 -318 -88c-158.667 0 -285.667 49.333 -381 148s-143 225.334 -143 380.001zM602.001 857.999
c-81.333 0 -148.668 -20.5 -202.001 -61.5s-85.666 -96.833 -96.999 -167.5h584c-11.333 70.667 -42.333 126.5 -93 167.5s-114.667 61.5 -192 61.5zM388.999 1225c-36 0 -66.501 12.167 -91.501 36.5s-37.5 54.5 -37.5 90.5c0 36.667 12.333 67 37 91s55.334 36 92.001 36
c36 0 66.167 -12 90.5 -36s36.5 -54.333 36.5 -91c0 -36 -12.167 -66.167 -36.5 -90.5s-54.5 -36.5 -90.5 -36.5zM783.998 1225c-36.667 0 -67.332 12.167 -91.999 36.5s-37 54.5 -37 90.5c0 36.667 12.167 67 36.5 91s55.166 36 92.499 36c36 0 66.167 -12 90.5 -36
s36.5 -54.333 36.5 -91c0 -36 -12.167 -66.167 -36.5 -90.5s-54.5 -36.5 -90.5 -36.5z" />
    <glyph glyph-name="igrave" unicode="&#xec;" 
d="M371 0h-211v1018h211v-1018zM197 1176l-275 280h275l198 -280h-198z" />
    <glyph glyph-name="iacute" unicode="&#xed;" 
d="M371 0h-211v1018h211v-1018zM147 1176l197 280h277l-277 -280h-197z" />
    <glyph glyph-name="icircumflex" unicode="&#xee;" 
d="M371 0h-211v1018h211v-1018zM639 1178h-221l-154 145l-155 -145h-220l263 280h225z" />
    <glyph glyph-name="idieresis" unicode="&#xef;" 
d="M371 0h-211v1018h211v-1018zM68 1225c-36 0 -66.501 12.167 -91.501 36.5s-37.5 54.5 -37.5 90.5c0 36.667 12.333 67 37 91s55.334 36 92.001 36c36 0 66.167 -12 90.5 -36s36.5 -54.333 36.5 -91c0 -36 -12.167 -66.167 -36.5 -90.5s-54.5 -36.5 -90.5 -36.5z
M462.999 1225c-36.667 0 -67.332 12.167 -91.999 36.5s-37 54.5 -37 90.5c0 36.667 12.167 67 36.5 91s55.166 36 92.499 36c36 0 66.167 -12 90.5 -36s36.5 -54.333 36.5 -91c0 -36 -12.167 -66.167 -36.5 -90.5s-54.5 -36.5 -90.5 -36.5z" />
    <glyph glyph-name="ntilde" unicode="&#xf1;" horiz-adv-x="1214" 
d="M371 0h-210.999v1018h196l9 -125c82 95.333 187 143 315 143c115.333 0 210.666 -37 285.999 -111s113 -178.333 113 -313v-612h-213v584c0 82 -21.833 145.167 -65.5 189.5s-100.167 66.5 -169.5 66.5c-34 0 -65.833 -5 -95.5 -15s-57.167 -25.333 -82.5 -46
s-45.333 -49 -60 -85s-22 -77.667 -22 -125v-569zM774.001 1192c-22.667 0 -45.335 5.66797 -68.002 17.001s-41.334 23.666 -56.001 36.999s-31.167 25.666 -49.5 36.999s-35.5 17 -51.5 17c-27.333 0 -47.5 -8.83301 -60.5 -26.5s-19.5 -45.5 -19.5 -83.5h-154
c-4 84.667 11.167 150.167 45.5 196.5s82.166 69.5 143.499 69.5c28.667 0 57.834 -8.66699 87.501 -26s56.834 -34.666 81.501 -51.999s44.667 -26 60 -26c54 0 80 34 78 102h154c4.66699 -82 -10.166 -146.167 -44.499 -192.5s-83.166 -69.5 -146.499 -69.5z" />
    <glyph glyph-name="ograve" unicode="&#xf2;" horiz-adv-x="1228" 
d="M614 1036c154.667 0 282.501 -49.832 383.501 -149.499s151.5 -225.167 151.5 -376.5c0 -152.667 -50.5 -278.834 -151.5 -378.501s-228.833 -149.5 -383.5 -149.5c-154 0 -281.5 50 -382.5 150s-151.5 226 -151.5 378c0 151.333 50.667 276.833 152 376.5
s228.666 149.5 381.999 149.5zM614.001 842.001c-92.667 0 -168 -30.667 -226 -92s-87 -141.333 -87 -240s29 -179 87 -241s133.333 -93 226 -93s168.167 31 226.5 93s87.5 142.333 87.5 241s-29 178.667 -87 240s-133.667 92 -227 92zM582.001 1176l-275 280h275l198 -280
h-198z" />
    <glyph glyph-name="oacute" unicode="&#xf3;" horiz-adv-x="1228" 
d="M614 1036c154.667 0 282.501 -49.832 383.501 -149.499s151.5 -225.167 151.5 -376.5c0 -152.667 -50.5 -278.834 -151.5 -378.501s-228.833 -149.5 -383.5 -149.5c-154 0 -281.5 50 -382.5 150s-151.5 226 -151.5 378c0 151.333 50.667 276.833 152 376.5
s228.666 149.5 381.999 149.5zM614.001 842.001c-92.667 0 -168 -30.667 -226 -92s-87 -141.333 -87 -240s29 -179 87 -241s133.333 -93 226 -93s168.167 31 226.5 93s87.5 142.333 87.5 241s-29 178.667 -87 240s-133.667 92 -227 92zM457.001 1176l196 280h277l-277 -280
h-196z" />
    <glyph glyph-name="ocircumflex" unicode="&#xf4;" horiz-adv-x="1228" 
d="M614 1036c154.667 0 282.501 -49.832 383.501 -149.499s151.5 -225.167 151.5 -376.5c0 -152.667 -50.5 -278.834 -151.5 -378.501s-228.833 -149.5 -383.5 -149.5c-154 0 -281.5 50 -382.5 150s-151.5 226 -151.5 378c0 151.333 50.667 276.833 152 376.5
s228.666 149.5 381.999 149.5zM614.001 842.001c-92.667 0 -168 -30.667 -226 -92s-87 -141.333 -87 -240s29 -179 87 -241s133.333 -93 226 -93s168.167 31 226.5 93s87.5 142.333 87.5 241s-29 178.667 -87 240s-133.667 92 -227 92zM987.001 1176h-221l-154 145
l-155 -145h-219l262 280h225z" />
    <glyph glyph-name="otilde" unicode="&#xf5;" horiz-adv-x="1228" 
d="M614 1036c154.667 0 282.501 -49.832 383.501 -149.499s151.5 -225.167 151.5 -376.5c0 -152.667 -50.5 -278.834 -151.5 -378.501s-228.833 -149.5 -383.5 -149.5c-154 0 -281.5 50 -382.5 150s-151.5 226 -151.5 378c0 151.333 50.667 276.833 152 376.5
s228.666 149.5 381.999 149.5zM614.001 842.001c-92.667 0 -168 -30.667 -226 -92s-87 -141.333 -87 -240s29 -179 87 -241s133.333 -93 226 -93s168.167 31 226.5 93s87.5 142.333 87.5 241s-29 178.667 -87 240s-133.667 92 -227 92zM750.001 1192
c-22.667 0 -45.334 5.66895 -68.001 17.002s-41.5 23.666 -56.5 36.999s-31.667 25.666 -50 36.999s-35.5 17 -51.5 17c-27.333 0 -47.5 -8.83301 -60.5 -26.5s-19.5 -45.5 -19.5 -83.5h-153c-4 84.667 11 150.167 45 196.5s81.667 69.5 143 69.5
c22.667 0 46 -5.33301 70 -16s44.167 -22.667 60.5 -36s33.833 -25.333 52.5 -36s34.334 -16 47.001 -16c53.333 0 79 34 77 102h154c4.66699 -82 -10 -146.167 -44 -192.5s-82.667 -69.5 -146 -69.5z" />
    <glyph glyph-name="odieresis" unicode="&#xf6;" horiz-adv-x="1228" 
d="M614 1036c154.667 0 282.501 -49.832 383.501 -149.499s151.5 -225.167 151.5 -376.5c0 -152.667 -50.5 -278.834 -151.5 -378.501s-228.833 -149.5 -383.5 -149.5c-154 0 -281.5 50 -382.5 150s-151.5 226 -151.5 378c0 151.333 50.667 276.833 152 376.5
s228.666 149.5 381.999 149.5zM614.001 842.001c-92.667 0 -168 -30.667 -226 -92s-87 -141.333 -87 -240s29 -179 87 -241s133.333 -93 226 -93s168.167 31 226.5 93s87.5 142.333 87.5 241s-29 178.667 -87 240s-133.667 92 -227 92zM416.001 1225
c-36 0 -66.501 12.167 -91.501 36.5s-37.5 54.5 -37.5 90.5c0 36.667 12.333 67 37 91s55.334 36 92.001 36c36 0 66.167 -12 90.5 -36s36.5 -54.333 36.5 -91c0 -36 -12.167 -66.167 -36.5 -90.5s-54.5 -36.5 -90.5 -36.5zM811 1225c-36.667 0 -67.332 12.167 -91.999 36.5
s-37 54.5 -37 90.5c0 36.667 12.167 67 36.5 91s55.166 36 92.499 36c36 0 66.167 -12 90.5 -36s36.5 -54.333 36.5 -91c0 -36 -12.167 -66.167 -36.5 -90.5s-54.5 -36.5 -90.5 -36.5z" />
    <glyph glyph-name="ugrave" unicode="&#xf9;" horiz-adv-x="1189" 
d="M135 1018h211v-610c0 -74.667 20.333 -132 61 -172s97.667 -60 171 -60c66.667 0 123.5 21.5 170.5 64.5s70.5 108.167 70.5 195.5v582h213v-1018h-194l-9 125c-78 -95.333 -180.333 -143 -307 -143c-114 0 -207 35.667 -279 107s-108 171.333 -108 300v629zM549 1176
l-275 280h275l199 -280h-199z" />
    <glyph glyph-name="uacute" unicode="&#xfa;" horiz-adv-x="1189" 
d="M135 1018h211v-610c0 -74.667 20.333 -132 61 -172s97.667 -60 171 -60c66.667 0 123.5 21.5 170.5 64.5s70.5 108.167 70.5 195.5v582h213v-1018h-194l-9 125c-78 -95.333 -180.333 -143 -307 -143c-114 0 -207 35.667 -279 107s-108 171.333 -108 300v629zM451 1176
l196 280h277l-277 -280h-196z" />
    <glyph glyph-name="ucircumflex" unicode="&#xfb;" horiz-adv-x="1189" 
d="M135 1018h211v-610c0 -74.667 20.333 -132 61 -172s97.667 -60 171 -60c66.667 0 123.5 21.5 170.5 64.5s70.5 108.167 70.5 195.5v582h213v-1018h-194l-9 125c-78 -95.333 -180.333 -143 -307 -143c-114 0 -207 35.667 -279 107s-108 171.333 -108 300v629zM971 1176
h-221l-154 145l-156 -145h-219l262 280h226z" />
    <glyph glyph-name="udieresis" unicode="&#xfc;" horiz-adv-x="1189" 
d="M135 1018h211v-610c0 -74.667 20.333 -132 61 -172s97.667 -60 171 -60c66.667 0 123.5 21.5 170.5 64.5s70.5 108.167 70.5 195.5v582h213v-1018h-194l-9 125c-78 -95.333 -180.333 -143 -307 -143c-114 0 -207 35.667 -279 107s-108 171.333 -108 300v629zM399 1225
c-36 0 -66.501 12.167 -91.501 36.5s-37.5 54.5 -37.5 90.5c0 36.667 12.333 67 37 91s55.334 36 92.001 36c36 0 66.167 -12 90.5 -36s36.5 -54.333 36.5 -91c0 -36 -12.167 -66.167 -36.5 -90.5s-54.5 -36.5 -90.5 -36.5zM794.999 1225
c-36.667 0 -67.332 12.167 -91.999 36.5s-37 54.5 -37 90.5c0 36.667 12.167 67 36.5 91s55.166 36 92.499 36c36 0 66.167 -12 90.5 -36s36.5 -54.333 36.5 -91c0 -36 -12.167 -66.167 -36.5 -90.5s-54.5 -36.5 -90.5 -36.5z" />
    <glyph glyph-name="yacute" unicode="&#xfd;" horiz-adv-x="1079" 
d="M451 6l-439 1012h236l313 -742l283 742h221l-573 -1469h-220zM410 1176l196 280h277l-277 -280h-196z" />
    <glyph glyph-name="ydieresis" unicode="&#xff;" horiz-adv-x="1079" 
d="M451 6l-439 1012h236l313 -742l283 742h221l-573 -1469h-220zM342 1225c-36 0 -66.501 12.167 -91.501 36.5s-37.5 54.5 -37.5 90.5c0 36.667 12.333 67 37 91s55.334 36 92.001 36c36 0 66.167 -12 90.5 -36s36.5 -54.333 36.5 -91c0 -36 -12.167 -66.167 -36.5 -90.5
s-54.5 -36.5 -90.5 -36.5zM736.999 1225c-36.667 0 -67.332 12.167 -91.999 36.5s-37 54.5 -37 90.5c0 36.667 12.167 67 36.5 91s55.166 36 92.499 36c36 0 66.167 -12 90.5 -36s36.5 -54.333 36.5 -91c0 -36 -12.167 -66.167 -36.5 -90.5s-54.5 -36.5 -90.5 -36.5z" />
    <glyph glyph-name="Amacron" unicode="&#x100;" horiz-adv-x="1486" 
d="M262 0h-233l589 1536h250l588 -1536h-244l-184 498h-579zM737 1276l-213 -576h428zM440 1737v178h607v-178h-607z" />
    <glyph glyph-name="amacron" unicode="&#x101;" horiz-adv-x="1110" 
d="M973 0l-191.001 0.00195312l-10 166c-40 -58 -91.167 -103.167 -153.5 -135.5s-129.833 -48.5 -202.5 -48.5c-96 0 -174.333 26.333 -235 79s-91 123.667 -91 213c0 101.333 37 176.666 111 225.999c71.333 47.333 165.333 84.666 282 111.999l281 62
c-8 60.667 -32 106.167 -72 136.5s-92.333 45.5 -157 45.5c-140.667 0 -224.667 -58.667 -252 -176l-195 37c16.667 95.333 66 172.333 148 231s185.667 88 311 88c130.667 0 234.334 -35.167 311.001 -105.5s115 -165.5 115 -285.5v-645zM302.999 289.002
c0 -40.667 13.167 -72.333 39.5 -95s62.5 -34 108.5 -34c54.667 0 105.5 11.667 152.5 35s86.167 60.333 117.5 111s47 111 47 181v23l-281 -66c-62 -14.667 -108.167 -33.667 -138.5 -57s-45.5 -56 -45.5 -98zM247.999 1235v178h606v-178h-606z" />
    <glyph glyph-name="Abreve" unicode="&#x102;" horiz-adv-x="1486" 
d="M262 0h-233l589 1536h250l588 -1536h-244l-184 498h-579zM737 1276l-213 -576h428zM741 1825c42 0 75.667 11.167 101 33.5s38.333 54.833 39 97.5h186c-0.666992 -88 -31.167 -158.833 -91.5 -212.5s-137.833 -80.5 -232.5 -80.5s-172 26.833 -232 80.5
s-90.333 124.5 -91 212.5h188c0 -42.667 11.833 -75.167 35.5 -97.5s56.167 -33.5 97.5 -33.5z" />
    <glyph glyph-name="abreve" unicode="&#x103;" horiz-adv-x="1110" 
d="M973 0l-191.001 0.00195312l-10 166c-40 -58 -91.167 -103.167 -153.5 -135.5s-129.833 -48.5 -202.5 -48.5c-96 0 -174.333 26.333 -235 79s-91 123.667 -91 213c0 101.333 37 176.666 111 225.999c71.333 47.333 165.333 84.666 282 111.999l281 62
c-8 60.667 -32 106.167 -72 136.5s-92.333 45.5 -157 45.5c-140.667 0 -224.667 -58.667 -252 -176l-195 37c16.667 95.333 66 172.333 148 231s185.667 88 311 88c130.667 0 234.334 -35.167 311.001 -105.5s115 -165.5 115 -285.5v-645zM302.999 289.002
c0 -40.667 13.167 -72.333 39.5 -95s62.5 -34 108.5 -34c54.667 0 105.5 11.667 152.5 35s86.167 60.333 117.5 111s47 111 47 181v23l-281 -66c-62 -14.667 -108.167 -33.667 -138.5 -57s-45.5 -56 -45.5 -98zM548.999 1323c42 0 75.5 11.167 100.5 33.5
s37.833 54.833 38.5 97.5h186c-0.666992 -88 -31 -158.833 -91 -212.5s-137.333 -80.5 -232 -80.5s-172.167 26.833 -232.5 80.5s-90.833 124.5 -91.5 212.5h189c0 -42.667 11.833 -75.167 35.5 -97.5s56.167 -33.5 97.5 -33.5z" />
    <glyph glyph-name="Aogonek" unicode="&#x104;" horiz-adv-x="1486" 
d="M262 0h-232.999l589 1536h250l588 -1536c-125.333 -47.333 -188 -109.333 -188 -186c0 -34 10.333 -61 31 -81s49 -30 85 -30c25.333 0 48.666 4 69.999 12l37 -147c-46 -24.667 -103.333 -37 -172 -37c-82 0 -144.5 21.833 -187.5 65.5s-64.5 100.5 -64.5 170.5
c0 96 47.667 176.333 143 241l-182 490h-579zM737.001 1276l-213 -576h428z" />
    <glyph glyph-name="aogonek" unicode="&#x105;" horiz-adv-x="1110" 
d="M836 -469c-82 0 -144.5 21.835 -187.5 65.502s-64.5 100.5 -64.5 170.5c0 115.333 65.333 206 196 272l-8 127c-40 -58 -91.167 -103.167 -153.5 -135.5s-129.833 -48.5 -202.5 -48.5c-96 0 -174.333 26.333 -235 79s-91 123.667 -91 213
c0 101.333 37 176.666 111 225.999c71.333 47.333 165.333 84.666 282 111.999l281 62c-8 60.667 -32 106.167 -72 136.5s-92.333 45.5 -157 45.5c-140.667 0 -224.667 -58.667 -252 -176l-195 37c16.667 95.333 66 172.333 148 231s185.667 88 311 88
c130.667 0 234.334 -35.167 311.001 -105.5s115 -165.5 115 -285.5v-645c-126 -47.333 -189 -109.333 -189 -186c0 -34 10.5 -61 31.5 -81s49.5 -30 85.5 -30c25.333 0 48.666 4 69.999 12l37 -147c-46 -24.667 -103.333 -37 -172 -37zM303 289.002
c0 -40.667 13.167 -72.333 39.5 -95s62.5 -34 108.5 -34c54.667 0 105.5 11.667 152.5 35s86.167 60.333 117.5 111s47 111 47 181v23l-281 -66c-62 -14.667 -108.167 -33.667 -138.5 -57s-45.5 -56 -45.5 -98z" />
    <glyph glyph-name="Cacute" unicode="&#x106;" horiz-adv-x="1640" 
d="M352 768c0 -78.667 11.333 -152.501 34 -221.501s55.167 -129.833 97.5 -182.5s96.333 -94.334 162 -125.001s138.5 -46 218.5 -46c128 0 233.333 35.333 316 106c80 68 131.667 153.333 155 256l221 -61c-36 -154.667 -116.667 -278.667 -242 -372s-276 -140 -452 -140
c-115.333 0 -220.5 20.333 -315.5 61s-174 96.334 -237 167.001s-111.5 153.834 -145.5 249.501s-51 198.5 -51 308.5c0 109.333 17.333 211.666 52 306.999s83.667 178.5 147 249.5s143 127 239 168s202.333 61.5 319 61.5c177.333 0 325 -46.333 443 -139
c116 -91.333 191.667 -212.666 227 -363.999l-219 -62c-22 105.333 -73.167 190.666 -153.5 255.999s-181.5 98 -303.5 98c-104 0 -195.5 -26.667 -274.5 -80s-138.333 -123.166 -178 -209.499s-59.5 -181.5 -59.5 -285.5zM727 1677l197 281h276l-276 -281h-197z" />
    <glyph glyph-name="cacute" unicode="&#x107;" horiz-adv-x="1136" 
d="M301 510c0 -99.333 27.832 -179.833 83.499 -241.5s128.167 -92.5 217.5 -92.5c73.333 0 134.333 19.167 183 57.5s80 89.5 94 153.5l202 -37c-18.667 -106 -71 -193.333 -157 -262c-86.667 -70.667 -194.667 -106 -324 -106c-149.333 0 -273.333 49.833 -372 149.5
s-148 225.834 -148 378.501c0 151.333 49.833 276.833 149.5 376.5s223.834 149.5 372.501 149.5c122 0 225.333 -32.833 310 -98.5s139 -152.834 163 -261.501l-205 -35c-16 62 -47 111 -93 147s-103 54 -171 54c-90 0 -163.333 -30.167 -220 -90.5
s-85 -140.833 -85 -241.5zM454.999 1176l196 280h277l-277 -280h-196z" />
    <glyph glyph-name="Ccircumflex" unicode="&#x108;" horiz-adv-x="1640" 
d="M352 768c0 -78.667 11.333 -152.501 34 -221.501s55.167 -129.833 97.5 -182.5s96.333 -94.334 162 -125.001s138.5 -46 218.5 -46c128 0 233.333 35.333 316 106c80 68 131.667 153.333 155 256l221 -61c-36 -154.667 -116.667 -278.667 -242 -372s-276 -140 -452 -140
c-115.333 0 -220.5 20.333 -315.5 61s-174 96.334 -237 167.001s-111.5 153.834 -145.5 249.501s-51 198.5 -51 308.5c0 109.333 17.333 211.666 52 306.999s83.667 178.5 147 249.5s143 127 239 168s202.333 61.5 319 61.5c177.333 0 325 -46.333 443 -139
c116 -91.333 191.667 -212.666 227 -363.999l-219 -62c-22 105.333 -73.167 190.666 -153.5 255.999s-181.5 98 -303.5 98c-104 0 -195.5 -26.667 -274.5 -80s-138.333 -123.166 -178 -209.499s-59.5 -181.5 -59.5 -285.5zM1245 1677h-221l-154 146l-155 -146h-219l262 281
h225z" />
    <glyph glyph-name="ccircumflex" unicode="&#x109;" horiz-adv-x="1136" 
d="M301 510c0 -99.333 27.832 -179.833 83.499 -241.5s128.167 -92.5 217.5 -92.5c73.333 0 134.333 19.167 183 57.5s80 89.5 94 153.5l202 -37c-18.667 -106 -71 -193.333 -157 -262c-86.667 -70.667 -194.667 -106 -324 -106c-149.333 0 -273.333 49.833 -372 149.5
s-148 225.834 -148 378.501c0 151.333 49.833 276.833 149.5 376.5s223.834 149.5 372.501 149.5c122 0 225.333 -32.833 310 -98.5s139 -152.834 163 -261.501l-205 -35c-16 62 -47 111 -93 147s-103 54 -171 54c-90 0 -163.333 -30.167 -220 -90.5
s-85 -140.833 -85 -241.5zM982.999 1176h-221l-154 145l-155 -145h-220l263 280h225z" />
    <glyph glyph-name="Cdotaccent" unicode="&#x10a;" horiz-adv-x="1640" 
d="M352 768c0 -78.667 11.333 -152.501 34 -221.501s55.167 -129.833 97.5 -182.5s96.333 -94.334 162 -125.001s138.5 -46 218.5 -46c128 0 233.333 35.333 316 106c80 68 131.667 153.333 155 256l221 -61c-36 -154.667 -116.667 -278.667 -242 -372s-276 -140 -452 -140
c-115.333 0 -220.5 20.333 -315.5 61s-174 96.334 -237 167.001s-111.5 153.834 -145.5 249.501s-51 198.5 -51 308.5c0 109.333 17.333 211.666 52 306.999s83.667 178.5 147 249.5s143 127 239 168s202.333 61.5 319 61.5c177.333 0 325 -46.333 443 -139
c116 -91.333 191.667 -212.666 227 -363.999l-219 -62c-22 105.333 -73.167 190.666 -153.5 255.999s-181.5 98 -303.5 98c-104 0 -195.5 -26.667 -274.5 -80s-138.333 -123.166 -178 -209.499s-59.5 -181.5 -59.5 -285.5zM872 1716c-40 0 -72.833 13 -98.5 39
s-38.5 58 -38.5 96s12.833 69.833 38.5 95.5s58.5 38.5 98.5 38.5c38 0 70.167 -12.833 96.5 -38.5s39.5 -57.5 39.5 -95.5s-13.167 -70 -39.5 -96s-58.5 -39 -96.5 -39z" />
    <glyph glyph-name="cdotaccent" unicode="&#x10b;" horiz-adv-x="1136" 
d="M301 510c0 -99.333 27.832 -179.833 83.499 -241.5s128.167 -92.5 217.5 -92.5c73.333 0 134.333 19.167 183 57.5s80 89.5 94 153.5l202 -37c-18.667 -106 -71 -193.333 -157 -262c-86.667 -70.667 -194.667 -106 -324 -106c-149.333 0 -273.333 49.833 -372 149.5
s-148 225.834 -148 378.501c0 151.333 49.833 276.833 149.5 376.5s223.834 149.5 372.501 149.5c122 0 225.333 -32.833 310 -98.5s139 -152.834 163 -261.501l-205 -35c-16 62 -47 111 -93 147s-103 54 -171 54c-90 0 -163.333 -30.167 -220 -90.5
s-85 -140.833 -85 -241.5zM607.999 1214c-39.333 0 -72 13 -98 39s-39 58.333 -39 97c0 38 12.833 69.667 38.5 95s58.5 38 98.5 38c38 0 70 -12.667 96 -38s39 -57 39 -95s-13 -70.167 -39 -96.5s-58 -39.5 -96 -39.5z" />
    <glyph glyph-name="Ccaron" unicode="&#x10c;" horiz-adv-x="1640" 
d="M352 768c0 -78.667 11.333 -152.501 34 -221.501s55.167 -129.833 97.5 -182.5s96.333 -94.334 162 -125.001s138.5 -46 218.5 -46c128 0 233.333 35.333 316 106c80 68 131.667 153.333 155 256l221 -61c-36 -154.667 -116.667 -278.667 -242 -372s-276 -140 -452 -140
c-115.333 0 -220.5 20.333 -315.5 61s-174 96.334 -237 167.001s-111.5 153.834 -145.5 249.501s-51 198.5 -51 308.5c0 109.333 17.333 211.666 52 306.999s83.667 178.5 147 249.5s143 127 239 168s202.333 61.5 319 61.5c177.333 0 325 -46.333 443 -139
c116 -91.333 191.667 -212.666 227 -363.999l-219 -62c-22 105.333 -73.167 190.666 -153.5 255.999s-181.5 98 -303.5 98c-104 0 -195.5 -26.667 -274.5 -80s-138.333 -123.166 -178 -209.499s-59.5 -181.5 -59.5 -285.5zM872 1812l158 146h215l-262 -281h-225l-262 281
h225z" />
    <glyph glyph-name="ccaron" unicode="&#x10d;" horiz-adv-x="1136" 
d="M301 510c0 -99.333 27.832 -179.833 83.499 -241.5s128.167 -92.5 217.5 -92.5c73.333 0 134.333 19.167 183 57.5s80 89.5 94 153.5l202 -37c-18.667 -106 -71 -193.333 -157 -262c-86.667 -70.667 -194.667 -106 -324 -106c-149.333 0 -273.333 49.833 -372 149.5
s-148 225.834 -148 378.501c0 151.333 49.833 276.833 149.5 376.5s223.834 149.5 372.501 149.5c122 0 225.333 -32.833 310 -98.5s139 -152.834 163 -261.501l-205 -35c-16 62 -47 111 -93 147s-103 54 -171 54c-90 0 -163.333 -30.167 -220 -90.5
s-85 -140.833 -85 -241.5zM609.999 1311l158 145h215l-262 -280h-225l-263 280h226z" />
    <glyph glyph-name="Emacron" unicode="&#x112;" horiz-adv-x="1288" 
d="M1219 0h-1002v1536h981v-207h-752v-420h529v-207h-529v-495h773v-207zM418 1737v178h606v-178h-606z" />
    <glyph glyph-name="emacron" unicode="&#x113;" horiz-adv-x="1181" 
d="M80 510c0 152 48.834 277.666 146.501 376.999s222.167 149 373.5 149c146 0 265.333 -44.333 358 -133c92 -88 138 -203.333 138 -346c0 -11.333 -1.33301 -28.5 -4 -51.5s-4.33398 -39.167 -5.00098 -48.5h-790c8.66699 -95.333 40.5 -167.333 95.5 -216
s125.5 -73 211.5 -73c76.667 0 140.5 15.833 191.5 47.5s83.5 74.5 97.5 128.5l197 -35c-23.333 -103.333 -79.333 -183 -168 -239c-89.333 -58.667 -195.333 -88 -318 -88c-158.667 0 -285.667 49.333 -381 148s-143 225.334 -143 380.001zM602.001 857.999
c-81.333 0 -148.668 -20.5 -202.001 -61.5s-85.666 -96.833 -96.999 -167.5h584c-11.333 70.667 -42.333 126.5 -93 167.5s-114.667 61.5 -192 61.5zM282.999 1235v178h606v-178h-606z" />
    <glyph glyph-name="Ebreve" unicode="&#x114;" horiz-adv-x="1288" 
d="M1219 0h-1002v1536h981v-207h-752v-420h529v-207h-529v-495h773v-207zM719 1825c42 0 75.5 11.167 100.5 33.5s37.833 54.833 38.5 97.5h186c-0.666992 -88 -31 -158.833 -91 -212.5s-137.333 -80.5 -232 -80.5s-172.167 26.833 -232.5 80.5s-90.833 124.5 -91.5 212.5
h189c0 -42.667 11.833 -75.167 35.5 -97.5s56.167 -33.5 97.5 -33.5z" />
    <glyph glyph-name="ebreve" unicode="&#x115;" horiz-adv-x="1181" 
d="M80 510c0 152 48.834 277.666 146.501 376.999s222.167 149 373.5 149c146 0 265.333 -44.333 358 -133c92 -88 138 -203.333 138 -346c0 -11.333 -1.33301 -28.5 -4 -51.5s-4.33398 -39.167 -5.00098 -48.5h-790c8.66699 -95.333 40.5 -167.333 95.5 -216
s125.5 -73 211.5 -73c76.667 0 140.5 15.833 191.5 47.5s83.5 74.5 97.5 128.5l197 -35c-23.333 -103.333 -79.333 -183 -168 -239c-89.333 -58.667 -195.333 -88 -318 -88c-158.667 0 -285.667 49.333 -381 148s-143 225.334 -143 380.001zM602.001 857.999
c-81.333 0 -148.668 -20.5 -202.001 -61.5s-85.666 -96.833 -96.999 -167.5h584c-11.333 70.667 -42.333 126.5 -93 167.5s-114.667 61.5 -192 61.5zM583.999 1323c42 0 75.5 11.167 100.5 33.5s37.833 54.833 38.5 97.5h186c-0.666992 -88 -31 -158.833 -91 -212.5
s-137.333 -80.5 -232 -80.5s-172.167 26.833 -232.5 80.5s-90.833 124.5 -91.5 212.5h189c0 -42.667 11.833 -75.167 35.5 -97.5s56.167 -33.5 97.5 -33.5z" />
    <glyph glyph-name="Edotaccent" unicode="&#x116;" horiz-adv-x="1288" 
d="M1219 0h-1002v1536h981v-207h-752v-420h529v-207h-529v-495h773v-207zM723 1716c-39.333 0 -72 13 -98 39s-39 58 -39 96s12.833 69.833 38.5 95.5s58.5 38.5 98.5 38.5c38 0 70 -12.833 96 -38.5s39 -57.5 39 -95.5s-13 -70 -39 -96s-58 -39 -96 -39z" />
    <glyph glyph-name="edotaccent" unicode="&#x117;" horiz-adv-x="1181" 
d="M80 510c0 152 48.834 277.666 146.501 376.999s222.167 149 373.5 149c146 0 265.333 -44.333 358 -133c92 -88 138 -203.333 138 -346c0 -11.333 -1.33301 -28.5 -4 -51.5s-4.33398 -39.167 -5.00098 -48.5h-790c8.66699 -95.333 40.5 -167.333 95.5 -216
s125.5 -73 211.5 -73c76.667 0 140.5 15.833 191.5 47.5s83.5 74.5 97.5 128.5l197 -35c-23.333 -103.333 -79.333 -183 -168 -239c-89.333 -58.667 -195.333 -88 -318 -88c-158.667 0 -285.667 49.333 -381 148s-143 225.334 -143 380.001zM602.001 857.999
c-81.333 0 -148.668 -20.5 -202.001 -61.5s-85.666 -96.833 -96.999 -167.5h584c-11.333 70.667 -42.333 126.5 -93 167.5s-114.667 61.5 -192 61.5zM587.999 1214c-39.333 0 -72 13 -98 39s-39 58.333 -39 97c0 38 12.833 69.667 38.5 95s58.5 38 98.5 38
c38 0 70 -12.667 96 -38s39 -57 39 -95s-13 -70.167 -39 -96.5s-58 -39.5 -96 -39.5z" />
    <glyph glyph-name="Eogonek" unicode="&#x118;" horiz-adv-x="1288" 
d="M961 0h-743.999v1536h981v-207h-752v-420h529v-207h-529v-495h773v-207c-126 -47.333 -189 -109.333 -189 -186c0 -34 10.5 -61 31.5 -81s49.5 -30 85.5 -30c25.333 0 48.666 4 69.999 12l36 -147c-46 -24.667 -103.333 -37 -172 -37c-82 0 -144.5 21.833 -187.5 65.5
s-64.5 100.5 -64.5 170.5c0 91.333 44 169 132 233z" />
    <glyph glyph-name="eogonek" unicode="&#x119;" horiz-adv-x="1181" 
d="M80 510c0 152 48.834 277.666 146.501 376.999s222.167 149 373.5 149c146 0 265.333 -44.333 358 -133c92 -88 138 -203.333 138 -346c0 -11.333 -1.33301 -28.5 -4 -51.5s-4.33398 -39.167 -5.00098 -48.5h-790c8.66699 -95.333 40.5 -167.333 95.5 -216
s125.5 -73 211.5 -73c76.667 0 140.5 15.833 191.5 47.5s83.5 74.5 97.5 128.5l197 -35c-17.333 -90 -66.666 -165 -147.999 -225c-52.667 -47.333 -89.667 -88.5 -111 -123.5s-32 -76.5 -32 -124.5c0 -41.333 12.667 -73.833 38 -97.5s58.333 -35.5 99 -35.5
c28 0 54 4 78 12l35 -147c-42.667 -24.667 -101 -37 -175 -37c-84.667 0 -150.834 22 -198.501 66s-71.5 103.333 -71.5 178c0 80 30 151 90 213c-54 -4 -84 -6 -90 -6c-158.667 0 -285.667 49.333 -381 148s-143 225.334 -143 380.001zM602.001 857.999
c-81.333 0 -148.668 -20.5 -202.001 -61.5s-85.666 -96.833 -96.999 -167.5h584c-11.333 70.667 -42.333 126.5 -93 167.5s-114.667 61.5 -192 61.5z" />
    <glyph glyph-name="Ecaron" unicode="&#x11a;" horiz-adv-x="1288" 
d="M1219 0h-1002v1536h981v-207h-752v-420h529v-207h-529v-495h773v-207zM723 1812l158 146h215l-262 -281h-226l-262 281h225z" />
    <glyph glyph-name="ecaron" unicode="&#x11b;" horiz-adv-x="1181" 
d="M80 510c0 152 48.834 277.666 146.501 376.999s222.167 149 373.5 149c146 0 265.333 -44.333 358 -133c92 -88 138 -203.333 138 -346c0 -11.333 -1.33301 -28.5 -4 -51.5s-4.33398 -39.167 -5.00098 -48.5h-790c8.66699 -95.333 40.5 -167.333 95.5 -216
s125.5 -73 211.5 -73c76.667 0 140.5 15.833 191.5 47.5s83.5 74.5 97.5 128.5l197 -35c-23.333 -103.333 -79.333 -183 -168 -239c-89.333 -58.667 -195.333 -88 -318 -88c-158.667 0 -285.667 49.333 -381 148s-143 225.334 -143 380.001zM602.001 857.999
c-81.333 0 -148.668 -20.5 -202.001 -61.5s-85.666 -96.833 -96.999 -167.5h584c-11.333 70.667 -42.333 126.5 -93 167.5s-114.667 61.5 -192 61.5zM587.999 1311l157 145h216l-263 -280h-225l-262 280h225z" />
    <glyph glyph-name="Gcircumflex" unicode="&#x11c;" horiz-adv-x="1683" 
d="M352 770c0 -170 47.498 -308.668 142.498 -416.001s220.167 -161 375.5 -161c136 0 248.167 35.667 336.5 107s132.5 165.333 132.5 282h-622v204h860v-112c0 -208.667 -65 -376.167 -195 -502.5s-300.667 -189.5 -512 -189.5c-145.333 0 -275.666 34 -390.999 102
s-205.166 162 -269.499 282s-96.5 254.667 -96.5 404c0 148.667 32.167 282.667 96.5 402s154.333 212.833 270 280.5s246.5 101.5 392.5 101.5c173.333 0 320.333 -43 441 -129c118.667 -86 197.667 -198.667 237 -338l-221 -63c-25.333 93.333 -79 169.833 -161 229.5
s-180.667 89.5 -296 89.5c-157.333 0 -283.333 -53.167 -378 -159.5s-142 -244.166 -142 -413.499zM1247 1677h-221l-154 146l-155 -146h-219l262 281h225z" />
    <glyph glyph-name="gcircumflex" unicode="&#x11d;" horiz-adv-x="1280" 
d="M80 516c0 150 46.8311 274.166 140.498 372.499s211.834 147.5 354.501 147.5c137.333 0 250 -51.667 338 -155l11 137h196v-1004c0 -142.667 -45.667 -258.667 -137 -348c-92 -90 -216.333 -135 -373 -135c-138 0 -249.667 32 -335 96s-136.666 147.333 -153.999 250
l217 41c11.333 -61.333 40.5 -108.666 87.5 -141.999s109.167 -50 186.5 -50c90.667 0 162.834 24 216.501 72s80.5 114.667 80.5 200v149c-42 -46.667 -91.833 -83.167 -149.5 -109.5s-119.167 -39.5 -184.5 -39.5c-142.667 0 -260.834 49 -354.501 147
s-140.5 221.667 -140.5 371zM300.998 515.999c0 -95.333 28.333 -173 85 -233s130 -90 220 -90s163 30 219 90s84 137.667 84 233c0 97.333 -28 176 -84 236s-129 90 -219 90s-163.333 -30 -220 -90s-85 -138.667 -85 -236zM1026 1176h-221l-154 145l-155 -145h-220l263 280
h225z" />
    <glyph glyph-name="Gbreve" unicode="&#x11e;" horiz-adv-x="1683" 
d="M352 770c0 -170 47.498 -308.668 142.498 -416.001s220.167 -161 375.5 -161c136 0 248.167 35.667 336.5 107s132.5 165.333 132.5 282h-622v204h860v-112c0 -208.667 -65 -376.167 -195 -502.5s-300.667 -189.5 -512 -189.5c-145.333 0 -275.666 34 -390.999 102
s-205.166 162 -269.499 282s-96.5 254.667 -96.5 404c0 148.667 32.167 282.667 96.5 402s154.333 212.833 270 280.5s246.5 101.5 392.5 101.5c173.333 0 320.333 -43 441 -129c118.667 -86 197.667 -198.667 237 -338l-221 -63c-25.333 93.333 -79 169.833 -161 229.5
s-180.667 89.5 -296 89.5c-157.333 0 -283.333 -53.167 -378 -159.5s-142 -244.166 -142 -413.499zM869.998 1825c42 0 75.667 11.167 101 33.5s38.333 54.833 39 97.5h186c-0.666992 -88 -31.167 -158.833 -91.5 -212.5s-137.833 -80.5 -232.5 -80.5s-172 26.833 -232 80.5
s-90.333 124.5 -91 212.5h188c0 -42.667 11.833 -75.167 35.5 -97.5s56.167 -33.5 97.5 -33.5z" />
    <glyph glyph-name="gbreve" unicode="&#x11f;" horiz-adv-x="1280" 
d="M80 516c0 150 46.8311 274.166 140.498 372.499s211.834 147.5 354.501 147.5c137.333 0 250 -51.667 338 -155l11 137h196v-1004c0 -142.667 -45.667 -258.667 -137 -348c-92 -90 -216.333 -135 -373 -135c-138 0 -249.667 32 -335 96s-136.666 147.333 -153.999 250
l217 41c11.333 -61.333 40.5 -108.666 87.5 -141.999s109.167 -50 186.5 -50c90.667 0 162.834 24 216.501 72s80.5 114.667 80.5 200v149c-42 -46.667 -91.833 -83.167 -149.5 -109.5s-119.167 -39.5 -184.5 -39.5c-142.667 0 -260.834 49 -354.501 147
s-140.5 221.667 -140.5 371zM300.998 515.999c0 -95.333 28.333 -173 85 -233s130 -90 220 -90s163 30 219 90s84 137.667 84 233c0 97.333 -28 176 -84 236s-129 90 -219 90s-163.333 -30 -220 -90s-85 -138.667 -85 -236zM650.998 1323c42 0 75.667 11.167 101 33.5
s38.333 54.833 39 97.5h186c-0.666992 -88 -31.167 -158.833 -91.5 -212.5s-137.833 -80.5 -232.5 -80.5s-172 26.833 -232 80.5s-90.333 124.5 -91 212.5h188c0 -42.667 11.833 -75.167 35.5 -97.5s56.167 -33.5 97.5 -33.5z" />
    <glyph glyph-name="Gdotaccent" unicode="&#x120;" horiz-adv-x="1683" 
d="M352 770c0 -170 47.498 -308.668 142.498 -416.001s220.167 -161 375.5 -161c136 0 248.167 35.667 336.5 107s132.5 165.333 132.5 282h-622v204h860v-112c0 -208.667 -65 -376.167 -195 -502.5s-300.667 -189.5 -512 -189.5c-145.333 0 -275.666 34 -390.999 102
s-205.166 162 -269.499 282s-96.5 254.667 -96.5 404c0 148.667 32.167 282.667 96.5 402s154.333 212.833 270 280.5s246.5 101.5 392.5 101.5c173.333 0 320.333 -43 441 -129c118.667 -86 197.667 -198.667 237 -338l-221 -63c-25.333 93.333 -79 169.833 -161 229.5
s-180.667 89.5 -296 89.5c-157.333 0 -283.333 -53.167 -378 -159.5s-142 -244.166 -142 -413.499zM873.998 1716c-40 0 -72.833 13 -98.5 39s-38.5 58 -38.5 96s12.833 69.833 38.5 95.5s58.5 38.5 98.5 38.5c38 0 70.167 -12.833 96.5 -38.5s39.5 -57.5 39.5 -95.5
s-13.167 -70 -39.5 -96s-58.5 -39 -96.5 -39z" />
    <glyph glyph-name="gdotaccent" unicode="&#x121;" horiz-adv-x="1280" 
d="M80 516c0 150 46.8311 274.166 140.498 372.499s211.834 147.5 354.501 147.5c137.333 0 250 -51.667 338 -155l11 137h196v-1004c0 -142.667 -45.667 -258.667 -137 -348c-92 -90 -216.333 -135 -373 -135c-138 0 -249.667 32 -335 96s-136.666 147.333 -153.999 250
l217 41c11.333 -61.333 40.5 -108.666 87.5 -141.999s109.167 -50 186.5 -50c90.667 0 162.834 24 216.501 72s80.5 114.667 80.5 200v149c-42 -46.667 -91.833 -83.167 -149.5 -109.5s-119.167 -39.5 -184.5 -39.5c-142.667 0 -260.834 49 -354.501 147
s-140.5 221.667 -140.5 371zM300.998 515.999c0 -95.333 28.333 -173 85 -233s130 -90 220 -90s163 30 219 90s84 137.667 84 233c0 97.333 -28 176 -84 236s-129 90 -219 90s-163.333 -30 -220 -90s-85 -138.667 -85 -236zM646.998 1214c-39.333 0 -72 13 -98 39
s-39 58.333 -39 97c0 38 12.833 69.667 38.5 95s58.5 38 98.5 38c38 0 70 -12.667 96 -38s39 -57 39 -95s-13 -70.167 -39 -96.5s-58 -39.5 -96 -39.5z" />
    <glyph glyph-name="uni0122" unicode="&#x122;" horiz-adv-x="1683" 
d="M352 770c0 -170 47.498 -308.668 142.498 -416.001s220.167 -161 375.5 -161c136 0 248.167 35.667 336.5 107s132.5 165.333 132.5 282h-622v204h860v-112c0 -208.667 -65 -376.167 -195 -502.5s-300.667 -189.5 -512 -189.5c-145.333 0 -275.666 34 -390.999 102
s-205.166 162 -269.499 282s-96.5 254.667 -96.5 404c0 148.667 32.167 282.667 96.5 402s154.333 212.833 270 280.5s246.5 101.5 392.5 101.5c173.333 0 320.333 -43 441 -129c118.667 -86 197.667 -198.667 237 -338l-221 -63c-25.333 93.333 -79 169.833 -161 229.5
s-180.667 89.5 -296 89.5c-157.333 0 -283.333 -53.167 -378 -159.5s-142 -244.166 -142 -413.499zM646.998 -438.001l121 313h223l-192 -313h-152z" />
    <glyph glyph-name="uni0123" unicode="&#x123;" horiz-adv-x="1280" 
d="M80 516c0 150 46.8311 274.166 140.498 372.499s211.834 147.5 354.501 147.5c137.333 0 250 -51.667 338 -155l11 137h196v-1004c0 -142.667 -45.667 -258.667 -137 -348c-92 -90 -216.333 -135 -373 -135c-138 0 -249.667 32 -335 96s-136.666 147.333 -153.999 250
l217 41c11.333 -61.333 40.5 -108.666 87.5 -141.999s109.167 -50 186.5 -50c90.667 0 162.834 24 216.501 72s80.5 114.667 80.5 200v149c-42 -46.667 -91.833 -83.167 -149.5 -109.5s-119.167 -39.5 -184.5 -39.5c-142.667 0 -260.834 49 -354.501 147
s-140.5 221.667 -140.5 371zM300.998 515.999c0 -95.333 28.333 -173 85 -233s130 -90 220 -90s163 30 219 90s84 137.667 84 233c0 97.333 -28 176 -84 236s-129 90 -219 90s-163.333 -30 -220 -90s-85 -138.667 -85 -236zM511.998 1145l190 315h152l-121 -315h-221z" />
    <glyph glyph-name="Hcircumflex" unicode="&#x124;" horiz-adv-x="1701" 
d="M446 0h-229v1536h229v-616h809v616h230v-1536h-230v707h-809v-707zM1225 1677h-221l-154 146l-156 -146h-219l262 281h226z" />
    <glyph glyph-name="hcircumflex" unicode="&#x125;" horiz-adv-x="1212" 
d="M371 0h-210.999v1536h211v-637c80 91.333 183 137 309 137c115.333 0 210.666 -37 285.999 -111s113 -178.333 113 -313v-612h-213v584c0 82 -21.833 145.167 -65.5 189.5s-100.167 66.5 -169.5 66.5c-72 0 -133.333 -22.5 -184 -67.5s-76 -112.833 -76 -203.5v-569z
M903.001 1628h-221l-154 146l-155 -146h-219l262 281h225z" />
    <glyph glyph-name="Itilde" unicode="&#x128;" horiz-adv-x="661" 
d="M446 0h-229v1536h229v-1536zM467 1694c-22.667 0 -45.332 5.66895 -67.999 17.002s-41.334 23.666 -56.001 36.999s-31.167 25.666 -49.5 36.999s-35.5 17 -51.5 17c-27.333 0 -47.5 -8.83301 -60.5 -26.5s-19.5 -45.5 -19.5 -83.5h-154
c-4 84.667 11.167 150.167 45.5 196.5s82.166 69.5 143.499 69.5c22.667 0 45.834 -5.5 69.501 -16.5s43.834 -23 60.501 -36s34.167 -25 52.5 -36s33.833 -16.5 46.5 -16.5c26 0 45.667 8.83301 59 26.5s19.666 43.167 18.999 76.5h153
c4.66699 -82 -10 -146.167 -44 -192.5s-82.667 -69.5 -146 -69.5z" />
    <glyph glyph-name="itilde" unicode="&#x129;" 
d="M371 0h-211v1018h211v-1018zM401 1192c-22.667 0 -45.3359 5.66797 -68.0029 17.001s-41.334 23.666 -56.001 36.999s-31.167 25.666 -49.5 36.999s-35.5 17 -51.5 17c-27.333 0 -47.5 -8.83301 -60.5 -26.5s-19.5 -45.5 -19.5 -83.5h-153c-4 84.667 11 150.167 45 196.5
s81.667 69.5 143 69.5c28.667 0 57.834 -8.66699 87.501 -26s56.834 -34.666 81.501 -51.999s44.667 -26 60 -26c54 0 80 34 78 102h154c4.66699 -82 -10.166 -146.167 -44.499 -192.5s-83.166 -69.5 -146.499 -69.5z" />
    <glyph glyph-name="Imacron" unicode="&#x12a;" horiz-adv-x="661" 
d="M446 0h-229v1536h229v-1536zM27 1737v178h606v-178h-606z" />
    <glyph glyph-name="imacron" unicode="&#x12b;" 
d="M371 0h-211v1018h211v-1018zM-39 1235v178h606v-178h-606z" />
    <glyph glyph-name="Ibreve" unicode="&#x12c;" horiz-adv-x="661" 
d="M446 0h-229v1536h229v-1536zM328 1825c42 0 75.5 11.167 100.5 33.5s37.833 54.833 38.5 97.5h186c-0.666992 -88 -31 -158.833 -91 -212.5s-137.333 -80.5 -232 -80.5s-172.167 26.833 -232.5 80.5s-90.833 124.5 -91.5 212.5h189c0 -42.667 11.833 -75.167 35.5 -97.5
s56.167 -33.5 97.5 -33.5z" />
    <glyph glyph-name="ibreve" unicode="&#x12d;" 
d="M371 0h-211v1018h211v-1018zM262 1323c42 0 75.5 11.167 100.5 33.5s37.833 54.833 38.5 97.5h187c-0.666992 -88 -31.167 -158.833 -91.5 -212.5s-137.833 -80.5 -232.5 -80.5s-172 26.833 -232 80.5s-90.333 124.5 -91 212.5h188c0 -42.667 11.833 -75.167 35.5 -97.5
s56.167 -33.5 97.5 -33.5z" />
    <glyph glyph-name="Iogonek" unicode="&#x12e;" horiz-adv-x="661" 
d="M307 -469c-82 0 -144.5 21.832 -187.5 65.499s-64.5 100.5 -64.5 170.5c0 102.667 54 186.334 162 251.001v1518h229v-1536h-2c-125.333 -47.333 -188 -109.333 -188 -186c0 -34 10.5 -61 31.5 -81s49.5 -30 85.5 -30c24.667 0 47.667 4 69 12l37 -147
c-46 -24.667 -103.333 -37 -172 -37z" />
    <glyph glyph-name="iogonek" unicode="&#x12f;" 
d="M401 1350c0 -38.667 -13 -71 -39 -97s-58.667 -39 -98 -39c-38 0 -70 13.167 -96 39.5s-39 58.5 -39 96.5s13 69.667 39 95s58 38 96 38c40 0 72.833 -12.667 98.5 -38s38.5 -57 38.5 -95zM233 -469c-82 0 -144.332 21.834 -186.999 65.501s-64 100.5 -64 170.5
c0 107.333 59.333 194.666 178 261.999v989h211v-1018c-126 -47.333 -189 -109.333 -189 -186c0 -34 10.5 -61 31.5 -81s49.5 -30 85.5 -30c25.333 0 48.666 4 69.999 12l37 -147c-46 -24.667 -103.667 -37 -173 -37z" />
    <glyph glyph-name="Idotaccent" unicode="&#x130;" horiz-adv-x="661" 
d="M446 0h-229v1536h229v-1536zM332 1716c-40 0 -72.833 13 -98.5 39s-38.5 58 -38.5 96s12.833 69.833 38.5 95.5s58.5 38.5 98.5 38.5c38 0 70 -12.833 96 -38.5s39 -57.5 39 -95.5s-13 -70 -39 -96s-58 -39 -96 -39z" />
    <glyph glyph-name="dotlessi" unicode="&#x131;" 
d="M371 0h-211v1018h211v-1018z" />
    <glyph glyph-name="uni0136" unicode="&#x136;" horiz-adv-x="1454" 
d="M629 702h-183v-702h-229v1536h229v-618h193l506 618h276l-594 -719l615 -817h-277zM545 -438l121 313h223l-193 -313h-151z" />
    <glyph glyph-name="uni0137" unicode="&#x137;" horiz-adv-x="1087" 
d="M485 666l316 352h252l-404 -447l426 -571h-254l-342 461h-108v-461h-211v1536h211v-870h114zM360 -438l121 313h224l-193 -313h-152z" />
    <glyph glyph-name="Lacute" unicode="&#x139;" horiz-adv-x="1214" 
d="M1163 0h-946v1536h229v-1325h717v-211zM219 1677l197 281h276l-276 -281h-197z" />
    <glyph glyph-name="lacute" unicode="&#x13a;" 
d="M371 0h-211v1536h211v-1536zM152 1628l196 281h277l-277 -281h-196z" />
    <glyph glyph-name="uni013B" unicode="&#x13b;" horiz-adv-x="1214" 
d="M1163 0h-946v1536h229v-1325h717v-211zM477 -438l121 313h223l-192 -313h-152z" />
    <glyph glyph-name="uni013C" unicode="&#x13c;" 
d="M371 0h-211v1536h211v-1536zM35 -438l121 313h223l-193 -313h-151z" />
    <glyph glyph-name="Nacute" unicode="&#x143;" horiz-adv-x="1695" 
d="M434 0h-217v1536h244l799 -1200v1200h219v-1536h-246l-799 1204v-1204zM727 1677l197 281h276l-276 -281h-197z" />
    <glyph glyph-name="nacute" unicode="&#x144;" horiz-adv-x="1214" 
d="M371 0h-210.999v1018h196l9 -125c82 95.333 187 143 315 143c115.333 0 210.666 -37 285.999 -111s113 -178.333 113 -313v-612h-213v584c0 82 -21.833 145.167 -65.5 189.5s-100.167 66.5 -169.5 66.5c-34 0 -65.833 -5 -95.5 -15s-57.167 -25.333 -82.5 -46
s-45.333 -49 -60 -85s-22 -77.667 -22 -125v-569zM463.001 1176l196 280h277l-277 -280h-196z" />
    <glyph glyph-name="uni0145" unicode="&#x145;" horiz-adv-x="1695" 
d="M434 0h-217v1536h244l799 -1200v1200h219v-1536h-246l-799 1204v-1204zM637 -438l121 313h223l-193 -313h-151z" />
    <glyph glyph-name="uni0146" unicode="&#x146;" horiz-adv-x="1214" 
d="M371 0h-210.999v1018h196l9 -125c82 95.333 187 143 315 143c115.333 0 210.666 -37 285.999 -111s113 -178.333 113 -313v-612h-213v584c0 82 -21.833 145.167 -65.5 189.5s-100.167 66.5 -169.5 66.5c-34 0 -65.833 -5 -95.5 -15s-57.167 -25.333 -82.5 -46
s-45.333 -49 -60 -85s-22 -77.667 -22 -125v-569zM387.001 -438l121 313h223l-192 -313h-152z" />
    <glyph glyph-name="Ncaron" unicode="&#x147;" horiz-adv-x="1695" 
d="M434 0h-217v1536h244l799 -1200v1200h219v-1536h-246l-799 1204v-1204zM877 1812l157 146h215l-262 -281h-225l-262 281h225z" />
    <glyph glyph-name="ncaron" unicode="&#x148;" horiz-adv-x="1214" 
d="M371 0h-210.999v1018h196l9 -125c82 95.333 187 143 315 143c115.333 0 210.666 -37 285.999 -111s113 -178.333 113 -313v-612h-213v584c0 82 -21.833 145.167 -65.5 189.5s-100.167 66.5 -169.5 66.5c-34 0 -65.833 -5 -95.5 -15s-57.167 -25.333 -82.5 -46
s-45.333 -49 -60 -85s-22 -77.667 -22 -125v-569zM625.001 1311l157 145h215l-262 -280h-225l-262 280h225z" />
    <glyph glyph-name="Omacron" unicode="&#x14c;" horiz-adv-x="1751" 
d="M113 768c0 112 18.833 216.502 56.5 313.502s89.667 180.167 156 249.5s147.166 123.833 242.499 163.5s198.333 59.5 309 59.5c147.333 0 279 -33.833 395 -101.5s206 -161.334 270 -281.001s96 -254.167 96 -403.5s-32 -283.833 -96 -403.5
s-154 -213.334 -270 -281.001s-247.667 -101.5 -395 -101.5c-110.667 0 -213.667 19.833 -309 59.5s-176.166 94.167 -242.499 163.5s-118.333 152.5 -156 249.5s-56.5 201.5 -56.5 313.5zM1401 768.002c0 172 -48.167 310.833 -144.5 416.5s-222.833 158.5 -379.5 158.5
c-158 0 -285 -52.667 -381 -158s-144 -244.333 -144 -417s48 -311.667 144 -417s223 -158 381 -158c156.667 0 283.167 52.833 379.5 158.5s144.5 244.5 144.5 416.5zM573 1737v178h607v-178h-607z" />
    <glyph glyph-name="omacron" unicode="&#x14d;" horiz-adv-x="1228" 
d="M614 1036c154.667 0 282.501 -49.832 383.501 -149.499s151.5 -225.167 151.5 -376.5c0 -152.667 -50.5 -278.834 -151.5 -378.501s-228.833 -149.5 -383.5 -149.5c-154 0 -281.5 50 -382.5 150s-151.5 226 -151.5 378c0 151.333 50.667 276.833 152 376.5
s228.666 149.5 381.999 149.5zM614.001 842.001c-92.667 0 -168 -30.667 -226 -92s-87 -141.333 -87 -240s29 -179 87 -241s133.333 -93 226 -93s168.167 31 226.5 93s87.5 142.333 87.5 241s-29 178.667 -87 240s-133.667 92 -227 92zM309.001 1235v178h606v-178h-606z" />
    <glyph glyph-name="Obreve" unicode="&#x14e;" horiz-adv-x="1751" 
d="M113 768c0 112 18.833 216.502 56.5 313.502s89.667 180.167 156 249.5s147.166 123.833 242.499 163.5s198.333 59.5 309 59.5c147.333 0 279 -33.833 395 -101.5s206 -161.334 270 -281.001s96 -254.167 96 -403.5s-32 -283.833 -96 -403.5
s-154 -213.334 -270 -281.001s-247.667 -101.5 -395 -101.5c-110.667 0 -213.667 19.833 -309 59.5s-176.166 94.167 -242.499 163.5s-118.333 152.5 -156 249.5s-56.5 201.5 -56.5 313.5zM1401 768.002c0 172 -48.167 310.833 -144.5 416.5s-222.833 158.5 -379.5 158.5
c-158 0 -285 -52.667 -381 -158s-144 -244.333 -144 -417s48 -311.667 144 -417s223 -158 381 -158c156.667 0 283.167 52.833 379.5 158.5s144.5 244.5 144.5 416.5zM874 1825c42 0 75.667 11.167 101 33.5s38.333 54.833 39 97.5h186
c-0.666992 -88 -31 -158.833 -91 -212.5s-137.333 -80.5 -232 -80.5s-172.167 26.833 -232.5 80.5s-90.833 124.5 -91.5 212.5h188c0 -42.667 11.833 -75.167 35.5 -97.5s56.167 -33.5 97.5 -33.5z" />
    <glyph glyph-name="obreve" unicode="&#x14f;" horiz-adv-x="1228" 
d="M614 1036c154.667 0 282.501 -49.832 383.501 -149.499s151.5 -225.167 151.5 -376.5c0 -152.667 -50.5 -278.834 -151.5 -378.501s-228.833 -149.5 -383.5 -149.5c-154 0 -281.5 50 -382.5 150s-151.5 226 -151.5 378c0 151.333 50.667 276.833 152 376.5
s228.666 149.5 381.999 149.5zM614.001 842.001c-92.667 0 -168 -30.667 -226 -92s-87 -141.333 -87 -240s29 -179 87 -241s133.333 -93 226 -93s168.167 31 226.5 93s87.5 142.333 87.5 241s-29 178.667 -87 240s-133.667 92 -227 92zM610.001 1323
c42 0 75.667 11.167 101 33.5s38.333 54.833 39 97.5h186c-0.666992 -88 -31.167 -158.833 -91.5 -212.5s-137.833 -80.5 -232.5 -80.5s-172 26.833 -232 80.5s-90.333 124.5 -91 212.5h188c0 -42.667 11.833 -75.167 35.5 -97.5s56.167 -33.5 97.5 -33.5z" />
    <glyph glyph-name="Ohungarumlaut" unicode="&#x150;" horiz-adv-x="1751" 
d="M113 768c0 112 18.833 216.502 56.5 313.502s89.667 180.167 156 249.5s147.166 123.833 242.499 163.5s198.333 59.5 309 59.5c147.333 0 279 -33.833 395 -101.5s206 -161.334 270 -281.001s96 -254.167 96 -403.5s-32 -283.833 -96 -403.5
s-154 -213.334 -270 -281.001s-247.667 -101.5 -395 -101.5c-110.667 0 -213.667 19.833 -309 59.5s-176.166 94.167 -242.499 163.5s-118.333 152.5 -156 249.5s-56.5 201.5 -56.5 313.5zM1401 768.002c0 172 -48.167 310.833 -144.5 416.5s-222.833 158.5 -379.5 158.5
c-158 0 -285 -52.667 -381 -158s-144 -244.333 -144 -417s48 -311.667 144 -417s223 -158 381 -158c156.667 0 283.167 52.833 379.5 158.5s144.5 244.5 144.5 416.5zM1004 1958l-211 -281h-172l153 281h230zM1325 1958l-227 -281h-176l163 281h240z" />
    <glyph glyph-name="ohungarumlaut" unicode="&#x151;" horiz-adv-x="1228" 
d="M614 1036c154.667 0 282.501 -49.832 383.501 -149.499s151.5 -225.167 151.5 -376.5c0 -152.667 -50.5 -278.834 -151.5 -378.501s-228.833 -149.5 -383.5 -149.5c-154 0 -281.5 50 -382.5 150s-151.5 226 -151.5 378c0 151.333 50.667 276.833 152 376.5
s228.666 149.5 381.999 149.5zM614.001 842.001c-92.667 0 -168 -30.667 -226 -92s-87 -141.333 -87 -240s29 -179 87 -241s133.333 -93 226 -93s168.167 31 226.5 93s87.5 142.333 87.5 241s-29 178.667 -87 240s-133.667 92 -227 92zM741.001 1456l-211 -280h-172l154 280
h229zM1063 1456l-227 -280h-177l164 280h240z" />
    <glyph glyph-name="Racute" unicode="&#x154;" horiz-adv-x="1454" 
d="M446 0h-229v1536h574c141.333 0 258 -41 350 -123c90 -82 135 -189 135 -321c0 -102.667 -28.333 -189.5 -85 -260.5s-132 -119.5 -226 -145.5l448 -686h-264l-424 647h-279v-647zM791 1329h-344.999v-475h340c77.333 0 140.166 22.167 188.499 66.5
s72.5 101.5 72.5 171.5s-23.5 127 -70.5 171s-108.833 66 -185.5 66zM557.001 1677l197 281h276l-276 -281h-197z" />
    <glyph glyph-name="racute" unicode="&#x155;" horiz-adv-x="780" 
d="M371 0l-210.999 -0.000976562v1018h200l11 -139c30.667 48 71 85.833 121 113.5s107.333 41.5 172 41.5c30 0 63.333 -4.66699 100 -14l-29 -207c-32.667 9.33301 -67.334 14 -104.001 14c-72.667 0 -134.167 -26.667 -184.5 -80s-75.5 -125.666 -75.5 -216.999v-530z
M297.001 1176l197 280h276l-276 -280h-197z" />
    <glyph glyph-name="uni0156" unicode="&#x156;" horiz-adv-x="1454" 
d="M446 0h-229v1536h574c141.333 0 258 -41 350 -123c90 -82 135 -189 135 -321c0 -102.667 -28.333 -189.5 -85 -260.5s-132 -119.5 -226 -145.5l448 -686h-264l-424 647h-279v-647zM791 1329h-344.999v-475h340c77.333 0 140.166 22.167 188.499 66.5
s72.5 101.5 72.5 171.5s-23.5 127 -70.5 171s-108.833 66 -185.5 66zM551.001 -438l121 313h223l-193 -313h-151z" />
    <glyph glyph-name="uni0157" unicode="&#x157;" horiz-adv-x="780" 
d="M371 0l-210.999 -0.000976562v1018h200l11 -139c30.667 48 71 85.833 121 113.5s107.333 41.5 172 41.5c30 0 63.333 -4.66699 100 -14l-29 -207c-32.667 9.33301 -67.334 14 -104.001 14c-72.667 0 -134.167 -26.667 -184.5 -80s-75.5 -125.666 -75.5 -216.999v-530z
M35.001 -438.001l121 313h223l-193 -313h-151z" />
    <glyph glyph-name="Rcaron" unicode="&#x158;" horiz-adv-x="1454" 
d="M446 0h-229v1536h574c141.333 0 258 -41 350 -123c90 -82 135 -189 135 -321c0 -102.667 -28.333 -189.5 -85 -260.5s-132 -119.5 -226 -145.5l448 -686h-264l-424 647h-279v-647zM791 1329h-344.999v-475h340c77.333 0 140.166 22.167 188.499 66.5
s72.5 101.5 72.5 171.5s-23.5 127 -70.5 171s-108.833 66 -185.5 66zM729.001 1812l158 146h215l-262 -281h-226l-262 281h226z" />
    <glyph glyph-name="rcaron" unicode="&#x159;" horiz-adv-x="780" 
d="M371 0l-210.999 -0.000976562v1018h200l11 -139c30.667 48 71 85.833 121 113.5s107.333 41.5 172 41.5c30 0 63.333 -4.66699 100 -14l-29 -207c-32.667 9.33301 -67.334 14 -104.001 14c-72.667 0 -134.167 -26.667 -184.5 -80s-75.5 -125.666 -75.5 -216.999v-530z
M455.001 1311l157 145h215l-262 -280h-225l-262 280h225z" />
    <glyph glyph-name="Sacute" unicode="&#x15a;" horiz-adv-x="1378" 
d="M1231 1161l-221.004 -63c-12.667 74.667 -49 135.667 -109 183s-134.333 71 -223 71c-94 0 -168.333 -18.667 -223 -56s-82 -88.333 -82 -153c0 -30.667 6.16699 -58 18.5 -82s28.5 -43.833 48.5 -59.5s45.833 -29.834 77.5 -42.501s63 -23.167 94 -31.5
s67.5 -17.5 109.5 -27.5c14 -2.66699 24.333 -5 31 -7l83 -21c22.667 -6 49.667 -13.833 81 -23.5s57.833 -19.167 79.5 -28.5s45.667 -21.166 72 -35.499s48.333 -29.333 66 -45s35.5 -34 53.5 -55s32.333 -43.5 43 -67.5s19.334 -51.333 26.001 -82s10 -63.667 10 -99
c0 -142 -53.167 -253.167 -159.5 -333.5s-246.5 -120.5 -420.5 -120.5c-178.667 0 -319.334 41.667 -422.001 125s-160 190.333 -172 321l225 61c12.667 -94 51.167 -167.667 115.5 -221s152.833 -80 265.5 -80c90.667 0 168.667 19.333 234 58c64 39.333 96 98 96 176
c0 82 -33.333 140 -100 174c-63.333 30.667 -144 58 -242 82l-86 19.5c-21.333 5 -49.333 12.333 -84 22s-62.834 18.834 -84.501 27.501s-47.167 20 -76.5 34s-53.166 28.5 -71.499 43.5s-37.666 33.167 -57.999 54.5s-36.166 44 -47.499 68s-20.666 51.667 -27.999 83
s-11 64.666 -11 99.999c0 88 24.667 164.5 74 229.5s115 113.667 197 146s174 48.5 276 48.5c144.667 0 265.834 -35 363.501 -105s158.167 -166 181.5 -288zM531.996 1677l197 281h277l-277 -281h-197z" />
    <glyph glyph-name="sacute" unicode="&#x15b;" horiz-adv-x="995" 
d="M502 -18c-127.333 0 -227.671 26.5 -301.004 79.5s-120 128.167 -140 225.5l211 43c9.33301 -55.333 34.5 -98.5 75.5 -129.5s95.833 -46.5 164.5 -46.5c62.667 0 111.834 12 147.501 36s53.5 58.333 53.5 103c0 51.333 -26.667 84 -80 98
c-63.333 16 -124 28.333 -182 37c-40.667 6.66699 -75.167 13.334 -103.5 20.001s-59.833 17.5 -94.5 32.5s-62.5 32.667 -83.5 53s-38.833 47.5 -53.5 81.5s-22 73.333 -22 118c0 86 37 158.333 111 217c72.667 57.333 169 86 289 86c116 0 209.333 -24.667 280 -74
s113 -116 127 -200l-201 -43c-10 44.667 -32.333 80.334 -67 107.001s-83.334 40 -146.001 40c-57.333 0 -101.666 -11.333 -132.999 -34s-47 -52.334 -47 -89.001c0 -47.333 24.667 -78 74 -92c52.667 -15.333 109.334 -27.666 170.001 -36.999
c34 -6.66699 59.5 -11.834 76.5 -15.501s41 -9.83398 72 -18.501s55 -17.5 72 -26.5s36.833 -21.333 59.5 -37s39.834 -33 51.501 -52s21.834 -42 30.501 -69s13 -57.167 13 -90.5c0 -94 -37 -171.333 -111 -232s-178.333 -91 -313 -91zM372.995 1176l196 280h277l-277 -280
h-196z" />
    <glyph glyph-name="Scircumflex" unicode="&#x15c;" horiz-adv-x="1378" 
d="M1231 1161l-221.004 -63c-12.667 74.667 -49 135.667 -109 183s-134.333 71 -223 71c-94 0 -168.333 -18.667 -223 -56s-82 -88.333 -82 -153c0 -30.667 6.16699 -58 18.5 -82s28.5 -43.833 48.5 -59.5s45.833 -29.834 77.5 -42.501s63 -23.167 94 -31.5
s67.5 -17.5 109.5 -27.5c14 -2.66699 24.333 -5 31 -7l83 -21c22.667 -6 49.667 -13.833 81 -23.5s57.833 -19.167 79.5 -28.5s45.667 -21.166 72 -35.499s48.333 -29.333 66 -45s35.5 -34 53.5 -55s32.333 -43.5 43 -67.5s19.334 -51.333 26.001 -82s10 -63.667 10 -99
c0 -142 -53.167 -253.167 -159.5 -333.5s-246.5 -120.5 -420.5 -120.5c-178.667 0 -319.334 41.667 -422.001 125s-160 190.333 -172 321l225 61c12.667 -94 51.167 -167.667 115.5 -221s152.833 -80 265.5 -80c90.667 0 168.667 19.333 234 58c64 39.333 96 98 96 176
c0 82 -33.333 140 -100 174c-63.333 30.667 -144 58 -242 82l-86 19.5c-21.333 5 -49.333 12.333 -84 22s-62.834 18.834 -84.501 27.501s-47.167 20 -76.5 34s-53.166 28.5 -71.499 43.5s-37.666 33.167 -57.999 54.5s-36.166 44 -47.499 68s-20.666 51.667 -27.999 83
s-11 64.666 -11 99.999c0 88 24.667 164.5 74 229.5s115 113.667 197 146s174 48.5 276 48.5c144.667 0 265.834 -35 363.501 -105s158.167 -166 181.5 -288zM1077 1677h-221l-154 146l-155 -146h-219l262 281h225z" />
    <glyph glyph-name="scircumflex" unicode="&#x15d;" horiz-adv-x="995" 
d="M502 -18c-127.333 0 -227.671 26.5 -301.004 79.5s-120 128.167 -140 225.5l211 43c9.33301 -55.333 34.5 -98.5 75.5 -129.5s95.833 -46.5 164.5 -46.5c62.667 0 111.834 12 147.501 36s53.5 58.333 53.5 103c0 51.333 -26.667 84 -80 98
c-63.333 16 -124 28.333 -182 37c-40.667 6.66699 -75.167 13.334 -103.5 20.001s-59.833 17.5 -94.5 32.5s-62.5 32.667 -83.5 53s-38.833 47.5 -53.5 81.5s-22 73.333 -22 118c0 86 37 158.333 111 217c72.667 57.333 169 86 289 86c116 0 209.333 -24.667 280 -74
s113 -116 127 -200l-201 -43c-10 44.667 -32.333 80.334 -67 107.001s-83.334 40 -146.001 40c-57.333 0 -101.666 -11.333 -132.999 -34s-47 -52.334 -47 -89.001c0 -47.333 24.667 -78 74 -92c52.667 -15.333 109.334 -27.666 170.001 -36.999
c34 -6.66699 59.5 -11.834 76.5 -15.501s41 -9.83398 72 -18.501s55 -17.5 72 -26.5s36.833 -21.333 59.5 -37s39.834 -33 51.501 -52s21.834 -42 30.501 -69s13 -57.167 13 -90.5c0 -94 -37 -171.333 -111 -232s-178.333 -91 -313 -91zM884.995 1176h-221l-154 145
l-156 -145h-219l262 280h226z" />
    <glyph glyph-name="Scedilla" unicode="&#x15e;" horiz-adv-x="1378" 
d="M797 -12l-82.0049 -334.001h-205l80 332c-154.667 16 -273.667 65.667 -357 149c-84 84 -131 181.667 -141 293l225 61c12.667 -94 51.167 -167.667 115.5 -221s152.833 -80 265.5 -80c90.667 0 168.667 19.333 234 58c64 39.333 96 98 96 176c0 82 -33.333 140 -100 174
c-63.333 30.667 -144 58 -242 82l-86 19.5c-21.333 5 -49.333 12.333 -84 22s-62.834 18.834 -84.501 27.501s-47.167 20 -76.5 34s-53.166 28.5 -71.499 43.5s-37.666 33.167 -57.999 54.5s-36.166 44 -47.499 68s-20.666 51.667 -27.999 83s-11 64.666 -11 99.999
c0 88 24.667 164.5 74 229.5s115 113.667 197 146s174 48.5 276 48.5c144.667 0 265.834 -35 363.501 -105s158.167 -166 181.5 -288l-221 -63c-12.667 74.667 -49 135.667 -109 183s-134.333 71 -223 71c-94 0 -168.333 -18.667 -223 -56s-82 -88.333 -82 -153
c0 -30.667 6.16699 -58 18.5 -82s28.5 -43.833 48.5 -59.5s45.833 -29.834 77.5 -42.501s63 -23.167 94 -31.5s67.5 -17.5 109.5 -27.5c14 -2.66699 24.333 -5 31 -7l83 -21c22.667 -6 49.667 -13.833 81 -23.5s57.833 -19.167 79.5 -28.5s45.667 -21.166 72 -35.499
s48.333 -29.333 66 -45s35.5 -34 53.5 -55s32.333 -43.5 43 -67.5s19.334 -51.333 26.001 -82s10 -63.667 10 -99c0 -125.333 -42.5 -227.166 -127.5 -305.499s-198.833 -125.833 -341.5 -142.5z" />
    <glyph glyph-name="scedilla" unicode="&#x15f;" horiz-adv-x="995" 
d="M627 -8l-82.0039 -338h-205l80 332c-203.333 22.667 -323 123 -359 301l211 43c9.33301 -55.333 34.5 -98.5 75.5 -129.5s95.833 -46.5 164.5 -46.5c62.667 0 111.834 12 147.501 36s53.5 58.333 53.5 103c0 51.333 -26.667 84 -80 98c-63.333 16 -124 28.333 -182 37
c-40.667 6.66699 -75.167 13.334 -103.5 20.001s-59.833 17.5 -94.5 32.5s-62.5 32.667 -83.5 53s-38.833 47.5 -53.5 81.5s-22 73.333 -22 118c0 86 37 158.333 111 217c72.667 57.333 169 86 289 86c116 0 209.333 -24.667 280 -74s113 -116 127 -200l-201 -43
c-10 44.667 -32.333 80.334 -67 107.001s-83.334 40 -146.001 40c-57.333 0 -101.666 -11.333 -132.999 -34s-47 -52.334 -47 -89.001c0 -47.333 24.667 -78 74 -92c52.667 -15.333 109.334 -27.666 170.001 -36.999c34 -6.66699 59.5 -11.834 76.5 -15.501
s41 -9.83398 72 -18.501s55 -17.5 72 -26.5s36.833 -21.333 59.5 -37s39.834 -33 51.501 -52s21.834 -42 30.501 -69s13 -57.167 13 -90.5c0 -79.333 -25.833 -147 -77.5 -203s-125.5 -92.667 -221.5 -110z" />
    <glyph glyph-name="Scaron" unicode="&#x160;" horiz-adv-x="1378" 
d="M1231 1161l-221.004 -63c-12.667 74.667 -49 135.667 -109 183s-134.333 71 -223 71c-94 0 -168.333 -18.667 -223 -56s-82 -88.333 -82 -153c0 -30.667 6.16699 -58 18.5 -82s28.5 -43.833 48.5 -59.5s45.833 -29.834 77.5 -42.501s63 -23.167 94 -31.5
s67.5 -17.5 109.5 -27.5c14 -2.66699 24.333 -5 31 -7l83 -21c22.667 -6 49.667 -13.833 81 -23.5s57.833 -19.167 79.5 -28.5s45.667 -21.166 72 -35.499s48.333 -29.333 66 -45s35.5 -34 53.5 -55s32.333 -43.5 43 -67.5s19.334 -51.333 26.001 -82s10 -63.667 10 -99
c0 -142 -53.167 -253.167 -159.5 -333.5s-246.5 -120.5 -420.5 -120.5c-178.667 0 -319.334 41.667 -422.001 125s-160 190.333 -172 321l225 61c12.667 -94 51.167 -167.667 115.5 -221s152.833 -80 265.5 -80c90.667 0 168.667 19.333 234 58c64 39.333 96 98 96 176
c0 82 -33.333 140 -100 174c-63.333 30.667 -144 58 -242 82l-86 19.5c-21.333 5 -49.333 12.333 -84 22s-62.834 18.834 -84.501 27.501s-47.167 20 -76.5 34s-53.166 28.5 -71.499 43.5s-37.666 33.167 -57.999 54.5s-36.166 44 -47.499 68s-20.666 51.667 -27.999 83
s-11 64.666 -11 99.999c0 88 24.667 164.5 74 229.5s115 113.667 197 146s174 48.5 276 48.5c144.667 0 265.834 -35 363.501 -105s158.167 -166 181.5 -288zM693.996 1812l158 146h215l-262 -281h-225l-263 281h226z" />
    <glyph glyph-name="scaron" unicode="&#x161;" horiz-adv-x="995" 
d="M502 -18c-127.333 0 -227.671 26.5 -301.004 79.5s-120 128.167 -140 225.5l211 43c9.33301 -55.333 34.5 -98.5 75.5 -129.5s95.833 -46.5 164.5 -46.5c62.667 0 111.834 12 147.501 36s53.5 58.333 53.5 103c0 51.333 -26.667 84 -80 98
c-63.333 16 -124 28.333 -182 37c-40.667 6.66699 -75.167 13.334 -103.5 20.001s-59.833 17.5 -94.5 32.5s-62.5 32.667 -83.5 53s-38.833 47.5 -53.5 81.5s-22 73.333 -22 118c0 86 37 158.333 111 217c72.667 57.333 169 86 289 86c116 0 209.333 -24.667 280 -74
s113 -116 127 -200l-201 -43c-10 44.667 -32.333 80.334 -67 107.001s-83.334 40 -146.001 40c-57.333 0 -101.666 -11.333 -132.999 -34s-47 -52.334 -47 -89.001c0 -47.333 24.667 -78 74 -92c52.667 -15.333 109.334 -27.666 170.001 -36.999
c34 -6.66699 59.5 -11.834 76.5 -15.501s41 -9.83398 72 -18.501s55 -17.5 72 -26.5s36.833 -21.333 59.5 -37s39.834 -33 51.501 -52s21.834 -42 30.501 -69s13 -57.167 13 -90.5c0 -94 -37 -171.333 -111 -232s-178.333 -91 -313 -91zM511.995 1311l158 145h215l-262 -280
h-226l-262 280h225z" />
    <glyph glyph-name="uni0162" unicode="&#x162;" horiz-adv-x="1269" 
d="M750 0h-230v1325h-467v211h1164v-211h-467v-1325zM397 -438l121 313h223l-192 -313h-152z" />
    <glyph glyph-name="uni0163" unicode="&#x163;" horiz-adv-x="806" 
d="M14 834l0.000976562 55.001l344 340h52v-211h366v-184h-366v-496c0 -56.667 13.167 -97.834 39.5 -123.501s66.166 -38.5 119.499 -38.5c42.667 0 92 11.667 148 35l47 -174c-71.333 -36.667 -150.666 -55 -237.999 -55c-102.667 0 -182.834 27.333 -240.501 82
s-86.5 131 -86.5 229v541h-185zM201.001 -437.999l121 313h223l-193 -313h-151z" />
    <glyph glyph-name="Utilde" unicode="&#x168;" horiz-adv-x="1572" 
d="M786 193c107.333 0 194 33.333 260 100s99 155.334 99 266.001v977h229v-971c0 -174.667 -54.5 -315.5 -163.5 -422.5s-250.5 -160.5 -424.5 -160.5s-315.333 53.333 -424 160s-163 247.667 -163 423v971h229v-977c0 -110.667 32.833 -199.334 98.5 -266.001
s152.167 -100 259.5 -100zM924 1694c-22.667 0 -45.333 5.66895 -68 17.002s-41.5 23.666 -56.5 36.999s-31.667 25.666 -50 36.999s-35.5 17 -51.5 17c-27.333 0 -47.5 -8.83301 -60.5 -26.5s-19.5 -45.5 -19.5 -83.5h-153c-4 84.667 11 150.167 45 196.5
s81.667 69.5 143 69.5c22.667 0 46 -5.5 70 -16.5s44.167 -23 60.5 -36s33.833 -25 52.5 -36s34.334 -16.5 47.001 -16.5c26 0 45.667 8.83301 59 26.5s19.666 43.167 18.999 76.5h153c4.66699 -82 -10 -146.167 -44 -192.5s-82.667 -69.5 -146 -69.5z" />
    <glyph glyph-name="utilde" unicode="&#x169;" horiz-adv-x="1189" 
d="M135 1018h211v-610c0 -74.667 20.333 -132 61 -172s97.667 -60 171 -60c66.667 0 123.5 21.5 170.5 64.5s70.5 108.167 70.5 195.5v582h213v-1018h-194l-9 125c-78 -95.333 -180.333 -143 -307 -143c-114 0 -207 35.667 -279 107s-108 171.333 -108 300v629zM733 1192
c-22.667 0 -45.335 5.66797 -68.002 17.001s-41.334 23.666 -56.001 36.999s-31.167 25.666 -49.5 36.999s-35.5 17 -51.5 17c-27.333 0 -47.5 -8.83301 -60.5 -26.5s-19.5 -45.5 -19.5 -83.5h-154c-4 84.667 11.167 150.167 45.5 196.5s82.166 69.5 143.499 69.5
c28.667 0 57.834 -8.66699 87.501 -26s56.834 -34.666 81.501 -51.999s44.667 -26 60 -26c54 0 80 34 78 102h154c4.66699 -82 -10.166 -146.167 -44.499 -192.5s-83.166 -69.5 -146.499 -69.5z" />
    <glyph glyph-name="Umacron" unicode="&#x16a;" horiz-adv-x="1572" 
d="M786 193c107.333 0 194 33.333 260 100s99 155.334 99 266.001v977h229v-971c0 -174.667 -54.5 -315.5 -163.5 -422.5s-250.5 -160.5 -424.5 -160.5s-315.333 53.333 -424 160s-163 247.667 -163 423v971h229v-977c0 -110.667 32.833 -199.334 98.5 -266.001
s152.167 -100 259.5 -100zM483 1737v178h607v-178h-607z" />
    <glyph glyph-name="umacron" unicode="&#x16b;" horiz-adv-x="1189" 
d="M135 1018h211v-610c0 -74.667 20.333 -132 61 -172s97.667 -60 171 -60c66.667 0 123.5 21.5 170.5 64.5s70.5 108.167 70.5 195.5v582h213v-1018h-194l-9 125c-78 -95.333 -180.333 -143 -307 -143c-114 0 -207 35.667 -279 107s-108 171.333 -108 300v629zM293 1235
v178h606v-178h-606z" />
    <glyph glyph-name="Ubreve" unicode="&#x16c;" horiz-adv-x="1572" 
d="M786 193c107.333 0 194 33.333 260 100s99 155.334 99 266.001v977h229v-971c0 -174.667 -54.5 -315.5 -163.5 -422.5s-250.5 -160.5 -424.5 -160.5s-315.333 53.333 -424 160s-163 247.667 -163 423v971h229v-977c0 -110.667 32.833 -199.334 98.5 -266.001
s152.167 -100 259.5 -100zM784 1825c42 0 75.667 11.167 101 33.5s38.333 54.833 39 97.5h186c-0.666992 -88 -31.167 -158.833 -91.5 -212.5s-137.833 -80.5 -232.5 -80.5s-172 26.833 -232 80.5s-90.333 124.5 -91 212.5h188c0 -42.667 11.833 -75.167 35.5 -97.5
s56.167 -33.5 97.5 -33.5z" />
    <glyph glyph-name="ubreve" unicode="&#x16d;" horiz-adv-x="1189" 
d="M135 1018h211v-610c0 -74.667 20.333 -132 61 -172s97.667 -60 171 -60c66.667 0 123.5 21.5 170.5 64.5s70.5 108.167 70.5 195.5v582h213v-1018h-194l-9 125c-78 -95.333 -180.333 -143 -307 -143c-114 0 -207 35.667 -279 107s-108 171.333 -108 300v629zM594 1323
c42 0 75.5 11.167 100.5 33.5s37.833 54.833 38.5 97.5h187c-0.666992 -88 -31.167 -158.833 -91.5 -212.5s-137.833 -80.5 -232.5 -80.5s-172.167 26.833 -232.5 80.5s-90.833 124.5 -91.5 212.5h189c0 -42.667 11.833 -75.167 35.5 -97.5s56.167 -33.5 97.5 -33.5z" />
    <glyph glyph-name="Uring" unicode="&#x16e;" horiz-adv-x="1572" 
d="M786 193c107.333 0 194 33.333 260 100s99 155.334 99 266.001v977h229v-971c0 -174.667 -54.5 -315.5 -163.5 -422.5s-250.5 -160.5 -424.5 -160.5s-315.333 53.333 -424 160s-163 247.667 -163 423v971h229v-977c0 -110.667 32.833 -199.334 98.5 -266.001
s152.167 -100 259.5 -100zM786 1876c60.667 0 111 -18.1689 151 -54.502s60 -82.5 60 -138.5c0 -57.333 -20 -104.666 -60 -141.999s-90.333 -56 -151 -56s-111 18.333 -151 55s-60 83.667 -60 141c0 56.667 20 103.334 60 140.001s90.333 55 151 55zM690 1681
c0 -28.667 8.83203 -51.834 26.499 -69.501s40.834 -26.5 69.501 -26.5s51.667 8.83301 69 26.5s26 40.834 26 69.501c0 27.333 -9 50 -27 68s-40.667 27 -68 27c-28 0 -51 -9 -69 -27s-27 -40.667 -27 -68z" />
    <glyph glyph-name="uring" unicode="&#x16f;" horiz-adv-x="1189" 
d="M135 1018h211v-610c0 -74.667 20.333 -132 61 -172s97.667 -60 171 -60c66.667 0 123.5 21.5 170.5 64.5s70.5 108.167 70.5 195.5v582h213v-1018h-194l-9 125c-78 -95.333 -180.333 -143 -307 -143c-114 0 -207 35.667 -279 107s-108 171.333 -108 300v629zM586 1544
c60.667 0 111 -18 151 -54s60 -82 60 -138c0 -57.333 -20 -104.833 -60 -142.5s-90.333 -56.5 -151 -56.5s-111 18.5 -151 55.5s-60 84.167 -60 141.5c0 56 20 102.333 60 139s90.333 55 151 55zM489 1350c0 -28.667 9 -52 27 -70s41.333 -27 70 -27c28 0 50.667 9 68 27
s26 41.333 26 70c0 27.333 -8.83301 49.833 -26.5 67.5s-40.167 26.5 -67.5 26.5c-28.667 0 -52 -8.83301 -70 -26.5s-27 -40.167 -27 -67.5z" />
    <glyph glyph-name="Uhungarumlaut" unicode="&#x170;" horiz-adv-x="1572" 
d="M786 193c107.333 0 194 33.333 260 100s99 155.334 99 266.001v977h229v-971c0 -174.667 -54.5 -315.5 -163.5 -422.5s-250.5 -160.5 -424.5 -160.5s-315.333 53.333 -424 160s-163 247.667 -163 423v971h229v-977c0 -110.667 32.833 -199.334 98.5 -266.001
s152.167 -100 259.5 -100zM913 1958l-211 -281h-172l154 281h229zM1235 1958l-227 -281h-177l164 281h240z" />
    <glyph glyph-name="uhungarumlaut" unicode="&#x171;" horiz-adv-x="1189" 
d="M135 1018h211v-610c0 -74.667 20.333 -132 61 -172s97.667 -60 171 -60c66.667 0 123.5 21.5 170.5 64.5s70.5 108.167 70.5 195.5v582h213v-1018h-194l-9 125c-78 -95.333 -180.333 -143 -307 -143c-114 0 -207 35.667 -279 107s-108 171.333 -108 300v629zM723 1456
l-211 -280h-172l154 280h229zM1044 1456l-227 -280h-176l164 280h239z" />
    <glyph glyph-name="Uogonek" unicode="&#x172;" horiz-adv-x="1572" 
d="M786 193c107.333 0 194 33.3301 260 99.9971s99 155.334 99 266.001v977h229v-971c0 -103.333 -20.167 -196.166 -60.5 -278.499s-96.5 -149.166 -168.5 -200.499c-60 -50 -101.333 -94.667 -124 -134s-34 -80.666 -34 -123.999c0 -39.333 11.833 -70 35.5 -92
s54.834 -33 93.501 -33c26.667 0 52 4 76 12l35 -147c-46 -24.667 -104 -37 -174 -37c-82 0 -147 23 -195 69s-72 105.667 -72 179c0 72.667 22.667 141.667 68 207c-30.667 -2.66699 -53.334 -4 -68.001 -4c-174 0 -315.333 53.333 -424 160s-163 247.667 -163 423v971h229
v-977c0 -110.667 32.833 -199.334 98.5 -266.001s152.167 -100 259.5 -100z" />
    <glyph glyph-name="uogonek" unicode="&#x173;" horiz-adv-x="1189" 
d="M893 -469c-82 0 -144.499 21.833 -187.499 65.5s-64.5 100.5 -64.5 170.5c0 114.667 65 204.667 195 270l-7 88c-78 -95.333 -180.333 -143 -307 -143c-114 0 -207 35.667 -279 107s-108 171.333 -108 300v629h211v-610c0 -74.667 20.333 -132 61 -172
s97.667 -60 171 -60c66.667 0 123.5 21.5 170.5 64.5s70.5 108.167 70.5 195.5v582h213v-1018h-2c-125.333 -47.333 -188 -109.333 -188 -186c0 -34 10.333 -61 31 -81s49 -30 85 -30c25.333 0 48.666 4 69.999 12l37 -147c-46 -24.667 -103.333 -37 -172 -37z" />
    <glyph glyph-name="Wcircumflex" unicode="&#x174;" horiz-adv-x="1896" 
d="M547 297l375 731h49l381 -733l260 1241h229l-321 -1536h-246l-328 635l-323 -635h-246l-320 1536h230zM1323 1677h-221l-154 146l-155 -146h-220l263 281h225z" />
    <glyph glyph-name="wcircumflex" unicode="&#x175;" horiz-adv-x="1361" 
d="M258 0l-221 1018h211l166 -770l252 500h36l254 -502l164 772h207l-223 -1018h-223l-197 393l-201 -393h-225zM1057 1176h-221l-154 145l-156 -145h-219l262 280h226z" />
    <glyph glyph-name="Ycircumflex" unicode="&#x176;" horiz-adv-x="1392" 
d="M811 0h-229v670l-557 866h266l409 -647l412 647h256l-557 -866v-670zM1071 1694h-221l-154 145l-155 -145h-219l262 280h225z" />
    <glyph glyph-name="ycircumflex" unicode="&#x177;" horiz-adv-x="1079" 
d="M451 6l-439 1012h236l313 -742l283 742h221l-573 -1469h-220zM913 1176h-221l-153 145l-156 -145h-219l262 280h225z" />
    <glyph glyph-name="Ydieresis" unicode="&#x178;" horiz-adv-x="1392" 
d="M811 0h-229v670l-557 866h266l409 -647l412 647h256l-557 -866v-670zM500 1743c-36 0 -66.501 12.167 -91.501 36.5s-37.5 54.5 -37.5 90.5c0 36.667 12.333 67 37 91s55.334 36 92.001 36c36 0 66.167 -12 90.5 -36s36.5 -54.333 36.5 -91
c0 -36 -12.167 -66.167 -36.5 -90.5s-54.5 -36.5 -90.5 -36.5zM894.999 1743c-36.667 0 -67.332 12.167 -91.999 36.5s-37 54.5 -37 90.5c0 36.667 12.167 67 36.5 91s55.166 36 92.499 36c36 0 66.167 -12 90.5 -36s36.5 -54.333 36.5 -91
c0 -36 -12.167 -66.167 -36.5 -90.5s-54.5 -36.5 -90.5 -36.5z" />
    <glyph glyph-name="Zacute" unicode="&#x179;" horiz-adv-x="1329" 
d="M100 1325v211h1174v-47l-854 -1278h815v-211h-1180v47l852 1278h-807zM504 1694l196 280h277l-277 -280h-196z" />
    <glyph glyph-name="zacute" unicode="&#x17a;" horiz-adv-x="917" 
d="M553 834h-492v184h811v-57l-522 -777h520v-184h-827v55zM319 1176l197 280h277l-277 -280h-197z" />
    <glyph glyph-name="Zdotaccent" unicode="&#x17b;" horiz-adv-x="1329" 
d="M100 1325v211h1174v-47l-854 -1278h815v-211h-1180v47l852 1278h-807zM666 1733c-40 0 -73 13 -99 39s-39 58 -39 96s13 69.667 39 95s59 38 99 38c38 0 70 -12.667 96 -38s39 -57 39 -95s-13 -70 -39 -96s-58 -39 -96 -39z" />
    <glyph glyph-name="zdotaccent" unicode="&#x17c;" horiz-adv-x="917" 
d="M553 834h-492v184h811v-57l-522 -777h520v-184h-827v55zM479 1214c-39.333 0 -72 13 -98 39s-39 58.333 -39 97c0 38 12.833 69.667 38.5 95s58.5 38 98.5 38c38 0 70 -12.667 96 -38s39 -57 39 -95s-13 -70.167 -39 -96.5s-58 -39.5 -96 -39.5z" />
    <glyph glyph-name="Zcaron" unicode="&#x17d;" horiz-adv-x="1329" 
d="M100 1325v211h1174v-47l-854 -1278h815v-211h-1180v47l852 1278h-807zM674 1829l157 145h216l-263 -280h-225l-262 280h225z" />
    <glyph glyph-name="zcaron" unicode="&#x17e;" horiz-adv-x="917" 
d="M553 834h-492v184h811v-57l-522 -777h520v-184h-827v55zM481 1311l158 145h215l-262 -280h-225l-263 280h226z" />
    <glyph glyph-name="uni0218" unicode="&#x218;" horiz-adv-x="1378" 
d="M1231 1161l-221.004 -63c-12.667 74.667 -49 135.667 -109 183s-134.333 71 -223 71c-94 0 -168.333 -18.667 -223 -56s-82 -88.333 -82 -153c0 -30.667 6.16699 -58 18.5 -82s28.5 -43.833 48.5 -59.5s45.833 -29.834 77.5 -42.501s63 -23.167 94 -31.5
s67.5 -17.5 109.5 -27.5c14 -2.66699 24.333 -5 31 -7l83 -21c22.667 -6 49.667 -13.833 81 -23.5s57.833 -19.167 79.5 -28.5s45.667 -21.166 72 -35.499s48.333 -29.333 66 -45s35.5 -34 53.5 -55s32.333 -43.5 43 -67.5s19.334 -51.333 26.001 -82s10 -63.667 10 -99
c0 -142 -53.167 -253.167 -159.5 -333.5s-246.5 -120.5 -420.5 -120.5c-178.667 0 -319.334 41.667 -422.001 125s-160 190.333 -172 321l225 61c12.667 -94 51.167 -167.667 115.5 -221s152.833 -80 265.5 -80c90.667 0 168.667 19.333 234 58c64 39.333 96 98 96 176
c0 82 -33.333 140 -100 174c-63.333 30.667 -144 58 -242 82l-86 19.5c-21.333 5 -49.333 12.333 -84 22s-62.834 18.834 -84.501 27.501s-47.167 20 -76.5 34s-53.166 28.5 -71.499 43.5s-37.666 33.167 -57.999 54.5s-36.166 44 -47.499 68s-20.666 51.667 -27.999 83
s-11 64.666 -11 99.999c0 88 24.667 164.5 74 229.5s115 113.667 197 146s174 48.5 276 48.5c144.667 0 265.834 -35 363.501 -105s158.167 -166 181.5 -288zM505.996 -438l121 313h223l-193 -313h-151z" />
    <glyph glyph-name="uni0219" unicode="&#x219;" horiz-adv-x="995" 
d="M502 -18c-127.333 0 -227.671 26.5 -301.004 79.5s-120 128.167 -140 225.5l211 43c9.33301 -55.333 34.5 -98.5 75.5 -129.5s95.833 -46.5 164.5 -46.5c62.667 0 111.834 12 147.501 36s53.5 58.333 53.5 103c0 51.333 -26.667 84 -80 98
c-63.333 16 -124 28.333 -182 37c-40.667 6.66699 -75.167 13.334 -103.5 20.001s-59.833 17.5 -94.5 32.5s-62.5 32.667 -83.5 53s-38.833 47.5 -53.5 81.5s-22 73.333 -22 118c0 86 37 158.333 111 217c72.667 57.333 169 86 289 86c116 0 209.333 -24.667 280 -74
s113 -116 127 -200l-201 -43c-10 44.667 -32.333 80.334 -67 107.001s-83.334 40 -146.001 40c-57.333 0 -101.666 -11.333 -132.999 -34s-47 -52.334 -47 -89.001c0 -47.333 24.667 -78 74 -92c52.667 -15.333 109.334 -27.666 170.001 -36.999
c34 -6.66699 59.5 -11.834 76.5 -15.501s41 -9.83398 72 -18.501s55 -17.5 72 -26.5s36.833 -21.333 59.5 -37s39.834 -33 51.501 -52s21.834 -42 30.501 -69s13 -57.167 13 -90.5c0 -94 -37 -171.333 -111 -232s-178.333 -91 -313 -91zM282.995 -438l120 313h224l-193 -313
h-151z" />
    <glyph glyph-name="uni0401" unicode="&#x401;" horiz-adv-x="1288" 
d="M1219 0h-1002v1536h981v-207h-752v-420h529v-207h-529v-495h773v-207zM526 1726c-36 0 -66.501 12.167 -91.501 36.5s-37.5 54.5 -37.5 90.5c0 36.667 12.333 67 37 91s55.334 36 92.001 36c36 0 66.167 -12 90.5 -36s36.5 -54.333 36.5 -91
c0 -36 -12.167 -66.167 -36.5 -90.5s-54.5 -36.5 -90.5 -36.5zM921.999 1726c-36.667 0 -67.332 12.167 -91.999 36.5s-37 54.5 -37 90.5c0 36.667 12.167 67 36.5 91s55.166 36 92.499 36c36 0 66.167 -12 90.5 -36s36.5 -54.333 36.5 -91
c0 -36 -12.167 -66.167 -36.5 -90.5s-54.5 -36.5 -90.5 -36.5z" />
    <glyph glyph-name="uni0403" unicode="&#x403;" horiz-adv-x="1196" 
d="M446 0h-229v1536h946v-211h-717v-1325zM557 1677l197 281h276l-276 -281h-197z" />
    <glyph glyph-name="uni040E" unicode="&#x40e;" horiz-adv-x="1343" 
d="M694 1786c46 0 84.002 13.5 114.002 40.5s45.333 63.167 46 108.5h211c-0.666992 -104.667 -35.5 -186.834 -104.5 -246.501s-157.833 -89.5 -266.5 -89.5s-197.334 29.833 -266.001 89.5s-103.334 141.834 -104.001 246.501h213c0 -45.333 14.5 -81.5 43.5 -108.5
s66.833 -40.5 113.5 -40.5zM635.002 0h-240l185 395l-570 1141h252l436 -883l410 883h240z" />
    <glyph glyph-name="uni0410" unicode="&#x410;" horiz-adv-x="1486" 
d="M262 0h-233l589 1536h250l588 -1536h-244l-184 498h-579zM737 1276l-213 -576h428z" />
    <glyph glyph-name="uni0411" unicode="&#x411;" horiz-adv-x="1404" 
d="M819 0l-601.999 -0.000976562v1536h983v-211h-754v-391h373c162.667 0 287.667 -43.667 375 -131c88.667 -88.667 133 -200.667 133 -336c0 -143.333 -45.667 -256.666 -137 -339.999c-92.667 -84.667 -216.334 -127 -371.001 -127zM817.001 726.999h-371v-522h371
c84 0 150.833 23.333 200.5 70s74.5 110.667 74.5 192s-24.833 145 -74.5 191s-116.5 69 -200.5 69z" />
    <glyph glyph-name="uni0412" unicode="&#x412;" horiz-adv-x="1433" 
d="M856 0l-639 0.00195312v1536h604c133.333 0 239.333 -35.333 318 -106c80.667 -72.667 121 -168.334 121 -287.001c0 -150.667 -67 -261.334 -201 -332.001c88.667 -29.333 156.167 -76.166 202.5 -140.499s69.5 -141.833 69.5 -232.5
c0 -134.667 -43.167 -241.334 -129.5 -320.001s-201.5 -118 -345.5 -118zM805 1339h-359v-446h361c69.333 0 124.5 20.5 165.5 61.5s61.5 96.167 61.5 165.5c0 66 -20.833 119 -62.5 159s-97.167 60 -166.5 60zM848 690.002l-401.999 0.000976562v-493h404
c75.333 0 135.833 21.833 181.5 65.5s68.5 102.167 68.5 175.5c0 75.333 -22.833 136.166 -68.5 182.499s-106.834 69.5 -183.501 69.5z" />
    <glyph glyph-name="uni0413" unicode="&#x413;" horiz-adv-x="1196" 
d="M446 0h-229v1536h946v-211h-717v-1325z" />
    <glyph glyph-name="uni0414" unicode="&#x414;" horiz-adv-x="1603" 
d="M231 -369l-221 0.000976562v580h127c68 62.667 114.5 160.167 139.5 292.5s40.167 352.166 45.5 659.499l6 373h1024v-1325h188v-580h-223v369h-1086v-369zM549 1325l-4 -211c-4 -246.667 -18.333 -439.667 -43 -579c-27.333 -143.333 -69 -251.333 -125 -324h747v1114
h-575z" />
    <glyph glyph-name="uni0415" unicode="&#x415;" horiz-adv-x="1288" 
d="M1219 0h-1002v1536h981v-207h-752v-420h529v-207h-529v-495h773v-207z" />
    <glyph glyph-name="uni0416" unicode="&#x416;" horiz-adv-x="2029" 
d="M903 1536h223v-618h193l410 618h262l-490 -723l510 -813h-266l-436 702h-183v-702h-223v702h-182l-440 -702h-263l512 807l-491 729h262l412 -618h190v618z" />
    <glyph glyph-name="uni0417" unicode="&#x417;" horiz-adv-x="1370" 
d="M666 -18c-78 0 -150.166 8.83203 -216.499 26.499s-126.5 44.167 -180.5 79.5s-98.833 81.833 -134.5 139.5s-59.5 124.5 -71.5 200.5l224 57c13.333 -97.333 52.166 -170.833 116.499 -220.5s152.5 -74.5 264.5 -74.5c108.667 0 195.167 23.333 259.5 70
s96.5 111 96.5 193c0 73.333 -24.333 130.5 -73 171.5s-118 61.5 -208 61.5h-227v207h221c78.667 0 140 19.667 184 59s66 95.333 66 168c0 70.667 -27.833 126.667 -83.5 168s-134.167 62 -235.5 62c-96.667 0 -176 -21 -238 -63s-101 -104.333 -117 -187l-217 49
c27.333 126.667 92.5 225.834 195.5 297.501s228.5 107.5 376.5 107.5c172 0 305.667 -38.667 401 -116c96.667 -78.667 145 -179 145 -301c0 -150.667 -66.667 -262 -200 -334c76.667 -28 135.334 -73.5 176.001 -136.5s61 -136.5 61 -220.5
c0 -141.333 -53.333 -254 -160 -338s-248.334 -126 -425.001 -126z" />
    <glyph glyph-name="uni0418" unicode="&#x418;" horiz-adv-x="1683" 
d="M426 0h-209v1536h221v-1186l819 1186h211v-1536h-223v1186z" />
    <glyph glyph-name="uni0419" unicode="&#x419;" horiz-adv-x="1683" 
d="M860 1786c46 0 83.832 13.499 113.499 40.499s44.5 63.167 44.5 108.5h211c0 -104 -34.167 -186 -102.5 -246s-157.166 -90 -266.499 -90c-108.667 0 -197.5 29.833 -266.5 89.5s-103.833 141.834 -104.5 246.501h213c0 -45.333 14.667 -81.5 44 -108.5
s67.333 -40.5 114 -40.5zM425.999 -0.000976562h-209v1536h221v-1186l819 1186h211v-1536h-223v1186z" />
    <glyph glyph-name="uni041A" unicode="&#x41a;" horiz-adv-x="1454" 
d="M629 702h-183v-702h-229v1536h229v-618h193l506 618h276l-594 -719l615 -817h-277z" />
    <glyph glyph-name="uni041B" unicode="&#x41b;" horiz-adv-x="1593" 
d="M12 10l36.998 194.997c20 -6.66699 39 -10 57 -10c26.667 0 48.667 3.5 66 10.5s34.666 22 51.999 45s31.333 55.833 42 98.5s20.834 100 30.501 172s17.334 160.333 23.001 265s10.5 230.334 14.5 377.001l12 373h1030v-1536h-229v1325h-582l-6 -211
c-4.66699 -153.333 -11 -285.166 -19 -395.499s-19.167 -208.833 -33.5 -295.5s-31.333 -157.167 -51 -211.5s-44.167 -99.166 -73.5 -134.499s-62.166 -60 -98.499 -74s-79.5 -21 -129.5 -21c-54 0 -101.333 9.33301 -142 28z" />
    <glyph glyph-name="uni041C" unicode="&#x41c;" horiz-adv-x="1912" 
d="M436 0h-219v1536h244l502 -647l491 647h244v-1536h-221v1227l-498 -647h-47l-496 639v-1219z" />
    <glyph glyph-name="uni041D" unicode="&#x41d;" horiz-adv-x="1701" 
d="M446 0h-229v1536h229v-616h809v616h230v-1536h-230v707h-809v-707z" />
    <glyph glyph-name="uni041E" unicode="&#x41e;" horiz-adv-x="1751" 
d="M113 768c0 112 18.833 216.502 56.5 313.502s89.667 180.167 156 249.5s147.166 123.833 242.499 163.5s198.333 59.5 309 59.5c147.333 0 279 -33.833 395 -101.5s206 -161.334 270 -281.001s96 -254.167 96 -403.5s-32 -283.833 -96 -403.5
s-154 -213.334 -270 -281.001s-247.667 -101.5 -395 -101.5c-110.667 0 -213.667 19.833 -309 59.5s-176.166 94.167 -242.499 163.5s-118.333 152.5 -156 249.5s-56.5 201.5 -56.5 313.5zM1401 768.002c0 172 -48.167 310.833 -144.5 416.5s-222.833 158.5 -379.5 158.5
c-158 0 -285 -52.667 -381 -158s-144 -244.333 -144 -417s48 -311.667 144 -417s223 -158 381 -158c156.667 0 283.167 52.833 379.5 158.5s144.5 244.5 144.5 416.5z" />
    <glyph glyph-name="uni041F" unicode="&#x41f;" horiz-adv-x="1673" 
d="M446 0h-229v1536h1241v-1536h-229v1325h-783v-1325z" />
    <glyph glyph-name="uni0420" unicode="&#x420;" horiz-adv-x="1398" 
d="M446 0h-229.002v1536h578c154.667 0 279.334 -44.333 374.001 -133s142 -203.334 142 -344.001c0 -137.333 -47.667 -251.166 -143 -341.499s-219.666 -135.5 -372.999 -135.5h-349v-582zM794.998 1329l-349 -0.000976562v-541h349c88 0 157.667 24.667 209 74
s77 115 77 197c0 82.667 -25.5 148.334 -76.5 197.001s-120.833 73 -209.5 73z" />
    <glyph glyph-name="uni0421" unicode="&#x421;" horiz-adv-x="1640" 
d="M352 768c0 -78.667 11.333 -152.501 34 -221.501s55.167 -129.833 97.5 -182.5s96.333 -94.334 162 -125.001s138.5 -46 218.5 -46c128 0 233.333 35.333 316 106c80 68 131.667 153.333 155 256l221 -61c-36 -154.667 -116.667 -278.667 -242 -372s-276 -140 -452 -140
c-115.333 0 -220.5 20.333 -315.5 61s-174 96.334 -237 167.001s-111.5 153.834 -145.5 249.501s-51 198.5 -51 308.5c0 109.333 17.333 211.666 52 306.999s83.667 178.5 147 249.5s143 127 239 168s202.333 61.5 319 61.5c177.333 0 325 -46.333 443 -139
c116 -91.333 191.667 -212.666 227 -363.999l-219 -62c-22 105.333 -73.167 190.666 -153.5 255.999s-181.5 98 -303.5 98c-104 0 -195.5 -26.667 -274.5 -80s-138.333 -123.166 -178 -209.499s-59.5 -181.5 -59.5 -285.5z" />
    <glyph glyph-name="uni0422" unicode="&#x422;" horiz-adv-x="1269" 
d="M750 0h-230v1325h-467v211h1164v-211h-467v-1325z" />
    <glyph glyph-name="uni0423" unicode="&#x423;" horiz-adv-x="1357" 
d="M635 0h-240l185 395l-570 1141h252l436 -883l410 883h240z" />
    <glyph glyph-name="uni0424" unicode="&#x424;" horiz-adv-x="1800" 
d="M1016 -35h-230v182h-2c-132.667 0 -252 25.667 -358 77s-189.833 125.333 -251.5 222s-92.5 208 -92.5 334c0 126.667 31 238.5 93 335.5s146 170.833 252 221.5s225.667 76 359 76v158h230v-158c133.333 0 253 -25.667 359 -77s189.667 -125.333 251 -222
s92 -208 92 -334s-30.833 -237.333 -92.5 -334s-145.5 -170.667 -251.5 -222s-225.333 -77 -358 -77v-182zM1018 1208l-2 -0.000976562v-854h2c138 0 251 38.333 339 115s132 180.334 132 311.001c0 131.333 -44 235.5 -132 312.5s-201 115.5 -339 115.5zM782 353.999
l4 0.000976562v854h-4c-138 0 -251 -38.5 -339 -115.5s-132 -181.167 -132 -312.5c0 -130.667 44 -234.334 132 -311.001s201 -115 339 -115z" />
    <glyph glyph-name="uni0425" unicode="&#x425;" horiz-adv-x="1396" 
d="M41 1536h266l393 -575l379 575h256l-508 -760l531 -776h-266l-412 602l-387 -602h-250l508 791z" />
    <glyph glyph-name="uni0426" unicode="&#x426;" horiz-adv-x="1671" 
d="M1384 0h-1167v1536h229v-1325h742v1325h229v-1325h189v-580h-222v369z" />
    <glyph glyph-name="uni0427" unicode="&#x427;" horiz-adv-x="1492" 
d="M664 580c-178.667 0 -314.168 41.833 -406.501 125.5s-138.5 203.5 -138.5 359.5v471h229v-412c0 -116 29.333 -200.167 88 -252.5s146.667 -78.5 264 -78.5c114.667 0 230.334 23.667 347.001 71v672h229v-1536h-229v655c-134 -50 -261.667 -75 -383 -75z" />
    <glyph glyph-name="uni0428" unicode="&#x428;" horiz-adv-x="2215" 
d="M2001 0h-1784v1536h229v-1325h547v1325h230v-1325h549v1325h229v-1536z" />
    <glyph glyph-name="uni0429" unicode="&#x429;" horiz-adv-x="2252" 
d="M1968 0h-1751v1536h229v-1325h547v1325h230v-1325h549v1325h229v-1325h188v-580h-221v369z" />
    <glyph glyph-name="uni042A" unicode="&#x42a;" horiz-adv-x="1527" 
d="M932 0h-545.001v1325h-385v211h614v-522h316c164.667 0 293.834 -46.667 387.501 -140s140.5 -215.333 140.5 -366c0 -154.667 -47.667 -277.667 -143 -369c-96.667 -92.667 -225 -139 -385 -139zM929.999 803l-314 -0.000976562v-592h314c90 0 162.667 27.333 218 82
s83 126.334 83 215.001s-27.667 160 -83 214s-128 81 -218 81z" />
    <glyph glyph-name="uni042B" unicode="&#x42b;" horiz-adv-x="1955" 
d="M1741 0h-230v1536h230v-1536zM752 0h-535v1536h229v-522h306c166.667 0 297.667 -46.667 393 -140s143 -215.333 143 -366c0 -153.333 -48.333 -276.333 -145 -369c-98.667 -92.667 -229 -139 -391 -139zM750 803l-304.002 0.000976562v-592h304
c92.667 0 167.334 27.167 224.001 81.5s85 126.166 85 215.499c0 88.667 -28.167 160 -84.5 214s-131.166 81 -224.499 81z" />
    <glyph glyph-name="uni042C" unicode="&#x42c;" horiz-adv-x="1355" 
d="M752 0h-535v1536h229v-522h306c166.667 0 297.667 -46.667 393 -140s143 -215.333 143 -366c0 -153.333 -48.333 -276.333 -145 -369c-98.667 -92.667 -229 -139 -391 -139zM750 803l-304.002 0.000976562v-592h304c92.667 0 167.334 27.167 224.001 81.5
s85 126.166 85 215.499c0 88.667 -28.167 160 -84.5 214s-131.166 81 -224.499 81z" />
    <glyph glyph-name="uni042D" unicode="&#x42d;" horiz-adv-x="1619" 
d="M662 678l-0.00195312 211.001h604c-20.667 140 -72.167 251.833 -154.5 335.5s-193.5 125.5 -333.5 125.5c-126 0 -231 -35 -315 -105c-82 -68 -134.667 -154 -158 -258l-213 62c36 153.333 116 275.833 240 367.5s274 137.5 450 137.5c150 0 280.167 -34.333 390.5 -103
s193.333 -161.834 249 -279.501s83.5 -252.167 83.5 -403.5c0 -152 -29 -286.833 -87 -404.5s-143.833 -210.667 -257.5 -279s-247.167 -102.5 -400.5 -102.5c-179.333 0 -327.166 45 -443.499 135s-191.833 212 -226.5 366l223 62c21.333 -108 70.5 -194.5 147.5 -259.5
s178.833 -97.5 305.5 -97.5c144.667 0 260.834 44.5 348.501 133.5s139.5 207.833 155.5 356.5h-608z" />
    <glyph glyph-name="uni042E" unicode="&#x42e;" horiz-adv-x="2328" 
d="M446 0l-229 0.000976562v1536h229v-633h252c28 193.333 110.667 350.166 248 470.499s306 180.5 506 180.5c110.667 0 213.334 -19.833 308.001 -59.5s175.167 -94.167 241.5 -163.5s118.333 -152.5 156 -249.5s56.5 -201.5 56.5 -313.5s-18.833 -216.5 -56.5 -313.5
s-89.667 -180.167 -156 -249.5s-146.833 -123.833 -241.5 -163.5s-197.334 -59.5 -308.001 -59.5c-139.333 0 -265 30.167 -377 90.5s-201.5 144.333 -268.5 252s-105.833 230.167 -116.5 367.5h-244v-692zM1976 768.001c0 172 -48.167 310.833 -144.5 416.5
s-222.833 158.5 -379.5 158.5c-158 0 -284.833 -52.667 -380.5 -158s-143.5 -244.333 -143.5 -417s47.833 -311.667 143.5 -417s222.5 -158 380.5 -158c156.667 0 283.167 52.833 379.5 158.5s144.5 244.5 144.5 416.5z" />
    <glyph glyph-name="uni042F" unicode="&#x42f;" horiz-adv-x="1486" 
d="M1270 1536l0.000976562 -1536h-230v623h-317l-418 -623h-258l430 643c-106 20 -190.833 67.833 -254.5 143.5s-95.5 173.167 -95.5 292.5c0 138 45.667 248.667 137 332s208.666 125 351.999 125h654zM623.001 829h417v500h-417
c-77.333 0 -139.666 -23.167 -186.999 -69.5s-71 -106.5 -71 -180.5s23.667 -134.167 71 -180.5s109.666 -69.5 186.999 -69.5z" />
    <glyph glyph-name="uni0430" unicode="&#x430;" horiz-adv-x="1110" 
d="M973 0l-191.001 0.00195312l-10 166c-40 -58 -91.167 -103.167 -153.5 -135.5s-129.833 -48.5 -202.5 -48.5c-96 0 -174.333 26.333 -235 79s-91 123.667 -91 213c0 101.333 37 176.666 111 225.999c71.333 47.333 165.333 84.666 282 111.999l281 62
c-8 60.667 -32 106.167 -72 136.5s-92.333 45.5 -157 45.5c-140.667 0 -224.667 -58.667 -252 -176l-195 37c16.667 95.333 66 172.333 148 231s185.667 88 311 88c130.667 0 234.334 -35.167 311.001 -105.5s115 -165.5 115 -285.5v-645zM302.999 289.002
c0 -40.667 13.167 -72.333 39.5 -95s62.5 -34 108.5 -34c54.667 0 105.5 11.667 152.5 35s86.167 60.333 117.5 111s47 111 47 181v23l-281 -66c-62 -14.667 -108.167 -33.667 -138.5 -57s-45.5 -56 -45.5 -98z" />
    <glyph glyph-name="uni0431" unicode="&#x431;" horiz-adv-x="1259" 
d="M645 -18c-175.333 0 -310.669 61.1719 -406.002 183.505s-143 293.166 -143 512.499c0 253.333 47.5 449.166 142.5 587.499s246.167 218.166 453.5 239.499l203 19c70.667 8 131.334 18.667 182.001 32l25 -188c-37.333 -11.333 -107 -23 -209 -35l-205 -20
c-115.333 -12.667 -203.666 -55.834 -264.999 -129.501s-98 -184.834 -110 -333.501c46 62 103.333 107.5 172 136.5s139.667 43.5 213 43.5c137.333 0 252 -47.667 344 -143s138 -221 138 -377s-49.333 -283 -148 -381s-227.667 -147 -387 -147zM648.997 848.005
c-94 0 -169.999 -31.333 -227.999 -94s-87 -144 -87 -244c0 -98.667 28.667 -179 86 -241s132.333 -93 225 -93s168 31 226 93s87 142.333 87 241c0 100 -28.333 181.333 -85 244s-131.334 94 -224.001 94z" />
    <glyph glyph-name="uni0432" unicode="&#x432;" horiz-adv-x="1087" 
d="M682 0l-522.001 0.000976562v1018h485c95.333 0 171.833 -22.667 229.5 -68s86.5 -110 86.5 -194c0 -52 -12.667 -97.5 -38 -136.5s-60.666 -68.833 -105.999 -89.5c61.333 -16.667 108.5 -45.834 141.5 -87.501s49.5 -93.5 49.5 -155.5c0 -88 -31 -157.833 -93 -209.5
s-139.667 -77.5 -233 -77.5zM620.999 848.001h-256v-246h260c88.667 0 133 41 133 123s-45.667 123 -137 123zM364.999 172.001h274c102.667 0 154 43.667 154 131c0 42 -13 74.333 -39 97s-63 34 -111 34h-278v-262z" />
    <glyph glyph-name="uni0433" unicode="&#x433;" horiz-adv-x="909" 
d="M371 0h-211v1018h708v-184h-497v-834z" />
    <glyph glyph-name="uni0434" unicode="&#x434;" horiz-adv-x="1206" 
d="M238 -305h-211v489h96c34.667 26 61 77.5 79 154.5s29.333 191.5 34 343.5l12 336h768v-834h139v-489h-209v305h-708v-305zM446 834l-4 -146c-8 -240.667 -40 -408.667 -96 -504h459v650h-359z" />
    <glyph glyph-name="uni0435" unicode="&#x435;" horiz-adv-x="1181" 
d="M80 510c0 152 48.834 277.666 146.501 376.999s222.167 149 373.5 149c146 0 265.333 -44.333 358 -133c92 -88 138 -203.333 138 -346c0 -11.333 -1.33301 -28.5 -4 -51.5s-4.33398 -39.167 -5.00098 -48.5h-790c8.66699 -95.333 40.5 -167.333 95.5 -216
s125.5 -73 211.5 -73c76.667 0 140.5 15.833 191.5 47.5s83.5 74.5 97.5 128.5l197 -35c-23.333 -103.333 -79.333 -183 -168 -239c-89.333 -58.667 -195.333 -88 -318 -88c-158.667 0 -285.667 49.333 -381 148s-143 225.334 -143 380.001zM602.001 857.999
c-81.333 0 -148.668 -20.5 -202.001 -61.5s-85.666 -96.833 -96.999 -167.5h584c-11.333 70.667 -42.333 126.5 -93 167.5s-114.667 61.5 -192 61.5z" />
    <glyph glyph-name="uni0436" unicode="&#x436;" horiz-adv-x="1497" 
d="M29 1018h239l267 -395h112v395h203v-395h113l266 395h239l-340 -473l363 -545h-242l-288 432h-111v-432h-203v432h-115l-292 -432h-234l363 535z" />
    <glyph glyph-name="uni0437" unicode="&#x437;" horiz-adv-x="1026" 
d="M504 -18c-232 0 -382.999 86.668 -452.999 260.001l197 75c34.667 -104.667 122 -157 262 -157c66.667 0 119.167 12.667 157.5 38s57.5 61.666 57.5 108.999c0 39.333 -13.5 69 -40.5 89s-64.833 30 -113.5 30h-184v184h172c45.333 0 81.333 10.333 108 31
s40 49.334 40 86.001c0 42 -18.333 74.333 -55 97s-87.334 34 -152.001 34c-130.667 0 -211.334 -52 -242.001 -156l-192 66c28 82.667 79.833 148 155.5 196s167.834 72 276.501 72c132 0 235.333 -26.333 310 -79s112 -122.334 112 -209.001
c0 -50.667 -13.5 -95 -40.5 -133s-66.167 -67 -117.5 -87c58.667 -16.667 103.667 -44.834 135 -84.501s47 -88.5 47 -146.5c0 -68.667 -20.167 -127.167 -60.5 -175.5s-93 -83.666 -158 -105.999s-138.833 -33.5 -221.5 -33.5z" />
    <glyph glyph-name="uni0438" unicode="&#x438;" horiz-adv-x="1206" 
d="M362 0h-202v1018h202v-717l480 717h205v-1018h-205v715z" />
    <glyph glyph-name="uni0439" unicode="&#x439;" horiz-adv-x="1206" 
d="M610 1323c42 0 75.667 11.167 101 33.5s38.333 54.833 39 97.5h186c-0.666992 -88 -31.167 -158.833 -91.5 -212.5s-137.833 -80.5 -232.5 -80.5s-172 26.833 -232 80.5s-90.333 124.5 -91 212.5h188c0 -42.667 11.833 -75.167 35.5 -97.5s56.167 -33.5 97.5 -33.5z
M362 0h-202v1018h202v-717l480 717h205v-1018h-205v715z" />
    <glyph glyph-name="uni043A" unicode="&#x43a;" horiz-adv-x="1101" 
d="M160 0v1018h211v-387h127l315 387h252l-399 -477l426 -541h-256l-344 426h-121v-426h-211z" />
    <glyph glyph-name="uni043B" unicode="&#x43b;" horiz-adv-x="1161" 
d="M8 -4l26.998 184c13.333 -2.66699 26.333 -4 39 -4c25.333 0 45.5 5 60.5 15s29.333 31.333 43 64s24.334 82 32.001 148s13.5 153 17.5 261l15 354h759v-1018h-210v834h-347l-8 -209c-7.33301 -168 -23.666 -298.667 -48.999 -392s-60.333 -158.5 -105 -195.5
s-104.667 -55.5 -180 -55.5c-34 0 -65.333 4.66699 -94 14z" />
    <glyph glyph-name="uni043C" unicode="&#x43c;" horiz-adv-x="1429" 
d="M362 0h-202v1018h217l340 -457l336 457h217v-1018h-203v735l-332 -448h-45l-328 440v-727z" />
    <glyph glyph-name="uni043D" unicode="&#x43d;" horiz-adv-x="1212" 
d="M371 0h-211v1018h211v-395h471v395h213v-1018h-213v438h-471v-438z" />
    <glyph glyph-name="uni043E" unicode="&#x43e;" horiz-adv-x="1228" 
d="M614 1036c154.667 0 282.501 -49.832 383.501 -149.499s151.5 -225.167 151.5 -376.5c0 -152.667 -50.5 -278.834 -151.5 -378.501s-228.833 -149.5 -383.5 -149.5c-154 0 -281.5 50 -382.5 150s-151.5 226 -151.5 378c0 151.333 50.667 276.833 152 376.5
s228.666 149.5 381.999 149.5zM614.001 842.001c-92.667 0 -168 -30.667 -226 -92s-87 -141.333 -87 -240s29 -179 87 -241s133.333 -93 226 -93s168.167 31 226.5 93s87.5 142.333 87.5 241s-29 178.667 -87 240s-133.667 92 -227 92z" />
    <glyph glyph-name="uni043F" unicode="&#x43f;" horiz-adv-x="1198" 
d="M371 0h-211v1018h878v-1018h-211v834h-456v-834z" />
    <glyph glyph-name="uni0440" unicode="&#x440;" horiz-adv-x="1286" 
d="M160 -451l-0.00195312 1469h196l9 -144c42.667 51.333 93.667 91.166 153 119.499s123 42.5 191 42.5c142 0 260.333 -49.833 355 -149.5s142 -225.167 142 -376.5c0 -152 -47.333 -278 -142 -378s-213 -150 -355 -150c-67.333 0 -130.166 13.333 -188.499 40
s-108.166 64.334 -149.499 113.001v-586h-211zM677.998 842c-91.333 0 -165.333 -30.667 -222 -92s-85 -141.333 -85 -240s28.5 -179 85.5 -241s130.833 -93 221.5 -93c90 0 163.667 31 221 93s86 142.333 86 241c0 98 -28.667 177.833 -86 239.5s-131 92.5 -221 92.5z" />
    <glyph glyph-name="uni0441" unicode="&#x441;" horiz-adv-x="1136" 
d="M301 510c0 -99.333 27.832 -179.833 83.499 -241.5s128.167 -92.5 217.5 -92.5c73.333 0 134.333 19.167 183 57.5s80 89.5 94 153.5l202 -37c-18.667 -106 -71 -193.333 -157 -262c-86.667 -70.667 -194.667 -106 -324 -106c-149.333 0 -273.333 49.833 -372 149.5
s-148 225.834 -148 378.501c0 151.333 49.833 276.833 149.5 376.5s223.834 149.5 372.501 149.5c122 0 225.333 -32.833 310 -98.5s139 -152.834 163 -261.501l-205 -35c-16 62 -47 111 -93 147s-103 54 -171 54c-90 0 -163.333 -30.167 -220 -90.5
s-85 -140.833 -85 -241.5z" />
    <glyph glyph-name="uni0442" unicode="&#x442;" horiz-adv-x="966" 
d="M590 0h-213v834h-336v184h885v-184h-336v-834z" />
    <glyph glyph-name="uni0443" unicode="&#x443;" horiz-adv-x="1079" 
d="M451 6l-439 1012h236l313 -742l283 742h221l-573 -1469h-220z" />
    <glyph glyph-name="uni0444" unicode="&#x444;" horiz-adv-x="1427" 
d="M817 -451h-205v451c-157.333 5.33301 -285.333 54.666 -384 147.999s-148 214 -148 362c0 146.667 49.333 266.667 148 360s226.667 142.666 384 147.999v518h205v-518c157.333 -5.33301 285.166 -54.666 383.499 -147.999s147.5 -213.333 147.5 -360
c0 -148 -49.167 -268.667 -147.5 -362s-226.166 -142.666 -383.499 -147.999v-451zM295 510c0 -99.333 27.667 -178.167 83 -236.5s133.333 -89.5 234 -93.5v658c-100.667 -4 -178.667 -34.833 -234 -92.5s-83 -136.167 -83 -235.5zM1133 509.999c0 98 -27.5 176 -82.5 234
s-132.833 89.333 -233.5 94v-658c100.667 4.66699 178.5 36.167 233.5 94.5s82.5 136.833 82.5 235.5z" />
    <glyph glyph-name="uni0445" unicode="&#x445;" horiz-adv-x="993" 
d="M10 1018h252l240 -336l223 336h236l-343 -500l367 -518h-250l-258 362l-233 -362h-230l344 528z" />
    <glyph glyph-name="uni0446" unicode="&#x446;" horiz-adv-x="1216" 
d="M956 0h-796v1018h211v-834h442v834h211v-834h141v-489h-209v305z" />
    <glyph glyph-name="uni0447" unicode="&#x447;" horiz-adv-x="1105" 
d="M483 348c-129.333 0 -226.833 29.667 -292.5 89s-98.5 143 -98.5 251v330h211v-283c0 -132 72.333 -198 217 -198c74.667 0 145.667 12.667 213 38v443h213v-1018h-213v393c-84.667 -30 -168 -45 -250 -45z" />
    <glyph glyph-name="uni0448" unicode="&#x448;" horiz-adv-x="1665" 
d="M1507 0h-1347v1018h211v-834h356v834h211v-834h356v834h213v-1018z" />
    <glyph glyph-name="uni0449" unicode="&#x449;" horiz-adv-x="1697" 
d="M1438 0h-1278v1018h211v-834h356v834h211v-834h356v834h213v-834h140v-489h-209v305z" />
    <glyph glyph-name="uni044A" unicode="&#x44a;" horiz-adv-x="1140" 
d="M719 0h-467v834h-244v184h455v-316h256c110.667 0 200.5 -32.333 269.5 -97s103.5 -149.667 103.5 -255c0 -103.333 -34.5 -187.5 -103.5 -252.5s-158.833 -97.5 -269.5 -97.5zM686 518l-222.999 -0.000976562v-334h223c60 0 106 14.333 138 43s48 69.667 48 123
c0 54.667 -15.833 96.334 -47.5 125.001s-77.834 43 -138.501 43z" />
    <glyph glyph-name="uni044B" unicode="&#x44b;" horiz-adv-x="1488" 
d="M1329 0h-211v1018h211v-1018zM627 0h-467v1018h211v-316h256c110.667 0 200.334 -32.333 269.001 -97s103 -149.667 103 -255c0 -103.333 -34.333 -187.5 -103 -252.5s-158.334 -97.5 -269.001 -97.5zM594 518l-222.999 -0.000976562v-334h223c60 0 106 14.333 138 43
s48 69.667 48 123c0 54.667 -15.833 96.334 -47.5 125.001s-77.834 43 -138.501 43z" />
    <glyph glyph-name="uni044C" unicode="&#x44c;" horiz-adv-x="1048" 
d="M627 0h-467v1018h211v-316h256c110.667 0 200.334 -32.333 269.001 -97s103 -149.667 103 -255c0 -103.333 -34.333 -187.5 -103 -252.5s-158.334 -97.5 -269.001 -97.5zM594 518l-222.999 -0.000976562v-334h223c60 0 106 14.333 138 43s48 69.667 48 123
c0 54.667 -15.833 96.334 -47.5 125.001s-77.834 43 -138.501 43z" />
    <glyph glyph-name="uni044D" unicode="&#x44d;" horiz-adv-x="1144" 
d="M1063 508c0 -102.667 -19.0029 -192.999 -57.0029 -270.999s-96 -140 -174 -186s-171.667 -69 -281 -69c-126.667 0 -232.167 29 -316.5 87s-139.166 140 -164.499 246l198 56c17.333 -66 50.333 -116.667 99 -152s110 -53 184 -53c86 0 153.667 23.333 203 70
s80 110.667 92 192h-361v178h357c-14 75.333 -46.667 135.166 -98 179.499s-117 66.5 -197 66.5c-78 0 -141.667 -18.833 -191 -56.5s-80.666 -87.167 -93.999 -148.5l-194 51c24 100.667 78.167 182.167 162.5 244.5s189.833 93.5 316.5 93.5
c158.667 0 284.334 -49 377.001 -147s139 -225 139 -381z" />
    <glyph glyph-name="uni044E" unicode="&#x44e;" horiz-adv-x="1677" 
d="M371 0h-210.999v1018h211v-395h168c25.333 122.667 85.333 222.334 180 299.001c96 76 210.667 114 344 114c154.667 0 282.334 -49.833 383.001 -149.5s151 -225.167 151 -376.5c0 -152.667 -50.333 -278.834 -151 -378.501s-228.334 -149.5 -383.001 -149.5
c-140 0 -259.333 42.5 -358 127.5s-156.334 194.5 -173.001 328.5h-161v-438zM1063 842c-92.667 0 -168 -30.667 -226 -92s-87 -141.333 -87 -240s29 -179 87 -241s133.333 -93 226 -93s168 31 226 93s87 142.333 87 241s-29 178.667 -87 240s-133.333 92 -226 92z" />
    <glyph glyph-name="uni044F" unicode="&#x44f;" horiz-adv-x="1116" 
d="M96 694c0 95.333 31.5 173.168 94.5 233.501s145.5 90.5 247.5 90.5h518v-1018h-204v375h-193l-268 -375h-230l283 391c-76.667 18 -137.167 53.167 -181.5 105.5s-66.5 118.166 -66.5 197.499zM475 547.002h276.999v297h-277c-53.333 0 -94.666 -12.5 -123.999 -37.5
s-44 -61.833 -44 -110.5c0 -49.333 14.5 -86.5 43.5 -111.5s70.5 -37.5 124.5 -37.5z" />
    <glyph glyph-name="uni0451" unicode="&#x451;" horiz-adv-x="1181" 
d="M80 510c0 152 48.834 277.666 146.501 376.999s222.167 149 373.5 149c146 0 265.333 -44.333 358 -133c92 -88 138 -203.333 138 -346c0 -11.333 -1.33301 -28.5 -4 -51.5s-4.33398 -39.167 -5.00098 -48.5h-790c8.66699 -95.333 40.5 -167.333 95.5 -216
s125.5 -73 211.5 -73c76.667 0 140.5 15.833 191.5 47.5s83.5 74.5 97.5 128.5l197 -35c-23.333 -103.333 -79.333 -183 -168 -239c-89.333 -58.667 -195.333 -88 -318 -88c-158.667 0 -285.667 49.333 -381 148s-143 225.334 -143 380.001zM602.001 857.999
c-81.333 0 -148.668 -20.5 -202.001 -61.5s-85.666 -96.833 -96.999 -167.5h584c-11.333 70.667 -42.333 126.5 -93 167.5s-114.667 61.5 -192 61.5zM388.999 1225c-36 0 -66.501 12.167 -91.501 36.5s-37.5 54.5 -37.5 90.5c0 36.667 12.333 67 37 91s55.334 36 92.001 36
c36 0 66.167 -12 90.5 -36s36.5 -54.333 36.5 -91c0 -36 -12.167 -66.167 -36.5 -90.5s-54.5 -36.5 -90.5 -36.5zM783.998 1225c-36.667 0 -67.332 12.167 -91.999 36.5s-37 54.5 -37 90.5c0 36.667 12.167 67 36.5 91s55.166 36 92.499 36c36 0 66.167 -12 90.5 -36
s36.5 -54.333 36.5 -91c0 -36 -12.167 -66.167 -36.5 -90.5s-54.5 -36.5 -90.5 -36.5z" />
    <glyph glyph-name="uni0453" unicode="&#x453;" horiz-adv-x="909" 
d="M358 1176l197 280h276l-276 -280h-197zM371 0h-211v1018h708v-184h-497v-834z" />
    <glyph glyph-name="uni045E" unicode="&#x45e;" horiz-adv-x="1079" 
d="M451 6l-439 1012h236l313 -742l283 742h221l-573 -1469h-220zM551 1323c42 0 75.5 11.167 100.5 33.5s37.833 54.833 38.5 97.5h187c-0.666992 -88 -31.167 -158.833 -91.5 -212.5s-137.833 -80.5 -232.5 -80.5s-172.167 26.833 -232.5 80.5s-90.833 124.5 -91.5 212.5
h189c0 -42.667 11.833 -75.167 35.5 -97.5s56.167 -33.5 97.5 -33.5z" />
    <glyph glyph-name="uni0490" unicode="&#x490;" horiz-adv-x="1196" 
d="M446 0h-229v1536h725v344h221v-555h-717v-1325z" />
    <glyph glyph-name="Wgrave" unicode="&#x1e80;" horiz-adv-x="1896" 
d="M547 297l375 731h49l381 -733l260 1241h229l-321 -1536h-246l-328 635l-323 -635h-246l-320 1536h230zM946 1677l-274 281h274l199 -281h-199z" />
    <glyph glyph-name="wgrave" unicode="&#x1e81;" horiz-adv-x="1361" 
d="M258 0l-221 1018h211l166 -770l252 500h36l254 -502l164 772h207l-223 -1018h-223l-197 393l-201 -393h-225zM680 1176l-274 280h274l199 -280h-199z" />
    <glyph glyph-name="Wacute" unicode="&#x1e82;" horiz-adv-x="1896" 
d="M547 297l375 731h49l381 -733l260 1241h229l-321 -1536h-246l-328 635l-323 -635h-246l-320 1536h230zM788 1677l197 281h277l-277 -281h-197z" />
    <glyph glyph-name="wacute" unicode="&#x1e83;" horiz-adv-x="1361" 
d="M258 0l-221 1018h211l166 -770l252 500h36l254 -502l164 772h207l-223 -1018h-223l-197 393l-201 -393h-225zM522 1176l197 280h276l-276 -280h-197z" />
    <glyph glyph-name="Wdieresis" unicode="&#x1e84;" horiz-adv-x="1896" 
d="M547 297l375 731h49l381 -733l260 1241h229l-321 -1536h-246l-328 635l-323 -635h-246l-320 1536h230zM752 1726c-36 0 -66.501 12.167 -91.501 36.5s-37.5 54.5 -37.5 90.5c0 36.667 12.333 67 37 91s55.334 36 92.001 36c36 0 66.167 -12 90.5 -36
s36.5 -54.333 36.5 -91c0 -36 -12.167 -66.167 -36.5 -90.5s-54.5 -36.5 -90.5 -36.5zM1147 1726c-36.667 0 -67.332 12.167 -91.999 36.5s-37 54.5 -37 90.5c0 36.667 12.167 67 36.5 91s55.166 36 92.499 36c36 0 66.167 -12 90.5 -36s36.5 -54.333 36.5 -91
c0 -36 -12.167 -66.167 -36.5 -90.5s-54.5 -36.5 -90.5 -36.5z" />
    <glyph glyph-name="wdieresis" unicode="&#x1e85;" horiz-adv-x="1361" 
d="M258 0l-221 1018h211l166 -770l252 500h36l254 -502l164 772h207l-223 -1018h-223l-197 393l-201 -393h-225zM485 1225c-36 0 -66.501 12.167 -91.501 36.5s-37.5 54.5 -37.5 90.5c0 36.667 12.333 67 37 91s55.334 36 92.001 36c36 0 66.167 -12 90.5 -36
s36.5 -54.333 36.5 -91c0 -36 -12.167 -66.167 -36.5 -90.5s-54.5 -36.5 -90.5 -36.5zM880.999 1225c-36.667 0 -67.332 12.167 -91.999 36.5s-37 54.5 -37 90.5c0 36.667 12.167 67 36.5 91s55.166 36 92.499 36c36 0 66.167 -12 90.5 -36s36.5 -54.333 36.5 -91
c0 -36 -12.167 -66.167 -36.5 -90.5s-54.5 -36.5 -90.5 -36.5z" />
    <glyph glyph-name="Ygrave" unicode="&#x1ef2;" horiz-adv-x="1392" 
d="M811 0h-229v670l-557 866h266l409 -647l412 647h256l-557 -866v-670zM694 1694l-274 280h274l199 -280h-199z" />
    <glyph glyph-name="ygrave" unicode="&#x1ef3;" horiz-adv-x="1079" 
d="M451 6l-439 1012h236l313 -742l283 742h221l-573 -1469h-220zM508 1176l-275 280h275l199 -280h-199z" />
    <glyph glyph-name="endash" unicode="&#x2013;" horiz-adv-x="1024" 
d="M983 502h-942v198h942v-198z" />
    <glyph glyph-name=".null" horiz-adv-x="0" 
 />
    <glyph glyph-name="nonmarkingreturn" horiz-adv-x="682" 
 />
    <glyph glyph-name="i001" 
d="M401 1350c0 -38.667 -13 -71 -39 -97s-58.667 -39 -98 -39c-38 0 -70 13.167 -96 39.5s-39 58.5 -39 96.5s13 69.667 39 95s58 38 96 38c40 0 72.833 -12.667 98.5 -38s38.5 -57 38.5 -95zM371 0h-211v1018h211v-1018z" />
    <glyph glyph-name="_226" horiz-adv-x="1224" 
d="M453 1176l196 280h277l-277 -280h-196z" />
    <glyph glyph-name="_227" horiz-adv-x="1224" 
d="M610 1176l-274 280h274l199 -280h-199z" />
    <glyph glyph-name="_228" horiz-adv-x="1224" 
d="M987 1176h-221l-154 145l-155 -145h-219l262 280h225z" />
    <glyph glyph-name="_229" horiz-adv-x="1224" 
d="M614 1311l158 145h215l-262 -280h-225l-262 280h225z" />
    <glyph glyph-name="_230" horiz-adv-x="1224" 
d="M748 1192c-22.667 0 -45.334 5.66895 -68.001 17.002s-41.5 23.666 -56.5 36.999s-31.667 25.666 -50 36.999s-35.5 17 -51.5 17c-27.333 0 -47.5 -8.83301 -60.5 -26.5s-19.5 -45.5 -19.5 -83.5h-153c-4 84.667 11 150.167 45 196.5s81.667 69.5 143 69.5
c22.667 0 46 -5.33301 70 -16s44.167 -22.667 60.5 -36s33.833 -25.333 52.5 -36s34.334 -16 47.001 -16c53.333 0 79 34 77 102h154c4.66699 -82 -10 -146.167 -44 -192.5s-82.667 -69.5 -146 -69.5z" />
    <glyph glyph-name="_231" horiz-adv-x="1224" 
d="M416 1225c-36 0 -66.501 12.167 -91.501 36.5s-37.5 54.5 -37.5 90.5c0 36.667 12.333 67 37 91s55.334 36 92.001 36c36 0 66.167 -12 90.5 -36s36.5 -54.333 36.5 -91c0 -36 -12.167 -66.167 -36.5 -90.5s-54.5 -36.5 -90.5 -36.5zM810.999 1225
c-36.667 0 -67.332 12.167 -91.999 36.5s-37 54.5 -37 90.5c0 36.667 12.167 67 36.5 91s55.166 36 92.499 36c36 0 66.167 -12 90.5 -36s36.5 -54.333 36.5 -91c0 -36 -12.167 -66.167 -36.5 -90.5s-54.5 -36.5 -90.5 -36.5z" />
    <glyph glyph-name="_232" horiz-adv-x="1148" 
d="M565 1544c60.667 0 111 -18 151 -54s60 -82 60 -138c0 -57.333 -20 -104.833 -60 -142.5s-90.333 -56.5 -151 -56.5s-111 18.5 -151 55.5s-60 84.167 -60 141.5c0 56 20 102.333 60 139s90.333 55 151 55zM469 1350c0 -28.667 8.83301 -52 26.5 -70
s40.834 -27 69.501 -27c28 0 50.667 9 68 27s26 41.333 26 70c0 27.333 -8.83301 49.833 -26.5 67.5s-40.167 26.5 -67.5 26.5c-28.667 0 -51.834 -8.83301 -69.501 -26.5s-26.5 -40.167 -26.5 -67.5z" />
    <glyph glyph-name="_233" horiz-adv-x="1189" 
d="M723 1456l-211 -280h-172l154 280h229zM1044 1456l-227 -280h-176l164 280h239z" />
    <glyph glyph-name="_234" horiz-adv-x="1224" 
d="M610 1323c42 0 75.667 11.167 101 33.5s38.333 54.833 39 97.5h186c-0.666992 -88 -31.167 -158.833 -91.5 -212.5s-137.833 -80.5 -232.5 -80.5s-172 26.833 -232 80.5s-90.333 124.5 -91 212.5h188c0 -42.667 11.833 -75.167 35.5 -97.5s56.167 -33.5 97.5 -33.5z" />
    <glyph glyph-name="_235" horiz-adv-x="1224" 
d="M309 1235v178h606v-178h-606z" />
    <glyph glyph-name="_236" horiz-adv-x="1058" 
d="M530 1214c-39.333 0 -72 13 -98 39s-39 58.333 -39 97c0 38 12.833 69.667 38.5 95s58.5 38 98.5 38c38 0 70.167 -12.667 96.5 -38s39.5 -57 39.5 -95s-13.167 -70.167 -39.5 -96.5s-58.5 -39.5 -96.5 -39.5z" />
    <glyph glyph-name="_237" horiz-adv-x="995" 
d="M315 -438l121 313h223l-192 -313h-152z" />
    <glyph glyph-name="_238" horiz-adv-x="1015" 
d="M348 1145l191 315h151l-121 -315h-221z" />
    </font>
</defs>
</svg>
