<?xml version="1.0" standalone="no"?>
<!DOCTYPE svg PUBLIC "-//W3C//DTD SVG 1.1//EN" "http://www.w3.org/Graphics/SVG/1.1/DTD/svg11.dtd" >
<svg>
<metadata>
Created by FontForge 20090914 at Sun Mar 20 10:46:13 2022
 By www-data
</metadata>
<defs>
<font id="FactorA-Bold" horiz-adv-x="552" >
  <font-face 
    font-family="Factor A"
    font-weight="700"
    font-stretch="normal"
    units-per-em="2048"
    panose-1="0 0 0 0 0 0 0 0 0 0"
    ascent="1638"
    descent="-410"
    x-height="1024"
    cap-height="1536"
    bbox="-117 -471 2234 2007"
    underline-thickness="122"
    underline-position="-369"
    unicode-range="U+0020-U+2013"
  />
<missing-glyph horiz-adv-x="1454" 
 />
    <glyph glyph-name="i_f" unicode="fi" horiz-adv-x="1376" 
d="M1251 1346c0 -42.667 -14.333 -78.334 -43 -107.001s-64.667 -43 -108 -43c-44 0 -80.333 14.333 -109 43s-43 64.334 -43 107.001c0 42 14.333 77.333 43 106s65 43 109 43s80.167 -14.167 108.5 -42.5s42.5 -63.833 42.5 -106.5zM1223 0h-246v1024h246v-1024zM834 1024
l0.000976562 -215h-338v-809h-246v809h-240v68l131 147h109v150c0 115.333 35.833 207.833 107.5 277.5s161.5 104.5 269.5 104.5c53.333 0 110.666 -9.33301 171.999 -28l-49 -209c-42 12 -75 18 -99 18c-103.333 0 -155 -53 -155 -159v-154h338z" />
    <glyph glyph-name="l_f" unicode="fl" horiz-adv-x="1376" 
d="M1223 0h-246v1536h246v-1536zM834 1024l0.000976562 -215h-338v-809h-246v809h-240v68l131 147h109v150c0 115.333 35.833 207.833 107.5 277.5s161.5 104.5 269.5 104.5c53.333 0 110.666 -9.33301 171.999 -28l-49 -209c-42 12 -75 18 -99 18
c-103.333 0 -155 -53 -155 -159v-154h338z" />
    <glyph glyph-name="_061" unicode="ff" horiz-adv-x="1542" 
d="M496 1178l0.00195312 -154h452v150c0 115.333 35.833 207.833 107.5 277.5s161.5 104.5 269.5 104.5c53.333 0 110.666 -9.33301 171.999 -28l-49 -209c-42 12 -74.667 18 -98 18c-104 0 -156 -53 -156 -159v-154h338v-215h-338v-809h-246v809h-452v-809h-246v809h-240
v68l131 147h109v150c0 115.333 35.833 207.833 107.5 277.5s161.5 104.5 269.5 104.5c53.333 0 110.666 -9.33301 171.999 -28l-49 -209c-42 12 -75 18 -99 18c-103.333 0 -155 -53 -155 -159z" />
    <glyph glyph-name=".notdef" horiz-adv-x="1454" 
 />
    <glyph glyph-name="space" unicode=" " horiz-adv-x="450" 
 />
    <glyph glyph-name="exclam" unicode="!" horiz-adv-x="741" 
d="M264 496l-39 1040h291l-39 -1040h-213zM371 -20c-48.667 0 -88.5 14.668 -119.5 44.001s-46.5 67.666 -46.5 114.999c0 48.667 15.5 88.167 46.5 118.5s70.833 45.5 119.5 45.5c49.333 0 89.333 -15.167 120 -45.5s46 -69.833 46 -118.5c0 -48 -15.333 -86.5 -46 -115.5
s-70.667 -43.5 -120 -43.5z" />
    <glyph glyph-name="comma" unicode="," horiz-adv-x="536" 
d="M453 285l-203 -615h-203l131 615h275z" />
    <glyph glyph-name="hyphen" unicode="-" horiz-adv-x="829" 
d="M727 485h-625v230h625v-230z" />
    <glyph glyph-name="period" unicode="." horiz-adv-x="536" 
d="M268 -20c-48.667 0 -88.5 14.668 -119.5 44.001s-46.5 67.666 -46.5 114.999c0 48.667 15.5 88.167 46.5 118.5s70.833 45.5 119.5 45.5c49.333 0 89.333 -15.167 120 -45.5s46 -69.833 46 -118.5c0 -48 -15.333 -86.5 -46 -115.5s-70.667 -43.5 -120 -43.5z" />
    <glyph glyph-name="zero" unicode="0" horiz-adv-x="1394" 
d="M1268 772c0 -246.667 -52 -440.668 -156 -582.001c-103.333 -140 -241.333 -210 -414 -210c-174 0 -312.667 70.333 -416 211s-155 334.334 -155 581.001c0 244.667 51.667 436.5 155 575.5s242 208.5 416 208.5c172 0 310 -68.667 414 -206
c104 -139.333 156 -332 156 -578zM698 218.999c53.333 0 99.665 13.335 138.998 40.002s70.833 64.667 94.5 114s41.167 107.166 52.5 173.499s17 141.5 17 225.5c0 110 -10 204.667 -30 284s-53.167 142.666 -99.5 189.999s-104.166 71 -173.499 71
c-53.333 0 -99.833 -13.333 -139.5 -40s-71.5 -64.5 -95.5 -113.5s-41.667 -106 -53 -171s-17 -138.5 -17 -220.5c0 -84 5.66699 -159 17 -225s28.833 -124 52.5 -174s55.334 -88.167 95.001 -114.5s86.5 -39.5 140.5 -39.5z" />
    <glyph glyph-name="one" unicode="1" horiz-adv-x="833" 
d="M618 0h-256v1118h-311v158c95.333 4.66699 174.833 32.5 238.5 83.5s104.5 109.833 122.5 176.5h206v-1536z" />
    <glyph glyph-name="two" unicode="2" horiz-adv-x="1218" 
d="M479 250l641.001 0.00390625v-250h-1011v213l323 315c151.333 145.333 253.333 256.166 306 332.499s79 149.166 79 218.499c0 70.667 -20.833 128 -62.5 172s-98.5 66 -170.5 66c-66 0 -124.5 -21.167 -175.5 -63.5s-80.833 -103.833 -89.5 -184.5l-256 49
c24 140 84.667 248 182 324s214.333 114 351 114c146.667 0 264.667 -43.667 354 -131c88.667 -88.667 133 -201.334 133 -338.001c0 -52.667 -7.16699 -101.5 -21.5 -146.5s-41 -95.167 -80 -150.5s-83.333 -110.333 -133 -165s-118.834 -126.334 -207.501 -215.001z" />
    <glyph glyph-name="three" unicode="3" horiz-adv-x="1245" 
d="M598 -20c-65.333 0 -126.835 8.33301 -184.502 25s-111.5 42.167 -161.5 76.5s-92 80.5 -126 138.5s-57 125.333 -69 202l258 67c9.33301 -83.333 39 -148.5 89 -195.5s115.333 -70.5 196 -70.5c74 0 136.5 20.667 187.5 62s76.5 97.333 76.5 168
c0 66.667 -21.667 119.5 -65 158.5s-97.333 58.5 -162 58.5h-152v239h117c62.667 0 115.834 17.833 159.501 53.5s65.5 86.167 65.5 151.5c0 61.333 -20.667 110.833 -62 148.5s-94.333 56.5 -159 56.5c-64 0 -119.667 -18.5 -167 -55.5s-77.666 -88.167 -90.999 -153.5
l-252 57c24.667 118.667 84 213.167 178 283.5s208.667 105.5 344 105.5c142 0 257 -38 345 -114c86 -78 129 -177.667 129 -299c0 -138.667 -67 -250.667 -201 -336c77.333 -28.667 136.5 -75.667 177.5 -141s61.5 -140 61.5 -224c0 -93.333 -24.167 -175.5 -72.5 -246.5
s-112.5 -124.667 -192.5 -161s-169 -54.5 -267 -54.5z" />
    <glyph glyph-name="four" unicode="4" horiz-adv-x="1257" 
d="M995 0h-256v334h-696v223l629 979h323v-967h217v-235h-217v-334zM739 1223l-422 -654h422v654z" />
    <glyph glyph-name="five" unicode="5" horiz-adv-x="1239" 
d="M1147 508c0 -154.667 -49.998 -281.334 -149.998 -380.001s-233 -148 -399 -148c-65.333 0 -127.333 8.33301 -186 25s-112.334 41.167 -161.001 73.5s-89.5 74.833 -122.5 127.5s-54.833 113 -65.5 181l261 68c7.33301 -76.667 36.833 -134.834 88.5 -174.501
s113.5 -59.5 185.5 -59.5c84.667 0 153 25.833 205 77.5s78 118.834 78 201.501c0 84.667 -25.833 152.5 -77.5 203.5s-118.834 76.5 -201.501 76.5c-50.667 0 -97.5 -10.167 -140.5 -30.5s-74.5 -48.166 -94.5 -83.499l-220 59l127 811h805v-236h-594l-53 -346
c64.667 33.333 137.667 50 219 50c150 0 270.167 -46.167 360.5 -138.5s135.5 -211.5 135.5 -357.5z" />
    <glyph glyph-name="six" unicode="6" horiz-adv-x="1230" 
d="M612 -20c-100.667 0 -191.334 20.334 -272.001 61.001s-144.5 99.167 -191.5 175.5s-70.5 163.833 -70.5 262.5c0 123.333 41 247.666 123 372.999l446 684h295l-377 -565c27.333 5.33301 58 8 92 8c144 0 263 -44.833 357 -134.5s141 -206.5 141 -350.5
c0 -152.667 -51.667 -276.5 -155 -371.5s-232.666 -142.5 -387.999 -142.5zM612 219.001c81.333 0 147.831 25.667 199.498 77s77.5 118 77.5 200c0 77.333 -26.167 140.333 -78.5 189s-117.833 73 -196.5 73c-71.333 0 -132.666 -21.333 -183.999 -64
c-58.667 -50 -88 -116.667 -88 -200c0 -80.667 25.333 -146.667 76 -198s115.334 -77 194.001 -77z" />
    <glyph glyph-name="seven" unicode="7" horiz-adv-x="1120" 
d="M430 0h-276l626 1300h-727v236h1010v-221z" />
    <glyph glyph-name="eight" unicode="8" horiz-adv-x="1327" 
d="M664 -20c-100 0 -190.671 17.667 -272.004 53s-147.166 88.666 -197.499 159.999s-75.5 155 -75.5 251c0 86 21.5 162 64.5 228s101.833 116.333 176.5 151c-55.333 34.667 -98.5 79.167 -129.5 133.5s-46.5 115.166 -46.5 182.499c0 86.667 22 162 66 226
s101.833 111.833 173.5 143.5s151.834 47.5 240.501 47.5s168.834 -15.833 240.501 -47.5s129.334 -79.5 173.001 -143.5s65.5 -139.333 65.5 -226c0 -65.333 -15.667 -125.666 -47 -180.999s-73.666 -100.333 -126.999 -135c74.667 -34.667 133.5 -85 176.5 -151
s64.5 -142 64.5 -228c0 -96 -25 -179.667 -75 -251s-115.833 -124.666 -197.5 -159.999s-172.834 -53 -273.501 -53zM888.996 1122c0 60 -21.5 108.5 -64.5 145.5s-96.5 55.5 -160.5 55.5s-117.333 -18.5 -160 -55.5s-64 -85.5 -64 -145.5
c0 -61.333 21.333 -111.166 64 -149.499s96 -57.5 160 -57.5s117.5 19.167 160.5 57.5s64.5 88.166 64.5 149.499zM941.996 461c0 72.667 -26.833 130.333 -80.5 173s-119.5 64 -197.5 64c-75.333 0 -140.333 -20.333 -195 -61c-56 -44 -84 -102.667 -84 -176
c0 -71.333 27 -128.5 81 -171.5s120 -64.5 198 -64.5c79.333 0 145.5 21.5 198.5 64.5s79.5 100.167 79.5 171.5z" />
    <glyph glyph-name="nine" unicode="9" horiz-adv-x="1230" 
d="M618 1556c100.667 0 191.5 -20.334 272.5 -61.001s145 -99.167 192 -175.5s70.5 -163.833 70.5 -262.5c0 -123.333 -41 -247.666 -123 -372.999l-446 -684h-295l377 565c-27.333 -5.33301 -58.333 -8 -93 -8c-144 0 -262.833 44.833 -356.5 134.5
s-140.5 206.5 -140.5 350.5c0 152.667 51.5 276.5 154.5 371.5s232.167 142.5 387.5 142.5zM618 1317c-81.333 0 -147.667 -25.667 -199 -77s-77 -118 -77 -200c0 -77.333 26 -140.333 78 -189s117.333 -73 196 -73c72 0 133.667 21.333 185 64c58.667 50 88 116.667 88 200
c0 80.667 -25.5 146.667 -76.5 198s-115.833 77 -194.5 77z" />
    <glyph glyph-name="colon" unicode=":" horiz-adv-x="536" 
d="M268 -20c-48.667 0 -88.5 14.668 -119.5 44.001s-46.5 67.666 -46.5 114.999c0 48.667 15.5 88.167 46.5 118.5s70.833 45.5 119.5 45.5c49.333 0 89.333 -15.167 120 -45.5s46 -69.833 46 -118.5c0 -48 -15.333 -86.5 -46 -115.5s-70.667 -43.5 -120 -43.5zM268 721.001
c-48.667 0 -88.5 14.833 -119.5 44.5s-46.5 68.167 -46.5 115.5c0 48.667 15.5 88 46.5 118s70.833 45 119.5 45c49.333 0 89.333 -15 120 -45s46 -69.333 46 -118c0 -48 -15.333 -86.667 -46 -116s-70.667 -44 -120 -44z" />
    <glyph glyph-name="semicolon" unicode=";" horiz-adv-x="536" 
d="M438 285l-202 -615h-203l131 615h274zM268 721c-48.667 0 -88.5 14.833 -119.5 44.5s-46.5 68.167 -46.5 115.5c0 48.667 15.5 88 46.5 118s70.833 45 119.5 45c49.333 0 89.333 -15 120 -45s46 -69.333 46 -118c0 -48 -15.333 -86.667 -46 -116s-70.667 -44 -120 -44z
" />
    <glyph glyph-name="question" unicode="?" horiz-adv-x="1132" 
d="M578 1556c138 0 252 -37.332 342 -111.999s135 -175.667 135 -303c0 -94 -22.667 -167.667 -68 -221c-46.667 -54.667 -95.667 -100 -147 -136l-69 -48.5l-81 -57.5c-44.667 -32.667 -67 -75.667 -67 -129v-53h-256v71c0 81.333 22.333 146.333 67 195
c38.667 44.667 87.334 88.334 146.001 131.001l145 108c44 36 66 80.667 66 134c0 60 -20.667 106.667 -62 140s-94 50 -158 50c-74.667 0 -135.334 -20.333 -182.001 -61s-74.667 -93.334 -84 -158.001l-242 51c18 117.333 74.667 213.666 170 288.999
c93.333 73.333 208.333 110 345 110zM504 -19.999c-48.667 0 -88.5 14.668 -119.5 44.001s-46.5 67.666 -46.5 114.999c0 48.667 15.5 88.167 46.5 118.5s70.833 45.5 119.5 45.5c49.333 0 89.333 -15.167 120 -45.5s46 -69.833 46 -118.5c0 -48 -15.333 -86.5 -46 -115.5
s-70.667 -43.5 -120 -43.5z" />
    <glyph glyph-name="A" unicode="A" horiz-adv-x="1525" 
d="M301 0h-270l587 1536h289l588 -1536h-283l-176 475h-559zM758 1231l-195 -522h387z" />
    <glyph glyph-name="B" unicode="B" horiz-adv-x="1374" 
d="M803 0h-598v1536h563c132 0 239.333 -36.333 322 -109c80 -72 120 -168 120 -288c0 -144 -63.333 -252.667 -190 -326c86 -32.667 151.167 -80.5 195.5 -143.5s66.5 -138.167 66.5 -225.5c0 -136 -43.667 -243.667 -131 -323c-88.667 -80.667 -204.667 -121 -348 -121z
M748 1309h-277v-402h277c61.333 0 110.666 18.5 147.999 55.5s56 86.833 56 149.5c0 58.667 -18.667 106.167 -56 142.5s-86.666 54.5 -147.999 54.5zM797 672l-326.001 -0.000976562v-445h326c66 0 119 19.667 159 59s60 92 60 158c0 68.667 -20.167 123.834 -60.5 165.501
s-93.166 62.5 -158.499 62.5z" />
    <glyph glyph-name="C" unicode="C" horiz-adv-x="1650" 
d="M385 768c0 -73.333 10.5 -142.334 31.5 -207.001s51.167 -122.167 90.5 -172.5s89.833 -90.166 151.5 -119.499s130.834 -44 207.501 -44c118 0 215 33 291 99c75.333 62.667 124.666 140.334 147.999 233.001l256 -74c-36 -151.333 -118 -273 -246 -365
s-279 -138 -453 -138c-117.333 0 -224 20.5 -320 61.5s-175.333 97.167 -238 168.5s-110.834 154.666 -144.501 249.999s-50.5 198 -50.5 308c0 108.667 17.333 210.667 52 306s83.834 178.833 147.501 250.5s144.167 128.167 241.5 169.5s205.333 62 324 62
c178.667 0 327 -45.667 445 -137c116 -91.333 191.667 -210.666 227 -357.999l-256 -74c-21.333 95.333 -69 173.166 -143 233.499s-167.667 90.5 -281 90.5c-74.667 0 -142.667 -14.833 -204 -44.5s-112 -69.5 -152 -119.5s-70.833 -107.667 -92.5 -173
s-32.5 -134 -32.5 -206z" />
    <glyph glyph-name="D" unicode="D" horiz-adv-x="1568" 
d="M692 0h-487v1536h487c151.333 0 285.5 -33 402.5 -99s207.167 -156.833 270.5 -272.5s95 -246.5 95 -392.5c0 -110 -18.5 -212.5 -55.5 -307.5s-88.667 -176.667 -155 -245s-147.5 -122 -243.5 -161s-200.667 -58.5 -314 -58.5zM692 1290h-221v-1044h221
c145.333 0 264.333 48.333 357 145c90 96 135 222.333 135 379c0 155.333 -45 281 -135 377c-91.333 95.333 -210.333 143 -357 143z" />
    <glyph glyph-name="E" unicode="E" horiz-adv-x="1306" 
d="M1231 0h-1026v1536h1005v-240h-739v-374h514v-240h-514v-442h760v-240z" />
    <glyph glyph-name="F" unicode="F" horiz-adv-x="1224" 
d="M471 0h-266v1536h964v-240h-698v-395h514v-239h-514v-662z" />
    <glyph glyph-name="G" unicode="G" horiz-adv-x="1697" 
d="M385 772c0 -163.333 44.999 -295.002 134.999 -395.002c91.333 -101.333 209.333 -152 354 -152c126.667 0 231.5 31.833 314.5 95.5s124.5 146.5 124.5 248.5h-584v236h860v-127c0 -210 -65.333 -378.833 -196 -506.5s-303.667 -191.5 -519 -191.5
c-145.333 0 -276.333 34 -393 102s-207.834 162.333 -273.501 283s-98.5 256.334 -98.5 407.001c0 111.333 19.333 215.666 58 312.999s91.834 180.5 159.501 249.5s149.167 123.167 244.5 162.5s197.333 59 306 59c171.333 0 319.333 -43 444 -129
c122.667 -85.333 203.334 -196.333 242.001 -333l-256 -74c-24 84.667 -74.833 154.334 -152.5 209.001s-170.167 82 -277.5 82c-146 0 -264.333 -49.333 -355 -148c-91.333 -99.333 -137 -229.666 -137 -390.999z" />
    <glyph glyph-name="H" unicode="H" horiz-adv-x="1699" 
d="M471 0h-266v1536h266v-602h758v602h266v-1536h-266v688h-758v-688z" />
    <glyph glyph-name="I" unicode="I" horiz-adv-x="675" 
d="M471 0h-266v1536h266v-1536z" />
    <glyph glyph-name="J" unicode="J" horiz-adv-x="1269" 
d="M578 225c75.333 0 134.667 22.999 178 68.999s65 103 65 171v825h-626v246h892v-1067c0 -143.333 -46.5 -260.666 -139.5 -351.999s-216.167 -137 -369.5 -137c-144.667 0 -259.667 36.667 -345 110c-86.667 72.667 -139 165 -157 277l260 73
c7.33301 -65.333 32.5 -117.5 75.5 -156.5s98.5 -58.5 166.5 -58.5z" />
    <glyph glyph-name="K" unicode="K" horiz-adv-x="1470" 
d="M633 686h-162v-686h-266v1536h266v-600h172l475 600h322l-580 -717l600 -819h-319z" />
    <glyph glyph-name="L" unicode="L" horiz-adv-x="1226" 
d="M1169 0h-964v1536h266v-1290h698v-246z" />
    <glyph glyph-name="M" unicode="M" horiz-adv-x="1908" 
d="M461 0h-256v1536h282l474 -616l460 616h283v-1536h-256v1174l-467 -613h-53l-467 604v-1165z" />
    <glyph glyph-name="N" unicode="N" horiz-adv-x="1701" 
d="M457 0h-252v1536h284l754 -1145v1145h254v-1536h-285l-755 1151v-1151z" />
    <glyph glyph-name="O" unicode="O" horiz-adv-x="1761" 
d="M109 768c0 150 32.667 285 98 405s156.833 213.833 274.5 281.5s250.834 101.5 399.501 101.5s281.834 -33.833 399.501 -101.5s209.167 -161.5 274.5 -281.5s98 -255 98 -405s-32.667 -285 -98 -405s-156.833 -213.833 -274.5 -281.5s-250.834 -101.5 -399.501 -101.5
s-281.834 33.833 -399.501 101.5s-209.167 161.5 -274.5 281.5s-98 255 -98 405zM1376 768c0 162 -45 293 -135 393c-92 100 -212 150 -360 150c-149.333 0 -269 -50 -359 -150c-91.333 -99.333 -137 -230.333 -137 -393s45.667 -293.667 137 -393
c90 -100 209.667 -150 359 -150c148 0 268 50 360 150c90 100 135 231 135 393z" />
    <glyph glyph-name="P" unicode="P" horiz-adv-x="1415" 
d="M471 0l-266 -0.000976562v1536h592c156 0 282.667 -45.333 380 -136s146 -207 146 -349c0 -139.333 -49 -255.166 -147 -347.499s-224.333 -138.5 -379 -138.5h-326v-565zM797 1296h-326v-491h326c78.667 0 141.667 22.5 189 67.5s71 104.5 71 178.5
c0 74.667 -23.5 134.167 -70.5 178.5s-110.167 66.5 -189.5 66.5z" />
    <glyph glyph-name="Q" unicode="Q" horiz-adv-x="1761" 
d="M109 768c0 150 32.665 285.001 97.998 405.001s156.833 213.833 274.5 281.5s250.834 101.5 399.501 101.5s281.834 -33.833 399.501 -101.5s209.167 -161.5 274.5 -281.5s98 -255 98 -405c0 -130 -26 -250.333 -78 -361s-123.667 -201.334 -215 -272.001l182 -215
l-188 -158l-217 256c-81.333 -25.333 -166.666 -38 -255.999 -38c-148.667 0 -281.834 33.833 -399.501 101.5s-209.167 161.5 -274.5 281.5s-98 255 -98 405zM384.998 768.001c0 -162.667 45.667 -293.666 137 -392.999c90 -100 209.667 -150 359 -150
c16.667 0 41.667 1.33301 75 4l-288 342l188 158l338 -399c58 46 102.833 107.167 134.5 183.5s47.5 161.166 47.5 254.499c0 162 -45 293 -135 393c-92 100 -212 150 -360 150c-149.333 0 -269 -50 -359 -150c-91.333 -99.333 -137 -230.333 -137 -393z" />
    <glyph glyph-name="R" unicode="R" horiz-adv-x="1468" 
d="M471 0l-266 -0.000976562v1536h586c148 0 268.5 -42 361.5 -126s139.5 -193.667 139.5 -329c0 -101.333 -27 -187.166 -81 -257.499s-127.333 -119.5 -220 -147.5l436 -676h-305l-403 627h-248v-627zM788 1296h-317v-430h317c72 0 129.667 19.667 173 59
s65 91.333 65 156s-21.667 116.667 -65 156s-101 59 -173 59z" />
    <glyph glyph-name="S" unicode="S" horiz-adv-x="1392" 
d="M1245 1165l-256 -73.002c-12.667 68 -46.5 123.167 -101.5 165.5s-122.833 63.5 -203.5 63.5c-86.667 0 -154.334 -16.5 -203.001 -49.5s-73 -78.5 -73 -136.5c0 -19.333 3.16699 -37.166 9.5 -53.499s14.166 -30.5 23.499 -42.5s22.833 -23.667 40.5 -35
s34 -20.5 49 -27.5s35.5 -14.833 61.5 -23.5s48 -15.334 66 -20.001l73 -19l35 -9c42.667 -10.667 77.667 -19.834 105 -27.501s61 -18.667 101 -33s73 -29 99 -44s53.5 -34.333 82.5 -58s52 -49.334 69 -77.001s31.167 -60.834 42.5 -99.501s17 -80.667 17 -126
c0 -144.667 -54.333 -257.5 -163 -338.5s-253 -121.5 -433 -121.5c-90.667 0 -172.334 11.333 -245.001 34s-133.167 54 -181.5 94s-86.666 86.333 -114.999 139s-45.833 110.334 -52.5 173.001l260 74c14 -88 50.333 -155.833 109 -203.5s140 -71.5 244 -71.5
c88.667 0 161.334 17.333 218.001 52s85 86.334 85 155.001c0 23.333 -3.5 44.5 -10.5 63.5s-18.5 35.833 -34.5 50.5s-32.167 27.334 -48.5 38.001s-38.166 20.834 -65.499 30.501s-51.5 17.667 -72.5 24s-48.5 13.833 -82.5 22.5
c-133.333 31.333 -229.333 59.666 -288 84.999c-136 58 -220.333 143.667 -253 257c-10.667 38 -16 79.667 -16 125c0 90.667 25.5 169.334 76.5 236.001s118.167 116.334 201.5 149.001s177 49 281 49c144 0 265.5 -34.5 364.5 -103.5s160.5 -164.833 184.5 -287.5z" />
    <glyph glyph-name="T" unicode="T" horiz-adv-x="1290" 
d="M778 0h-266v1290h-451v246h1168v-246h-451v-1290z" />
    <glyph glyph-name="U" unicode="U" horiz-adv-x="1576" 
d="M788 225c98 0 177.167 30.667 237.5 92s90.5 142 90.5 242v977h266v-971c0 -175.333 -55 -316.666 -165 -423.999s-253 -161 -429 -161s-318.833 53.667 -428.5 161s-164.5 248.666 -164.5 423.999v971h266v-977c0 -100 30 -180.667 90 -242s139 -92 237 -92z" />
    <glyph glyph-name="V" unicode="V" horiz-adv-x="1472" 
d="M563 0l-512 1536h285l405 -1229l404 1229h276l-512 -1536h-346z" />
    <glyph glyph-name="W" unicode="W" horiz-adv-x="1873" 
d="M559 346l348 672h56l356 -674l237 1192h267l-307 -1536h-281l-301 571l-295 -571h-281l-307 1536h268z" />
    <glyph glyph-name="X" unicode="X" horiz-adv-x="1423" 
d="M41 1536h309l365 -541l346 541h297l-498 -760l522 -776h-309l-383 571l-352 -571h-289l494 791z" />
    <glyph glyph-name="Y" unicode="Y" horiz-adv-x="1427" 
d="M848 0h-266v662l-553 874h309l381 -618l383 618h297l-551 -872v-664z" />
    <glyph glyph-name="Z" unicode="Z" horiz-adv-x="1374" 
d="M111 1290v246h1200v-51l-822 -1239h775v-246h-1201v51l820 1239h-772z" />
    <glyph glyph-name="a" unicode="a" horiz-adv-x="1126" 
d="M993 0l-217 -0.000976562l-16 147c-38.667 -52.667 -87.5 -93.667 -146.5 -123s-123.5 -44 -193.5 -44c-96.667 0 -176.167 26.833 -238.5 80.5s-93.5 127.834 -93.5 222.501c0 50.667 9.66699 95.5 29 134.5s47.333 71.5 84 97.5s77 47.5 121 64.5s95.667 31.5 155 43.5
l275 55c-16.667 106.667 -87 160 -211 160c-128 0 -204.667 -54 -230 -162l-225 43c16 96.667 65.833 175 149.5 235s191.5 90 323.5 90c134 0 239.833 -35.333 317.5 -106s116.5 -167 116.5 -289v-649zM336 296.999c0 -36 11.5 -63.834 34.5 -83.501
s53.833 -29.5 92.5 -29.5c36.667 0 72.167 6 106.5 18s65.5 29.333 93.5 52s50.5 52.5 67.5 89.5s25.5 78.833 25.5 125.5v25l-271 -62c-48.667 -9.33301 -85.667 -24.666 -111 -45.999s-38 -51 -38 -89z" />
    <glyph glyph-name="b" unicode="b" horiz-adv-x="1296" 
d="M379 0h-225v1536h245v-629c89.333 91.333 196 137 320 137c143.333 0 262.833 -50.5 358.5 -151.5s143.5 -227.833 143.5 -380.5s-47.833 -279.5 -143.5 -380.5s-215.167 -151.5 -358.5 -151.5c-132.667 0 -242 48.333 -328 145zM682 819
c-84.667 0 -153 -28.333 -205 -85s-78 -130.667 -78 -222s26 -165.333 78 -222s120.333 -85 205 -85s153 28.333 205 85s78 130.667 78 222s-26 165.333 -78 222s-120.333 85 -205 85z" />
    <glyph glyph-name="c" unicode="c" horiz-adv-x="1140" 
d="M332 510c0 -92.667 25.0039 -166.668 75.0039 -222.001s116.333 -83 199 -83c65.333 0 119.833 16.667 163.5 50s72.5 78.666 86.5 135.999l236 -41c-18 -104 -72 -192 -162 -264c-88 -70.667 -196.667 -106 -326 -106c-152.667 0 -278.834 50.167 -378.501 150.5
s-149.5 226.833 -149.5 379.5c0 154 50.167 281.5 150.5 382.5s226.833 151.5 379.5 151.5c123.333 0 228.166 -33.167 314.499 -99.5s141.166 -154.5 164.499 -264.5l-239 -41c-13.333 56.667 -40.833 100.834 -82.5 132.501s-92.834 47.5 -153.501 47.5
c-82.667 0 -149.667 -28.167 -201 -84.5s-77 -131.166 -77 -224.499z" />
    <glyph glyph-name="d" unicode="d" horiz-adv-x="1296" 
d="M1143 1536l0.000976562 -1536h-225l-13 125c-86 -96.667 -195 -145 -327 -145c-143.333 0 -262.833 50.5 -358.5 151.5s-143.5 227.833 -143.5 380.5s47.833 279.5 143.5 380.5s215.167 151.5 358.5 151.5c123.333 0 229.666 -45.667 318.999 -137v629h246zM614.001 819
c-84.667 0 -152.834 -28.333 -204.501 -85s-77.5 -130.667 -77.5 -222s25.833 -165.333 77.5 -222s119.834 -85 204.501 -85s153 28.333 205 85s78 130.667 78 222s-26 165.333 -78 222s-120.333 85 -205 85z" />
    <glyph glyph-name="e" unicode="e" horiz-adv-x="1191" 
d="M76 508c0 155.333 49.667 283.502 149 384.502s226.333 151.5 381 151.5c148 0 269 -45 363 -135c92.667 -90.667 139 -207.334 139 -350.001c0 -34.667 -3.33301 -71.334 -10 -110.001h-772c8.66699 -83.333 38.334 -146.5 89.001 -189.5s115.667 -64.5 195 -64.5
c68 0 125.667 13.833 173 41.5s77.666 64.834 90.999 111.501l228 -41c-21.333 -100 -77.833 -179.5 -169.5 -238.5s-199.167 -88.5 -322.5 -88.5c-164 0 -294 49.167 -390 147.5s-144 225.166 -144 380.499zM608 840.002c-75.333 0 -136.501 -16.833 -183.501 -50.5
s-77.167 -82.5 -90.5 -146.5h532c-13.333 64 -42.166 112.833 -86.499 146.5s-101.5 50.5 -171.5 50.5z" />
    <glyph glyph-name="f" unicode="f" horiz-adv-x="843" 
d="M834 1024l0.000976562 -215h-338v-809h-246v809h-240v68l131 147h109v150c0 115.333 35.833 207.833 107.5 277.5s161.5 104.5 269.5 104.5c53.333 0 110.666 -9.33301 171.999 -28l-49 -209c-42 12 -75 18 -99 18c-103.333 0 -155 -53 -155 -159v-154h338z" />
    <glyph glyph-name="g" unicode="g" horiz-adv-x="1284" 
d="M76 522c0 150 47.1689 274.5 141.502 373.5s212.166 148.5 353.499 148.5c129.333 0 236 -46.333 320 -139l14 119h225v-1008c0 -143.333 -46.333 -260.333 -139 -351s-218.334 -136 -377.001 -136c-146.667 0 -261.334 33.333 -344.001 100
c-86 68 -137 151.333 -153 250l250 47c12.667 -55.333 40 -97.833 82 -127.5s97.667 -44.5 167 -44.5c84.667 0 150.667 21.333 198 64s71 102.667 71 180v133c-85.333 -87.333 -190 -131 -314 -131c-141.333 0 -259.166 49.5 -353.499 148.5s-141.5 223.5 -141.5 373.5z
M332.002 522c0 -88.667 25.5 -160.334 76.5 -215.001s117.5 -82 199.5 -82s148.667 27.333 200 82s77 126.334 77 215.001s-25.667 160.334 -77 215.001s-118 82 -200 82s-148.5 -27.333 -199.5 -82s-76.5 -126.334 -76.5 -215.001z" />
    <glyph glyph-name="h" unicode="h" horiz-adv-x="1228" 
d="M399 0l-245 0.000976562v1536h245v-612c80 80 179 120 297 120c114 0 209.5 -37.667 286.5 -113s115.5 -180.333 115.5 -315v-616h-246v580c0 75.333 -19.833 133.666 -59.5 174.999s-91.5 62 -155.5 62c-29.333 0 -57.5 -4 -84.5 -12s-52.333 -20.833 -76 -38.5
s-42.5 -42.5 -56.5 -74.5s-21 -69.333 -21 -112v-580z" />
    <glyph glyph-name="i" unicode="i" 
d="M428 1346c0 -42.667 -14.333 -78.334 -43 -107.001s-65 -43 -109 -43c-43.333 0 -79.333 14.333 -108 43s-43 64.334 -43 107.001s14.167 78.167 42.5 106.5s64.5 42.5 108.5 42.5s80.333 -14.333 109 -43s43 -64 43 -106zM399 0h-245v1024h245v-1024z" />
    <glyph glyph-name="j" unicode="j" 
d="M125 1346c0 42.667 14.167 78.167 42.5 106.5s64.5 42.5 108.5 42.5s80.333 -14.333 109 -43s43 -64 43 -106c0 -42.667 -14.333 -78.334 -43 -107.001s-65 -43 -109 -43c-43.333 0 -79.333 14.333 -108 43s-43 64.334 -43 107.001zM154 -121l0.000976562 1145h245v-1145
c0 -106 -29.833 -190.833 -89.5 -254.5s-138.834 -95.5 -237.501 -95.5c-52 0 -107.333 9 -166 27l45 206c36 -9.33301 64 -14 84 -14c79.333 0 119 43.667 119 131z" />
    <glyph glyph-name="k" unicode="k" horiz-adv-x="1112" 
d="M496 688l295 336h288l-395 -446l416 -578h-293l-320 451h-88v-451h-245v1536h245v-848h97z" />
    <glyph glyph-name="l" unicode="l" 
d="M399 0h-245v1536h245v-1536z" />
    <glyph glyph-name="m" unicode="m" horiz-adv-x="1740" 
d="M399 0l-245.003 -0.000976562v1024h225l12 -104c66 82.667 152 124 258 124c62 0 118.5 -13.167 169.5 -39.5s92.167 -64.166 123.5 -113.499c78.667 102 180.334 153 305.001 153c100 0 185.333 -33.333 256 -100c70 -68 105 -166.333 105 -295v-649h-246v631
c0 60 -15.167 106 -45.5 138s-71.166 48 -122.499 48c-52.667 0 -97.5 -15 -134.5 -45s-55.5 -77 -55.5 -141v-631h-246v631c0 60 -15.167 106 -45.5 138s-71.166 48 -122.499 48c-52.667 0 -97.667 -15 -135 -45s-56 -77 -56 -141v-631z" />
    <glyph glyph-name="n" unicode="n" horiz-adv-x="1228" 
d="M399 0l-245 0.000976562v1024h225l12 -109c81.333 86 183 129 305 129c114 0 209.5 -37.667 286.5 -113s115.5 -180.333 115.5 -315v-616h-246v580c0 75.333 -19.833 133.666 -59.5 174.999s-91.5 62 -155.5 62c-30 0 -58.167 -4 -84.5 -12s-51.5 -20.667 -75.5 -38
s-43 -42 -57 -74s-21 -69.667 -21 -113v-580z" />
    <glyph glyph-name="o" unicode="o" horiz-adv-x="1236" 
d="M618 1044c156.667 0 286.334 -50.333 389.001 -151s154 -227.667 154 -381s-51.333 -280.333 -154 -381s-232.334 -151 -389.001 -151s-286.167 50.333 -388.5 151s-153.5 227.667 -153.5 381s51.167 280.333 153.5 381s231.833 151 388.5 151zM618 819
c-86 0 -155.167 -28.333 -207.5 -85s-78.5 -130.667 -78.5 -222s26.167 -165.333 78.5 -222s121.5 -85 207.5 -85s155.333 28.333 208 85s79 130.667 79 222s-26.333 165.333 -79 222s-122 85 -208 85z" />
    <glyph glyph-name="p" unicode="p" horiz-adv-x="1296" 
d="M154 -451v1475h225l12 -125c86 96.667 195.333 145 328 145c143.333 0 262.833 -50.5 358.5 -151.5s143.5 -227.833 143.5 -380.5s-47.833 -279.5 -143.5 -380.5s-215.167 -151.5 -358.5 -151.5c-124 0 -230.667 45.667 -320 137v-568h-245zM682 819
c-84.667 0 -153 -28.333 -205 -85s-78 -130.667 -78 -222s26 -165.333 78 -222s120.333 -85 205 -85s153 28.333 205 85s78 130.667 78 222s-26 165.333 -78 222s-120.333 85 -205 85z" />
    <glyph glyph-name="q" unicode="q" horiz-adv-x="1296" 
d="M578 1044c130 0 238.332 -47.667 324.999 -143l15 123h225v-1475h-246v568c-89.333 -91.333 -195.666 -137 -318.999 -137c-143.333 0 -262.833 50.5 -358.5 151.5s-143.5 227.833 -143.5 380.5s47.833 279.5 143.5 380.5s215.167 151.5 358.5 151.5zM613.999 819
c-84.667 0 -152.834 -28.333 -204.501 -85s-77.5 -130.667 -77.5 -222s25.833 -165.333 77.5 -222s119.834 -85 204.501 -85s153 28.333 205 85s78 130.667 78 222s-26 165.333 -78 222s-120.333 85 -205 85z" />
    <glyph glyph-name="r" unicode="r" horiz-adv-x="802" 
d="M399 0h-244.999v1024h231l14 -127c66.667 95.333 161 143 283 143c30 0 63.333 -4.66699 100 -14l-28 -240c-34.667 10 -70.334 15 -107.001 15c-71.333 0 -130.5 -23.667 -177.5 -71s-70.5 -112.333 -70.5 -195v-535z" />
    <glyph glyph-name="s" unicode="s" horiz-adv-x="1007" 
d="M506 -20c-128.667 0 -230.497 26.1729 -305.497 78.5059s-122.833 127.166 -143.5 224.499l244 49c9.33301 -50 32.5 -88.167 69.5 -114.5s86.167 -39.5 147.5 -39.5c56.667 0 100.5 10.5 131.5 31.5s46.5 51.5 46.5 91.5c0 44 -25 72 -75 84
c-62.667 12 -121.667 22.333 -177 31c-38.667 5.33301 -73 11.5 -103 18.5s-61.667 18.167 -95 33.5s-60.833 33.666 -82.5 54.999s-39.667 49.666 -54 84.999s-21.5 75.666 -21.5 120.999c0 90.667 38.333 165.667 115 225c77.333 60 177 90 299 90
c119.333 0 215.333 -25.333 288 -76s115.334 -118.667 128.001 -204l-230 -49c-8 39.333 -27.5 71.666 -58.5 96.999s-76.167 38 -135.5 38c-51.333 0 -90.833 -10 -118.5 -30s-41.5 -46.333 -41.5 -79c0 -42.667 24 -69 72 -79c49.333 -12.667 103.666 -23.667 162.999 -33
c30 -5.33301 55.167 -10 75.5 -14s44.666 -10.333 72.999 -19s52.166 -17.834 71.499 -27.501s39.5 -22.5 60.5 -38.5s37.833 -33.667 50.5 -53s23.167 -42.833 31.5 -70.5s12.5 -58.167 12.5 -91.5c0 -98 -38.333 -178.333 -115 -241s-184.334 -94 -323.001 -94z" />
    <glyph glyph-name="t" unicode="t" horiz-adv-x="837" 
d="M10 809v68l375 380h64v-233h358v-215h-358v-453c0 -52.667 12.167 -90.667 36.5 -114s60.5 -35 108.5 -35c39.333 0 87 11.667 143 35l56 -203c-83.333 -39.333 -167.333 -59 -252 -59c-105.333 0 -188 28.333 -248 85s-90 134.667 -90 234v510h-193z" />
    <glyph glyph-name="u" unicode="u" horiz-adv-x="1202" 
d="M129 1024h245.999v-614c0 -66 18.167 -116.333 54.5 -151s87.833 -52 154.5 -52c28 0 54.167 4 78.5 12s47.5 20.333 69.5 37s39.333 40.667 52 72s19 68 19 110v586h246v-1024h-226l-10 113c-79.333 -88.667 -177.666 -133 -294.999 -133
c-112 0 -204.833 35.5 -278.5 106.5s-110.5 171.167 -110.5 300.5v637z" />
    <glyph glyph-name="v" unicode="v" horiz-adv-x="1067" 
d="M670 0h-275l-385 1024h273l258 -733l258 733h258z" />
    <glyph glyph-name="w" unicode="w" horiz-adv-x="1366" 
d="M242 0l-211 1024h245l148 -733l242 473h43l241 -475l148 735h237l-211 -1024h-256l-182 362l-188 -362h-256z" />
    <glyph glyph-name="x" unicode="x" horiz-adv-x="1013" 
d="M0 1024h293l221 -313l205 313h272l-342 -506l365 -518h-289l-240 338l-213 -338h-264l340 532z" />
    <glyph glyph-name="y" unicode="y" horiz-adv-x="1101" 
d="M446 0l-436 1024h273l292 -707l261 707h256l-566 -1475h-252z" />
    <glyph glyph-name="z" unicode="z" horiz-adv-x="935" 
d="M520 809h-463v215h830v-68l-488 -741h488v-215h-840v68z" />
    <glyph glyph-name="uni00A0" unicode="&#xa0;" horiz-adv-x="450" 
 />
    <glyph glyph-name="Agrave" unicode="&#xc0;" horiz-adv-x="1525" 
d="M301 0h-270l587 1536h289l588 -1536h-283l-176 475h-559zM758 1231l-195 -522h387zM674 1690l-285 278h322l194 -278h-231z" />
    <glyph glyph-name="Aacute" unicode="&#xc1;" horiz-adv-x="1525" 
d="M301 0h-270l587 1536h289l588 -1536h-283l-176 475h-559zM758 1231l-195 -522h387zM645 1690l195 278h321l-287 -278h-229z" />
    <glyph glyph-name="Acircumflex" unicode="&#xc2;" horiz-adv-x="1525" 
d="M301 0h-270l587 1536h289l588 -1536h-283l-176 475h-559zM758 1231l-195 -522h387zM1157 1690h-254l-139 129l-139 -129h-254l258 278h268z" />
    <glyph glyph-name="Atilde" unicode="&#xc3;" horiz-adv-x="1525" 
d="M301 0h-270l587 1536h289l588 -1536h-283l-176 475h-559zM758 1231l-195 -522h387zM928 1698c-22.667 0 -44.832 5.33398 -66.499 16.001s-39.667 22.667 -54 36s-30.333 25.333 -48 36s-33.834 16 -48.501 16c-28 0 -48.333 -8.16699 -61 -24.5s-19 -42.833 -19 -79.5
h-176c-4.66699 90.667 11 160 47 208s86.333 72 151 72c28 0 57 -8.33301 87 -25s57 -33.334 81 -50.001s43.333 -25 58 -25c51.333 0 77 32 77 96h177c6.66699 -88 -8.83301 -156 -46.5 -204s-90.5 -72 -158.5 -72z" />
    <glyph glyph-name="Adieresis" unicode="&#xc4;" horiz-adv-x="1525" 
d="M301 0h-270l587 1536h289l588 -1536h-283l-176 475h-559zM758 1231l-195 -522h387zM563 1720c-41.333 0 -75.5 13.5 -102.5 40.5s-40.5 60.833 -40.5 101.5s13.5 74.334 40.5 101.001s61.167 40 102.5 40c40 0 73.667 -13.333 101 -40s41 -60.334 41 -101.001
s-13.667 -74.5 -41 -101.5s-61 -40.5 -101 -40.5zM967 1720c-41.333 0 -75.666 13.5 -102.999 40.5s-41 60.833 -41 101.5s13.667 74.334 41 101.001s61.666 40 102.999 40c40 0 73.5 -13.333 100.5 -40s40.5 -60.334 40.5 -101.001s-13.5 -74.5 -40.5 -101.5
s-60.5 -40.5 -100.5 -40.5z" />
    <glyph glyph-name="Aring" unicode="&#xc5;" horiz-adv-x="1525" 
d="M301 0l-270.001 -0.000976562l585 1534c-47.333 38.667 -71 90 -71 154c0 58 20.833 106.167 62.5 144.5s93.834 57.5 156.501 57.5s115.167 -18.667 157.5 -56s63.5 -84.666 63.5 -141.999c0 -68.667 -25.333 -122 -76 -160l586 -1532h-283l-176 475h-559zM671.999 1688
c0 -27.333 8.5 -49.667 25.5 -67s39.167 -26 66.5 -26s49.5 8.66699 66.5 26s25.5 40.333 25.5 69c0 26 -8.5 47.5 -25.5 64.5s-39.167 25.5 -66.5 25.5s-49.5 -8.5 -66.5 -25.5s-25.5 -39.167 -25.5 -66.5zM757.999 1231l-195 -522h387z" />
    <glyph glyph-name="AE" unicode="&#xc6;" horiz-adv-x="2007" 
d="M260 0h-280l858 1536h1073v-240h-658v-376h433v-240h-433v-440h678v-240h-940v414h-499zM991 1309l-366 -658h366v658z" />
    <glyph glyph-name="Ccedilla" unicode="&#xc7;" horiz-adv-x="1650" 
d="M385 768c0 -73.333 10.499 -142.335 31.499 -207.002s51.167 -122.167 90.5 -172.5s89.833 -90.166 151.5 -119.499s130.834 -44 207.501 -44c118 0 215 33 291 99c75.333 62.667 124.666 140.334 147.999 233.001l256 -74c-35.333 -139.333 -106.333 -252 -213 -338
c-108.667 -90 -238.667 -143 -390 -159l-73 -334h-240l76 338c-128 19.333 -238.667 66 -332 140s-163.333 165.833 -210 275.5s-70 230.5 -70 362.5c0 108.667 17.333 210.667 52 306s83.834 178.833 147.501 250.5s144.167 128.167 241.5 169.5s205.333 62 324 62
c178.667 0 327 -45.667 445 -137c116 -91.333 191.667 -210.666 227 -357.999l-256 -74c-21.333 95.333 -69 173.166 -143 233.499s-167.667 90.5 -281 90.5c-74.667 0 -142.667 -14.833 -204 -44.5s-112 -69.5 -152 -119.5s-70.833 -107.667 -92.5 -173
s-32.5 -134 -32.5 -206z" />
    <glyph glyph-name="Egrave" unicode="&#xc8;" horiz-adv-x="1306" 
d="M1231 0h-1026v1536h1005v-240h-739v-374h514v-240h-514v-442h760v-240zM674 1690l-285 278h322l194 -278h-231z" />
    <glyph glyph-name="Eacute" unicode="&#xc9;" horiz-adv-x="1306" 
d="M1231 0h-1026v1536h1005v-240h-739v-374h514v-240h-514v-442h760v-240zM539 1690l194 278h322l-287 -278h-229z" />
    <glyph glyph-name="Ecircumflex" unicode="&#xca;" horiz-adv-x="1306" 
d="M1231 0h-1026v1536h1005v-240h-739v-374h514v-240h-514v-442h760v-240zM1118 1690h-254l-139 129l-139 -129h-254l258 278h268z" />
    <glyph glyph-name="Edieresis" unicode="&#xcb;" horiz-adv-x="1306" 
d="M1231 0h-1026v1536h1005v-240h-739v-374h514v-240h-514v-442h760v-240zM524 1720c-41.333 0 -75.5 13.5 -102.5 40.5s-40.5 60.833 -40.5 101.5s13.5 74.334 40.5 101.001s61.167 40 102.5 40c40 0 73.667 -13.333 101 -40s41 -60.334 41 -101.001
s-13.667 -74.5 -41 -101.5s-61 -40.5 -101 -40.5zM928 1720c-41.333 0 -75.666 13.5 -102.999 40.5s-41 60.833 -41 101.5s13.667 74.334 41 101.001s61.666 40 102.999 40c40 0 73.5 -13.333 100.5 -40s40.5 -60.334 40.5 -101.001s-13.5 -74.5 -40.5 -101.5
s-60.5 -40.5 -100.5 -40.5z" />
    <glyph glyph-name="Igrave" unicode="&#xcc;" horiz-adv-x="675" 
d="M471 0h-266v1536h266v-1536zM242 1690l-285 278h322l194 -278h-231z" />
    <glyph glyph-name="Iacute" unicode="&#xcd;" horiz-adv-x="675" 
d="M471 0h-266v1536h266v-1536zM207 1690l194 278h322l-287 -278h-229z" />
    <glyph glyph-name="Icircumflex" unicode="&#xce;" horiz-adv-x="675" 
d="M471 0h-266v1536h266v-1536zM731 1690h-254l-139 129l-139 -129h-254l258 278h268z" />
    <glyph glyph-name="Idieresis" unicode="&#xcf;" horiz-adv-x="675" 
d="M471 0h-266v1536h266v-1536zM137 1720c-41.333 0 -75.5 13.5 -102.5 40.5s-40.5 60.833 -40.5 101.5s13.5 74.334 40.5 101.001s61.167 40 102.5 40c40 0 73.667 -13.333 101 -40s41 -60.334 41 -101.001s-13.667 -74.5 -41 -101.5s-61 -40.5 -101 -40.5zM541 1720
c-41.333 0 -75.666 13.5 -102.999 40.5s-41 60.833 -41 101.5s13.667 74.334 41 101.001s61.666 40 102.999 40c40 0 73.5 -13.333 100.5 -40s40.5 -60.334 40.5 -101.001s-13.5 -74.5 -40.5 -101.5s-60.5 -40.5 -100.5 -40.5z" />
    <glyph glyph-name="Ntilde" unicode="&#xd1;" horiz-adv-x="1701" 
d="M457 0h-252v1536h284l754 -1145v1145h254v-1536h-285l-755 1151v-1151zM1020 1698c-22.667 0 -44.832 5.33398 -66.499 16.001s-39.667 22.667 -54 36s-30.333 25.333 -48 36s-33.834 16 -48.501 16c-28 0 -48.333 -8.16699 -61 -24.5s-19 -42.833 -19 -79.5h-176
c-4.66699 90.667 11 160 47 208s86.333 72 151 72c28 0 57 -8.33301 87 -25s57 -33.334 81 -50.001s43.333 -25 58 -25c52 0 78 32 78 96h176c6.66699 -88 -8.83301 -156 -46.5 -204s-90.5 -72 -158.5 -72z" />
    <glyph glyph-name="Ograve" unicode="&#xd2;" horiz-adv-x="1761" 
d="M109 768c0 150 32.667 285 98 405s156.833 213.833 274.5 281.5s250.834 101.5 399.501 101.5s281.834 -33.833 399.501 -101.5s209.167 -161.5 274.5 -281.5s98 -255 98 -405s-32.667 -285 -98 -405s-156.833 -213.833 -274.5 -281.5s-250.834 -101.5 -399.501 -101.5
s-281.834 33.833 -399.501 101.5s-209.167 161.5 -274.5 281.5s-98 255 -98 405zM1376 768c0 162 -45 293 -135 393c-92 100 -212 150 -360 150c-149.333 0 -269 -50 -359 -150c-91.333 -99.333 -137 -230.333 -137 -393s45.667 -293.667 137 -393
c90 -100 209.667 -150 359 -150c148 0 268 50 360 150c90 100 135 231 135 393zM870 1690l-284 278h321l195 -278h-232z" />
    <glyph glyph-name="Oacute" unicode="&#xd3;" horiz-adv-x="1761" 
d="M109 768c0 150 32.667 285 98 405s156.833 213.833 274.5 281.5s250.834 101.5 399.501 101.5s281.834 -33.833 399.501 -101.5s209.167 -161.5 274.5 -281.5s98 -255 98 -405s-32.667 -285 -98 -405s-156.833 -213.833 -274.5 -281.5s-250.834 -101.5 -399.501 -101.5
s-281.834 33.833 -399.501 101.5s-209.167 161.5 -274.5 281.5s-98 255 -98 405zM1376 768c0 162 -45 293 -135 393c-92 100 -212 150 -360 150c-149.333 0 -269 -50 -359 -150c-91.333 -99.333 -137 -230.333 -137 -393s45.667 -293.667 137 -393
c90 -100 209.667 -150 359 -150c148 0 268 50 360 150c90 100 135 231 135 393zM694 1690l195 278h321l-286 -278h-230z" />
    <glyph glyph-name="Ocircumflex" unicode="&#xd4;" horiz-adv-x="1761" 
d="M109 768c0 150 32.667 285 98 405s156.833 213.833 274.5 281.5s250.834 101.5 399.501 101.5s281.834 -33.833 399.501 -101.5s209.167 -161.5 274.5 -281.5s98 -255 98 -405s-32.667 -285 -98 -405s-156.833 -213.833 -274.5 -281.5s-250.834 -101.5 -399.501 -101.5
s-281.834 33.833 -399.501 101.5s-209.167 161.5 -274.5 281.5s-98 255 -98 405zM1376 768c0 162 -45 293 -135 393c-92 100 -212 150 -360 150c-149.333 0 -269 -50 -359 -150c-91.333 -99.333 -137 -230.333 -137 -393s45.667 -293.667 137 -393
c90 -100 209.667 -150 359 -150c148 0 268 50 360 150c90 100 135 231 135 393zM1274 1690h-254l-139 129l-140 -129h-254l258 278h269z" />
    <glyph glyph-name="Otilde" unicode="&#xd5;" horiz-adv-x="1761" 
d="M109 768c0 150 32.667 285 98 405s156.833 213.833 274.5 281.5s250.834 101.5 399.501 101.5s281.834 -33.833 399.501 -101.5s209.167 -161.5 274.5 -281.5s98 -255 98 -405s-32.667 -285 -98 -405s-156.833 -213.833 -274.5 -281.5s-250.834 -101.5 -399.501 -101.5
s-281.834 33.833 -399.501 101.5s-209.167 161.5 -274.5 281.5s-98 255 -98 405zM1376 768c0 162 -45 293 -135 393c-92 100 -212 150 -360 150c-149.333 0 -269 -50 -359 -150c-91.333 -99.333 -137 -230.333 -137 -393s45.667 -293.667 137 -393
c90 -100 209.667 -150 359 -150c148 0 268 50 360 150c90 100 135 231 135 393zM1018 1698c-22.667 0 -44.832 5.33398 -66.499 16.001s-39.667 22.667 -54 36s-30.333 25.333 -48 36s-33.834 16 -48.501 16c-28 0 -48.333 -8.16699 -61 -24.5s-19 -42.833 -19 -79.5h-176
c-4.66699 90.667 11 160 47 208s86.333 72 151 72c28 0 57 -8.33301 87 -25s57 -33.334 81 -50.001s43.333 -25 58 -25c52 0 78 32 78 96h176c6.66699 -88 -8.83301 -156 -46.5 -204s-90.5 -72 -158.5 -72z" />
    <glyph glyph-name="Odieresis" unicode="&#xd6;" horiz-adv-x="1761" 
d="M109 768c0 150 32.667 285 98 405s156.833 213.833 274.5 281.5s250.834 101.5 399.501 101.5s281.834 -33.833 399.501 -101.5s209.167 -161.5 274.5 -281.5s98 -255 98 -405s-32.667 -285 -98 -405s-156.833 -213.833 -274.5 -281.5s-250.834 -101.5 -399.501 -101.5
s-281.834 33.833 -399.501 101.5s-209.167 161.5 -274.5 281.5s-98 255 -98 405zM1376 768c0 162 -45 293 -135 393c-92 100 -212 150 -360 150c-149.333 0 -269 -50 -359 -150c-91.333 -99.333 -137 -230.333 -137 -393s45.667 -293.667 137 -393
c90 -100 209.667 -150 359 -150c148 0 268 50 360 150c90 100 135 231 135 393zM680 1720c-41.333 0 -75.5 13.5 -102.5 40.5s-40.5 60.833 -40.5 101.5s13.5 74.334 40.5 101.001s61.167 40 102.5 40c40 0 73.5 -13.333 100.5 -40s40.5 -60.334 40.5 -101.001
s-13.5 -74.5 -40.5 -101.5s-60.5 -40.5 -100.5 -40.5zM1083 1720c-41.333 0 -75.5 13.5 -102.5 40.5s-40.5 60.833 -40.5 101.5s13.5 74.334 40.5 101.001s61.167 40 102.5 40c40 0 73.667 -13.333 101 -40s41 -60.334 41 -101.001s-13.667 -74.5 -41 -101.5
s-61 -40.5 -101 -40.5z" />
    <glyph glyph-name="Ugrave" unicode="&#xd9;" horiz-adv-x="1576" 
d="M788 225c98 0 177.167 30.667 237.5 92s90.5 142 90.5 242v977h266v-971c0 -175.333 -55 -316.666 -165 -423.999s-253 -161 -429 -161s-318.833 53.667 -428.5 161s-164.5 248.666 -164.5 423.999v971h266v-977c0 -100 30 -180.667 90 -242s139 -92 237 -92zM758 1690
l-285 278h322l194 -278h-231z" />
    <glyph glyph-name="Uacute" unicode="&#xda;" horiz-adv-x="1576" 
d="M788 225c98 0 177.167 30.667 237.5 92s90.5 142 90.5 242v977h266v-971c0 -175.333 -55 -316.666 -165 -423.999s-253 -161 -429 -161s-318.833 53.667 -428.5 161s-164.5 248.666 -164.5 423.999v971h266v-977c0 -100 30 -180.667 90 -242s139 -92 237 -92zM623 1690
l194 278h322l-287 -278h-229z" />
    <glyph glyph-name="Ucircumflex" unicode="&#xdb;" horiz-adv-x="1576" 
d="M788 225c98 0 177.167 30.667 237.5 92s90.5 142 90.5 242v977h266v-971c0 -175.333 -55 -316.666 -165 -423.999s-253 -161 -429 -161s-318.833 53.667 -428.5 161s-164.5 248.666 -164.5 423.999v971h266v-977c0 -100 30 -180.667 90 -242s139 -92 237 -92zM1182 1690
h-254l-140 129l-139 -129h-254l258 278h269z" />
    <glyph glyph-name="Udieresis" unicode="&#xdc;" horiz-adv-x="1576" 
d="M788 225c98 0 177.167 30.667 237.5 92s90.5 142 90.5 242v977h266v-971c0 -175.333 -55 -316.666 -165 -423.999s-253 -161 -429 -161s-318.833 53.667 -428.5 161s-164.5 248.666 -164.5 423.999v971h266v-977c0 -100 30 -180.667 90 -242s139 -92 237 -92zM588 1720
c-41.333 0 -75.666 13.5 -102.999 40.5s-41 60.833 -41 101.5s13.667 74.334 41 101.001s61.666 40 102.999 40c40 0 73.5 -13.333 100.5 -40s40.5 -60.334 40.5 -101.001s-13.5 -74.5 -40.5 -101.5s-60.5 -40.5 -100.5 -40.5zM991 1720c-41.333 0 -75.5 13.5 -102.5 40.5
s-40.5 60.833 -40.5 101.5s13.5 74.334 40.5 101.001s61.167 40 102.5 40c40 0 73.667 -13.333 101 -40s41 -60.334 41 -101.001s-13.667 -74.5 -41 -101.5s-61 -40.5 -101 -40.5z" />
    <glyph glyph-name="Yacute" unicode="&#xdd;" horiz-adv-x="1427" 
d="M848 0h-266v662l-553 874h309l381 -618l383 618h297l-551 -872v-664zM528 1690l195 278h321l-286 -278h-230z" />
    <glyph glyph-name="germandbls" unicode="&#xdf;" horiz-adv-x="1245" 
d="M399 0l-245 0.000976562v1065c0 143.333 46.333 261.333 139 354c91.333 91.333 211.333 137 360 137c132.667 0 239.334 -37.333 320.001 -112c80.667 -76.667 121 -173.667 121 -291c0 -72 -16.833 -138 -50.5 -198s-85.167 -106 -154.5 -138
c186.667 -62 280 -195.667 280 -401c0 -126.667 -42.333 -231.334 -127 -314.001c-85.333 -81.333 -202 -122 -350 -122c-76 0 -144.333 12 -205 36l54 203c57.333 -13.333 99 -20 125 -20c74.667 0 134.5 20.167 179.5 60.5s67.5 97.833 67.5 172.5
c0 79.333 -26.333 142.5 -79 189.5s-125.334 70.5 -218.001 70.5h-59v221h57c79.333 0 138.833 19.667 178.5 59s59.5 92 59.5 158c0 62 -19 111.667 -57 149s-89.333 56 -154 56c-76.667 0 -136.167 -24 -178.5 -72s-63.5 -112 -63.5 -192v-1071z" />
    <glyph glyph-name="agrave" unicode="&#xe0;" horiz-adv-x="1126" 
d="M993 0l-217 -0.000976562l-16 147c-38.667 -52.667 -87.5 -93.667 -146.5 -123s-123.5 -44 -193.5 -44c-96.667 0 -176.167 26.833 -238.5 80.5s-93.5 127.834 -93.5 222.501c0 50.667 9.66699 95.5 29 134.5s47.333 71.5 84 97.5s77 47.5 121 64.5s95.667 31.5 155 43.5
l275 55c-16.667 106.667 -87 160 -211 160c-128 0 -204.667 -54 -230 -162l-225 43c16 96.667 65.833 175 149.5 235s191.5 90 323.5 90c134 0 239.833 -35.333 317.5 -106s116.5 -167 116.5 -289v-649zM336 296.999c0 -36 11.5 -63.834 34.5 -83.501
s53.833 -29.5 92.5 -29.5c36.667 0 72.167 6 106.5 18s65.5 29.333 93.5 52s50.5 52.5 67.5 89.5s25.5 78.833 25.5 125.5v25l-271 -62c-48.667 -9.33301 -85.667 -24.666 -111 -45.999s-38 -51 -38 -89zM520 1178l-284 278h321l195 -278h-232z" />
    <glyph glyph-name="aacute" unicode="&#xe1;" horiz-adv-x="1126" 
d="M993 0l-217 -0.000976562l-16 147c-38.667 -52.667 -87.5 -93.667 -146.5 -123s-123.5 -44 -193.5 -44c-96.667 0 -176.167 26.833 -238.5 80.5s-93.5 127.834 -93.5 222.501c0 50.667 9.66699 95.5 29 134.5s47.333 71.5 84 97.5s77 47.5 121 64.5s95.667 31.5 155 43.5
l275 55c-16.667 106.667 -87 160 -211 160c-128 0 -204.667 -54 -230 -162l-225 43c16 96.667 65.833 175 149.5 235s191.5 90 323.5 90c134 0 239.833 -35.333 317.5 -106s116.5 -167 116.5 -289v-649zM336 296.999c0 -36 11.5 -63.834 34.5 -83.501
s53.833 -29.5 92.5 -29.5c36.667 0 72.167 6 106.5 18s65.5 29.333 93.5 52s50.5 52.5 67.5 89.5s25.5 78.833 25.5 125.5v25l-271 -62c-48.667 -9.33301 -85.667 -24.666 -111 -45.999s-38 -51 -38 -89zM377 1178l194 278h322l-287 -278h-229z" />
    <glyph glyph-name="acircumflex" unicode="&#xe2;" horiz-adv-x="1126" 
d="M993 0l-217 -0.000976562l-16 147c-38.667 -52.667 -87.5 -93.667 -146.5 -123s-123.5 -44 -193.5 -44c-96.667 0 -176.167 26.833 -238.5 80.5s-93.5 127.834 -93.5 222.501c0 50.667 9.66699 95.5 29 134.5s47.333 71.5 84 97.5s77 47.5 121 64.5s95.667 31.5 155 43.5
l275 55c-16.667 106.667 -87 160 -211 160c-128 0 -204.667 -54 -230 -162l-225 43c16 96.667 65.833 175 149.5 235s191.5 90 323.5 90c134 0 239.833 -35.333 317.5 -106s116.5 -167 116.5 -289v-649zM336 296.999c0 -36 11.5 -63.834 34.5 -83.501
s53.833 -29.5 92.5 -29.5c36.667 0 72.167 6 106.5 18s65.5 29.333 93.5 52s50.5 52.5 67.5 89.5s25.5 78.833 25.5 125.5v25l-271 -62c-48.667 -9.33301 -85.667 -24.666 -111 -45.999s-38 -51 -38 -89zM956 1178h-254l-139 129l-139 -129h-254l258 278h268z" />
    <glyph glyph-name="atilde" unicode="&#xe3;" horiz-adv-x="1126" 
d="M993 0l-217 -0.000976562l-16 147c-38.667 -52.667 -87.5 -93.667 -146.5 -123s-123.5 -44 -193.5 -44c-96.667 0 -176.167 26.833 -238.5 80.5s-93.5 127.834 -93.5 222.501c0 50.667 9.66699 95.5 29 134.5s47.333 71.5 84 97.5s77 47.5 121 64.5s95.667 31.5 155 43.5
l275 55c-16.667 106.667 -87 160 -211 160c-128 0 -204.667 -54 -230 -162l-225 43c16 96.667 65.833 175 149.5 235s191.5 90 323.5 90c134 0 239.833 -35.333 317.5 -106s116.5 -167 116.5 -289v-649zM336 296.999c0 -36 11.5 -63.834 34.5 -83.501
s53.833 -29.5 92.5 -29.5c36.667 0 72.167 6 106.5 18s65.5 29.333 93.5 52s50.5 52.5 67.5 89.5s25.5 78.833 25.5 125.5v25l-271 -62c-48.667 -9.33301 -85.667 -24.666 -111 -45.999s-38 -51 -38 -89zM700 1186c-22.667 0 -44.8311 5.33398 -66.498 16.001
s-39.667 22.667 -54 36s-30.333 25.333 -48 36s-33.834 16 -48.501 16c-28 0 -48.333 -8.16699 -61 -24.5s-19 -42.833 -19 -79.5h-176c-4.66699 90.667 11.166 160 47.499 208s86.833 72 151.5 72c28 0 56.833 -8.33301 86.5 -25s56.5 -33.334 80.5 -50.001
s43.333 -25 58 -25c52 0 78 32 78 96h176c6.66699 -88 -8.83301 -156 -46.5 -204s-90.5 -72 -158.5 -72z" />
    <glyph glyph-name="adieresis" unicode="&#xe4;" horiz-adv-x="1126" 
d="M993 0l-217 -0.000976562l-16 147c-38.667 -52.667 -87.5 -93.667 -146.5 -123s-123.5 -44 -193.5 -44c-96.667 0 -176.167 26.833 -238.5 80.5s-93.5 127.834 -93.5 222.501c0 50.667 9.66699 95.5 29 134.5s47.333 71.5 84 97.5s77 47.5 121 64.5s95.667 31.5 155 43.5
l275 55c-16.667 106.667 -87 160 -211 160c-128 0 -204.667 -54 -230 -162l-225 43c16 96.667 65.833 175 149.5 235s191.5 90 323.5 90c134 0 239.833 -35.333 317.5 -106s116.5 -167 116.5 -289v-649zM336 296.999c0 -36 11.5 -63.834 34.5 -83.501
s53.833 -29.5 92.5 -29.5c36.667 0 72.167 6 106.5 18s65.5 29.333 93.5 52s50.5 52.5 67.5 89.5s25.5 78.833 25.5 125.5v25l-271 -62c-48.667 -9.33301 -85.667 -24.666 -111 -45.999s-38 -51 -38 -89zM362 1208c-41.333 0 -75.5 13.5 -102.5 40.5
s-40.5 60.833 -40.5 101.5s13.5 74.334 40.5 101.001s61.167 40 102.5 40c40 0 73.667 -13.333 101 -40s41 -60.334 41 -101.001s-13.667 -74.5 -41 -101.5s-61 -40.5 -101 -40.5zM766 1208c-41.333 0 -75.5 13.5 -102.5 40.5s-40.5 60.833 -40.5 101.5
s13.5 74.334 40.5 101.001s61.167 40 102.5 40c40 0 73.5 -13.333 100.5 -40s40.5 -60.334 40.5 -101.001s-13.5 -74.5 -40.5 -101.5s-60.5 -40.5 -100.5 -40.5z" />
    <glyph glyph-name="aring" unicode="&#xe5;" horiz-adv-x="1126" 
d="M993 0l-217 -0.000976562l-16 147c-38.667 -52.667 -87.5 -93.667 -146.5 -123s-123.5 -44 -193.5 -44c-96.667 0 -176.167 26.833 -238.5 80.5s-93.5 127.834 -93.5 222.501c0 50.667 9.66699 95.5 29 134.5s47.333 71.5 84 97.5s77 47.5 121 64.5s95.667 31.5 155 43.5
l275 55c-16.667 106.667 -87 160 -211 160c-128 0 -204.667 -54 -230 -162l-225 43c16 96.667 65.833 175 149.5 235s191.5 90 323.5 90c134 0 239.833 -35.333 317.5 -106s116.5 -167 116.5 -289v-649zM336 296.999c0 -36 11.5 -63.834 34.5 -83.501
s53.833 -29.5 92.5 -29.5c36.667 0 72.167 6 106.5 18s65.5 29.333 93.5 52s50.5 52.5 67.5 89.5s25.5 78.833 25.5 125.5v25l-271 -62c-48.667 -9.33301 -85.667 -24.666 -111 -45.999s-38 -51 -38 -89zM551 1556c62.667 0 115.167 -18.667 157.5 -56
s63.5 -84.666 63.5 -141.999c0 -58.667 -21.167 -107.834 -63.5 -147.501s-94.833 -59.5 -157.5 -59.5s-114.834 19.167 -156.501 57.5s-62.5 86.833 -62.5 145.5c0 58 20.833 106.167 62.5 144.5s93.834 57.5 156.501 57.5zM459 1354c0 -27.333 8.5 -49.5 25.5 -66.5
s39.167 -25.5 66.5 -25.5s49.5 8.5 66.5 25.5s25.5 39.833 25.5 68.5c0 26 -8.5 47.5 -25.5 64.5s-39.167 25.5 -66.5 25.5s-49.5 -8.5 -66.5 -25.5s-25.5 -39.167 -25.5 -66.5z" />
    <glyph glyph-name="ae" unicode="&#xe6;" horiz-adv-x="1861" 
d="M430 -20c-102.667 0 -185.332 27 -247.999 81s-94 128 -94 222c0 50.667 9.66699 95.5 29 134.5s47.5 71.5 84.5 97.5s77.667 47.5 122 64.5s96.166 31.5 155.499 43.5l271 55c-14.667 106.667 -84.334 160 -209.001 160c-128 0 -204.667 -54 -230 -162l-225 43
c14 94.667 63 172.334 147 233.001c84.667 61.333 190 92 316 92c162 0 280.667 -50.333 356 -151c100.667 100.667 226.334 151 377.001 151c146.667 0 266 -45 358 -135s138 -206.667 138 -350c0 -26.667 -3.66699 -61.334 -11 -104.001h-757
c4 -80 30.5 -143.333 79.5 -190s114.5 -70 196.5 -70c66 0 122.167 13.833 168.5 41.5s76.166 64.834 89.499 111.501l228 -41c-21.333 -100.667 -77.166 -180.334 -167.499 -239.001s-196.5 -88 -318.5 -88c-96 0 -181 18.167 -255 54.5s-134.333 86.833 -181 151.5
c-42 -64 -99.5 -114.333 -172.5 -151s-155.5 -55 -247.5 -55zM1014 635h521.999c-5.33301 58.667 -30.5 107.5 -75.5 146.5s-103.833 58.5 -176.5 58.5c-71.333 0 -132.166 -18.667 -182.499 -56s-79.5 -87 -87.5 -149zM336.001 297c0 -36.667 11.5 -64.666 34.5 -83.999
s55.167 -29 96.5 -29c36.667 0 71.5 5.66699 104.5 17s63.5 28 91.5 50s50.167 51.833 66.5 89.5s24.5 80.5 24.5 128.5v25l-267 -62c-51.333 -12.667 -89.333 -28.834 -114 -48.501s-37 -48.5 -37 -86.5z" />
    <glyph glyph-name="ccedilla" unicode="&#xe7;" horiz-adv-x="1140" 
d="M332 510c0 -92.667 25.002 -166.666 75.002 -221.999s116.333 -83 199 -83c65.333 0 119.833 16.667 163.5 50s72.5 78.666 86.5 135.999l236 -41c-15.333 -90.667 -58.666 -169.334 -129.999 -236.001s-158 -108.667 -260 -126l-75 -336h-240l78 344
c-116 29.333 -209.667 90.666 -281 183.999c-72 92 -108 202 -108 330c0 154 50.167 281.5 150.5 382.5s226.833 151.5 379.5 151.5c123.333 0 228.166 -33.167 314.499 -99.5s141.166 -154.5 164.499 -264.5l-239 -41c-13.333 56.667 -40.833 100.834 -82.5 132.501
s-92.834 47.5 -153.501 47.5c-82.667 0 -149.667 -28.167 -201 -84.5s-77 -131.166 -77 -224.499z" />
    <glyph glyph-name="egrave" unicode="&#xe8;" horiz-adv-x="1191" 
d="M76 508c0 155.333 49.667 283.502 149 384.502s226.333 151.5 381 151.5c148 0 269 -45 363 -135c92.667 -90.667 139 -207.334 139 -350.001c0 -34.667 -3.33301 -71.334 -10 -110.001h-772c8.66699 -83.333 38.334 -146.5 89.001 -189.5s115.667 -64.5 195 -64.5
c68 0 125.667 13.833 173 41.5s77.666 64.834 90.999 111.501l228 -41c-21.333 -100 -77.833 -179.5 -169.5 -238.5s-199.167 -88.5 -322.5 -88.5c-164 0 -294 49.167 -390 147.5s-144 225.166 -144 380.499zM608 840.002c-75.333 0 -136.501 -16.833 -183.501 -50.5
s-77.167 -82.5 -90.5 -146.5h532c-13.333 64 -42.166 112.833 -86.499 146.5s-101.5 50.5 -171.5 50.5zM538.999 1178l-285 278h321l195 -278h-231z" />
    <glyph glyph-name="eacute" unicode="&#xe9;" horiz-adv-x="1191" 
d="M76 508c0 155.333 49.667 283.502 149 384.502s226.333 151.5 381 151.5c148 0 269 -45 363 -135c92.667 -90.667 139 -207.334 139 -350.001c0 -34.667 -3.33301 -71.334 -10 -110.001h-772c8.66699 -83.333 38.334 -146.5 89.001 -189.5s115.667 -64.5 195 -64.5
c68 0 125.667 13.833 173 41.5s77.666 64.834 90.999 111.501l228 -41c-21.333 -100 -77.833 -179.5 -169.5 -238.5s-199.167 -88.5 -322.5 -88.5c-164 0 -294 49.167 -390 147.5s-144 225.166 -144 380.499zM608 840.002c-75.333 0 -136.501 -16.833 -183.501 -50.5
s-77.167 -82.5 -90.5 -146.5h532c-13.333 64 -42.166 112.833 -86.499 146.5s-101.5 50.5 -171.5 50.5zM443.999 1178l195 278h322l-287 -278h-230z" />
    <glyph glyph-name="ecircumflex" unicode="&#xea;" horiz-adv-x="1191" 
d="M76 508c0 155.333 49.667 283.502 149 384.502s226.333 151.5 381 151.5c148 0 269 -45 363 -135c92.667 -90.667 139 -207.334 139 -350.001c0 -34.667 -3.33301 -71.334 -10 -110.001h-772c8.66699 -83.333 38.334 -146.5 89.001 -189.5s115.667 -64.5 195 -64.5
c68 0 125.667 13.833 173 41.5s77.666 64.834 90.999 111.501l228 -41c-21.333 -100 -77.833 -179.5 -169.5 -238.5s-199.167 -88.5 -322.5 -88.5c-164 0 -294 49.167 -390 147.5s-144 225.166 -144 380.499zM608 840.002c-75.333 0 -136.501 -16.833 -183.501 -50.5
s-77.167 -82.5 -90.5 -146.5h532c-13.333 64 -42.166 112.833 -86.499 146.5s-101.5 50.5 -171.5 50.5zM982.999 1178h-254l-139 129l-139 -129h-254l258 278h268z" />
    <glyph glyph-name="edieresis" unicode="&#xeb;" horiz-adv-x="1191" 
d="M76 508c0 155.333 49.667 283.502 149 384.502s226.333 151.5 381 151.5c148 0 269 -45 363 -135c92.667 -90.667 139 -207.334 139 -350.001c0 -34.667 -3.33301 -71.334 -10 -110.001h-772c8.66699 -83.333 38.334 -146.5 89.001 -189.5s115.667 -64.5 195 -64.5
c68 0 125.667 13.833 173 41.5s77.666 64.834 90.999 111.501l228 -41c-21.333 -100 -77.833 -179.5 -169.5 -238.5s-199.167 -88.5 -322.5 -88.5c-164 0 -294 49.167 -390 147.5s-144 225.166 -144 380.499zM608 840.002c-75.333 0 -136.501 -16.833 -183.501 -50.5
s-77.167 -82.5 -90.5 -146.5h532c-13.333 64 -42.166 112.833 -86.499 146.5s-101.5 50.5 -171.5 50.5zM388.999 1208c-41.333 0 -75.5 13.5 -102.5 40.5s-40.5 60.833 -40.5 101.5s13.5 74.334 40.5 101.001s61.167 40 102.5 40c40 0 73.5 -13.333 100.5 -40
s40.5 -60.334 40.5 -101.001s-13.5 -74.5 -40.5 -101.5s-60.5 -40.5 -100.5 -40.5zM792.999 1208c-41.333 0 -75.666 13.5 -102.999 40.5s-41 60.833 -41 101.5s13.667 74.334 41 101.001s61.666 40 102.999 40c40 0 73.5 -13.333 100.5 -40s40.5 -60.334 40.5 -101.001
s-13.5 -74.5 -40.5 -101.5s-60.5 -40.5 -100.5 -40.5z" />
    <glyph glyph-name="igrave" unicode="&#xec;" 
d="M399 0h-245v1024h245v-1024zM195 1178l-285 278h321l195 -278h-231z" />
    <glyph glyph-name="iacute" unicode="&#xed;" 
d="M399 0h-245v1024h245v-1024zM141 1178l195 278h321l-286 -278h-230z" />
    <glyph glyph-name="icircumflex" unicode="&#xee;" 
d="M399 0h-245v1024h245v-1024zM670 1178h-254l-140 129l-139 -129h-254l258 278h269z" />
    <glyph glyph-name="idieresis" unicode="&#xef;" 
d="M399 0h-245v1024h245v-1024zM76 1208c-41.333 0 -75.666 13.5 -102.999 40.5s-41 60.833 -41 101.5s13.667 74.334 41 101.001s61.666 40 102.999 40c40 0 73.5 -13.333 100.5 -40s40.5 -60.334 40.5 -101.001s-13.5 -74.5 -40.5 -101.5s-60.5 -40.5 -100.5 -40.5z
M479 1208c-41.333 0 -75.5 13.5 -102.5 40.5s-40.5 60.833 -40.5 101.5s13.5 74.334 40.5 101.001s61.167 40 102.5 40c40 0 73.667 -13.333 101 -40s41 -60.334 41 -101.001s-13.667 -74.5 -41 -101.5s-61 -40.5 -101 -40.5z" />
    <glyph glyph-name="ntilde" unicode="&#xf1;" horiz-adv-x="1228" 
d="M399 0l-245 0.000976562v1024h225l12 -109c81.333 86 183 129 305 129c114 0 209.5 -37.667 286.5 -113s115.5 -180.333 115.5 -315v-616h-246v580c0 75.333 -19.833 133.666 -59.5 174.999s-91.5 62 -155.5 62c-30 0 -58.167 -4 -84.5 -12s-51.5 -20.667 -75.5 -38
s-43 -42 -57 -74s-21 -69.667 -21 -113v-580zM793 1186c-22.667 0 -44.8301 5.33398 -66.4971 16.001s-39.834 22.667 -54.501 36s-30.834 25.333 -48.501 36s-33.834 16 -48.501 16c-27.333 0 -47.333 -8.16699 -60 -24.5s-19 -42.833 -19 -79.5h-177
c-4.66699 90.667 11.166 160 47.499 208s86.833 72 151.5 72c28 0 56.833 -8.33301 86.5 -25s56.5 -33.334 80.5 -50.001s43.333 -25 58 -25c52 0 78 32 78 96h176c6.66699 -88 -8.66602 -156 -45.999 -204s-90 -72 -158 -72z" />
    <glyph glyph-name="ograve" unicode="&#xf2;" horiz-adv-x="1236" 
d="M618 1044c156.667 0 286.334 -50.333 389.001 -151s154 -227.667 154 -381s-51.333 -280.333 -154 -381s-232.334 -151 -389.001 -151s-286.167 50.333 -388.5 151s-153.5 227.667 -153.5 381s51.167 280.333 153.5 381s231.833 151 388.5 151zM618 819
c-86 0 -155.167 -28.333 -207.5 -85s-78.5 -130.667 -78.5 -222s26.167 -165.333 78.5 -222s121.5 -85 207.5 -85s155.333 28.333 208 85s79 130.667 79 222s-26.333 165.333 -79 222s-122 85 -208 85zM565 1178l-284 278h321l195 -278h-232z" />
    <glyph glyph-name="oacute" unicode="&#xf3;" horiz-adv-x="1236" 
d="M618 1044c156.667 0 286.334 -50.333 389.001 -151s154 -227.667 154 -381s-51.333 -280.333 -154 -381s-232.334 -151 -389.001 -151s-286.167 50.333 -388.5 151s-153.5 227.667 -153.5 381s51.167 280.333 153.5 381s231.833 151 388.5 151zM618 819
c-86 0 -155.167 -28.333 -207.5 -85s-78.5 -130.667 -78.5 -222s26.167 -165.333 78.5 -222s121.5 -85 207.5 -85s155.333 28.333 208 85s79 130.667 79 222s-26.333 165.333 -79 222s-122 85 -208 85zM436 1178l195 278h321l-286 -278h-230z" />
    <glyph glyph-name="ocircumflex" unicode="&#xf4;" horiz-adv-x="1236" 
d="M618 1044c156.667 0 286.334 -50.333 389.001 -151s154 -227.667 154 -381s-51.333 -280.333 -154 -381s-232.334 -151 -389.001 -151s-286.167 50.333 -388.5 151s-153.5 227.667 -153.5 381s51.167 280.333 153.5 381s231.833 151 388.5 151zM618 819
c-86 0 -155.167 -28.333 -207.5 -85s-78.5 -130.667 -78.5 -222s26.167 -165.333 78.5 -222s121.5 -85 207.5 -85s155.333 28.333 208 85s79 130.667 79 222s-26.333 165.333 -79 222s-122 85 -208 85zM1010 1178h-254l-140 129l-139 -129h-254l258 278h269z" />
    <glyph glyph-name="otilde" unicode="&#xf5;" horiz-adv-x="1236" 
d="M618 1044c156.667 0 286.334 -50.333 389.001 -151s154 -227.667 154 -381s-51.333 -280.333 -154 -381s-232.334 -151 -389.001 -151s-286.167 50.333 -388.5 151s-153.5 227.667 -153.5 381s51.167 280.333 153.5 381s231.833 151 388.5 151zM618 819
c-86 0 -155.167 -28.333 -207.5 -85s-78.5 -130.667 -78.5 -222s26.167 -165.333 78.5 -222s121.5 -85 207.5 -85s155.333 28.333 208 85s79 130.667 79 222s-26.333 165.333 -79 222s-122 85 -208 85zM754 1186c-22.667 0 -44.833 5.33398 -66.5 16.001
s-39.667 22.667 -54 36s-30.333 25.333 -48 36s-33.834 16 -48.501 16c-28 0 -48.333 -8.16699 -61 -24.5s-19 -42.833 -19 -79.5h-176c-4.66699 90.667 11 160 47 208s86.333 72 151 72c28 0 57 -8.33301 87 -25s57 -33.334 81 -50.001s43.333 -25 58 -25
c51.333 0 77 32 77 96h176c6.66699 -88 -8.66602 -156 -45.999 -204s-90 -72 -158 -72z" />
    <glyph glyph-name="odieresis" unicode="&#xf6;" horiz-adv-x="1236" 
d="M618 1044c156.667 0 286.334 -50.333 389.001 -151s154 -227.667 154 -381s-51.333 -280.333 -154 -381s-232.334 -151 -389.001 -151s-286.167 50.333 -388.5 151s-153.5 227.667 -153.5 381s51.167 280.333 153.5 381s231.833 151 388.5 151zM618 819
c-86 0 -155.167 -28.333 -207.5 -85s-78.5 -130.667 -78.5 -222s26.167 -165.333 78.5 -222s121.5 -85 207.5 -85s155.333 28.333 208 85s79 130.667 79 222s-26.333 165.333 -79 222s-122 85 -208 85zM416 1208c-41.333 0 -75.666 13.5 -102.999 40.5s-41 60.833 -41 101.5
s13.667 74.334 41 101.001s61.666 40 102.999 40c40 0 73.5 -13.333 100.5 -40s40.5 -60.334 40.5 -101.001s-13.5 -74.5 -40.5 -101.5s-60.5 -40.5 -100.5 -40.5zM819 1208c-41.333 0 -75.5 13.5 -102.5 40.5s-40.5 60.833 -40.5 101.5s13.5 74.334 40.5 101.001
s61.167 40 102.5 40c40 0 73.667 -13.333 101 -40s41 -60.334 41 -101.001s-13.667 -74.5 -41 -101.5s-61 -40.5 -101 -40.5z" />
    <glyph glyph-name="ugrave" unicode="&#xf9;" horiz-adv-x="1202" 
d="M129 1024h245.999v-614c0 -66 18.167 -116.333 54.5 -151s87.833 -52 154.5 -52c28 0 54.167 4 78.5 12s47.5 20.333 69.5 37s39.333 40.667 52 72s19 68 19 110v586h246v-1024h-226l-10 113c-79.333 -88.667 -177.666 -133 -294.999 -133
c-112 0 -204.833 35.5 -278.5 106.5s-110.5 171.167 -110.5 300.5v637zM527.999 1178l-284 278h321l195 -278h-232z" />
    <glyph glyph-name="uacute" unicode="&#xfa;" horiz-adv-x="1202" 
d="M129 1024h245.999v-614c0 -66 18.167 -116.333 54.5 -151s87.833 -52 154.5 -52c28 0 54.167 4 78.5 12s47.5 20.333 69.5 37s39.333 40.667 52 72s19 68 19 110v586h246v-1024h-226l-10 113c-79.333 -88.667 -177.666 -133 -294.999 -133
c-112 0 -204.833 35.5 -278.5 106.5s-110.5 171.167 -110.5 300.5v637zM433.999 1178l195 278h321l-286 -278h-230z" />
    <glyph glyph-name="ucircumflex" unicode="&#xfb;" horiz-adv-x="1202" 
d="M129 1024h245.999v-614c0 -66 18.167 -116.333 54.5 -151s87.833 -52 154.5 -52c28 0 54.167 4 78.5 12s47.5 20.333 69.5 37s39.333 40.667 52 72s19 68 19 110v586h246v-1024h-226l-10 113c-79.333 -88.667 -177.666 -133 -294.999 -133
c-112 0 -204.833 35.5 -278.5 106.5s-110.5 171.167 -110.5 300.5v637zM992.999 1178h-254l-139 129l-139 -129h-254l258 278h268z" />
    <glyph glyph-name="udieresis" unicode="&#xfc;" horiz-adv-x="1202" 
d="M129 1024h245.999v-614c0 -66 18.167 -116.333 54.5 -151s87.833 -52 154.5 -52c28 0 54.167 4 78.5 12s47.5 20.333 69.5 37s39.333 40.667 52 72s19 68 19 110v586h246v-1024h-226l-10 113c-79.333 -88.667 -177.666 -133 -294.999 -133
c-112 0 -204.833 35.5 -278.5 106.5s-110.5 171.167 -110.5 300.5v637zM398.999 1208c-41.333 0 -75.5 13.5 -102.5 40.5s-40.5 60.833 -40.5 101.5s13.5 74.334 40.5 101.001s61.167 40 102.5 40c40 0 73.667 -13.333 101 -40s41 -60.334 41 -101.001
s-13.667 -74.5 -41 -101.5s-61 -40.5 -101 -40.5zM802.999 1208c-41.333 0 -75.666 13.5 -102.999 40.5s-41 60.833 -41 101.5s13.667 74.334 41 101.001s61.666 40 102.999 40c40 0 73.5 -13.333 100.5 -40s40.5 -60.334 40.5 -101.001s-13.5 -74.5 -40.5 -101.5
s-60.5 -40.5 -100.5 -40.5z" />
    <glyph glyph-name="yacute" unicode="&#xfd;" horiz-adv-x="1101" 
d="M446 0l-436 1024h273l292 -707l261 707h256l-566 -1475h-252zM406 1178l194 278h322l-287 -278h-229z" />
    <glyph glyph-name="ydieresis" unicode="&#xff;" horiz-adv-x="1101" 
d="M446 0l-436 1024h273l292 -707l261 707h256l-566 -1475h-252zM350 1208c-41.333 0 -75.5 13.5 -102.5 40.5s-40.5 60.833 -40.5 101.5s13.5 74.334 40.5 101.001s61.167 40 102.5 40c40 0 73.667 -13.333 101 -40s41 -60.334 41 -101.001s-13.667 -74.5 -41 -101.5
s-61 -40.5 -101 -40.5zM754 1208c-41.333 0 -75.666 13.5 -102.999 40.5s-41 60.833 -41 101.5s13.667 74.334 41 101.001s61.666 40 102.999 40c40 0 73.5 -13.333 100.5 -40s40.5 -60.334 40.5 -101.001s-13.5 -74.5 -40.5 -101.5s-60.5 -40.5 -100.5 -40.5z" />
    <glyph glyph-name="Amacron" unicode="&#x100;" horiz-adv-x="1525" 
d="M301 0h-270l587 1536h289l588 -1536h-283l-176 475h-559zM758 1231l-195 -522h387zM455 1726v205h618v-205h-618z" />
    <glyph glyph-name="amacron" unicode="&#x101;" horiz-adv-x="1126" 
d="M993 0l-217 -0.000976562l-16 147c-38.667 -52.667 -87.5 -93.667 -146.5 -123s-123.5 -44 -193.5 -44c-96.667 0 -176.167 26.833 -238.5 80.5s-93.5 127.834 -93.5 222.501c0 50.667 9.66699 95.5 29 134.5s47.333 71.5 84 97.5s77 47.5 121 64.5s95.667 31.5 155 43.5
l275 55c-16.667 106.667 -87 160 -211 160c-128 0 -204.667 -54 -230 -162l-225 43c16 96.667 65.833 175 149.5 235s191.5 90 323.5 90c134 0 239.833 -35.333 317.5 -106s116.5 -167 116.5 -289v-649zM336 296.999c0 -36 11.5 -63.834 34.5 -83.501
s53.833 -29.5 92.5 -29.5c36.667 0 72.167 6 106.5 18s65.5 29.333 93.5 52s50.5 52.5 67.5 89.5s25.5 78.833 25.5 125.5v25l-271 -62c-48.667 -9.33301 -85.667 -24.666 -111 -45.999s-38 -51 -38 -89zM254 1214v205h618v-205h-618z" />
    <glyph glyph-name="Abreve" unicode="&#x102;" horiz-adv-x="1525" 
d="M301 0h-270l587 1536h289l588 -1536h-283l-176 475h-559zM758 1231l-195 -522h387zM762 1853c37.333 0 66.666 9.99902 87.999 29.999s32.333 49 33 87h217c-0.666992 -90 -32.167 -162.667 -94.5 -218s-142.833 -83 -241.5 -83s-179.167 27.667 -241.5 83
s-93.833 128 -94.5 218h217c0 -37.333 10.333 -66.166 31 -86.499s49.334 -30.5 86.001 -30.5z" />
    <glyph glyph-name="abreve" unicode="&#x103;" horiz-adv-x="1126" 
d="M993 0l-217 -0.000976562l-16 147c-38.667 -52.667 -87.5 -93.667 -146.5 -123s-123.5 -44 -193.5 -44c-96.667 0 -176.167 26.833 -238.5 80.5s-93.5 127.834 -93.5 222.501c0 50.667 9.66699 95.5 29 134.5s47.333 71.5 84 97.5s77 47.5 121 64.5s95.667 31.5 155 43.5
l275 55c-16.667 106.667 -87 160 -211 160c-128 0 -204.667 -54 -230 -162l-225 43c16 96.667 65.833 175 149.5 235s191.5 90 323.5 90c134 0 239.833 -35.333 317.5 -106s116.5 -167 116.5 -289v-649zM336 296.999c0 -36 11.5 -63.834 34.5 -83.501
s53.833 -29.5 92.5 -29.5c36.667 0 72.167 6 106.5 18s65.5 29.333 93.5 52s50.5 52.5 67.5 89.5s25.5 78.833 25.5 125.5v25l-271 -62c-48.667 -9.33301 -85.667 -24.666 -111 -45.999s-38 -51 -38 -89zM561 1341c37.333 0 66.666 9.99902 87.999 29.999s32.333 49 33 87
h217c-0.666992 -90 -32.167 -162.667 -94.5 -218s-142.833 -83 -241.5 -83s-179.167 27.667 -241.5 83s-93.833 128 -94.5 218h217c0 -37.333 10.333 -66.166 31 -86.499s49.334 -30.5 86.001 -30.5z" />
    <glyph glyph-name="Aogonek" unicode="&#x104;" horiz-adv-x="1525" 
d="M301 0h-269.999l587 1536h289l588 -1536c-62.667 -18.667 -108.334 -42.667 -137.001 -72s-43 -61.333 -43 -96c0 -32 9.83301 -57.333 29.5 -76s47.167 -28 82.5 -28c25.333 0 50 4 74 12l41 -168c-20.667 -13.333 -49.167 -23.833 -85.5 -31.5
s-71.833 -11.5 -106.5 -11.5c-89.333 0 -156.5 23 -201.5 69s-67.5 105.667 -67.5 179c0 97.333 42.333 174.333 127 231l-172 467h-559zM758.001 1231l-195 -522h387z" />
    <glyph glyph-name="aogonek" unicode="&#x105;" horiz-adv-x="1126" 
d="M848 -471c-89.333 0 -156.332 22.999 -200.999 68.999s-67 105.667 -67 179c0 114 63.333 204 190 270l-10 100c-38.667 -52.667 -87.5 -93.667 -146.5 -123s-123.5 -44 -193.5 -44c-96.667 0 -176.167 26.833 -238.5 80.5s-93.5 127.834 -93.5 222.501
c0 50.667 9.66699 95.5 29 134.5s47.333 71.5 84 97.5s77 47.5 121 64.5s95.667 31.5 155 43.5l275 55c-16.667 106.667 -87 160 -211 160c-128 0 -204.667 -54 -230 -162l-225 43c16 96.667 65.833 175 149.5 235s191.5 90 323.5 90c134 0 239.833 -35.333 317.5 -106
s116.5 -167 116.5 -289v-649c-62.667 -18.667 -108.334 -42.667 -137.001 -72s-43 -61.333 -43 -96c0 -32 10 -57.333 30 -76s47.667 -28 83 -28c24.667 0 49 4 73 12l41 -168c-20.667 -13.333 -49.167 -23.833 -85.5 -31.5s-71.833 -11.5 -106.5 -11.5zM336.001 296.999
c0 -36 11.5 -63.834 34.5 -83.501s53.833 -29.5 92.5 -29.5c36.667 0 72.167 6 106.5 18s65.5 29.333 93.5 52s50.5 52.5 67.5 89.5s25.5 78.833 25.5 125.5v25l-271 -62c-48.667 -9.33301 -85.667 -24.666 -111 -45.999s-38 -51 -38 -89z" />
    <glyph glyph-name="Cacute" unicode="&#x106;" horiz-adv-x="1650" 
d="M385 768c0 -73.333 10.5 -142.334 31.5 -207.001s51.167 -122.167 90.5 -172.5s89.833 -90.166 151.5 -119.499s130.834 -44 207.501 -44c118 0 215 33 291 99c75.333 62.667 124.666 140.334 147.999 233.001l256 -74c-36 -151.333 -118 -273 -246 -365
s-279 -138 -453 -138c-117.333 0 -224 20.5 -320 61.5s-175.333 97.167 -238 168.5s-110.834 154.666 -144.501 249.999s-50.5 198 -50.5 308c0 108.667 17.333 210.667 52 306s83.834 178.833 147.501 250.5s144.167 128.167 241.5 169.5s205.333 62 324 62
c178.667 0 327 -45.667 445 -137c116 -91.333 191.667 -210.666 227 -357.999l-256 -74c-21.333 95.333 -69 173.166 -143 233.499s-167.667 90.5 -281 90.5c-74.667 0 -142.667 -14.833 -204 -44.5s-112 -69.5 -152 -119.5s-70.833 -107.667 -92.5 -173
s-32.5 -134 -32.5 -206zM702 1690l195 278h322l-287 -278h-230z" />
    <glyph glyph-name="cacute" unicode="&#x107;" horiz-adv-x="1140" 
d="M332 510c0 -92.667 25.0039 -166.668 75.0039 -222.001s116.333 -83 199 -83c65.333 0 119.833 16.667 163.5 50s72.5 78.666 86.5 135.999l236 -41c-18 -104 -72 -192 -162 -264c-88 -70.667 -196.667 -106 -326 -106c-152.667 0 -278.834 50.167 -378.501 150.5
s-149.5 226.833 -149.5 379.5c0 154 50.167 281.5 150.5 382.5s226.833 151.5 379.5 151.5c123.333 0 228.166 -33.167 314.499 -99.5s141.166 -154.5 164.499 -264.5l-239 -41c-13.333 56.667 -40.833 100.834 -82.5 132.501s-92.834 47.5 -153.501 47.5
c-82.667 0 -149.667 -28.167 -201 -84.5s-77 -131.166 -77 -224.499zM434.004 1178l195 278h321l-286 -278h-230z" />
    <glyph glyph-name="Ccircumflex" unicode="&#x108;" horiz-adv-x="1650" 
d="M385 768c0 -73.333 10.5 -142.334 31.5 -207.001s51.167 -122.167 90.5 -172.5s89.833 -90.166 151.5 -119.499s130.834 -44 207.501 -44c118 0 215 33 291 99c75.333 62.667 124.666 140.334 147.999 233.001l256 -74c-36 -151.333 -118 -273 -246 -365
s-279 -138 -453 -138c-117.333 0 -224 20.5 -320 61.5s-175.333 97.167 -238 168.5s-110.834 154.666 -144.501 249.999s-50.5 198 -50.5 308c0 108.667 17.333 210.667 52 306s83.834 178.833 147.501 250.5s144.167 128.167 241.5 169.5s205.333 62 324 62
c178.667 0 327 -45.667 445 -137c116 -91.333 191.667 -210.666 227 -357.999l-256 -74c-21.333 95.333 -69 173.166 -143 233.499s-167.667 90.5 -281 90.5c-74.667 0 -142.667 -14.833 -204 -44.5s-112 -69.5 -152 -119.5s-70.833 -107.667 -92.5 -173
s-32.5 -134 -32.5 -206zM1262 1690h-254l-140 129l-139 -129h-254l258 278h268z" />
    <glyph glyph-name="ccircumflex" unicode="&#x109;" horiz-adv-x="1140" 
d="M332 510c0 -92.667 25.0039 -166.668 75.0039 -222.001s116.333 -83 199 -83c65.333 0 119.833 16.667 163.5 50s72.5 78.666 86.5 135.999l236 -41c-18 -104 -72 -192 -162 -264c-88 -70.667 -196.667 -106 -326 -106c-152.667 0 -278.834 50.167 -378.501 150.5
s-149.5 226.833 -149.5 379.5c0 154 50.167 281.5 150.5 382.5s226.833 151.5 379.5 151.5c123.333 0 228.166 -33.167 314.499 -99.5s141.166 -154.5 164.499 -264.5l-239 -41c-13.333 56.667 -40.833 100.834 -82.5 132.501s-92.834 47.5 -153.501 47.5
c-82.667 0 -149.667 -28.167 -201 -84.5s-77 -131.166 -77 -224.499zM1004 1178h-254l-140 129l-139 -129h-254l258 278h268z" />
    <glyph glyph-name="Cdotaccent" unicode="&#x10a;" horiz-adv-x="1650" 
d="M385 768c0 -73.333 10.5 -142.334 31.5 -207.001s51.167 -122.167 90.5 -172.5s89.833 -90.166 151.5 -119.499s130.834 -44 207.501 -44c118 0 215 33 291 99c75.333 62.667 124.666 140.334 147.999 233.001l256 -74c-36 -151.333 -118 -273 -246 -365
s-279 -138 -453 -138c-117.333 0 -224 20.5 -320 61.5s-175.333 97.167 -238 168.5s-110.834 154.666 -144.501 249.999s-50.5 198 -50.5 308c0 108.667 17.333 210.667 52 306s83.834 178.833 147.501 250.5s144.167 128.167 241.5 169.5s205.333 62 324 62
c178.667 0 327 -45.667 445 -137c116 -91.333 191.667 -210.666 227 -357.999l-256 -74c-21.333 95.333 -69 173.166 -143 233.499s-167.667 90.5 -281 90.5c-74.667 0 -142.667 -14.833 -204 -44.5s-112 -69.5 -152 -119.5s-70.833 -107.667 -92.5 -173
s-32.5 -134 -32.5 -206zM868 1708c-43.333 0 -79.333 14.333 -108 43s-43 64.334 -43 107.001s14.167 78.167 42.5 106.5s64.5 42.5 108.5 42.5s80.333 -14.333 109 -43s43 -64 43 -106c0 -42.667 -14.333 -78.334 -43 -107.001s-65 -43 -109 -43z" />
    <glyph glyph-name="cdotaccent" unicode="&#x10b;" horiz-adv-x="1140" 
d="M332 510c0 -92.667 25.0039 -166.668 75.0039 -222.001s116.333 -83 199 -83c65.333 0 119.833 16.667 163.5 50s72.5 78.666 86.5 135.999l236 -41c-18 -104 -72 -192 -162 -264c-88 -70.667 -196.667 -106 -326 -106c-152.667 0 -278.834 50.167 -378.501 150.5
s-149.5 226.833 -149.5 379.5c0 154 50.167 281.5 150.5 382.5s226.833 151.5 379.5 151.5c123.333 0 228.166 -33.167 314.499 -99.5s141.166 -154.5 164.499 -264.5l-239 -41c-13.333 56.667 -40.833 100.834 -82.5 132.501s-92.834 47.5 -153.501 47.5
c-82.667 0 -149.667 -28.167 -201 -84.5s-77 -131.166 -77 -224.499zM610.004 1196c-43.333 0 -79.333 14.333 -108 43s-43 64.334 -43 107.001s14.167 78.167 42.5 106.5s64.5 42.5 108.5 42.5s80.333 -14.333 109 -43s43 -64 43 -106
c0 -42.667 -14.333 -78.334 -43 -107.001s-65 -43 -109 -43z" />
    <glyph glyph-name="Ccaron" unicode="&#x10c;" horiz-adv-x="1650" 
d="M385 768c0 -73.333 10.5 -142.334 31.5 -207.001s51.167 -122.167 90.5 -172.5s89.833 -90.166 151.5 -119.499s130.834 -44 207.501 -44c118 0 215 33 291 99c75.333 62.667 124.666 140.334 147.999 233.001l256 -74c-36 -151.333 -118 -273 -246 -365
s-279 -138 -453 -138c-117.333 0 -224 20.5 -320 61.5s-175.333 97.167 -238 168.5s-110.834 154.666 -144.501 249.999s-50.5 198 -50.5 308c0 108.667 17.333 210.667 52 306s83.834 178.833 147.501 250.5s144.167 128.167 241.5 169.5s205.333 62 324 62
c178.667 0 327 -45.667 445 -137c116 -91.333 191.667 -210.666 227 -357.999l-256 -74c-21.333 95.333 -69 173.166 -143 233.499s-167.667 90.5 -281 90.5c-74.667 0 -142.667 -14.833 -204 -44.5s-112 -69.5 -152 -119.5s-70.833 -107.667 -92.5 -173
s-32.5 -134 -32.5 -206zM870 1839l144 129h248l-261 -278h-268l-258 278h260z" />
    <glyph glyph-name="ccaron" unicode="&#x10d;" horiz-adv-x="1140" 
d="M332 510c0 -92.667 25.0039 -166.668 75.0039 -222.001s116.333 -83 199 -83c65.333 0 119.833 16.667 163.5 50s72.5 78.666 86.5 135.999l236 -41c-18 -104 -72 -192 -162 -264c-88 -70.667 -196.667 -106 -326 -106c-152.667 0 -278.834 50.167 -378.501 150.5
s-149.5 226.833 -149.5 379.5c0 154 50.167 281.5 150.5 382.5s226.833 151.5 379.5 151.5c123.333 0 228.166 -33.167 314.499 -99.5s141.166 -154.5 164.499 -264.5l-239 -41c-13.333 56.667 -40.833 100.834 -82.5 132.501s-92.834 47.5 -153.501 47.5
c-82.667 0 -149.667 -28.167 -201 -84.5s-77 -131.166 -77 -224.499zM612.004 1327l144 129h248l-261 -278h-268l-258 278h260z" />
    <glyph glyph-name="Emacron" unicode="&#x112;" horiz-adv-x="1306" 
d="M1231 0h-1026v1536h1005v-240h-739v-374h514v-240h-514v-442h760v-240zM416 1726v205h618v-205h-618z" />
    <glyph glyph-name="emacron" unicode="&#x113;" horiz-adv-x="1191" 
d="M76 508c0 155.333 49.667 283.502 149 384.502s226.333 151.5 381 151.5c148 0 269 -45 363 -135c92.667 -90.667 139 -207.334 139 -350.001c0 -34.667 -3.33301 -71.334 -10 -110.001h-772c8.66699 -83.333 38.334 -146.5 89.001 -189.5s115.667 -64.5 195 -64.5
c68 0 125.667 13.833 173 41.5s77.666 64.834 90.999 111.501l228 -41c-21.333 -100 -77.833 -179.5 -169.5 -238.5s-199.167 -88.5 -322.5 -88.5c-164 0 -294 49.167 -390 147.5s-144 225.166 -144 380.499zM608 840.002c-75.333 0 -136.501 -16.833 -183.501 -50.5
s-77.167 -82.5 -90.5 -146.5h532c-13.333 64 -42.166 112.833 -86.499 146.5s-101.5 50.5 -171.5 50.5zM280.999 1214v205h618v-205h-618z" />
    <glyph glyph-name="Ebreve" unicode="&#x114;" horiz-adv-x="1306" 
d="M1231 0h-1026v1536h1005v-240h-739v-374h514v-240h-514v-442h760v-240zM723 1853c37.333 0 66.666 9.99902 87.999 29.999s32.333 49 33 87h217c-0.666992 -90 -32.167 -162.667 -94.5 -218s-142.833 -83 -241.5 -83s-179.167 27.667 -241.5 83s-93.833 128 -94.5 218
h217c0 -37.333 10.333 -66.166 31 -86.499s49.334 -30.5 86.001 -30.5z" />
    <glyph glyph-name="ebreve" unicode="&#x115;" horiz-adv-x="1191" 
d="M76 508c0 155.333 49.667 283.502 149 384.502s226.333 151.5 381 151.5c148 0 269 -45 363 -135c92.667 -90.667 139 -207.334 139 -350.001c0 -34.667 -3.33301 -71.334 -10 -110.001h-772c8.66699 -83.333 38.334 -146.5 89.001 -189.5s115.667 -64.5 195 -64.5
c68 0 125.667 13.833 173 41.5s77.666 64.834 90.999 111.501l228 -41c-21.333 -100 -77.833 -179.5 -169.5 -238.5s-199.167 -88.5 -322.5 -88.5c-164 0 -294 49.167 -390 147.5s-144 225.166 -144 380.499zM608 840.002c-75.333 0 -136.501 -16.833 -183.501 -50.5
s-77.167 -82.5 -90.5 -146.5h532c-13.333 64 -42.166 112.833 -86.499 146.5s-101.5 50.5 -171.5 50.5zM587.999 1341c37.333 0 66.666 9.99902 87.999 29.999s32.333 49 33 87h217c-0.666992 -90 -32.167 -162.667 -94.5 -218s-142.833 -83 -241.5 -83
s-179.167 27.667 -241.5 83s-93.833 128 -94.5 218h217c0 -37.333 10.333 -66.166 31 -86.499s49.334 -30.5 86.001 -30.5z" />
    <glyph glyph-name="Edotaccent" unicode="&#x116;" horiz-adv-x="1306" 
d="M1231 0h-1026v1536h1005v-240h-739v-374h514v-240h-514v-442h760v-240zM725 1708c-43.333 0 -79.5 14.333 -108.5 43s-43.5 64.334 -43.5 107.001c0 42 14.333 77.333 43 106s65 43 109 43s80.333 -14.333 109 -43s43 -64 43 -106
c0 -42.667 -14.5 -78.334 -43.5 -107.001s-65.167 -43 -108.5 -43z" />
    <glyph glyph-name="edotaccent" unicode="&#x117;" horiz-adv-x="1191" 
d="M76 508c0 155.333 49.667 283.502 149 384.502s226.333 151.5 381 151.5c148 0 269 -45 363 -135c92.667 -90.667 139 -207.334 139 -350.001c0 -34.667 -3.33301 -71.334 -10 -110.001h-772c8.66699 -83.333 38.334 -146.5 89.001 -189.5s115.667 -64.5 195 -64.5
c68 0 125.667 13.833 173 41.5s77.666 64.834 90.999 111.501l228 -41c-21.333 -100 -77.833 -179.5 -169.5 -238.5s-199.167 -88.5 -322.5 -88.5c-164 0 -294 49.167 -390 147.5s-144 225.166 -144 380.499zM608 840.002c-75.333 0 -136.501 -16.833 -183.501 -50.5
s-77.167 -82.5 -90.5 -146.5h532c-13.333 64 -42.166 112.833 -86.499 146.5s-101.5 50.5 -171.5 50.5zM589.999 1196c-44 0 -80.333 14.333 -109 43s-43 64.334 -43 107.001c0 42 14.333 77.333 43 106s65 43 109 43s80.167 -14.167 108.5 -42.5s42.5 -63.833 42.5 -106.5
s-14.333 -78.334 -43 -107.001s-64.667 -43 -108 -43z" />
    <glyph glyph-name="Eogonek" unicode="&#x118;" horiz-adv-x="1306" 
d="M934 0h-728.997v1536h1005v-240h-739v-374h514v-240h-514v-442h760v-240c-62.667 -18.667 -108.334 -42.667 -137.001 -72s-43 -61.333 -43 -96c0 -32 9.83301 -57.333 29.5 -76s47.167 -28 82.5 -28c25.333 0 50 4 74 12l41 -168
c-20.667 -13.333 -49.334 -23.833 -86.001 -31.5s-72.334 -11.5 -107.001 -11.5c-89.333 0 -156.333 23 -201 69s-67 105.667 -67 179c0 90 39 164.333 117 223z" />
    <glyph glyph-name="eogonek" unicode="&#x119;" horiz-adv-x="1191" 
d="M76 508c0 155.333 49.667 283.502 149 384.502s226.333 151.5 381 151.5c148 0 269 -45 363 -135c92.667 -90.667 139 -207.334 139 -350.001c0 -34.667 -3.33301 -71.334 -10 -110.001h-772c8.66699 -83.333 38.334 -146.5 89.001 -189.5s115.667 -64.5 195 -64.5
c68 0 125.667 13.833 173 41.5s77.666 64.834 90.999 111.501l228 -41c-17.333 -93.333 -70.666 -171 -159.999 -233c-48 -41.333 -80.5 -77 -97.5 -107s-25.5 -65.333 -25.5 -106c0 -41.333 13 -73.833 39 -97.5s59.333 -35.5 100 -35.5c26.667 0 52 4 76 12l41 -168
c-20.667 -13.333 -49.5 -23.833 -86.5 -31.5s-72.833 -11.5 -107.5 -11.5c-90 0 -160 23.5 -210 70.5s-75 108.167 -75 183.5c0 72.667 27.333 139.667 82 201c-30.667 -2.66699 -53.334 -4 -68.001 -4c-164 0 -294 49.167 -390 147.5s-144 225.166 -144 380.499z
M608 840.002c-75.333 0 -136.501 -16.833 -183.501 -50.5s-77.167 -82.5 -90.5 -146.5h532c-13.333 64 -42.166 112.833 -86.499 146.5s-101.5 50.5 -171.5 50.5z" />
    <glyph glyph-name="Ecaron" unicode="&#x11a;" horiz-adv-x="1306" 
d="M1231 0h-1026v1536h1005v-240h-739v-374h514v-240h-514v-442h760v-240zM727 1839l143 129h248l-260 -278h-268l-258 278h260z" />
    <glyph glyph-name="ecaron" unicode="&#x11b;" horiz-adv-x="1191" 
d="M76 508c0 155.333 49.667 283.502 149 384.502s226.333 151.5 381 151.5c148 0 269 -45 363 -135c92.667 -90.667 139 -207.334 139 -350.001c0 -34.667 -3.33301 -71.334 -10 -110.001h-772c8.66699 -83.333 38.334 -146.5 89.001 -189.5s115.667 -64.5 195 -64.5
c68 0 125.667 13.833 173 41.5s77.666 64.834 90.999 111.501l228 -41c-21.333 -100 -77.833 -179.5 -169.5 -238.5s-199.167 -88.5 -322.5 -88.5c-164 0 -294 49.167 -390 147.5s-144 225.166 -144 380.499zM608 840.002c-75.333 0 -136.501 -16.833 -183.501 -50.5
s-77.167 -82.5 -90.5 -146.5h532c-13.333 64 -42.166 112.833 -86.499 146.5s-101.5 50.5 -171.5 50.5zM591.999 1327l143 129h248l-260 -278h-268l-258 278h260z" />
    <glyph glyph-name="Gcircumflex" unicode="&#x11c;" horiz-adv-x="1697" 
d="M385 772c0 -163.333 44.999 -295.002 134.999 -395.002c91.333 -101.333 209.333 -152 354 -152c126.667 0 231.5 31.833 314.5 95.5s124.5 146.5 124.5 248.5h-584v236h860v-127c0 -210 -65.333 -378.833 -196 -506.5s-303.667 -191.5 -519 -191.5
c-145.333 0 -276.333 34 -393 102s-207.834 162.333 -273.501 283s-98.5 256.334 -98.5 407.001c0 111.333 19.333 215.666 58 312.999s91.834 180.5 159.501 249.5s149.167 123.167 244.5 162.5s197.333 59 306 59c171.333 0 319.333 -43 444 -129
c122.667 -85.333 203.334 -196.333 242.001 -333l-256 -74c-24 84.667 -74.833 154.334 -152.5 209.001s-170.167 82 -277.5 82c-146 0 -264.333 -49.333 -355 -148c-91.333 -99.333 -137 -229.666 -137 -390.999zM1266 1690h-254l-140 129l-139 -129h-254l258 278h269z" />
    <glyph glyph-name="gcircumflex" unicode="&#x11d;" horiz-adv-x="1284" 
d="M76 522c0 150 47.1689 274.5 141.502 373.5s212.166 148.5 353.499 148.5c129.333 0 236 -46.333 320 -139l14 119h225v-1008c0 -143.333 -46.333 -260.333 -139 -351s-218.334 -136 -377.001 -136c-146.667 0 -261.334 33.333 -344.001 100
c-86 68 -137 151.333 -153 250l250 47c12.667 -55.333 40 -97.833 82 -127.5s97.667 -44.5 167 -44.5c84.667 0 150.667 21.333 198 64s71 102.667 71 180v133c-85.333 -87.333 -190 -131 -314 -131c-141.333 0 -259.166 49.5 -353.499 148.5s-141.5 223.5 -141.5 373.5z
M332.002 522c0 -88.667 25.5 -160.334 76.5 -215.001s117.5 -82 199.5 -82s148.667 27.333 200 82s77 126.334 77 215.001s-25.667 160.334 -77 215.001s-118 82 -200 82s-148.5 -27.333 -199.5 -82s-76.5 -126.334 -76.5 -215.001zM1044 1178h-253l-140 129l-139 -129h-254
l258 278h268z" />
    <glyph glyph-name="Gbreve" unicode="&#x11e;" horiz-adv-x="1697" 
d="M385 772c0 -163.333 44.999 -295.002 134.999 -395.002c91.333 -101.333 209.333 -152 354 -152c126.667 0 231.5 31.833 314.5 95.5s124.5 146.5 124.5 248.5h-584v236h860v-127c0 -210 -65.333 -378.833 -196 -506.5s-303.667 -191.5 -519 -191.5
c-145.333 0 -276.333 34 -393 102s-207.834 162.333 -273.501 283s-98.5 256.334 -98.5 407.001c0 111.333 19.333 215.666 58 312.999s91.834 180.5 159.501 249.5s149.167 123.167 244.5 162.5s197.333 59 306 59c171.333 0 319.333 -43 444 -129
c122.667 -85.333 203.334 -196.333 242.001 -333l-256 -74c-24 84.667 -74.833 154.334 -152.5 209.001s-170.167 82 -277.5 82c-146 0 -264.333 -49.333 -355 -148c-91.333 -99.333 -137 -229.666 -137 -390.999zM869.999 1853c37.333 0 66.667 9.99902 88 29.999
s32.333 49 33 87h217c-0.666992 -90 -32.167 -162.667 -94.5 -218s-142.833 -83 -241.5 -83s-179 27.667 -241 83s-93.333 128 -94 218h217c0 -37.333 10.167 -66.166 30.5 -86.499s48.833 -30.5 85.5 -30.5z" />
    <glyph glyph-name="gbreve" unicode="&#x11f;" horiz-adv-x="1284" 
d="M76 522c0 150 47.1689 274.5 141.502 373.5s212.166 148.5 353.499 148.5c129.333 0 236 -46.333 320 -139l14 119h225v-1008c0 -143.333 -46.333 -260.333 -139 -351s-218.334 -136 -377.001 -136c-146.667 0 -261.334 33.333 -344.001 100
c-86 68 -137 151.333 -153 250l250 47c12.667 -55.333 40 -97.833 82 -127.5s97.667 -44.5 167 -44.5c84.667 0 150.667 21.333 198 64s71 102.667 71 180v133c-85.333 -87.333 -190 -131 -314 -131c-141.333 0 -259.166 49.5 -353.499 148.5s-141.5 223.5 -141.5 373.5z
M332.002 522c0 -88.667 25.5 -160.334 76.5 -215.001s117.5 -82 199.5 -82s148.667 27.333 200 82s77 126.334 77 215.001s-25.667 160.334 -77 215.001s-118 82 -200 82s-148.5 -27.333 -199.5 -82s-76.5 -126.334 -76.5 -215.001zM651.002 1341
c37.333 0 66.667 9.99902 88 29.999s32.333 49 33 87h217c-0.666992 -90 -32.167 -162.667 -94.5 -218s-142.833 -83 -241.5 -83s-179.167 27.667 -241.5 83s-93.833 128 -94.5 218h218c0 -37.333 10.167 -66.166 30.5 -86.499s48.833 -30.5 85.5 -30.5z" />
    <glyph glyph-name="Gdotaccent" unicode="&#x120;" horiz-adv-x="1697" 
d="M385 772c0 -163.333 44.999 -295.002 134.999 -395.002c91.333 -101.333 209.333 -152 354 -152c126.667 0 231.5 31.833 314.5 95.5s124.5 146.5 124.5 248.5h-584v236h860v-127c0 -210 -65.333 -378.833 -196 -506.5s-303.667 -191.5 -519 -191.5
c-145.333 0 -276.333 34 -393 102s-207.834 162.333 -273.501 283s-98.5 256.334 -98.5 407.001c0 111.333 19.333 215.666 58 312.999s91.834 180.5 159.501 249.5s149.167 123.167 244.5 162.5s197.333 59 306 59c171.333 0 319.333 -43 444 -129
c122.667 -85.333 203.334 -196.333 242.001 -333l-256 -74c-24 84.667 -74.833 154.334 -152.5 209.001s-170.167 82 -277.5 82c-146 0 -264.333 -49.333 -355 -148c-91.333 -99.333 -137 -229.666 -137 -390.999zM871.999 1708c-43.333 0 -79.333 14.333 -108 43
s-43 64.334 -43 107.001s14.167 78.167 42.5 106.5s64.5 42.5 108.5 42.5s80.333 -14.333 109 -43s43 -64 43 -106c0 -42.667 -14.333 -78.334 -43 -107.001s-65 -43 -109 -43z" />
    <glyph glyph-name="gdotaccent" unicode="&#x121;" horiz-adv-x="1284" 
d="M76 522c0 150 47.1689 274.5 141.502 373.5s212.166 148.5 353.499 148.5c129.333 0 236 -46.333 320 -139l14 119h225v-1008c0 -143.333 -46.333 -260.333 -139 -351s-218.334 -136 -377.001 -136c-146.667 0 -261.334 33.333 -344.001 100
c-86 68 -137 151.333 -153 250l250 47c12.667 -55.333 40 -97.833 82 -127.5s97.667 -44.5 167 -44.5c84.667 0 150.667 21.333 198 64s71 102.667 71 180v133c-85.333 -87.333 -190 -131 -314 -131c-141.333 0 -259.166 49.5 -353.499 148.5s-141.5 223.5 -141.5 373.5z
M332.002 522c0 -88.667 25.5 -160.334 76.5 -215.001s117.5 -82 199.5 -82s148.667 27.333 200 82s77 126.334 77 215.001s-25.667 160.334 -77 215.001s-118 82 -200 82s-148.5 -27.333 -199.5 -82s-76.5 -126.334 -76.5 -215.001zM643.002 1196
c-43.333 0 -79.333 14.333 -108 43s-43 64.334 -43 107.001s14.333 78.167 43 106.5s64.667 42.5 108 42.5c44 0 80.333 -14.333 109 -43s43 -64 43 -106c0 -42.667 -14.5 -78.334 -43.5 -107.001s-65.167 -43 -108.5 -43z" />
    <glyph glyph-name="uni0122" unicode="&#x122;" horiz-adv-x="1697" 
d="M385 772c0 -163.333 44.999 -295.002 134.999 -395.002c91.333 -101.333 209.333 -152 354 -152c126.667 0 231.5 31.833 314.5 95.5s124.5 146.5 124.5 248.5h-584v236h860v-127c0 -210 -65.333 -378.833 -196 -506.5s-303.667 -191.5 -519 -191.5
c-145.333 0 -276.333 34 -393 102s-207.834 162.333 -273.501 283s-98.5 256.334 -98.5 407.001c0 111.333 19.333 215.666 58 312.999s91.834 180.5 159.501 249.5s149.167 123.167 244.5 162.5s197.333 59 306 59c171.333 0 319.333 -43 444 -129
c122.667 -85.333 203.334 -196.333 242.001 -333l-256 -74c-24 84.667 -74.833 154.334 -152.5 209.001s-170.167 82 -277.5 82c-146 0 -264.333 -49.333 -355 -148c-91.333 -99.333 -137 -229.666 -137 -390.999zM628.999 -451.002l123 330h256l-205 -330h-174z" />
    <glyph glyph-name="uni0123" unicode="&#x123;" horiz-adv-x="1284" 
d="M76 522c0 150 47.1689 274.5 141.502 373.5s212.166 148.5 353.499 148.5c129.333 0 236 -46.333 320 -139l14 119h225v-1008c0 -143.333 -46.333 -260.333 -139 -351s-218.334 -136 -377.001 -136c-146.667 0 -261.334 33.333 -344.001 100
c-86 68 -137 151.333 -153 250l250 47c12.667 -55.333 40 -97.833 82 -127.5s97.667 -44.5 167 -44.5c84.667 0 150.667 21.333 198 64s71 102.667 71 180v133c-85.333 -87.333 -190 -131 -314 -131c-141.333 0 -259.166 49.5 -353.499 148.5s-141.5 223.5 -141.5 373.5z
M332.002 522c0 -88.667 25.5 -160.334 76.5 -215.001s117.5 -82 199.5 -82s148.667 27.333 200 82s77 126.334 77 215.001s-25.667 160.334 -77 215.001s-118 82 -200 82s-148.5 -27.333 -199.5 -82s-76.5 -126.334 -76.5 -215.001zM485.002 1149l205 330h174l-123 -330
h-256z" />
    <glyph glyph-name="Hcircumflex" unicode="&#x124;" horiz-adv-x="1699" 
d="M471 0h-266v1536h266v-602h758v602h266v-1536h-266v688h-758v-688zM1243 1690h-254l-139 129l-139 -129h-254l258 278h268z" />
    <glyph glyph-name="hcircumflex" unicode="&#x125;" horiz-adv-x="1228" 
d="M399 0l-245 0.000976562v1536h245v-612c80 80 179 120 297 120c114 0 209.5 -37.667 286.5 -113s115.5 -180.333 115.5 -315v-616h-246v580c0 75.333 -19.833 133.666 -59.5 174.999s-91.5 62 -155.5 62c-29.333 0 -57.5 -4 -84.5 -12s-52.333 -20.833 -76 -38.5
s-42.5 -42.5 -56.5 -74.5s-21 -69.333 -21 -112v-580zM940 1638h-254l-139 129l-139 -129h-254l258 279h268z" />
    <glyph glyph-name="Itilde" unicode="&#x128;" horiz-adv-x="675" 
d="M471 0h-266v1536h266v-1536zM475 1698c-22.667 0 -44.8311 5.33398 -66.498 16.001s-39.667 22.667 -54 36s-30.333 25.333 -48 36s-33.834 16 -48.501 16c-28 0 -48.333 -8.16699 -61 -24.5s-19 -42.833 -19 -79.5h-176c-4.66699 90.667 11.166 160 47.499 208
s86.833 72 151.5 72c28 0 56.833 -8.33301 86.5 -25s56.5 -33.334 80.5 -50.001s43.333 -25 58 -25c52 0 78 32 78 96h176c6.66699 -88 -8.83301 -156 -46.5 -204s-90.5 -72 -158.5 -72z" />
    <glyph glyph-name="itilde" unicode="&#x129;" 
d="M399 0h-245v1024h245v-1024zM414 1186c-22.667 0 -44.833 5.33398 -66.5 16.001s-39.667 22.667 -54 36s-30.333 25.333 -48 36s-33.834 16 -48.501 16c-28 0 -48.333 -8.16699 -61 -24.5s-19 -42.833 -19 -79.5h-176c-4.66699 90.667 11 160 47 208s86.333 72 151 72
c28 0 57 -8.33301 87 -25s57 -33.334 81 -50.001s43.333 -25 58 -25c51.333 0 77 32 77 96h176c6.66699 -88 -8.66602 -156 -45.999 -204s-90 -72 -158 -72z" />
    <glyph glyph-name="Imacron" unicode="&#x12a;" horiz-adv-x="675" 
d="M471 0h-266v1536h266v-1536zM29 1726v205h618v-205h-618z" />
    <glyph glyph-name="imacron" unicode="&#x12b;" 
d="M399 0h-245v1024h245v-1024zM-33 1214v205h619v-205h-619z" />
    <glyph glyph-name="Ibreve" unicode="&#x12c;" horiz-adv-x="675" 
d="M471 0h-266v1536h266v-1536zM336 1853c37.333 0 66.666 9.99902 87.999 29.999s32.333 49 33 87h217c-0.666992 -90 -32.167 -162.667 -94.5 -218s-142.833 -83 -241.5 -83s-179.167 27.667 -241.5 83s-93.833 128 -94.5 218h217c0 -37.333 10.333 -66.166 31 -86.499
s49.334 -30.5 86.001 -30.5z" />
    <glyph glyph-name="ibreve" unicode="&#x12d;" 
d="M399 0h-245v1024h245v-1024zM274 1341c37.333 0 66.667 9.99902 88 29.999s32.333 49 33 87h217c-0.666992 -90 -32.167 -162.667 -94.5 -218s-142.833 -83 -241.5 -83s-179 27.667 -241 83s-93.333 128 -94 218h217c0 -37.333 10.167 -66.166 30.5 -86.499
s48.833 -30.5 85.5 -30.5z" />
    <glyph glyph-name="Iogonek" unicode="&#x12e;" horiz-adv-x="675" 
d="M326 -471c-89.333 0 -156.499 23 -201.499 69s-67.5 105.667 -67.5 179c0 99.333 49.333 181.333 148 246v1513h266v-1536c-62.667 -18.667 -108.334 -42.667 -137.001 -72s-43 -61.333 -43 -96c0 -32 9.83301 -57.333 29.5 -76s47.167 -28 82.5 -28c25.333 0 50 4 74 12
l41 -168c-20.667 -13.333 -49.167 -23.833 -85.5 -31.5s-71.833 -11.5 -106.5 -11.5z" />
    <glyph glyph-name="iogonek" unicode="&#x12f;" 
d="M428 1346c0 -42.667 -14.333 -78.334 -43 -107.001s-65 -43 -109 -43c-43.333 0 -79.333 14.333 -108 43s-43 64.334 -43 107.001s14.167 78.167 42.5 106.5s64.5 42.5 108.5 42.5s80.333 -14.333 109 -43s43 -64 43 -106zM254 -471c-89.333 0 -156.332 23 -200.999 69
s-67 105.667 -67 179c0 106.667 56 192.667 168 258v989h245v-1024c-62.667 -18.667 -108.334 -42.667 -137.001 -72s-43 -61.333 -43 -96c0 -32 10 -57.333 30 -76s47.667 -28 83 -28c25.333 0 50 4 74 12l40 -168c-20.667 -13.333 -49.167 -23.833 -85.5 -31.5
s-71.833 -11.5 -106.5 -11.5z" />
    <glyph glyph-name="Idotaccent" unicode="&#x130;" horiz-adv-x="675" 
d="M471 0h-266v1536h266v-1536zM338 1708c-44 0 -80.333 14.333 -109 43s-43 64.334 -43 107.001c0 42 14.333 77.333 43 106s65 43 109 43s80.167 -14.167 108.5 -42.5s42.5 -63.833 42.5 -106.5s-14.333 -78.334 -43 -107.001s-64.667 -43 -108 -43z" />
    <glyph glyph-name="dotlessi" unicode="&#x131;" 
d="M399 0h-245v1024h245v-1024z" />
    <glyph glyph-name="uni0136" unicode="&#x136;" horiz-adv-x="1470" 
d="M633 686h-162v-686h-266v1536h266v-600h172l475 600h322l-580 -717l600 -819h-319zM532 -451l123 330h256l-204 -330h-175z" />
    <glyph glyph-name="uni0137" unicode="&#x137;" horiz-adv-x="1112" 
d="M496 688l295 336h288l-395 -446l416 -578h-293l-320 451h-88v-451h-245v1536h245v-848h97zM354 -451l123 330h256l-205 -330h-174z" />
    <glyph glyph-name="Lacute" unicode="&#x139;" horiz-adv-x="1226" 
d="M1169 0h-964v1536h266v-1290h698v-246zM209 1690l194 278h322l-287 -278h-229z" />
    <glyph glyph-name="lacute" unicode="&#x13a;" 
d="M399 0h-245v1536h245v-1536zM145 1638l195 279h322l-287 -279h-230z" />
    <glyph glyph-name="uni013B" unicode="&#x13b;" horiz-adv-x="1226" 
d="M1169 0h-964v1536h266v-1290h698v-246zM453 -451l122 330h256l-204 -330h-174z" />
    <glyph glyph-name="uni013C" unicode="&#x13c;" 
d="M399 0h-245v1536h245v-1536zM31 -451l123 330h256l-205 -330h-174z" />
    <glyph glyph-name="Nacute" unicode="&#x143;" horiz-adv-x="1701" 
d="M457 0h-252v1536h284l754 -1145v1145h254v-1536h-285l-755 1151v-1151zM711 1690l194 278h322l-287 -278h-229z" />
    <glyph glyph-name="nacute" unicode="&#x144;" horiz-adv-x="1228" 
d="M399 0l-245 0.000976562v1024h225l12 -109c81.333 86 183 129 305 129c114 0 209.5 -37.667 286.5 -113s115.5 -180.333 115.5 -315v-616h-246v580c0 75.333 -19.833 133.666 -59.5 174.999s-91.5 62 -155.5 62c-30 0 -58.167 -4 -84.5 -12s-51.5 -20.667 -75.5 -38
s-43 -42 -57 -74s-21 -69.667 -21 -113v-580zM449 1178l194 278h322l-287 -278h-229z" />
    <glyph glyph-name="uni0145" unicode="&#x145;" horiz-adv-x="1701" 
d="M457 0h-252v1536h284l754 -1145v1145h254v-1536h-285l-755 1151v-1151zM616 -451l123 330h256l-204 -330h-175z" />
    <glyph glyph-name="uni0146" unicode="&#x146;" horiz-adv-x="1228" 
d="M399 0l-245 0.000976562v1024h225l12 -109c81.333 86 183 129 305 129c114 0 209.5 -37.667 286.5 -113s115.5 -180.333 115.5 -315v-616h-246v580c0 75.333 -19.833 133.666 -59.5 174.999s-91.5 62 -155.5 62c-30 0 -58.167 -4 -84.5 -12s-51.5 -20.667 -75.5 -38
s-43 -42 -57 -74s-21 -69.667 -21 -113v-580zM367 -450.999l122 330h256l-204 -330h-174z" />
    <glyph glyph-name="Ncaron" unicode="&#x147;" horiz-adv-x="1701" 
d="M457 0h-252v1536h284l754 -1145v1145h254v-1536h-285l-755 1151v-1151zM885 1839l143 129h248l-260 -278h-268l-259 278h261z" />
    <glyph glyph-name="ncaron" unicode="&#x148;" horiz-adv-x="1228" 
d="M399 0l-245 0.000976562v1024h225l12 -109c81.333 86 183 129 305 129c114 0 209.5 -37.667 286.5 -113s115.5 -180.333 115.5 -315v-616h-246v580c0 75.333 -19.833 133.666 -59.5 174.999s-91.5 62 -155.5 62c-30 0 -58.167 -4 -84.5 -12s-51.5 -20.667 -75.5 -38
s-43 -42 -57 -74s-21 -69.667 -21 -113v-580zM637 1327l143 129h248l-260 -278h-268l-258 278h260z" />
    <glyph glyph-name="Omacron" unicode="&#x14c;" horiz-adv-x="1761" 
d="M109 768c0 150 32.667 285 98 405s156.833 213.833 274.5 281.5s250.834 101.5 399.501 101.5s281.834 -33.833 399.501 -101.5s209.167 -161.5 274.5 -281.5s98 -255 98 -405s-32.667 -285 -98 -405s-156.833 -213.833 -274.5 -281.5s-250.834 -101.5 -399.501 -101.5
s-281.834 33.833 -399.501 101.5s-209.167 161.5 -274.5 281.5s-98 255 -98 405zM1376 768c0 162 -45 293 -135 393c-92 100 -212 150 -360 150c-149.333 0 -269 -50 -359 -150c-91.333 -99.333 -137 -230.333 -137 -393s45.667 -293.667 137 -393
c90 -100 209.667 -150 359 -150c148 0 268 50 360 150c90 100 135 231 135 393zM571 1726v205h619v-205h-619z" />
    <glyph glyph-name="omacron" unicode="&#x14d;" horiz-adv-x="1236" 
d="M618 1044c156.667 0 286.334 -50.333 389.001 -151s154 -227.667 154 -381s-51.333 -280.333 -154 -381s-232.334 -151 -389.001 -151s-286.167 50.333 -388.5 151s-153.5 227.667 -153.5 381s51.167 280.333 153.5 381s231.833 151 388.5 151zM618 819
c-86 0 -155.167 -28.333 -207.5 -85s-78.5 -130.667 -78.5 -222s26.167 -165.333 78.5 -222s121.5 -85 207.5 -85s155.333 28.333 208 85s79 130.667 79 222s-26.333 165.333 -79 222s-122 85 -208 85zM307 1214v205h619v-205h-619z" />
    <glyph glyph-name="Obreve" unicode="&#x14e;" horiz-adv-x="1761" 
d="M109 768c0 150 32.667 285 98 405s156.833 213.833 274.5 281.5s250.834 101.5 399.501 101.5s281.834 -33.833 399.501 -101.5s209.167 -161.5 274.5 -281.5s98 -255 98 -405s-32.667 -285 -98 -405s-156.833 -213.833 -274.5 -281.5s-250.834 -101.5 -399.501 -101.5
s-281.834 33.833 -399.501 101.5s-209.167 161.5 -274.5 281.5s-98 255 -98 405zM1376 768c0 162 -45 293 -135 393c-92 100 -212 150 -360 150c-149.333 0 -269 -50 -359 -150c-91.333 -99.333 -137 -230.333 -137 -393s45.667 -293.667 137 -393
c90 -100 209.667 -150 359 -150c148 0 268 50 360 150c90 100 135 231 135 393zM879 1853c37.333 0 66.499 9.99902 87.499 29.999s31.833 49 32.5 87h218c-0.666992 -90 -32.167 -162.667 -94.5 -218s-142.833 -83 -241.5 -83s-179.167 27.667 -241.5 83
s-93.833 128 -94.5 218h217c0 -37.333 10.333 -66.166 31 -86.499s49.334 -30.5 86.001 -30.5z" />
    <glyph glyph-name="obreve" unicode="&#x14f;" horiz-adv-x="1236" 
d="M618 1044c156.667 0 286.334 -50.333 389.001 -151s154 -227.667 154 -381s-51.333 -280.333 -154 -381s-232.334 -151 -389.001 -151s-286.167 50.333 -388.5 151s-153.5 227.667 -153.5 381s51.167 280.333 153.5 381s231.833 151 388.5 151zM618 819
c-86 0 -155.167 -28.333 -207.5 -85s-78.5 -130.667 -78.5 -222s26.167 -165.333 78.5 -222s121.5 -85 207.5 -85s155.333 28.333 208 85s79 130.667 79 222s-26.333 165.333 -79 222s-122 85 -208 85zM614 1341c37.333 0 66.667 9.99902 88 29.999s32.333 49 33 87h217
c-0.666992 -90 -32.167 -162.667 -94.5 -218s-142.833 -83 -241.5 -83s-179 27.667 -241 83s-93.333 128 -94 218h217c0 -37.333 10.167 -66.166 30.5 -86.499s48.833 -30.5 85.5 -30.5z" />
    <glyph glyph-name="Ohungarumlaut" unicode="&#x150;" horiz-adv-x="1761" 
d="M109 768c0 150 32.667 285 98 405s156.833 213.833 274.5 281.5s250.834 101.5 399.501 101.5s281.834 -33.833 399.501 -101.5s209.167 -161.5 274.5 -281.5s98 -255 98 -405s-32.667 -285 -98 -405s-156.833 -213.833 -274.5 -281.5s-250.834 -101.5 -399.501 -101.5
s-281.834 33.833 -399.501 101.5s-209.167 161.5 -274.5 281.5s-98 255 -98 405zM1376 768c0 162 -45 293 -135 393c-92 100 -212 150 -360 150c-149.333 0 -269 -50 -359 -150c-91.333 -99.333 -137 -230.333 -137 -393s45.667 -293.667 137 -393
c90 -100 209.667 -150 359 -150c148 0 268 50 360 150c90 100 135 231 135 393zM1014 1968l-211 -278h-199l144 278h266zM1352 1968l-232 -278h-202l153 278h281z" />
    <glyph glyph-name="ohungarumlaut" unicode="&#x151;" horiz-adv-x="1236" 
d="M618 1044c156.667 0 286.334 -50.333 389.001 -151s154 -227.667 154 -381s-51.333 -280.333 -154 -381s-232.334 -151 -389.001 -151s-286.167 50.333 -388.5 151s-153.5 227.667 -153.5 381s51.167 280.333 153.5 381s231.833 151 388.5 151zM618 819
c-86 0 -155.167 -28.333 -207.5 -85s-78.5 -130.667 -78.5 -222s26.167 -165.333 78.5 -222s121.5 -85 207.5 -85s155.333 28.333 208 85s79 130.667 79 222s-26.333 165.333 -79 222s-122 85 -208 85zM752 1456l-211 -278h-199l143 278h267zM1090 1456l-232 -278h-203
l154 278h281z" />
    <glyph glyph-name="Racute" unicode="&#x154;" horiz-adv-x="1468" 
d="M471 0l-266 -0.000976562v1536h586c148 0 268.5 -42 361.5 -126s139.5 -193.667 139.5 -329c0 -101.333 -27 -187.166 -81 -257.499s-127.333 -119.5 -220 -147.5l436 -676h-305l-403 627h-248v-627zM788 1296h-317v-430h317c72 0 129.667 19.667 173 59
s65 91.333 65 156s-21.667 116.667 -65 156s-101 59 -173 59zM549 1690l194 278h322l-287 -278h-229z" />
    <glyph glyph-name="racute" unicode="&#x155;" horiz-adv-x="802" 
d="M399 0h-244.999v1024h231l14 -127c66.667 95.333 161 143 283 143c30 0 63.333 -4.66699 100 -14l-28 -240c-34.667 10 -70.334 15 -107.001 15c-71.333 0 -130.5 -23.667 -177.5 -71s-70.5 -112.333 -70.5 -195v-535zM276.001 1178l195 278h322l-287 -278h-230z" />
    <glyph glyph-name="uni0156" unicode="&#x156;" horiz-adv-x="1468" 
d="M471 0l-266 -0.000976562v1536h586c148 0 268.5 -42 361.5 -126s139.5 -193.667 139.5 -329c0 -101.333 -27 -187.166 -81 -257.499s-127.333 -119.5 -220 -147.5l436 -676h-305l-403 627h-248v-627zM788 1296h-317v-430h317c72 0 129.667 19.667 173 59
s65 91.333 65 156s-21.667 116.667 -65 156s-101 59 -173 59zM530 -451.001l123 330h256l-204 -330h-175z" />
    <glyph glyph-name="uni0157" unicode="&#x157;" horiz-adv-x="802" 
d="M399 0h-244.999v1024h231l14 -127c66.667 95.333 161 143 283 143c30 0 63.333 -4.66699 100 -14l-28 -240c-34.667 10 -70.334 15 -107.001 15c-71.333 0 -130.5 -23.667 -177.5 -71s-70.5 -112.333 -70.5 -195v-535zM29.001 -451l123 330h256l-205 -330h-174z" />
    <glyph glyph-name="Rcaron" unicode="&#x158;" horiz-adv-x="1468" 
d="M471 0l-266 -0.000976562v1536h586c148 0 268.5 -42 361.5 -126s139.5 -193.667 139.5 -329c0 -101.333 -27 -187.166 -81 -257.499s-127.333 -119.5 -220 -147.5l436 -676h-305l-403 627h-248v-627zM788 1296h-317v-430h317c72 0 129.667 19.667 173 59
s65 91.333 65 156s-21.667 116.667 -65 156s-101 59 -173 59zM737 1839l144 129h247l-260 -278h-268l-258 278h260z" />
    <glyph glyph-name="rcaron" unicode="&#x159;" horiz-adv-x="802" 
d="M399 0h-244.999v1024h231l14 -127c66.667 95.333 161 143 283 143c30 0 63.333 -4.66699 100 -14l-28 -240c-34.667 10 -70.334 15 -107.001 15c-71.333 0 -130.5 -23.667 -177.5 -71s-70.5 -112.333 -70.5 -195v-535zM457.001 1327l143 129h248l-260 -278h-269l-258 278
h261z" />
    <glyph glyph-name="Sacute" unicode="&#x15a;" horiz-adv-x="1392" 
d="M1245 1165l-256 -73.002c-12.667 68 -46.5 123.167 -101.5 165.5s-122.833 63.5 -203.5 63.5c-86.667 0 -154.334 -16.5 -203.001 -49.5s-73 -78.5 -73 -136.5c0 -19.333 3.16699 -37.166 9.5 -53.499s14.166 -30.5 23.499 -42.5s22.833 -23.667 40.5 -35
s34 -20.5 49 -27.5s35.5 -14.833 61.5 -23.5s48 -15.334 66 -20.001l73 -19l35 -9c42.667 -10.667 77.667 -19.834 105 -27.501s61 -18.667 101 -33s73 -29 99 -44s53.5 -34.333 82.5 -58s52 -49.334 69 -77.001s31.167 -60.834 42.5 -99.501s17 -80.667 17 -126
c0 -144.667 -54.333 -257.5 -163 -338.5s-253 -121.5 -433 -121.5c-90.667 0 -172.334 11.333 -245.001 34s-133.167 54 -181.5 94s-86.666 86.333 -114.999 139s-45.833 110.334 -52.5 173.001l260 74c14 -88 50.333 -155.833 109 -203.5s140 -71.5 244 -71.5
c88.667 0 161.334 17.333 218.001 52s85 86.334 85 155.001c0 23.333 -3.5 44.5 -10.5 63.5s-18.5 35.833 -34.5 50.5s-32.167 27.334 -48.5 38.001s-38.166 20.834 -65.499 30.501s-51.5 17.667 -72.5 24s-48.5 13.833 -82.5 22.5
c-133.333 31.333 -229.333 59.666 -288 84.999c-136 58 -220.333 143.667 -253 257c-10.667 38 -16 79.667 -16 125c0 90.667 25.5 169.334 76.5 236.001s118.167 116.334 201.5 149.001s177 49 281 49c144 0 265.5 -34.5 364.5 -103.5s160.5 -164.833 184.5 -287.5z
M510 1690l195 278h321l-287 -278h-229z" />
    <glyph glyph-name="sacute" unicode="&#x15b;" horiz-adv-x="1007" 
d="M506 -20c-128.667 0 -230.497 26.1729 -305.497 78.5059s-122.833 127.166 -143.5 224.499l244 49c9.33301 -50 32.5 -88.167 69.5 -114.5s86.167 -39.5 147.5 -39.5c56.667 0 100.5 10.5 131.5 31.5s46.5 51.5 46.5 91.5c0 44 -25 72 -75 84
c-62.667 12 -121.667 22.333 -177 31c-38.667 5.33301 -73 11.5 -103 18.5s-61.667 18.167 -95 33.5s-60.833 33.666 -82.5 54.999s-39.667 49.666 -54 84.999s-21.5 75.666 -21.5 120.999c0 90.667 38.333 165.667 115 225c77.333 60 177 90 299 90
c119.333 0 215.333 -25.333 288 -76s115.334 -118.667 128.001 -204l-230 -49c-8 39.333 -27.5 71.666 -58.5 96.999s-76.167 38 -135.5 38c-51.333 0 -90.833 -10 -118.5 -30s-41.5 -46.333 -41.5 -79c0 -42.667 24 -69 72 -79c49.333 -12.667 103.666 -23.667 162.999 -33
c30 -5.33301 55.167 -10 75.5 -14s44.666 -10.333 72.999 -19s52.166 -17.834 71.499 -27.501s39.5 -22.5 60.5 -38.5s37.833 -33.667 50.5 -53s23.167 -42.833 31.5 -70.5s12.5 -58.167 12.5 -91.5c0 -98 -38.333 -178.333 -115 -241s-184.334 -94 -323.001 -94z
M358.003 1178.01l195 278h321l-286 -278h-230z" />
    <glyph glyph-name="Scircumflex" unicode="&#x15c;" horiz-adv-x="1392" 
d="M1245 1165l-256 -73.002c-12.667 68 -46.5 123.167 -101.5 165.5s-122.833 63.5 -203.5 63.5c-86.667 0 -154.334 -16.5 -203.001 -49.5s-73 -78.5 -73 -136.5c0 -19.333 3.16699 -37.166 9.5 -53.499s14.166 -30.5 23.499 -42.5s22.833 -23.667 40.5 -35
s34 -20.5 49 -27.5s35.5 -14.833 61.5 -23.5s48 -15.334 66 -20.001l73 -19l35 -9c42.667 -10.667 77.667 -19.834 105 -27.501s61 -18.667 101 -33s73 -29 99 -44s53.5 -34.333 82.5 -58s52 -49.334 69 -77.001s31.167 -60.834 42.5 -99.501s17 -80.667 17 -126
c0 -144.667 -54.333 -257.5 -163 -338.5s-253 -121.5 -433 -121.5c-90.667 0 -172.334 11.333 -245.001 34s-133.167 54 -181.5 94s-86.666 86.333 -114.999 139s-45.833 110.334 -52.5 173.001l260 74c14 -88 50.333 -155.833 109 -203.5s140 -71.5 244 -71.5
c88.667 0 161.334 17.333 218.001 52s85 86.334 85 155.001c0 23.333 -3.5 44.5 -10.5 63.5s-18.5 35.833 -34.5 50.5s-32.167 27.334 -48.5 38.001s-38.166 20.834 -65.499 30.501s-51.5 17.667 -72.5 24s-48.5 13.833 -82.5 22.5
c-133.333 31.333 -229.333 59.666 -288 84.999c-136 58 -220.333 143.667 -253 257c-10.667 38 -16 79.667 -16 125c0 90.667 25.5 169.334 76.5 236.001s118.167 116.334 201.5 149.001s177 49 281 49c144 0 265.5 -34.5 364.5 -103.5s160.5 -164.833 184.5 -287.5z
M1100 1690h-254l-139 129l-140 -129h-254l258 278h269z" />
    <glyph glyph-name="scircumflex" unicode="&#x15d;" horiz-adv-x="1007" 
d="M506 -20c-128.667 0 -230.497 26.1729 -305.497 78.5059s-122.833 127.166 -143.5 224.499l244 49c9.33301 -50 32.5 -88.167 69.5 -114.5s86.167 -39.5 147.5 -39.5c56.667 0 100.5 10.5 131.5 31.5s46.5 51.5 46.5 91.5c0 44 -25 72 -75 84
c-62.667 12 -121.667 22.333 -177 31c-38.667 5.33301 -73 11.5 -103 18.5s-61.667 18.167 -95 33.5s-60.833 33.666 -82.5 54.999s-39.667 49.666 -54 84.999s-21.5 75.666 -21.5 120.999c0 90.667 38.333 165.667 115 225c77.333 60 177 90 299 90
c119.333 0 215.333 -25.333 288 -76s115.334 -118.667 128.001 -204l-230 -49c-8 39.333 -27.5 71.666 -58.5 96.999s-76.167 38 -135.5 38c-51.333 0 -90.833 -10 -118.5 -30s-41.5 -46.333 -41.5 -79c0 -42.667 24 -69 72 -79c49.333 -12.667 103.666 -23.667 162.999 -33
c30 -5.33301 55.167 -10 75.5 -14s44.666 -10.333 72.999 -19s52.166 -17.834 71.499 -27.501s39.5 -22.5 60.5 -38.5s37.833 -33.667 50.5 -53s23.167 -42.833 31.5 -70.5s12.5 -58.167 12.5 -91.5c0 -98 -38.333 -178.333 -115 -241s-184.334 -94 -323.001 -94z
M907.003 1178.01h-254l-139 129l-139 -129h-254l258 278h268z" />
    <glyph glyph-name="Scedilla" unicode="&#x15e;" horiz-adv-x="1392" 
d="M819 -12l-76 -336.002h-239l74 334c-145.333 16.667 -259.333 64.334 -342 143.001s-130.667 175.667 -144 291l260 74c14 -88 50.333 -155.833 109 -203.5s140 -71.5 244 -71.5c88.667 0 161.334 17.333 218.001 52s85 86.334 85 155.001c0 23.333 -3.5 44.5 -10.5 63.5
s-18.5 35.833 -34.5 50.5s-32.167 27.334 -48.5 38.001s-38.166 20.834 -65.499 30.501s-51.5 17.667 -72.5 24s-48.5 13.833 -82.5 22.5c-133.333 31.333 -229.333 59.666 -288 84.999c-136 58 -220.333 143.667 -253 257c-10.667 38 -16 79.667 -16 125
c0 90.667 25.5 169.334 76.5 236.001s118.167 116.334 201.5 149.001s177 49 281 49c144 0 265.5 -34.5 364.5 -103.5s160.5 -164.833 184.5 -287.5l-256 -73c-12.667 68 -46.5 123.167 -101.5 165.5s-122.833 63.5 -203.5 63.5c-86.667 0 -154.334 -16.5 -203.001 -49.5
s-73 -78.5 -73 -136.5c0 -19.333 3.16699 -37.166 9.5 -53.499s14.166 -30.5 23.499 -42.5s22.833 -23.667 40.5 -35s34 -20.5 49 -27.5s35.5 -14.833 61.5 -23.5s48 -15.334 66 -20.001l73 -19l35 -9c42.667 -10.667 77.667 -19.834 105 -27.501s61 -18.667 101 -33
s73 -29 99 -44s53.5 -34.333 82.5 -58s52 -49.334 69 -77.001s31.167 -60.834 42.5 -99.501s17 -80.667 17 -126c0 -125.333 -41.833 -227.5 -125.5 -306.5s-196.167 -127.5 -337.5 -145.5z" />
    <glyph glyph-name="scedilla" unicode="&#x15f;" horiz-adv-x="1007" 
d="M653 -6l-75 -341.995h-240l74 334c-199.333 22.667 -317.666 121.667 -354.999 297l244 49c9.33301 -50 32.5 -88.167 69.5 -114.5s86.167 -39.5 147.5 -39.5c56.667 0 100.5 10.5 131.5 31.5s46.5 51.5 46.5 91.5c0 44 -25 72 -75 84
c-62.667 12 -121.667 22.333 -177 31c-38.667 5.33301 -73 11.5 -103 18.5s-61.667 18.167 -95 33.5s-60.833 33.666 -82.5 54.999s-39.667 49.666 -54 84.999s-21.5 75.666 -21.5 120.999c0 90.667 38.333 165.667 115 225c77.333 60 177 90 299 90
c119.333 0 215.333 -25.333 288 -76s115.334 -118.667 128.001 -204l-230 -49c-8 39.333 -27.5 71.666 -58.5 96.999s-76.167 38 -135.5 38c-51.333 0 -90.833 -10 -118.5 -30s-41.5 -46.333 -41.5 -79c0 -42.667 24 -69 72 -79c49.333 -12.667 103.666 -23.667 162.999 -33
c30 -5.33301 55.167 -10 75.5 -14s44.666 -10.333 72.999 -19s52.166 -17.834 71.499 -27.501s39.5 -22.5 60.5 -38.5s37.833 -33.667 50.5 -53s23.167 -42.833 31.5 -70.5s12.5 -58.167 12.5 -91.5c0 -78.667 -25.167 -146.5 -75.5 -203.5
s-122.166 -96.167 -215.499 -117.5z" />
    <glyph glyph-name="Scaron" unicode="&#x160;" horiz-adv-x="1392" 
d="M1245 1165l-256 -73.002c-12.667 68 -46.5 123.167 -101.5 165.5s-122.833 63.5 -203.5 63.5c-86.667 0 -154.334 -16.5 -203.001 -49.5s-73 -78.5 -73 -136.5c0 -19.333 3.16699 -37.166 9.5 -53.499s14.166 -30.5 23.499 -42.5s22.833 -23.667 40.5 -35
s34 -20.5 49 -27.5s35.5 -14.833 61.5 -23.5s48 -15.334 66 -20.001l73 -19l35 -9c42.667 -10.667 77.667 -19.834 105 -27.501s61 -18.667 101 -33s73 -29 99 -44s53.5 -34.333 82.5 -58s52 -49.334 69 -77.001s31.167 -60.834 42.5 -99.501s17 -80.667 17 -126
c0 -144.667 -54.333 -257.5 -163 -338.5s-253 -121.5 -433 -121.5c-90.667 0 -172.334 11.333 -245.001 34s-133.167 54 -181.5 94s-86.666 86.333 -114.999 139s-45.833 110.334 -52.5 173.001l260 74c14 -88 50.333 -155.833 109 -203.5s140 -71.5 244 -71.5
c88.667 0 161.334 17.333 218.001 52s85 86.334 85 155.001c0 23.333 -3.5 44.5 -10.5 63.5s-18.5 35.833 -34.5 50.5s-32.167 27.334 -48.5 38.001s-38.166 20.834 -65.499 30.501s-51.5 17.667 -72.5 24s-48.5 13.833 -82.5 22.5
c-133.333 31.333 -229.333 59.666 -288 84.999c-136 58 -220.333 143.667 -253 257c-10.667 38 -16 79.667 -16 125c0 90.667 25.5 169.334 76.5 236.001s118.167 116.334 201.5 149.001s177 49 281 49c144 0 265.5 -34.5 364.5 -103.5s160.5 -164.833 184.5 -287.5z
M698 1839l144 129h248l-261 -278h-268l-258 278h260z" />
    <glyph glyph-name="scaron" unicode="&#x161;" horiz-adv-x="1007" 
d="M506 -20c-128.667 0 -230.497 26.1729 -305.497 78.5059s-122.833 127.166 -143.5 224.499l244 49c9.33301 -50 32.5 -88.167 69.5 -114.5s86.167 -39.5 147.5 -39.5c56.667 0 100.5 10.5 131.5 31.5s46.5 51.5 46.5 91.5c0 44 -25 72 -75 84
c-62.667 12 -121.667 22.333 -177 31c-38.667 5.33301 -73 11.5 -103 18.5s-61.667 18.167 -95 33.5s-60.833 33.666 -82.5 54.999s-39.667 49.666 -54 84.999s-21.5 75.666 -21.5 120.999c0 90.667 38.333 165.667 115 225c77.333 60 177 90 299 90
c119.333 0 215.333 -25.333 288 -76s115.334 -118.667 128.001 -204l-230 -49c-8 39.333 -27.5 71.666 -58.5 96.999s-76.167 38 -135.5 38c-51.333 0 -90.833 -10 -118.5 -30s-41.5 -46.333 -41.5 -79c0 -42.667 24 -69 72 -79c49.333 -12.667 103.666 -23.667 162.999 -33
c30 -5.33301 55.167 -10 75.5 -14s44.666 -10.333 72.999 -19s52.166 -17.834 71.499 -27.501s39.5 -22.5 60.5 -38.5s37.833 -33.667 50.5 -53s23.167 -42.833 31.5 -70.5s12.5 -58.167 12.5 -91.5c0 -98 -38.333 -178.333 -115 -241s-184.334 -94 -323.001 -94z
M516.003 1327.01l143 129h248l-260 -278h-268l-258 278h260z" />
    <glyph glyph-name="uni0162" unicode="&#x162;" horiz-adv-x="1290" 
d="M778 0h-266v1290h-451v246h1168v-246h-451v-1290zM387 -451l123 330h256l-205 -330h-174z" />
    <glyph glyph-name="uni0163" unicode="&#x163;" horiz-adv-x="837" 
d="M10 809v68l375 380h64v-233h358v-215h-358v-453c0 -52.667 12.167 -90.667 36.5 -114s60.5 -35 108.5 -35c39.333 0 87 11.667 143 35l56 -203c-83.333 -39.333 -167.333 -59 -252 -59c-105.333 0 -188 28.333 -248 85s-90 134.667 -90 234v510h-193zM195 -451l122 330
h256l-204 -330h-174z" />
    <glyph glyph-name="Utilde" unicode="&#x168;" horiz-adv-x="1576" 
d="M788 225c98 0 177.167 30.667 237.5 92s90.5 142 90.5 242v977h266v-971c0 -175.333 -55 -316.666 -165 -423.999s-253 -161 -429 -161s-318.833 53.667 -428.5 161s-164.5 248.666 -164.5 423.999v971h266v-977c0 -100 30 -180.667 90 -242s139 -92 237 -92zM926 1698
c-22.667 0 -44.833 5.33398 -66.5 16.001s-39.667 22.667 -54 36s-30.333 25.333 -48 36s-33.834 16 -48.501 16c-28 0 -48.333 -8.16699 -61 -24.5s-19 -42.833 -19 -79.5h-176c-4.66699 90.667 11 160 47 208s86.333 72 151 72c28 0 57 -8.33301 87 -25
s57 -33.334 81 -50.001s43.333 -25 58 -25c51.333 0 77 32 77 96h176c6.66699 -88 -8.66602 -156 -45.999 -204s-90 -72 -158 -72z" />
    <glyph glyph-name="utilde" unicode="&#x169;" horiz-adv-x="1202" 
d="M129 1024h245.999v-614c0 -66 18.167 -116.333 54.5 -151s87.833 -52 154.5 -52c28 0 54.167 4 78.5 12s47.5 20.333 69.5 37s39.333 40.667 52 72s19 68 19 110v586h246v-1024h-226l-10 113c-79.333 -88.667 -177.666 -133 -294.999 -133
c-112 0 -204.833 35.5 -278.5 106.5s-110.5 171.167 -110.5 300.5v637zM736.999 1186c-22.667 0 -44.8311 5.33398 -66.498 16.001s-39.667 22.667 -54 36s-30.333 25.333 -48 36s-33.834 16 -48.501 16c-28 0 -48.333 -8.16699 -61 -24.5s-19 -42.833 -19 -79.5h-176
c-4.66699 90.667 11.166 160 47.499 208s86.833 72 151.5 72c28 0 56.833 -8.33301 86.5 -25s56.5 -33.334 80.5 -50.001s43.333 -25 58 -25c52 0 78 32 78 96h176c6.66699 -88 -8.83301 -156 -46.5 -204s-90.5 -72 -158.5 -72z" />
    <glyph glyph-name="Umacron" unicode="&#x16a;" horiz-adv-x="1576" 
d="M788 225c98 0 177.167 30.667 237.5 92s90.5 142 90.5 242v977h266v-971c0 -175.333 -55 -316.666 -165 -423.999s-253 -161 -429 -161s-318.833 53.667 -428.5 161s-164.5 248.666 -164.5 423.999v971h266v-977c0 -100 30 -180.667 90 -242s139 -92 237 -92zM479 1726
v205h619v-205h-619z" />
    <glyph glyph-name="umacron" unicode="&#x16b;" horiz-adv-x="1202" 
d="M129 1024h245.999v-614c0 -66 18.167 -116.333 54.5 -151s87.833 -52 154.5 -52c28 0 54.167 4 78.5 12s47.5 20.333 69.5 37s39.333 40.667 52 72s19 68 19 110v586h246v-1024h-226l-10 113c-79.333 -88.667 -177.666 -133 -294.999 -133
c-112 0 -204.833 35.5 -278.5 106.5s-110.5 171.167 -110.5 300.5v637zM290.999 1214v205h618v-205h-618z" />
    <glyph glyph-name="Ubreve" unicode="&#x16c;" horiz-adv-x="1576" 
d="M788 225c98 0 177.167 30.667 237.5 92s90.5 142 90.5 242v977h266v-971c0 -175.333 -55 -316.666 -165 -423.999s-253 -161 -429 -161s-318.833 53.667 -428.5 161s-164.5 248.666 -164.5 423.999v971h266v-977c0 -100 30 -180.667 90 -242s139 -92 237 -92zM786 1853
c37.333 0 66.667 9.99902 88 29.999s32.333 49 33 87h217c-0.666992 -90 -32.167 -162.667 -94.5 -218s-142.833 -83 -241.5 -83s-179 27.667 -241 83s-93.333 128 -94 218h217c0 -37.333 10.167 -66.166 30.5 -86.499s48.833 -30.5 85.5 -30.5z" />
    <glyph glyph-name="ubreve" unicode="&#x16d;" horiz-adv-x="1202" 
d="M129 1024h245.999v-614c0 -66 18.167 -116.333 54.5 -151s87.833 -52 154.5 -52c28 0 54.167 4 78.5 12s47.5 20.333 69.5 37s39.333 40.667 52 72s19 68 19 110v586h246v-1024h-226l-10 113c-79.333 -88.667 -177.666 -133 -294.999 -133
c-112 0 -204.833 35.5 -278.5 106.5s-110.5 171.167 -110.5 300.5v637zM597.999 1341c37.333 0 66.666 9.99902 87.999 29.999s32.333 49 33 87h217c-0.666992 -90 -32.167 -162.667 -94.5 -218s-142.833 -83 -241.5 -83s-179.167 27.667 -241.5 83s-93.833 128 -94.5 218
h217c0 -37.333 10.333 -66.166 31 -86.499s49.334 -30.5 86.001 -30.5z" />
    <glyph glyph-name="Uring" unicode="&#x16e;" horiz-adv-x="1576" 
d="M788 225c98 0 177.167 30.667 237.5 92s90.5 142 90.5 242v977h266v-971c0 -175.333 -55 -316.666 -165 -423.999s-253 -161 -429 -161s-318.833 53.667 -428.5 161s-164.5 248.666 -164.5 423.999v971h266v-977c0 -100 30 -180.667 90 -242s139 -92 237 -92zM788 1890
c62.667 0 115.334 -18.667 158.001 -56s64 -84.666 64 -141.999c0 -58.667 -21.333 -107.834 -64 -147.501s-95.334 -59.5 -158.001 -59.5s-114.834 19.167 -156.501 57.5s-62.5 86.833 -62.5 145.5c0 58 20.833 106.167 62.5 144.5s93.834 57.5 156.501 57.5zM696 1688
c0 -27.333 8.5 -49.667 25.5 -67s39.167 -26 66.5 -26s49.666 8.66699 66.999 26s26 40.333 26 69c0 26 -8.66699 47.5 -26 64.5s-39.666 25.5 -66.999 25.5s-49.5 -8.5 -66.5 -25.5s-25.5 -39.167 -25.5 -66.5z" />
    <glyph glyph-name="uring" unicode="&#x16f;" horiz-adv-x="1202" 
d="M129 1024h245.999v-614c0 -66 18.167 -116.333 54.5 -151s87.833 -52 154.5 -52c28 0 54.167 4 78.5 12s47.5 20.333 69.5 37s39.333 40.667 52 72s19 68 19 110v586h246v-1024h-226l-10 113c-79.333 -88.667 -177.666 -133 -294.999 -133
c-112 0 -204.833 35.5 -278.5 106.5s-110.5 171.167 -110.5 300.5v637zM587.999 1556c62.667 0 115.167 -18.667 157.5 -56s63.5 -84.666 63.5 -141.999c0 -58.667 -21.167 -107.834 -63.5 -147.501s-94.833 -59.5 -157.5 -59.5s-114.834 19.167 -156.501 57.5
s-62.5 86.833 -62.5 145.5c0 58 20.833 106.167 62.5 144.5s93.834 57.5 156.501 57.5zM495.999 1354c0 -27.333 8.5 -49.5 25.5 -66.5s39.167 -25.5 66.5 -25.5s49.5 8.5 66.5 25.5s25.5 39.833 25.5 68.5c0 26 -8.5 47.5 -25.5 64.5s-39.167 25.5 -66.5 25.5
s-49.5 -8.5 -66.5 -25.5s-25.5 -39.167 -25.5 -66.5z" />
    <glyph glyph-name="Uhungarumlaut" unicode="&#x170;" horiz-adv-x="1576" 
d="M788 225c98 0 177.167 30.667 237.5 92s90.5 142 90.5 242v977h266v-971c0 -175.333 -55 -316.666 -165 -423.999s-253 -161 -429 -161s-318.833 53.667 -428.5 161s-164.5 248.666 -164.5 423.999v971h266v-977c0 -100 30 -180.667 90 -242s139 -92 237 -92zM924 1968
l-211 -278h-199l143 278h267zM1262 1968l-232 -278h-203l154 278h281z" />
    <glyph glyph-name="uhungarumlaut" unicode="&#x171;" horiz-adv-x="1202" 
d="M129 1024h245.999v-614c0 -66 18.167 -116.333 54.5 -151s87.833 -52 154.5 -52c28 0 54.167 4 78.5 12s47.5 20.333 69.5 37s39.333 40.667 52 72s19 68 19 110v586h246v-1024h-226l-10 113c-79.333 -88.667 -177.666 -133 -294.999 -133
c-112 0 -204.833 35.5 -278.5 106.5s-110.5 171.167 -110.5 300.5v637zM734.999 1456l-211 -278h-198l143 278h266zM1073 1456l-231 -278h-203l154 278h280z" />
    <glyph glyph-name="Uogonek" unicode="&#x172;" horiz-adv-x="1576" 
d="M788 225c98 0 177.169 30.668 237.502 92.001s90.5 142 90.5 242v977h266v-971c0 -104.667 -21.167 -199 -63.5 -283s-100.833 -151.333 -175.5 -202c-58.667 -48.667 -97.334 -91.167 -116.001 -127.5s-28 -72.5 -28 -108.5s11.667 -64.333 35 -85s53.333 -31 90 -31
c29.333 0 56 4 80 12l41 -168c-20.667 -13.333 -49.167 -23.833 -85.5 -31.5s-71.833 -11.5 -106.5 -11.5c-90.667 0 -160.834 23.667 -210.501 71s-74.5 109 -74.5 185c0 65.333 19.667 131 59 197c-6.66699 -1.33301 -19.667 -2 -39 -2c-176 0 -318.833 53.667 -428.5 161
s-164.5 248.666 -164.5 423.999v971h266v-977c0 -100 30 -180.667 90 -242s139 -92 237 -92z" />
    <glyph glyph-name="uogonek" unicode="&#x173;" horiz-adv-x="1202" 
d="M901 -471c-89.333 0 -156.332 23 -200.999 69s-67 105.667 -67 179c0 112.667 62 201.334 186 266.001l-6 70c-79.333 -88.667 -177.666 -133 -294.999 -133c-112 0 -204.833 35.5 -278.5 106.5s-110.5 171.167 -110.5 300.5v637h246v-614
c0 -66 18.167 -116.333 54.5 -151s87.833 -52 154.5 -52c28 0 54.167 4 78.5 12s47.5 20.333 69.5 37s39.333 40.667 52 72s19 68 19 110v586h246v-1024h-2c-62.667 -18.667 -108.5 -42.834 -137.5 -72.501s-43.5 -61.5 -43.5 -95.5c0 -32 10 -57.333 30 -76
s47.667 -28 83 -28c25.333 0 50 4 74 12l41 -168c-20.667 -13.333 -49.334 -23.833 -86.001 -31.5s-72.334 -11.5 -107.001 -11.5z" />
    <glyph glyph-name="Wcircumflex" unicode="&#x174;" horiz-adv-x="1873" 
d="M559 346l348 672h56l356 -674l237 1192h267l-307 -1536h-281l-301 571l-295 -571h-281l-307 1536h268zM1329 1690h-254l-139 129l-139 -129h-254l258 278h268z" />
    <glyph glyph-name="wcircumflex" unicode="&#x175;" horiz-adv-x="1366" 
d="M242 0l-211 1024h245l148 -733l242 473h43l241 -475l148 735h237l-211 -1024h-256l-182 362l-188 -362h-256zM1075 1178h-254l-139 129l-139 -129h-254l258 278h268z" />
    <glyph glyph-name="Ycircumflex" unicode="&#x176;" horiz-adv-x="1427" 
d="M848 0h-266v662l-553 874h309l381 -618l383 618h297l-551 -872v-664zM1108 1690h-254l-139 129l-140 -129h-253l258 278h268z" />
    <glyph glyph-name="ycircumflex" unicode="&#x177;" horiz-adv-x="1101" 
d="M446 0l-436 1024h273l292 -707l261 707h256l-566 -1475h-252zM944 1178h-254l-139 129l-139 -129h-254l258 278h268z" />
    <glyph glyph-name="Ydieresis" unicode="&#x178;" horiz-adv-x="1427" 
d="M848 0h-266v662l-553 874h309l381 -618l383 618h297l-551 -872v-664zM514 1720c-41.333 0 -75.5 13.5 -102.5 40.5s-40.5 60.833 -40.5 101.5s13.5 74.334 40.5 101.001s61.167 40 102.5 40c40 0 73.5 -13.333 100.5 -40s40.5 -60.334 40.5 -101.001
s-13.5 -74.5 -40.5 -101.5s-60.5 -40.5 -100.5 -40.5zM918 1720c-41.333 0 -75.666 13.5 -102.999 40.5s-41 60.833 -41 101.5s13.667 74.334 41 101.001s61.666 40 102.999 40c40 0 73.5 -13.333 100.5 -40s40.5 -60.334 40.5 -101.001s-13.5 -74.5 -40.5 -101.5
s-60.5 -40.5 -100.5 -40.5z" />
    <glyph glyph-name="Zacute" unicode="&#x179;" horiz-adv-x="1374" 
d="M111 1290v246h1200v-51l-822 -1239h775v-246h-1201v51l820 1239h-772zM500 1690l194 278h322l-287 -278h-229z" />
    <glyph glyph-name="zacute" unicode="&#x17a;" horiz-adv-x="935" 
d="M520 809h-463v215h830v-68l-488 -741h488v-215h-840v68zM303 1178l195 278h321l-287 -278h-229z" />
    <glyph glyph-name="Zdotaccent" unicode="&#x17b;" horiz-adv-x="1374" 
d="M111 1290v246h1200v-51l-822 -1239h775v-246h-1201v51l820 1239h-772zM686 1708c-43.333 0 -79.333 14.333 -108 43s-43 64.334 -43 107.001s14.167 78.167 42.5 106.5s64.5 42.5 108.5 42.5s80.333 -14.333 109 -43s43 -64 43 -106
c0 -42.667 -14.333 -78.334 -43 -107.001s-65 -43 -109 -43z" />
    <glyph glyph-name="zdotaccent" unicode="&#x17c;" horiz-adv-x="935" 
d="M520 809h-463v215h830v-68l-488 -741h488v-215h-840v68zM489 1196c-43.333 0 -79.333 14.333 -108 43s-43 64.334 -43 107.001s14.333 78.167 43 106.5s64.667 42.5 108 42.5c44 0 80.333 -14.333 109 -43s43 -64 43 -106c0 -42.667 -14.5 -78.334 -43.5 -107.001
s-65.167 -43 -108.5 -43z" />
    <glyph glyph-name="Zcaron" unicode="&#x17d;" horiz-adv-x="1374" 
d="M111 1290v246h1200v-51l-822 -1239h775v-246h-1201v51l820 1239h-772zM688 1839l143 129h248l-260 -278h-268l-258 278h260z" />
    <glyph glyph-name="zcaron" unicode="&#x17e;" horiz-adv-x="935" 
d="M520 809h-463v215h830v-68l-488 -741h488v-215h-840v68zM492 1327l143 129h248l-260 -278h-269l-258 278h260z" />
    <glyph glyph-name="uni0218" unicode="&#x218;" horiz-adv-x="1392" 
d="M1245 1165l-256 -73.002c-12.667 68 -46.5 123.167 -101.5 165.5s-122.833 63.5 -203.5 63.5c-86.667 0 -154.334 -16.5 -203.001 -49.5s-73 -78.5 -73 -136.5c0 -19.333 3.16699 -37.166 9.5 -53.499s14.166 -30.5 23.499 -42.5s22.833 -23.667 40.5 -35
s34 -20.5 49 -27.5s35.5 -14.833 61.5 -23.5s48 -15.334 66 -20.001l73 -19l35 -9c42.667 -10.667 77.667 -19.834 105 -27.501s61 -18.667 101 -33s73 -29 99 -44s53.5 -34.333 82.5 -58s52 -49.334 69 -77.001s31.167 -60.834 42.5 -99.501s17 -80.667 17 -126
c0 -144.667 -54.333 -257.5 -163 -338.5s-253 -121.5 -433 -121.5c-90.667 0 -172.334 11.333 -245.001 34s-133.167 54 -181.5 94s-86.666 86.333 -114.999 139s-45.833 110.334 -52.5 173.001l260 74c14 -88 50.333 -155.833 109 -203.5s140 -71.5 244 -71.5
c88.667 0 161.334 17.333 218.001 52s85 86.334 85 155.001c0 23.333 -3.5 44.5 -10.5 63.5s-18.5 35.833 -34.5 50.5s-32.167 27.334 -48.5 38.001s-38.166 20.834 -65.499 30.501s-51.5 17.667 -72.5 24s-48.5 13.833 -82.5 22.5
c-133.333 31.333 -229.333 59.666 -288 84.999c-136 58 -220.333 143.667 -253 257c-10.667 38 -16 79.667 -16 125c0 90.667 25.5 169.334 76.5 236.001s118.167 116.334 201.5 149.001s177 49 281 49c144 0 265.5 -34.5 364.5 -103.5s160.5 -164.833 184.5 -287.5z
M494 -451.002l122 330h256l-204 -330h-174z" />
    <glyph glyph-name="uni0219" unicode="&#x219;" horiz-adv-x="1007" 
d="M506 -20c-128.667 0 -230.497 26.1729 -305.497 78.5059s-122.833 127.166 -143.5 224.499l244 49c9.33301 -50 32.5 -88.167 69.5 -114.5s86.167 -39.5 147.5 -39.5c56.667 0 100.5 10.5 131.5 31.5s46.5 51.5 46.5 91.5c0 44 -25 72 -75 84
c-62.667 12 -121.667 22.333 -177 31c-38.667 5.33301 -73 11.5 -103 18.5s-61.667 18.167 -95 33.5s-60.833 33.666 -82.5 54.999s-39.667 49.666 -54 84.999s-21.5 75.666 -21.5 120.999c0 90.667 38.333 165.667 115 225c77.333 60 177 90 299 90
c119.333 0 215.333 -25.333 288 -76s115.334 -118.667 128.001 -204l-230 -49c-8 39.333 -27.5 71.666 -58.5 96.999s-76.167 38 -135.5 38c-51.333 0 -90.833 -10 -118.5 -30s-41.5 -46.333 -41.5 -79c0 -42.667 24 -69 72 -79c49.333 -12.667 103.666 -23.667 162.999 -33
c30 -5.33301 55.167 -10 75.5 -14s44.666 -10.333 72.999 -19s52.166 -17.834 71.499 -27.501s39.5 -22.5 60.5 -38.5s37.833 -33.667 50.5 -53s23.167 -42.833 31.5 -70.5s12.5 -58.167 12.5 -91.5c0 -98 -38.333 -178.333 -115 -241s-184.334 -94 -323.001 -94z
M266.003 -450.994l123 330h256l-205 -330h-174z" />
    <glyph glyph-name="uni0401" unicode="&#x401;" horiz-adv-x="1306" 
d="M1231 0h-1026v1536h1005v-240h-739v-374h514v-240h-514v-442h760v-240zM524 1720c-41.333 0 -75.5 13.5 -102.5 40.5s-40.5 60.833 -40.5 101.5s13.5 74.334 40.5 101.001s61.167 40 102.5 40c40 0 73.667 -13.333 101 -40s41 -60.334 41 -101.001
s-13.667 -74.5 -41 -101.5s-61 -40.5 -101 -40.5zM928 1720c-41.333 0 -75.666 13.5 -102.999 40.5s-41 60.833 -41 101.5s13.667 74.334 41 101.001s61.666 40 102.999 40c40 0 73.5 -13.333 100.5 -40s40.5 -60.334 40.5 -101.001s-13.5 -74.5 -40.5 -101.5
s-60.5 -40.5 -100.5 -40.5z" />
    <glyph glyph-name="uni0403" unicode="&#x403;" horiz-adv-x="1210" 
d="M471 0h-266v1536h964v-246h-698v-1290zM530 1690l195 278h322l-287 -278h-230z" />
    <glyph glyph-name="uni040E" unicode="&#x40e;" horiz-adv-x="1351" 
d="M705 1800c42 0 76.499 12.667 103.499 38s40.833 59 41.5 101h248c-2 -112.667 -40.333 -200 -115 -262c-75.333 -62.667 -168 -94 -278 -94c-110.667 0 -203.667 31.333 -279 94c-74.667 62 -113 149.333 -115 262h250c0 -41.333 13.333 -74.833 40 -100.5
s61.334 -38.5 104.001 -38.5zM663.999 0h-275l178 395l-557 1141h291l404 -842l380 842h277z" />
    <glyph glyph-name="uni0410" unicode="&#x410;" horiz-adv-x="1525" 
d="M301 0h-270l587 1536h289l588 -1536h-283l-176 475h-559zM758 1231l-195 -522h387z" />
    <glyph glyph-name="uni0411" unicode="&#x411;" horiz-adv-x="1417" 
d="M834 0l-629 0.000976562v1536h1014v-246h-748v-344h363c152 0 275.333 -42.333 370 -127c94.667 -86.667 142 -201.334 142 -344.001c0 -144 -47.333 -259.333 -142 -346c-94 -86 -217.333 -129 -370 -129zM827 707.001h-356v-467h356
c74.667 0 134.334 20.667 179.001 62s67 99 67 173c0 73.333 -22.333 130.333 -67 171s-104.334 61 -179.001 61z" />
    <glyph glyph-name="uni0412" unicode="&#x412;" horiz-adv-x="1435" 
d="M864 0h-659v1536h624c132 0 239.333 -36.333 322 -109c80.667 -72.667 121 -168.667 121 -288c0 -143.333 -63.667 -252 -191 -326c86 -32.667 151.167 -80.5 195.5 -143.5s66.5 -138.167 66.5 -225.5c0 -136 -43.667 -243.667 -131 -323
c-88.667 -80.667 -204.667 -121 -348 -121zM809 1309h-338v-402h338c62 0 111.667 18.667 149 56s56 87 56 149c0 58.667 -18.833 106.167 -56.5 142.5s-87.167 54.5 -148.5 54.5zM858 672l-387.001 -0.000976562v-445h387c66 0 119 19.667 159 59s60 92 60 158
c0 68.667 -20.167 123.834 -60.5 165.501s-93.166 62.5 -158.499 62.5z" />
    <glyph glyph-name="uni0413" unicode="&#x413;" horiz-adv-x="1210" 
d="M471 0h-266v1536h964v-246h-698v-1290z" />
    <glyph glyph-name="uni0414" unicode="&#x414;" horiz-adv-x="1611" 
d="M268 -369h-258.001v615h125c70.667 58 117.834 152 141.501 282s37.167 341.667 40.5 635l5 373h1044v-1290h184v-615h-258v369h-1024v-369zM577.999 1290l-3 -180.001c-3.33301 -233.333 -16.833 -418.166 -40.5 -554.499s-61.167 -239.5 -112.5 -309.5h682v1044h-526z
" />
    <glyph glyph-name="uni0415" unicode="&#x415;" horiz-adv-x="1306" 
d="M1231 0h-1026v1536h1005v-240h-739v-374h514v-240h-514v-442h760v-240z" />
    <glyph glyph-name="uni0416" unicode="&#x416;" horiz-adv-x="2043" 
d="M893 1536h258v-600h178l373 600h303l-465 -723l485 -813h-305l-401 686h-168v-686h-258v686h-168l-406 -686h-301l486 807l-465 729h303l373 -600h178v600z" />
    <glyph glyph-name="uni0417" unicode="&#x417;" horiz-adv-x="1386" 
d="M668 -20c-78.667 0 -151.834 8.83691 -219.501 26.5039s-129.167 44.334 -184.5 80.001s-101.333 83.167 -138 142.5s-60.334 127.666 -71.001 204.999l258 68c24.667 -187.333 144.334 -281 359.001 -281c105.333 0 188 21.167 248 63.5s90 100.5 90 174.5
c0 65.333 -22.167 116.166 -66.5 152.499s-106.833 54.5 -187.5 54.5h-226v239h220c70 0 124.667 17.667 164 53s59 86.666 59 153.999c0 64 -25.5 114.833 -76.5 152.5s-125.167 56.5 -222.5 56.5c-95.333 0 -171.666 -20.167 -228.999 -60.5
s-93.666 -99.5 -108.999 -177.5l-252 58c25.333 127.333 91.333 228.333 198 303s238 112 394 112c176 0 313 -39.333 411 -118c100 -80 150 -181.667 150 -305c0 -150.667 -64.333 -261.334 -193 -332.001c73.333 -28 129.666 -73.333 168.999 -136s59 -134 59 -214
c0 -142.667 -55.5 -256.834 -166.5 -342.501s-256.833 -128.5 -437.5 -128.5z" />
    <glyph glyph-name="uni0418" unicode="&#x418;" horiz-adv-x="1687" 
d="M444 0h-239v1536h256v-1130l782 1130h240v-1536h-256v1130z" />
    <glyph glyph-name="uni0419" unicode="&#x419;" horiz-adv-x="1687" 
d="M864 1800c42 0 76.667 12.666 104 37.999s41.333 59 42 101h247c-2 -113.333 -40 -200.666 -114 -261.999c-75.333 -62.667 -168.333 -94 -279 -94c-110 0 -202.667 31.333 -278 94c-74.667 62 -113 149.333 -115 262h250c0 -42 13.333 -75.667 40 -101s61 -38 103 -38z
M444 -0.000976562h-239v1536h256v-1130l782 1130h240v-1536h-256v1130z" />
    <glyph glyph-name="uni041A" unicode="&#x41a;" horiz-adv-x="1470" 
d="M633 686h-162v-686h-266v1536h266v-600h172l475 600h322l-580 -717l600 -819h-319z" />
    <glyph glyph-name="uni041B" unicode="&#x41b;" horiz-adv-x="1595" 
d="M10 14l41.002 226.001c22 -7.33301 42.667 -11 62 -11c26.667 0 48.5 3.16699 65.5 9.5s33.667 20.833 50 43.5s29.166 54 38.499 94s18.333 95.667 27 167s15.667 156.166 21 254.499s10.333 220.166 15 365.499l12 373h1049v-1536h-267v1290h-528l-6 -182
c-5.33301 -155.333 -12.333 -288.166 -21 -398.499s-20.5 -208.833 -35.5 -295.5s-32.333 -156.667 -52 -210s-44.667 -97.333 -75 -132s-63.833 -58.667 -100.5 -72s-80.667 -20 -132 -20c-66.667 0 -121.334 11.333 -164.001 34z" />
    <glyph glyph-name="uni041C" unicode="&#x41c;" horiz-adv-x="1908" 
d="M461 0h-256v1536h282l474 -616l460 616h283v-1536h-256v1174l-467 -613h-53l-467 604v-1165z" />
    <glyph glyph-name="uni041D" unicode="&#x41d;" horiz-adv-x="1699" 
d="M471 0h-266v1536h266v-602h758v602h266v-1536h-266v688h-758v-688z" />
    <glyph glyph-name="uni041E" unicode="&#x41e;" horiz-adv-x="1761" 
d="M109 768c0 150 32.667 285 98 405s156.833 213.833 274.5 281.5s250.834 101.5 399.501 101.5s281.834 -33.833 399.501 -101.5s209.167 -161.5 274.5 -281.5s98 -255 98 -405s-32.667 -285 -98 -405s-156.833 -213.833 -274.5 -281.5s-250.834 -101.5 -399.501 -101.5
s-281.834 33.833 -399.501 101.5s-209.167 161.5 -274.5 281.5s-98 255 -98 405zM1376 768c0 162 -45 293 -135 393c-92 100 -212 150 -360 150c-149.333 0 -269 -50 -359 -150c-91.333 -99.333 -137 -230.333 -137 -393s45.667 -293.667 137 -393
c90 -100 209.667 -150 359 -150c148 0 268 50 360 150c90 100 135 231 135 393z" />
    <glyph glyph-name="uni041F" unicode="&#x41f;" horiz-adv-x="1671" 
d="M471 0h-266v1536h1261v-1536h-266v1290h-729v-1290z" />
    <glyph glyph-name="uni0420" unicode="&#x420;" horiz-adv-x="1415" 
d="M471 0l-266 -0.000976562v1536h592c156 0 282.667 -45.333 380 -136s146 -207 146 -349c0 -139.333 -49 -255.166 -147 -347.499s-224.333 -138.5 -379 -138.5h-326v-565zM797 1296h-326v-491h326c78.667 0 141.667 22.5 189 67.5s71 104.5 71 178.5
c0 74.667 -23.5 134.167 -70.5 178.5s-110.167 66.5 -189.5 66.5z" />
    <glyph glyph-name="uni0421" unicode="&#x421;" horiz-adv-x="1650" 
d="M385 768c0 -73.333 10.5 -142.334 31.5 -207.001s51.167 -122.167 90.5 -172.5s89.833 -90.166 151.5 -119.499s130.834 -44 207.501 -44c118 0 215 33 291 99c75.333 62.667 124.666 140.334 147.999 233.001l256 -74c-36 -151.333 -118 -273 -246 -365
s-279 -138 -453 -138c-117.333 0 -224 20.5 -320 61.5s-175.333 97.167 -238 168.5s-110.834 154.666 -144.501 249.999s-50.5 198 -50.5 308c0 108.667 17.333 210.667 52 306s83.834 178.833 147.501 250.5s144.167 128.167 241.5 169.5s205.333 62 324 62
c178.667 0 327 -45.667 445 -137c116 -91.333 191.667 -210.666 227 -357.999l-256 -74c-21.333 95.333 -69 173.166 -143 233.499s-167.667 90.5 -281 90.5c-74.667 0 -142.667 -14.833 -204 -44.5s-112 -69.5 -152 -119.5s-70.833 -107.667 -92.5 -173
s-32.5 -134 -32.5 -206z" />
    <glyph glyph-name="uni0422" unicode="&#x422;" horiz-adv-x="1290" 
d="M778 0h-266v1290h-451v246h1168v-246h-451v-1290z" />
    <glyph glyph-name="uni0423" unicode="&#x423;" horiz-adv-x="1372" 
d="M664 0h-275l178 395l-557 1141h291l404 -842l380 842h277z" />
    <glyph glyph-name="uni0424" unicode="&#x424;" horiz-adv-x="1822" 
d="M1044 -41l-265.999 -0.00195312v188c-134 0 -254.167 26.667 -360.5 80s-189.5 128.5 -249.5 225.5s-90 207.5 -90 331.5c0 94 17.667 180.833 53 260.5s84 147 146 202s136.167 97.833 222.5 128.5s179.166 46 278.499 46v156h266v-156c134.667 -2 255 -29.333 361 -82
s189.167 -127.167 249.5 -223.5s90.5 -206.833 90.5 -331.5c0 -125.333 -30.5 -236.666 -91.5 -333.999s-144.5 -172.166 -250.5 -224.499s-225.667 -78.5 -359 -78.5v-188zM344.001 783.998c0 -118 40.333 -213.333 121 -286c80 -74 184.333 -111 313 -111v797
c-128.667 0 -233 -37 -313 -111c-80.667 -74.667 -121 -171 -121 -289zM1479 783.998c0 119.333 -39.667 215.668 -119 289.001c-80 74 -185.333 111 -316 111v-797c130.667 0 236 37 316 111c79.333 71.333 119 166.666 119 285.999z" />
    <glyph glyph-name="uni0425" unicode="&#x425;" horiz-adv-x="1423" 
d="M41 1536h309l365 -541l346 541h297l-498 -760l522 -776h-309l-383 571l-352 -571h-289l494 791z" />
    <glyph glyph-name="uni0426" unicode="&#x426;" horiz-adv-x="1665" 
d="M1346 0h-1141v1536h266v-1290h682v1290h266v-1290h185v-615h-258v369z" />
    <glyph glyph-name="uni0427" unicode="&#x427;" horiz-adv-x="1501" 
d="M659 569c-184.667 0 -321.832 43.499 -411.499 130.499s-134.5 207.5 -134.5 361.5v475h266v-403c0 -111.333 27.167 -192.166 81.5 -242.499s135.833 -75.5 244.5 -75.5c98.667 0 207 23.333 325 70v651h266v-1536h-266v643c-126.667 -49.333 -250.334 -74 -371.001 -74
z" />
    <glyph glyph-name="uni0428" unicode="&#x428;" horiz-adv-x="2191" 
d="M1987 0h-1782v1536h266v-1290h492v1290h266v-1290h491v1290h267v-1536z" />
    <glyph glyph-name="uni0429" unicode="&#x429;" horiz-adv-x="2232" 
d="M1913 0h-1708v1536h266v-1290h492v1290h266v-1290h491v1290h267v-1290h184v-615h-258v369z" />
    <glyph glyph-name="uni042A" unicode="&#x42a;" horiz-adv-x="1529" 
d="M934 0h-565v1290h-369v246h635v-500h299c160 0 289 -47 387 -141c98 -96 147 -221.667 147 -377c0 -154 -49 -279 -147 -375c-97.333 -95.333 -226.333 -143 -387 -143zM928 791h-293v-545h293c81.333 0 147.333 25.5 198 76.5s76 116.167 76 195.5
c0 82 -25.167 148 -75.5 198s-116.5 75 -198.5 75z" />
    <glyph glyph-name="uni042B" unicode="&#x42b;" horiz-adv-x="1986" 
d="M1782 0h-266v1536h266v-1536zM770 0l-565 0.000976562v1536h266v-500h299c160 0 289 -47 387 -141c98.667 -96.667 148 -222.334 148 -377.001c0 -153.333 -49.333 -278.333 -148 -375c-97.333 -95.333 -226.333 -143 -387 -143zM764 791.001h-293v-545h293
c81.333 0 147.333 25.5 198 76.5s76 116.167 76 195.5c0 82 -25.167 148 -75.5 198s-116.5 75 -198.5 75z" />
    <glyph glyph-name="uni042C" unicode="&#x42c;" horiz-adv-x="1366" 
d="M770 0l-565 0.000976562v1536h266v-500h299c160 0 289 -47 387 -141c98.667 -96.667 148 -222.334 148 -377.001c0 -153.333 -49.333 -278.333 -148 -375c-97.333 -95.333 -226.333 -143 -387 -143zM764 791.001h-293v-545h293c81.333 0 147.333 25.5 198 76.5
s76 116.167 76 195.5c0 82 -25.167 148 -75.5 198s-116.5 75 -198.5 75z" />
    <glyph glyph-name="uni042D" unicode="&#x42d;" horiz-adv-x="1628" 
d="M662 664l-0.00195312 245.001h577c-21.333 124.667 -70.666 224.167 -147.999 298.5s-179 111.5 -305 111.5c-122 0 -221.667 -32.667 -299 -98c-77.333 -66 -127.666 -146.667 -150.999 -242l-246 74c36 151.333 118.167 273 246.5 365s280.5 138 456.5 138
c150 0 280.5 -34.333 391.5 -103s194.667 -162 251 -280s84.5 -253 84.5 -405c0 -113.333 -17.5 -218.333 -52.5 -315s-84.667 -180 -149 -250s-144.333 -124.667 -240 -164s-201.167 -59 -316.5 -59c-184 0 -333 45.667 -447 137c-114.667 90 -189.667 209.333 -225 358
l258 74c22 -100.667 67.833 -180.834 137.5 -240.501s164.5 -89.5 284.5 -89.5c132.667 0 240.5 40 323.5 120s133.5 188.333 151.5 325h-583z" />
    <glyph glyph-name="uni042E" unicode="&#x42e;" horiz-adv-x="2342" 
d="M471 0l-265.999 -0.000976562v1536h266v-621h231c30.667 190.667 115.167 345.167 253.5 463.5s307.166 177.5 506.499 177.5c148.667 0 281.834 -33.833 399.501 -101.5s209.167 -161.5 274.5 -281.5s98 -255 98 -405s-32.667 -285 -98 -405
s-156.833 -213.833 -274.5 -281.5s-250.834 -101.5 -399.501 -101.5c-137.333 0 -262 29.333 -374 88s-202.167 140.334 -270.5 245.001s-108.833 223.667 -121.5 357h-225v-670zM1958 767.999c0 162 -45 293 -135 393c-92 100 -212.333 150 -361 150s-268 -50 -358 -150
c-91.333 -99.333 -137 -230.333 -137 -393s45.667 -293.667 137 -393c90 -100 209.333 -150 358 -150s269 50 361 150c90 100 135 231 135 393z" />
    <glyph glyph-name="uni042F" unicode="&#x42f;" horiz-adv-x="1501" 
d="M1296 1536v-1536h-266v606h-291l-403 -606h-299l420 633c-102 22 -183.167 70.5 -243.5 145.5s-90.5 172.5 -90.5 292.5c0 138.667 46.667 250.834 140 336.501s214 128.5 362 128.5h671zM633 845.999l397 0.00195312v450h-397c-70 0 -126.5 -20.833 -169.5 -62.5
s-64.5 -95.834 -64.5 -162.501s21.5 -120.834 64.5 -162.501s99.5 -62.5 169.5 -62.5z" />
    <glyph glyph-name="uni0430" unicode="&#x430;" horiz-adv-x="1126" 
d="M993 0l-217 -0.000976562l-16 147c-38.667 -52.667 -87.5 -93.667 -146.5 -123s-123.5 -44 -193.5 -44c-96.667 0 -176.167 26.833 -238.5 80.5s-93.5 127.834 -93.5 222.501c0 50.667 9.66699 95.5 29 134.5s47.333 71.5 84 97.5s77 47.5 121 64.5s95.667 31.5 155 43.5
l275 55c-16.667 106.667 -87 160 -211 160c-128 0 -204.667 -54 -230 -162l-225 43c16 96.667 65.833 175 149.5 235s191.5 90 323.5 90c134 0 239.833 -35.333 317.5 -106s116.5 -167 116.5 -289v-649zM336 296.999c0 -36 11.5 -63.834 34.5 -83.501
s53.833 -29.5 92.5 -29.5c36.667 0 72.167 6 106.5 18s65.5 29.333 93.5 52s50.5 52.5 67.5 89.5s25.5 78.833 25.5 125.5v25l-271 -62c-48.667 -9.33301 -85.667 -24.666 -111 -45.999s-38 -51 -38 -89z" />
    <glyph glyph-name="uni0431" unicode="&#x431;" horiz-adv-x="1271" 
d="M653 -20c-182.667 0 -321.832 62.167 -417.499 186.5s-143.5 296.833 -143.5 517.5c0 250.667 46.667 444.834 140 582.501s240.666 216.5 441.999 236.5l229 23c62.667 5.33301 125 16.333 187 33l28 -222c-47.333 -12 -120.333 -23.333 -219 -34l-227 -23
c-98 -8.66699 -173.833 -46.167 -227.5 -112.5s-87.167 -163.166 -100.5 -290.499c44.667 54.667 99.667 94.5 165 119.5s132.666 37.5 201.999 37.5c66.667 0 129.334 -11.833 188.001 -35.5s110 -57.334 154 -101.001s78.833 -98.5 104.5 -164.5s38.5 -139 38.5 -219
c0 -158.667 -50 -287.334 -150 -386.001s-231 -148 -393 -148zM653.002 827c-86 0 -155.167 -29 -207.5 -87s-78.5 -134 -78.5 -228c0 -91.333 26.167 -165.333 78.5 -222s121.5 -85 207.5 -85s155.333 28.333 208 85s79 130.667 79 222c0 94 -26.333 170 -79 228
s-122 87 -208 87z" />
    <glyph glyph-name="uni0432" unicode="&#x432;" horiz-adv-x="1103" 
d="M707 0h-553v1024h505c98 0 176.833 -22.5 236.5 -67.5s89.5 -110.5 89.5 -196.5c0 -108 -47 -184 -141 -228c125.333 -35.333 188 -116.333 188 -243c0 -90.667 -30 -161.5 -90 -212.5s-138.333 -76.5 -235 -76.5zM635 829h-244v-215h244c38 0 67.333 9.33301 88 28
s31 45 31 79c0 72 -39.667 108 -119 108zM391 197h268c84.667 0 127 36.667 127 110c0 37.333 -11 65.833 -33 85.5s-53.333 29.5 -94 29.5h-268v-225z" />
    <glyph glyph-name="uni0433" unicode="&#x433;" horiz-adv-x="927" 
d="M399 0h-245v1024h733v-215h-488v-809z" />
    <glyph glyph-name="uni0434" unicode="&#x434;" horiz-adv-x="1245" 
d="M281 -297h-246v512h100c32.667 25.333 57 75.833 73 151.5s26.667 186.167 32 331.5l10 326h801v-809h143v-512h-246v297h-667v-297zM481 809l-2 -107.001c-6 -231.333 -34.667 -393.666 -86 -486.999h414v594h-326z" />
    <glyph glyph-name="uni0435" unicode="&#x435;" horiz-adv-x="1191" 
d="M76 508c0 155.333 49.667 283.502 149 384.502s226.333 151.5 381 151.5c148 0 269 -45 363 -135c92.667 -90.667 139 -207.334 139 -350.001c0 -34.667 -3.33301 -71.334 -10 -110.001h-772c8.66699 -83.333 38.334 -146.5 89.001 -189.5s115.667 -64.5 195 -64.5
c68 0 125.667 13.833 173 41.5s77.666 64.834 90.999 111.501l228 -41c-21.333 -100 -77.833 -179.5 -169.5 -238.5s-199.167 -88.5 -322.5 -88.5c-164 0 -294 49.167 -390 147.5s-144 225.166 -144 380.499zM608 840.002c-75.333 0 -136.501 -16.833 -183.501 -50.5
s-77.167 -82.5 -90.5 -146.5h532c-13.333 64 -42.166 112.833 -86.499 146.5s-101.5 50.5 -171.5 50.5z" />
    <glyph glyph-name="uni0436" unicode="&#x436;" horiz-adv-x="1540" 
d="M20 1024h279l252 -385h102v385h234v-385h102l250 385h281l-336 -477l356 -547h-280l-269 416h-104v-416h-234v416h-106l-275 -416h-272l358 537z" />
    <glyph glyph-name="uni0437" unicode="&#x437;" horiz-adv-x="1044" 
d="M518 -20c-238 0 -394.331 86.668 -468.998 260.001l225 92c37.333 -98.667 120.666 -148 249.999 -148c61.333 0 109.166 11.5 143.499 34.5s51.5 54.5 51.5 94.5c0 66 -44.333 99 -133 99h-185v213h172c41.333 0 73.666 8.83301 96.999 26.5s35 41.5 35 71.5
c0 36.667 -17.333 65.334 -52 86.001s-81.667 31 -141 31c-56.667 0 -105 -12.167 -145 -36.5s-68 -60.833 -84 -109.5l-222 78c30 83.333 84.333 149.5 163 198.5s172.667 73.5 282 73.5c139.333 0 248.5 -27.667 327.5 -83s118.5 -127.333 118.5 -216
c0 -102 -53 -174.333 -159 -217c58.667 -16.667 103.334 -44.334 134.001 -83.001s46 -86.667 46 -144c0 -70.667 -21 -130.834 -63 -180.501s-96.5 -85.5 -163.5 -107.5s-143.167 -33 -228.5 -33z" />
    <glyph glyph-name="uni0438" unicode="&#x438;" horiz-adv-x="1222" 
d="M391 0h-237v1024h237v-674l440 674h238v-1024h-238v674z" />
    <glyph glyph-name="uni0439" unicode="&#x439;" horiz-adv-x="1222" 
d="M391 0h-237v1024h237v-674l440 674h238v-1024h-238v674zM618 1341c37.333 0 66.667 9.99902 88 29.999s32.333 49 33 87h217c-0.666992 -90 -32 -162.667 -94 -218s-142.333 -83 -241 -83s-179.167 27.667 -241.5 83s-93.833 128 -94.5 218h217
c0 -37.333 10.167 -66.166 30.5 -86.499s48.833 -30.5 85.5 -30.5z" />
    <glyph glyph-name="uni043A" unicode="&#x43a;" horiz-adv-x="1132" 
d="M154 0v1024h245v-377h111l299 377h293l-397 -481l417 -543h-297l-317 410h-109v-410h-245z" />
    <glyph glyph-name="uni043B" unicode="&#x43b;" horiz-adv-x="1185" 
d="M10 -4l29.002 212.999c13.333 -2.66699 26.333 -4 39 -4c21.333 0 38.333 2.66699 51 8s24.834 16.333 36.501 33s20.667 42.667 27 78s11.833 80.5 16.5 135.5s8.66699 125.833 12 212.5l15 352h796v-1024h-246v809h-313l-8 -191
c-4.66699 -99.333 -11.834 -183.666 -21.501 -252.999s-23 -129.5 -40 -180.5s-38.833 -91 -65.5 -120s-57.834 -50.333 -93.501 -64s-78.834 -20.5 -129.501 -20.5c-32.667 0 -67.667 5.33301 -105 16z" />
    <glyph glyph-name="uni043C" unicode="&#x43c;" horiz-adv-x="1458" 
d="M389 0h-235v1024h252l325 -444l322 444h252v-1024h-236v692l-313 -432h-54l-313 428v-688z" />
    <glyph glyph-name="uni043D" unicode="&#x43d;" horiz-adv-x="1230" 
d="M399 0h-245v1024h245v-387h432v387h246v-1024h-246v422h-432v-422z" />
    <glyph glyph-name="uni043E" unicode="&#x43e;" horiz-adv-x="1236" 
d="M618 1044c156.667 0 286.334 -50.333 389.001 -151s154 -227.667 154 -381s-51.333 -280.333 -154 -381s-232.334 -151 -389.001 -151s-286.167 50.333 -388.5 151s-153.5 227.667 -153.5 381s51.167 280.333 153.5 381s231.833 151 388.5 151zM618 819
c-86 0 -155.167 -28.333 -207.5 -85s-78.5 -130.667 -78.5 -222s26.167 -165.333 78.5 -222s121.5 -85 207.5 -85s155.333 28.333 208 85s79 130.667 79 222s-26.333 165.333 -79 222s-122 85 -208 85z" />
    <glyph glyph-name="uni043F" unicode="&#x43f;" horiz-adv-x="1214" 
d="M399 0h-245v1024h907v-1024h-246v809h-416v-809z" />
    <glyph glyph-name="uni0440" unicode="&#x440;" horiz-adv-x="1296" 
d="M154 -451v1475h225l12 -125c86 96.667 195.333 145 328 145c143.333 0 262.833 -50.5 358.5 -151.5s143.5 -227.833 143.5 -380.5s-47.833 -279.5 -143.5 -380.5s-215.167 -151.5 -358.5 -151.5c-124 0 -230.667 45.667 -320 137v-568h-245zM682 819
c-84.667 0 -153 -28.333 -205 -85s-78 -130.667 -78 -222s26 -165.333 78 -222s120.333 -85 205 -85s153 28.333 205 85s78 130.667 78 222s-26 165.333 -78 222s-120.333 85 -205 85z" />
    <glyph glyph-name="uni0441" unicode="&#x441;" horiz-adv-x="1140" 
d="M332 510c0 -92.667 25.0039 -166.668 75.0039 -222.001s116.333 -83 199 -83c65.333 0 119.833 16.667 163.5 50s72.5 78.666 86.5 135.999l236 -41c-18 -104 -72 -192 -162 -264c-88 -70.667 -196.667 -106 -326 -106c-152.667 0 -278.834 50.167 -378.501 150.5
s-149.5 226.833 -149.5 379.5c0 154 50.167 281.5 150.5 382.5s226.833 151.5 379.5 151.5c123.333 0 228.166 -33.167 314.499 -99.5s141.166 -154.5 164.499 -264.5l-239 -41c-13.333 56.667 -40.833 100.834 -82.5 132.501s-92.834 47.5 -153.501 47.5
c-82.667 0 -149.667 -28.167 -201 -84.5s-77 -131.166 -77 -224.499z" />
    <glyph glyph-name="uni0442" unicode="&#x442;" horiz-adv-x="983" 
d="M614 0h-245v809h-328v215h901v-215h-328v-809z" />
    <glyph glyph-name="uni0443" unicode="&#x443;" horiz-adv-x="1101" 
d="M446 0l-436 1024h273l292 -707l261 707h256l-566 -1475h-252z" />
    <glyph glyph-name="uni0444" unicode="&#x444;" horiz-adv-x="1445" 
d="M842 -451h-238v451c-154 5.33301 -280.5 55.166 -379.5 149.499s-148.5 215.166 -148.5 362.499s49.5 268.166 148.5 362.499s225.5 144.166 379.5 149.499v512h238v-512c154 -5.33301 280.5 -55.166 379.5 -149.499s148.5 -215.166 148.5 -362.499
s-49.5 -268.166 -148.5 -362.499s-225.5 -144.166 -379.5 -149.499v-451zM324 512c0 -90 24.333 -161.832 73 -215.499s117.667 -82.834 207 -87.501v606c-89.333 -4.66699 -158.333 -33.667 -207 -87s-73 -125.333 -73 -216zM1122 512.001
c0 90.667 -24.333 162.666 -73 215.999s-117.667 82.333 -207 87v-606c89.333 4.66699 158.333 33.834 207 87.501s73 125.5 73 215.5z" />
    <glyph glyph-name="uni0445" unicode="&#x445;" horiz-adv-x="1013" 
d="M0 1024h293l221 -313l205 313h272l-342 -506l365 -518h-289l-240 338l-213 -338h-264l340 532z" />
    <glyph glyph-name="uni0446" unicode="&#x446;" horiz-adv-x="1239" 
d="M942 0h-788v1024h245v-809h400v809h245v-809h144v-512h-246v297z" />
    <glyph glyph-name="uni0447" unicode="&#x447;" horiz-adv-x="1130" 
d="M485 332c-131.333 0 -229.666 29.832 -294.999 89.499s-98 142.5 -98 248.5v354h246v-293c0 -63.333 15.833 -109.166 47.5 -137.499s80.5 -42.5 146.5 -42.5c67.333 0 133.666 13 198.999 39v434h246v-1024h-246v379c-88 -31.333 -170 -47 -246 -47z" />
    <glyph glyph-name="uni0448" unicode="&#x448;" horiz-adv-x="1699" 
d="M1546 0h-1392v1024h245v-809h328v809h246v-809h327v809h246v-1024z" />
    <glyph glyph-name="uni0449" unicode="&#x449;" horiz-adv-x="1740" 
d="M1444 0h-1290v1024h245v-809h328v809h246v-809h327v809h246v-809h144v-512h-246v297z" />
    <glyph glyph-name="uni044A" unicode="&#x44a;" horiz-adv-x="1173" 
d="M735 0l-491 0.000976562v809h-234v215h479v-299h246c116.667 0 210.334 -33.333 281.001 -100s106 -154.334 106 -263.001c0 -108 -35.333 -195.333 -106 -262s-164.334 -100 -281.001 -100zM700 510.001h-211v-295h211c54.667 0 96 12.5 124 37.5s42 61.5 42 109.5
s-14 84.667 -42 110s-69.333 38 -124 38z" />
    <glyph glyph-name="uni044B" unicode="&#x44b;" horiz-adv-x="1533" 
d="M1380 0h-245v1024h245v-1024zM645 0l-491 0.000976562v1024h245v-299h246c116.667 0 210.334 -33.333 281.001 -100s106 -154.334 106 -263.001c0 -108 -35.333 -195.333 -106 -262s-164.334 -100 -281.001 -100zM610 510.001h-211v-295h211c54.667 0 96 12.5 124 37.5
s42 61.5 42 109.5s-14 84.667 -42 110s-69.333 38 -124 38z" />
    <glyph glyph-name="uni044C" unicode="&#x44c;" horiz-adv-x="1083" 
d="M645 0l-491 0.000976562v1024h245v-299h246c116.667 0 210.334 -33.333 281.001 -100s106 -154.334 106 -263.001c0 -108 -35.333 -195.333 -106 -262s-164.334 -100 -281.001 -100zM610 510.001h-211v-295h211c54.667 0 96 12.5 124 37.5s42 61.5 42 109.5
s-14 84.667 -42 110s-69.333 38 -124 38z" />
    <glyph glyph-name="uni044D" unicode="&#x44d;" horiz-adv-x="1150" 
d="M1075 514c0 -160 -44.668 -288.999 -134.001 -386.999s-217.333 -147 -384 -147c-128.667 0 -235.667 28.167 -321 84.5s-140.666 137.166 -165.999 242.499l231 66c32 -120 117.333 -180 256 -180c151.333 0 240.666 74.333 267.999 223h-338v205h334
c-16 64.667 -47.167 115.834 -93.5 153.501s-105.166 56.5 -176.499 56.5c-70.667 0 -128.334 -17.333 -173.001 -52s-73.667 -79.334 -87 -134.001l-225 62c26.667 100.667 82.334 182 167.001 244s190.667 93 318 93c107.333 0 201 -23 281 -69
s140.5 -108.833 181.5 -188.5s61.5 -170.5 61.5 -272.5z" />
    <glyph glyph-name="uni044E" unicode="&#x44e;" horiz-adv-x="1708" 
d="M399 0h-244.999v1024h245v-387h162c26.667 120.667 88 219 184 295c94 74.667 209 112 345 112c156.667 0 286.167 -50.333 388.5 -151s153.5 -227.667 153.5 -381s-51.167 -280.333 -153.5 -381s-231.833 -151 -388.5 -151c-142.667 0 -262.334 41.333 -359.001 124
c-98.667 82.667 -158 188.667 -178 318h-154v-422zM1090 819c-86 0 -155.333 -28.333 -208 -85s-79 -130.667 -79 -222s26.333 -165.333 79 -222s122 -85 208 -85s155.167 28.333 207.5 85s78.5 130.667 78.5 222s-26.167 165.333 -78.5 222s-121.5 85 -207.5 85z" />
    <glyph glyph-name="uni044F" unicode="&#x44f;" horiz-adv-x="1134" 
d="M84 692c0 98.667 33 178.667 99 240s152.333 92 259 92h539v-1024h-236v360h-170l-251 -360h-263l267 381c-76 22 -135.667 59.667 -179 113s-65 119.333 -65 198zM479 559h266v266h-266c-102 0 -153 -44.333 -153 -133s51 -133 153 -133z" />
    <glyph glyph-name="uni0451" unicode="&#x451;" horiz-adv-x="1191" 
d="M76 508c0 155.333 49.667 283.502 149 384.502s226.333 151.5 381 151.5c148 0 269 -45 363 -135c92.667 -90.667 139 -207.334 139 -350.001c0 -34.667 -3.33301 -71.334 -10 -110.001h-772c8.66699 -83.333 38.334 -146.5 89.001 -189.5s115.667 -64.5 195 -64.5
c68 0 125.667 13.833 173 41.5s77.666 64.834 90.999 111.501l228 -41c-21.333 -100 -77.833 -179.5 -169.5 -238.5s-199.167 -88.5 -322.5 -88.5c-164 0 -294 49.167 -390 147.5s-144 225.166 -144 380.499zM608 840.002c-75.333 0 -136.501 -16.833 -183.501 -50.5
s-77.167 -82.5 -90.5 -146.5h532c-13.333 64 -42.166 112.833 -86.499 146.5s-101.5 50.5 -171.5 50.5zM388.999 1208c-41.333 0 -75.5 13.5 -102.5 40.5s-40.5 60.833 -40.5 101.5s13.5 74.334 40.5 101.001s61.167 40 102.5 40c40 0 73.5 -13.333 100.5 -40
s40.5 -60.334 40.5 -101.001s-13.5 -74.5 -40.5 -101.5s-60.5 -40.5 -100.5 -40.5zM792.999 1208c-41.333 0 -75.666 13.5 -102.999 40.5s-41 60.833 -41 101.5s13.667 74.334 41 101.001s61.666 40 102.999 40c40 0 73.5 -13.333 100.5 -40s40.5 -60.334 40.5 -101.001
s-13.5 -74.5 -40.5 -101.5s-60.5 -40.5 -100.5 -40.5z" />
    <glyph glyph-name="uni0453" unicode="&#x453;" horiz-adv-x="927" 
d="M348 1178l195 278h321l-286 -278h-230zM399 0h-245v1024h733v-215h-488v-809z" />
    <glyph glyph-name="uni045E" unicode="&#x45e;" horiz-adv-x="1101" 
d="M446 0l-436 1024h273l292 -707l261 707h256l-566 -1475h-252zM567 1341c37.333 0 66.667 9.99902 88 29.999s32.333 49 33 87h217c-0.666992 -90 -32.167 -162.667 -94.5 -218s-142.833 -83 -241.5 -83s-179.167 27.667 -241.5 83s-93.833 128 -94.5 218h218
c0 -37.333 10.167 -66.166 30.5 -86.499s48.833 -30.5 85.5 -30.5z" />
    <glyph glyph-name="uni0490" unicode="&#x490;" horiz-adv-x="1210" 
d="M471 0h-266v1536h706v354h258v-600h-698v-1290z" />
    <glyph glyph-name="Wgrave" unicode="&#x1e80;" horiz-adv-x="1873" 
d="M559 346l348 672h56l356 -674l237 1192h267l-307 -1536h-281l-301 571l-295 -571h-281l-307 1536h268zM926 1690l-285 278h322l194 -278h-231z" />
    <glyph glyph-name="wgrave" unicode="&#x1e81;" horiz-adv-x="1366" 
d="M242 0l-211 1024h245l148 -733l242 473h43l241 -475l148 735h237l-211 -1024h-256l-182 362l-188 -362h-256zM672 1178l-285 278h322l194 -278h-231z" />
    <glyph glyph-name="Wacute" unicode="&#x1e82;" horiz-adv-x="1873" 
d="M559 346l348 672h56l356 -674l237 1192h267l-307 -1536h-281l-301 571l-295 -571h-281l-307 1536h268zM750 1690l194 278h322l-287 -278h-229z" />
    <glyph glyph-name="wacute" unicode="&#x1e83;" horiz-adv-x="1366" 
d="M242 0l-211 1024h245l148 -733l242 473h43l241 -475l148 735h237l-211 -1024h-256l-182 362l-188 -362h-256zM496 1178l194 278h322l-287 -278h-229z" />
    <glyph glyph-name="Wdieresis" unicode="&#x1e84;" horiz-adv-x="1873" 
d="M559 346l348 672h56l356 -674l237 1192h267l-307 -1536h-281l-301 571l-295 -571h-281l-307 1536h268zM735 1720c-41.333 0 -75.5 13.5 -102.5 40.5s-40.5 60.833 -40.5 101.5s13.5 74.334 40.5 101.001s61.167 40 102.5 40c40 0 73.667 -13.333 101 -40
s41 -60.334 41 -101.001s-13.667 -74.5 -41 -101.5s-61 -40.5 -101 -40.5zM1139 1720c-41.333 0 -75.666 13.5 -102.999 40.5s-41 60.833 -41 101.5s13.667 74.334 41 101.001s61.666 40 102.999 40c40 0 73.5 -13.333 100.5 -40s40.5 -60.334 40.5 -101.001
s-13.5 -74.5 -40.5 -101.5s-60.5 -40.5 -100.5 -40.5z" />
    <glyph glyph-name="wdieresis" unicode="&#x1e85;" horiz-adv-x="1366" 
d="M242 0l-211 1024h245l148 -733l242 473h43l241 -475l148 735h237l-211 -1024h-256l-182 362l-188 -362h-256zM481 1208c-41.333 0 -75.5 13.5 -102.5 40.5s-40.5 60.833 -40.5 101.5s13.5 74.334 40.5 101.001s61.167 40 102.5 40c40 0 73.667 -13.333 101 -40
s41 -60.334 41 -101.001s-13.667 -74.5 -41 -101.5s-61 -40.5 -101 -40.5zM885 1208c-41.333 0 -75.666 13.5 -102.999 40.5s-41 60.833 -41 101.5s13.667 74.334 41 101.001s61.666 40 102.999 40c40 0 73.5 -13.333 100.5 -40s40.5 -60.334 40.5 -101.001
s-13.5 -74.5 -40.5 -101.5s-60.5 -40.5 -100.5 -40.5z" />
    <glyph glyph-name="Ygrave" unicode="&#x1ef2;" horiz-adv-x="1427" 
d="M848 0h-266v662l-553 874h309l381 -618l383 618h297l-551 -872v-664zM705 1690l-285 278h321l195 -278h-231z" />
    <glyph glyph-name="ygrave" unicode="&#x1ef3;" horiz-adv-x="1101" 
d="M446 0l-436 1024h273l292 -707l261 707h256l-566 -1475h-252zM500 1178l-285 278h322l194 -278h-231z" />
    <glyph glyph-name="endash" unicode="&#x2013;" horiz-adv-x="1024" 
d="M983 485h-942v230h942v-230z" />
    <glyph glyph-name=".null" horiz-adv-x="0" 
 />
    <glyph glyph-name="nonmarkingreturn" horiz-adv-x="682" 
 />
    <glyph glyph-name="i001" 
d="M428 1346c0 -42.667 -14.333 -78.334 -43 -107.001s-65 -43 -109 -43c-43.333 0 -79.333 14.333 -108 43s-43 64.334 -43 107.001s14.167 78.167 42.5 106.5s64.5 42.5 108.5 42.5s80.333 -14.333 109 -43s43 -64 43 -106zM399 0h-245v1024h245v-1024z" />
    <glyph glyph-name="_226" horiz-adv-x="1232" 
d="M430 1178l195 278h321l-287 -278h-229z" />
    <glyph glyph-name="_227" horiz-adv-x="1232" 
d="M606 1178l-284 278h321l195 -278h-232z" />
    <glyph glyph-name="_228" horiz-adv-x="1232" 
d="M1010 1178h-254l-140 129l-139 -129h-254l258 278h269z" />
    <glyph glyph-name="_229" horiz-adv-x="1232" 
d="M618 1327l144 129h248l-260 -278h-269l-258 278h260z" />
    <glyph glyph-name="_230" horiz-adv-x="1232" 
d="M752 1186c-22.667 0 -44.833 5.33398 -66.5 16.001s-39.667 22.667 -54 36s-30.333 25.333 -48 36s-33.834 16 -48.501 16c-28 0 -48.333 -8.16699 -61 -24.5s-19 -42.833 -19 -79.5h-176c-4.66699 90.667 11 160 47 208s86.333 72 151 72c28 0 56.833 -8.33301 86.5 -25
s56.5 -33.334 80.5 -50.001s43.333 -25 58 -25c52 0 78 32 78 96h176c6.66699 -88 -8.66602 -156 -45.999 -204s-90 -72 -158 -72z" />
    <glyph glyph-name="_231" horiz-adv-x="1232" 
d="M416 1208c-41.333 0 -75.666 13.5 -102.999 40.5s-41 60.833 -41 101.5s13.667 74.334 41 101.001s61.666 40 102.999 40c40 0 73.5 -13.333 100.5 -40s40.5 -60.334 40.5 -101.001s-13.5 -74.5 -40.5 -101.5s-60.5 -40.5 -100.5 -40.5zM819 1208
c-41.333 0 -75.5 13.5 -102.5 40.5s-40.5 60.833 -40.5 101.5s13.5 74.334 40.5 101.001s61.167 40 102.5 40c40 0 73.667 -13.333 101 -40s41 -60.334 41 -101.001s-13.667 -74.5 -41 -101.5s-61 -40.5 -101 -40.5z" />
    <glyph glyph-name="_232" horiz-adv-x="1126" 
d="M551 1556c62.667 0 115.167 -18.667 157.5 -56s63.5 -84.666 63.5 -141.999c0 -58.667 -21.167 -107.834 -63.5 -147.501s-94.833 -59.5 -157.5 -59.5s-114.834 19.167 -156.501 57.5s-62.5 86.833 -62.5 145.5c0 58 20.833 106.167 62.5 144.5s93.834 57.5 156.501 57.5
zM459 1354c0 -27.333 8.5 -49.5 25.5 -66.5s39.167 -25.5 66.5 -25.5s49.5 8.5 66.5 25.5s25.5 39.833 25.5 68.5c0 26 -8.5 47.5 -25.5 64.5s-39.167 25.5 -66.5 25.5s-49.5 -8.5 -66.5 -25.5s-25.5 -39.167 -25.5 -66.5z" />
    <glyph glyph-name="_233" horiz-adv-x="1202" 
d="M735 1456l-211 -278h-198l143 278h266zM1073 1456l-231 -278h-203l154 278h280z" />
    <glyph glyph-name="_234" horiz-adv-x="1232" 
d="M614 1341c37.333 0 66.667 9.99902 88 29.999s32.333 49 33 87h217c-0.666992 -90 -32.167 -162.667 -94.5 -218s-142.833 -83 -241.5 -83s-179 27.667 -241 83s-93.333 128 -94 218h217c0 -37.333 10.167 -66.166 30.5 -86.499s48.833 -30.5 85.5 -30.5z" />
    <glyph glyph-name="_235" horiz-adv-x="1232" 
d="M307 1214v205h619v-205h-619z" />
    <glyph glyph-name="_236" horiz-adv-x="1003" 
d="M502 1196c-44 0 -80.333 14.333 -109 43s-43 64.334 -43 107.001c0 42 14.333 77.333 43 106s65 43 109 43s80.167 -14.167 108.5 -42.5s42.5 -63.833 42.5 -106.5s-14.333 -78.334 -43 -107.001s-64.667 -43 -108 -43z" />
    <glyph glyph-name="_237" horiz-adv-x="1024" 
d="M309 -451l123 330h256l-205 -330h-174z" />
    <glyph glyph-name="_238" horiz-adv-x="1052" 
d="M350 1149l205 330h174l-123 -330h-256z" />
    </font>
</defs>
</svg>
